<svg id="Layer_1" data-name="Layer 1" xmlns="http://www.w3.org/2000/svg" viewBox="0 0 995.81 310.03"><defs><style>.cls-1{fill:#fff;}</style></defs><title>b9lab-academy-logo</title><path class="cls-1" d="M303.36,8.19V301.37H10.17V8.19H303.36m8.43-8.42H1.75v310h310V-.24Z" transform="translate(-1.75 0.24)"/><path class="cls-1" d="M65.7,167.81v91c0,7.07,3.21,10.45,8.36,10.45a18.93,18.93,0,0,0,9.81-2.89l1.29,13.34a41.9,41.9,0,0,1-17.2,3.85c-11.41,0-19-5.79-19-20.9V167.81Z" transform="translate(-1.75 0.24)"/><path class="cls-1" d="M102.31,202.21c8-3.37,19.93-5.78,30.7-5.78,24,0,33.92,14,33.92,32v53.53H150.21v-9.16a37.7,37.7,0,0,1-26.84,10.77c-18,0-28.61-9.8-28.61-25.24,0-20.09,16.24-29.74,39.54-29.74a78.39,78.39,0,0,1,15.91,1.61v-1c0-12.54-6.11-18.48-18.48-18.48a64.64,64.64,0,0,0-26.36,5.95Zm26.2,68a32.68,32.68,0,0,0,21.7-8.52V242.24a54.89,54.89,0,0,0-12.54-1.45c-14.79,0-26.2,4.82-26.2,15.75C111.47,265.71,118.23,270.2,128.51,270.2Z" transform="translate(-1.75 0.24)"/><path class="cls-1" d="M225,283.55c-12.06,0-21.06-5-27-11.57v10H181.33V167.81H198v39.7a37.39,37.39,0,0,1,27-11.09c24.11,0,40.35,18,40.35,43.4S249.16,283.55,225,283.55Zm-4.34-72.5A32.46,32.46,0,0,0,198,221v38.42a32.94,32.94,0,0,0,22.66,9.49c16.72,0,27.65-11.9,27.65-29.1C248.36,222.79,237.43,211.05,220.71,211.05Z" transform="translate(-1.75 0.24)"/><path class="cls-1" d="M49,27.65H97.19c26.2,0,42.33,10.26,42.33,32.62,0,13.74-8.25,22.9-20.89,27.12,19.06,3.3,30.78,13.19,30.78,31.88,0,20.16-15,33-43.79,33H49ZM93.71,80.24c15.76,0,26-5.31,26-17.77,0-13.56-9.53-18.32-25.1-18.32H68.05v36.1Zm9.35,55.52c17.23,0,26-6.42,26-18.69,0-14.29-10.81-20-29.14-20H68.05v38.66Z" transform="translate(-1.75 0.24)"/><path class="cls-1" d="M208.43,25.81c-27.45,0-47.86,17.34-47.86,43.53,0,25.1,16.8,40.09,45.33,40.09,20.05,0,32.51-9.57,39-16.43-1.09,25.65-13.37,43.17-39,43.17-15,0-27.81-5.6-34.13-9.93L166,141.58c6.68,4.34,22.58,10.66,42.08,10.66,35.94,0,55.81-25.65,55.81-63C263.87,51.1,244,25.81,208.43,25.81Zm-.79,66.69C191.82,92.51,179,81.62,179,68.19s12.82-24.32,28.65-24.32,28.65,10.89,28.65,24.32S223.46,92.51,207.64,92.51Z" transform="translate(-1.75 0.24)"/><path class="cls-1" d="M444.68,114.3H397.29l-7.35,19.19H370.75L410,33.47h21.89l39.29,100H452ZM402.24,98.85h37.49L421,48.31Z" transform="translate(-1.75 0.24)"/><path class="cls-1" d="M514.68,59.26c14.09,0,22.64,6,27.74,12.89l-10.35,9.6a19.34,19.34,0,0,0-16.65-8.55c-13.2,0-21.89,9.9-21.89,24s8.69,24.14,21.89,24.14a19.69,19.69,0,0,0,16.65-8.55l10.35,9.6c-5.1,6.9-13.65,12.9-27.74,12.9-22,0-37.49-16-37.49-38.09C477.19,75.31,492.64,59.26,514.68,59.26Z" transform="translate(-1.75 0.24)"/><path class="cls-1" d="M600.44,125.69c-5.4,6.15-13.8,9.6-23.39,9.6-11.85,0-25.19-7.95-25.19-24,0-16.64,13.34-23.54,25.19-23.54,9.75,0,18.14,3.15,23.39,9.3V86.26c0-8.4-6.9-13.5-16.95-13.5-8.09,0-15.14,3-21.44,9.15L555.6,71C564,63,574.5,59.26,586,59.26c16,0,30.14,6.75,30.14,26.24v48H600.44Zm0-19.64c-3.6-5-10.35-7.5-17.25-7.5-8.85,0-15.45,5.1-15.45,13s6.6,12.9,15.45,12.9c6.9,0,13.65-2.55,17.25-7.5Z" transform="translate(-1.75 0.24)"/><path class="cls-1" d="M687.54,123.59a29.33,29.33,0,0,1-23.24,11.7c-18.59,0-32.24-14.1-32.24-37.94,0-23.39,13.49-38.09,32.24-38.09a29.06,29.06,0,0,1,23.24,11.85V33.47h15.74v100H687.54Zm0-40.64c-3.6-5.4-11.25-9.75-18.74-9.75-12.45,0-20.39,10-20.39,24.14s7.95,24,20.39,24c7.49,0,15.14-4.2,18.74-9.6Z" transform="translate(-1.75 0.24)"/><path class="cls-1" d="M755.89,59.26c21.74,0,35.69,16.64,35.69,39.44v3.75H735.65c1.2,10.95,9.45,19.94,23.1,19.94,7,0,15.44-2.85,20.54-7.95l7.2,10.35c-7.2,6.9-17.85,10.5-29.39,10.5-21.75,0-37.94-15.15-37.94-38.09C719.15,76.21,734.45,59.26,755.89,59.26ZM735.5,91.35h40.79c-.3-8.55-6.15-19.19-20.39-19.19C742.39,72.16,736.25,82.5,735.5,91.35Z" transform="translate(-1.75 0.24)"/><path class="cls-1" d="M895.93,86.26c0-7.8-3.45-13-11.85-13-7,0-13.64,4.95-16.8,9.6v50.69H851.54V86.26c0-7.8-3.45-13-12-13-6.9,0-13.34,4.95-16.65,9.75v50.54H807.15V61.06H822.9V71c3-4.5,12.6-11.69,23.55-11.69,10.8,0,17.39,5.4,19.79,13.34,4.2-6.6,13.8-13.34,24.6-13.34,13.34,0,20.84,7.2,20.84,21.89v52.34H895.93Z" transform="translate(-1.75 0.24)"/><path class="cls-1" d="M937.28,148.93c4.95,0,8.24-1.5,10.35-6.3l3.6-8.25L921.53,61.06h16.8l21.15,54.28,21.14-54.28h16.94l-34.94,85.47c-4.95,12.3-13.65,16.2-24.89,16.35a44.49,44.49,0,0,1-8.85-1l2.4-14.1A16.43,16.43,0,0,0,937.28,148.93Z" transform="translate(-1.75 0.24)"/><rect class="cls-1" x="368.53" y="177.67" width="625.6" height="8.42"/><path class="cls-1" d="M370.32,230.33h22.83c8.26,0,12.49,5.27,12.49,11.06,0,5.46-3.38,9.1-7.48,10,4.62.72,8.32,5.2,8.32,10.67,0,6.5-4.36,11.71-12.62,11.71H370.32Zm20.81,17.43c3.12,0,5.07-2,5.07-4.81s-2-4.75-5.07-4.75H379.55v9.56Zm.33,18.08c3.51,0,5.59-2,5.59-5.14,0-2.73-2-5.07-5.59-5.07h-11.9v10.21Z" transform="translate(-1.75 0.24)"/><path class="cls-1" d="M413.24,230.33h8.26v43.38h-8.26Z" transform="translate(-1.75 0.24)"/><path class="cls-1" d="M427.68,258c0-8.91,6.24-16.45,16.58-16.45s16.65,7.54,16.65,16.45-6.24,16.52-16.65,16.52S427.68,266.95,427.68,258Zm24.65,0c0-4.88-2.93-9.1-8.06-9.1s-8,4.23-8,9.1,2.86,9.17,8,9.17S452.33,262.91,452.33,258Z" transform="translate(-1.75 0.24)"/><path class="cls-1" d="M481.66,241.52c6.44,0,10.34,2.8,12.42,5.66l-5.4,5.07a7.62,7.62,0,0,0-6.63-3.38c-5,0-8.52,3.64-8.52,9.1s3.51,9.17,8.52,9.17a7.93,7.93,0,0,0,6.63-3.38l5.4,5c-2.08,2.93-6,5.72-12.42,5.72C472,274.49,465,267.66,465,258S472,241.52,481.66,241.52Z" transform="translate(-1.75 0.24)"/><path class="cls-1" d="M511.51,261.61l-3.77,4v8.06h-8.26V230.33h8.26v25.95l11.9-14h10.15l-12.42,14.24,12.81,17.17H519.84Z" transform="translate(-1.75 0.24)"/><path class="cls-1" d="M547.54,241.52c6.44,0,10.34,2.8,12.42,5.66l-5.4,5.07a7.62,7.62,0,0,0-6.63-3.38c-5,0-8.52,3.64-8.52,9.1s3.51,9.17,8.52,9.17a7.93,7.93,0,0,0,6.63-3.38l5.4,5c-2.08,2.93-6,5.72-12.42,5.72-9.69,0-16.65-6.83-16.65-16.52S537.85,241.52,547.54,241.52Z" transform="translate(-1.75 0.24)"/><path class="cls-1" d="M586.63,254.59c0-4.36-2.28-5.72-5.85-5.72a9.15,9.15,0,0,0-7.15,3.71v21.14h-8.26V230.33h8.26V246.4a14.53,14.53,0,0,1,11.06-4.88c6.89,0,10.21,3.77,10.21,9.89v22.31h-8.26Z" transform="translate(-1.75 0.24)"/><path class="cls-1" d="M621.95,270.46c-2.15,2.54-5.85,4-10,4-5,0-10.93-3.38-10.93-10.41,0-7.35,5.92-10,10.93-10,4.16,0,7.87,1.3,10,3.84v-4.36c0-3.19-2.73-5.27-6.89-5.27a13.22,13.22,0,0,0-9.17,3.71l-3.12-5.53a20.61,20.61,0,0,1,13.72-4.94c7.15,0,13.72,2.86,13.72,11.9v20.29h-8.26Zm0-8.19c-1.37-1.82-4-2.73-6.63-2.73-3.25,0-5.92,1.69-5.92,4.75s2.67,4.62,5.92,4.62c2.67,0,5.27-.91,6.63-2.73Z" transform="translate(-1.75 0.24)"/><path class="cls-1" d="M637.56,233.32a4.94,4.94,0,1,1,4.94,4.94A5,5,0,0,1,637.56,233.32Zm.84,9h8.26v31.41H638.4Z" transform="translate(-1.75 0.24)"/><path class="cls-1" d="M676.06,254.72c0-4.36-2.28-5.85-5.79-5.85a8.94,8.94,0,0,0-7.15,3.71v21.14h-8.26V242.3h8.26v4.1a14.38,14.38,0,0,1,11-4.88c6.89,0,10.21,3.9,10.21,10v22.18h-8.26Z" transform="translate(-1.75 0.24)"/><path class="cls-1" d="M723.41,241.52c9.37,0,15.74,7,15.74,17.3v1.82H715.8c.52,4,3.71,7.28,9,7.28a12.84,12.84,0,0,0,8.39-3.12l3.64,5.33c-3.12,2.86-8.06,4.36-12.94,4.36-9.56,0-16.78-6.44-16.78-16.52C707.15,248.87,713.85,241.52,723.41,241.52ZM715.67,255h15.48a7.28,7.28,0,0,0-7.74-7C718.27,248.09,716.06,251.92,715.67,255Z" transform="translate(-1.75 0.24)"/><path class="cls-1" d="M766.72,269.68a12.2,12.2,0,0,1-9.69,4.81c-7.93,0-13.92-6-13.92-16.45,0-10.28,5.92-16.52,13.92-16.52a12.1,12.1,0,0,1,9.69,4.81v-16H775v43.38h-8.32Zm0-17.23a9,9,0,0,0-7.15-3.58c-4.68,0-7.93,3.71-7.93,9.17s3.25,9.1,7.93,9.1a9,9,0,0,0,7.15-3.58Z" transform="translate(-1.75 0.24)"/><path class="cls-1" d="M804.44,269.74a14.7,14.7,0,0,1-11.06,4.75c-6.89,0-10.15-3.77-10.15-9.88V242.3h8.26v19.05c0,4.36,2.28,5.79,5.79,5.79a9.25,9.25,0,0,0,7.15-3.58V242.3h8.26v31.41h-8.26Z" transform="translate(-1.75 0.24)"/><path class="cls-1" d="M835.53,241.52c6.44,0,10.34,2.8,12.42,5.66l-5.4,5.07a7.62,7.62,0,0,0-6.63-3.38c-5,0-8.52,3.64-8.52,9.1s3.51,9.17,8.52,9.17a7.93,7.93,0,0,0,6.63-3.38l5.4,5c-2.08,2.93-6,5.72-12.42,5.72-9.69,0-16.65-6.83-16.65-16.52S825.84,241.52,835.53,241.52Z" transform="translate(-1.75 0.24)"/><path class="cls-1" d="M872.21,270.46c-2.15,2.54-5.85,4-10,4-5,0-10.93-3.38-10.93-10.41,0-7.35,5.92-10,10.93-10,4.16,0,7.87,1.3,10,3.84v-4.36c0-3.19-2.73-5.27-6.89-5.27a13.22,13.22,0,0,0-9.17,3.71L853,246.46a20.61,20.61,0,0,1,13.72-4.94c7.15,0,13.72,2.86,13.72,11.9v20.29h-8.26Zm0-8.19c-1.37-1.82-4-2.73-6.63-2.73-3.25,0-5.92,1.69-5.92,4.75s2.67,4.62,5.92,4.62c2.67,0,5.27-.91,6.63-2.73Z" transform="translate(-1.75 0.24)"/><path class="cls-1" d="M890.3,265.91V249.52h-5.2V242.3h5.2v-8.58h8.32v8.58H905v7.22h-6.37v14.18c0,2,1,3.45,2.86,3.45a4.51,4.51,0,0,0,2.86-.91l1.76,6.24c-1.24,1.11-3.45,2-6.89,2C893.42,274.49,890.3,271.5,890.3,265.91Z" transform="translate(-1.75 0.24)"/><path class="cls-1" d="M909.81,233.32a4.94,4.94,0,1,1,4.94,4.94A5,5,0,0,1,909.81,233.32Zm.84,9h8.26v31.41h-8.26Z" transform="translate(-1.75 0.24)"/><path class="cls-1" d="M925.09,258c0-8.91,6.24-16.45,16.58-16.45s16.65,7.54,16.65,16.45-6.24,16.52-16.65,16.52S925.09,266.95,925.09,258Zm24.65,0c0-4.88-2.93-9.1-8.06-9.1s-8,4.23-8,9.1,2.86,9.17,8,9.17S949.74,262.91,949.74,258Z" transform="translate(-1.75 0.24)"/><path class="cls-1" d="M985.64,254.72c0-4.36-2.28-5.85-5.79-5.85a8.94,8.94,0,0,0-7.15,3.71v21.14h-8.26V242.3h8.26v4.1a14.38,14.38,0,0,1,11-4.88c6.89,0,10.21,3.9,10.21,10v22.18h-8.26Z" transform="translate(-1.75 0.24)"/></svg>