<svg xmlns="http://www.w3.org/2000/svg" viewBox="0 0 1255.499 390.884"><defs><style>.cls-1{fill:#fff;}</style></defs><title>007Asset 2</title><g id="Layer_2" data-name="Layer 2"><g id="Layer_2-2" data-name="Layer 2"><path class="cls-1" d="M380.264,10.619V380.262H10.623V10.619H380.264M390.888,0H0V390.884H390.888V0Z"/><path class="cls-1" d="M80.623,211.873V326.581c0,8.915,4.051,13.171,10.537,13.171a23.868,23.868,0,0,0,12.364-3.646l1.62,16.823a52.829,52.829,0,0,1-21.685,4.86c-14.39,0-23.915-7.3-23.915-26.345V211.873Z"/><path class="cls-1" d="M126.789,255.238c10.132-4.253,25.128-7.292,38.705-7.292,30.2,0,42.761,17.632,42.761,40.331v67.486H187.179V344.211a47.533,47.533,0,0,1-33.843,13.578c-22.7,0-36.074-12.359-36.074-31.82,0-25.329,20.47-37.492,49.854-37.492a98.819,98.819,0,0,1,20.063,2.027V289.29c0-15.807-7.7-23.306-23.305-23.306a81.508,81.508,0,0,0-33.236,7.5Zm33.033,85.728a41.2,41.2,0,0,0,27.357-10.738V305.706a69.216,69.216,0,0,0-15.807-1.826c-18.645,0-33.035,6.079-33.035,19.862C138.337,335.293,146.851,340.966,159.822,340.966Z"/><path class="cls-1" d="M281.533,357.789c-15.2,0-26.549-6.282-34.046-14.591v12.565h-21.08V211.873h21.08v50.056a47.14,47.14,0,0,1,34.046-13.983c30.4,0,50.869,22.7,50.869,54.72S311.932,357.789,281.533,357.789Zm-5.473-91.4c-11.757,0-22.5,6.084-28.573,12.563v48.437a41.531,41.531,0,0,0,28.573,11.96c21.082,0,34.859-15,34.859-36.683C310.919,281.185,297.142,266.389,276.06,266.389Z"/><path class="cls-1" d="M59.566,35.154h60.762c33.035,0,53.366,12.938,53.366,41.125,0,17.323-10.4,28.878-26.337,34.19,24.027,4.158,38.813,16.635,38.813,40.2,0,25.412-18.944,41.585-55.216,41.585H59.566Zm56.371,66.305c19.869,0,32.807-6.7,32.807-22.409,0-17.1-12.013-23.1-31.651-23.1h-33.5v45.511Zm11.783,70c21.719,0,32.805-8.089,32.805-23.565,0-18.021-13.63-25.18-36.732-25.18h-40.2v48.745Z"/><path class="cls-1" d="M260.576,32.843c-34.613,0-60.345,21.862-60.345,54.878,0,31.652,21.179,50.549,57.153,50.549,25.281,0,40.992-12.065,49.191-20.72-1.372,32.334-16.856,54.423-49.191,54.423-18.9,0-35.064-7.057-43.033-12.524L207.064,178.8c8.424,5.467,28.463,13.436,53.058,13.436,45.314,0,70.362-32.334,70.362-79.47C330.484,64.722,305.436,32.843,260.576,32.843Zm-.991,84.086c-19.949,0-36.119-13.726-36.119-30.654s16.17-30.66,36.119-30.66,36.12,13.726,36.12,30.66S279.534,116.929,259.585,116.929Z"/><path class="cls-1" d="M558.441,159.209H498.7l-9.266,24.2h-24.2l49.538-126.1h27.6l49.538,126.1h-24.2Zm-53.5-19.471H552.2L528.569,76.022Z"/><path class="cls-1" d="M646.7,89.825c17.768,0,28.55,7.563,34.975,16.256l-13.044,12.1a24.382,24.382,0,0,0-20.987-10.775c-16.638,0-27.6,12.478-27.6,30.25s10.962,30.438,27.6,30.438a24.831,24.831,0,0,0,20.987-10.775l13.044,12.1c-6.425,8.7-17.207,16.259-34.975,16.259-27.794,0-47.265-20.228-47.265-48.022C599.43,110.053,618.9,89.825,646.7,89.825Z"/><path class="cls-1" d="M754.817,173.578c-6.806,7.754-17.393,12.1-29.493,12.1-14.938,0-31.763-10.022-31.763-30.25,0-20.984,16.825-29.685,31.763-29.685,12.287,0,22.874,3.973,29.493,11.726V123.856c0-10.587-8.7-17.019-21.369-17.019-10.206,0-19.094,3.781-27.031,11.535l-8.131-13.8c10.587-10.018,23.825-14.743,38.381-14.743,20.232,0,38,8.506,38,33.084v60.5h-19.85Zm0-24.765c-4.537-6.241-13.043-9.457-21.744-9.457-11.156,0-19.475,6.432-19.475,16.45,0,9.832,8.319,16.26,19.475,16.26,8.7,0,17.207-3.216,21.744-9.453Z"/><path class="cls-1" d="M864.632,170.931a36.977,36.977,0,0,1-29.306,14.747c-23.444,0-40.643-17.772-40.643-47.834,0-29.494,17.012-48.019,40.643-48.019,11.343,0,21.931,5.294,29.306,14.934V57.306h19.85v126.1h-19.85Zm0-51.238c-4.537-6.806-14.181-12.287-23.631-12.287-15.694,0-25.712,12.669-25.712,30.438,0,17.584,10.018,30.25,25.712,30.25,9.45,0,19.094-5.294,23.631-12.1Z"/><path class="cls-1" d="M950.809,89.825c27.412,0,44.993,20.984,44.993,49.722v4.728H925.284c1.512,13.8,11.912,25.144,29.119,25.144,8.88,0,19.468-3.594,25.9-10.019l9.075,13.044c-9.075,8.7-22.5,13.234-37.057,13.234-27.419,0-47.831-19.1-47.831-48.022C904.49,111.187,923.771,89.825,950.809,89.825ZM925.1,130.281h51.425c-.381-10.775-7.757-24.2-25.712-24.2C933.79,106.081,926.04,119.128,925.1,130.281Z"/><path class="cls-1" d="M1127.361,123.856c0-9.831-4.35-16.45-14.938-16.45-8.888,0-17.2,6.237-21.175,12.1v63.9H1071.4V123.856c0-9.831-4.35-16.45-15.125-16.45-8.7,0-16.824,6.237-20.987,12.287v63.716h-19.85V92.094h19.85v12.474c3.781-5.668,15.881-14.743,29.688-14.743,13.612,0,21.924,6.806,24.949,16.825,5.3-8.319,17.4-16.825,31.013-16.825,16.825,0,26.275,9.075,26.275,27.6v65.984h-19.85Z"/><path class="cls-1" d="M1179.5,202.881c6.237,0,10.393-1.887,13.044-7.937l4.537-10.4-37.438-92.45h21.175l26.663,68.437,26.656-68.437H1255.5l-44.05,107.762c-6.237,15.507-17.207,20.419-31.381,20.61a56.123,56.123,0,0,1-11.157-1.322l3.025-17.775A20.722,20.722,0,0,0,1179.5,202.881Z"/><path class="cls-1" d="M485.906,303.924v14.7h-7.032v-14.7l-13.829-23.25h6.218a2.21,2.21,0,0,1,1.457.447,3.778,3.778,0,0,1,.906,1.128l6.927,12.674q.6,1.13,1.063,2.126t.826,1.994q.342-1,.788-1.994t1.023-2.126l6.9-12.674a3.488,3.488,0,0,1,.865-1.076,2.171,2.171,0,0,1,1.47-.5h6.246Z"/><path class="cls-1" d="M508.58,291.276a14.691,14.691,0,0,1,5.445.971,11.924,11.924,0,0,1,4.2,2.755,12.1,12.1,0,0,1,2.69,4.356,18.027,18.027,0,0,1,0,11.52,12.354,12.354,0,0,1-2.69,4.382,11.733,11.733,0,0,1-4.2,2.782,14.691,14.691,0,0,1-5.445.971,14.864,14.864,0,0,1-5.485-.971,11.719,11.719,0,0,1-4.212-2.782,12.511,12.511,0,0,1-2.7-4.382,17.795,17.795,0,0,1,0-11.52,12.255,12.255,0,0,1,2.7-4.356,11.91,11.91,0,0,1,4.212-2.755A14.864,14.864,0,0,1,508.58,291.276Zm0,22.752a5.7,5.7,0,0,0,4.972-2.257q1.615-2.257,1.615-6.613t-1.615-6.639a5.675,5.675,0,0,0-4.972-2.283,5.789,5.789,0,0,0-5.052,2.3q-1.641,2.3-1.64,6.626t1.64,6.6A5.814,5.814,0,0,0,508.58,314.028Z"/><path class="cls-1" d="M550.014,291.7V318.62h-3.963a1.527,1.527,0,0,1-1.627-1.181l-.446-2.152A14.44,14.44,0,0,1,540.331,318a10.059,10.059,0,0,1-4.7,1.037,9.548,9.548,0,0,1-3.9-.748,7.807,7.807,0,0,1-2.848-2.113,9.26,9.26,0,0,1-1.745-3.241,13.73,13.73,0,0,1-.59-4.133V291.7h6.482v17.109a5.753,5.753,0,0,0,1.141,3.819,4.231,4.231,0,0,0,3.424,1.351,6.857,6.857,0,0,0,3.15-.748,11.025,11.025,0,0,0,2.781-2.06V291.7Z"/><path class="cls-1" d="M562.531,296.367a11.61,11.61,0,0,1,2.992-3.792,6.379,6.379,0,0,1,4.094-1.378,5.011,5.011,0,0,1,2.991.813l-.42,4.856a1.261,1.261,0,0,1-.381.669,1.05,1.05,0,0,1-.669.2,7.592,7.592,0,0,1-1.168-.131,9.051,9.051,0,0,0-1.508-.131,5.429,5.429,0,0,0-1.916.315,4.793,4.793,0,0,0-1.508.905,6.183,6.183,0,0,0-1.182,1.431,13.885,13.885,0,0,0-.957,1.915V318.62h-6.482V291.7h3.8a1.566,1.566,0,0,1,1.915,1.627Z"/><path class="cls-1" d="M594.126,295a13.346,13.346,0,0,1,3.607-2.715,9.822,9.822,0,0,1,4.527-1.011,9.454,9.454,0,0,1,4.211.919,9,9,0,0,1,3.2,2.637,12.4,12.4,0,0,1,2.034,4.159,19.67,19.67,0,0,1,.709,5.484,20.441,20.441,0,0,1-.814,5.957,13.688,13.688,0,0,1-2.322,4.579,10.367,10.367,0,0,1-8.359,4,9.678,9.678,0,0,1-2.283-.249,8.47,8.47,0,0,1-1.888-.695,7.565,7.565,0,0,1-1.588-1.089,13.3,13.3,0,0,1-1.378-1.431l-.288,1.811a1.638,1.638,0,0,1-.538.971,1.676,1.676,0,0,1-1.037.289h-4.278v-39h6.483Zm0,16.637a6.36,6.36,0,0,0,2.4,1.89,6.956,6.956,0,0,0,2.742.551,6.482,6.482,0,0,0,2.691-.538,5.126,5.126,0,0,0,2.033-1.679,8.334,8.334,0,0,0,1.286-2.913,17.573,17.573,0,0,0,.446-4.239q0-4.434-1.47-6.416a4.941,4.941,0,0,0-4.224-1.981,6.1,6.1,0,0,0-3.254.853,10.63,10.63,0,0,0-2.65,2.4Z"/><path class="cls-1" d="M623.987,279.625v39h-6.482v-39Z"/><path class="cls-1" d="M642.382,291.276a14.693,14.693,0,0,1,5.446.971,11.933,11.933,0,0,1,4.2,2.755,12.088,12.088,0,0,1,2.689,4.356,18.009,18.009,0,0,1,0,11.52,12.338,12.338,0,0,1-2.689,4.382,11.742,11.742,0,0,1-4.2,2.782,14.693,14.693,0,0,1-5.446.971,14.863,14.863,0,0,1-5.484-.971,11.719,11.719,0,0,1-4.212-2.782,12.511,12.511,0,0,1-2.7-4.382,17.795,17.795,0,0,1,0-11.52,12.255,12.255,0,0,1,2.7-4.356,11.91,11.91,0,0,1,4.212-2.755A14.863,14.863,0,0,1,642.382,291.276Zm0,22.752a5.7,5.7,0,0,0,4.973-2.257q1.614-2.257,1.614-6.613t-1.614-6.639a5.675,5.675,0,0,0-4.973-2.283,5.787,5.787,0,0,0-5.051,2.3q-1.641,2.3-1.64,6.626t1.64,6.6A5.813,5.813,0,0,0,642.382,314.028Z"/><path class="cls-1" d="M679.908,297.39a3.237,3.237,0,0,1-.565.577,1.293,1.293,0,0,1-.8.21,1.777,1.777,0,0,1-.971-.3q-.473-.3-1.128-.681a8.413,8.413,0,0,0-1.562-.683,7.176,7.176,0,0,0-2.244-.3,6.861,6.861,0,0,0-2.991.617,5.681,5.681,0,0,0-2.139,1.771,7.99,7.99,0,0,0-1.272,2.8,15,15,0,0,0-.42,3.713,14.515,14.515,0,0,0,.459,3.831,8.183,8.183,0,0,0,1.325,2.821,5.71,5.71,0,0,0,2.1,1.733,6.368,6.368,0,0,0,2.781.59,6.892,6.892,0,0,0,2.506-.38,7.911,7.911,0,0,0,1.614-.84q.657-.459,1.142-.84a1.717,1.717,0,0,1,1.089-.381,1.313,1.313,0,0,1,1.18.6l1.864,2.362a11.755,11.755,0,0,1-2.335,2.112,12.611,12.611,0,0,1-2.612,1.365,13.284,13.284,0,0,1-2.782.721,19.564,19.564,0,0,1-2.847.21,11.942,11.942,0,0,1-4.7-.931,11.1,11.1,0,0,1-3.857-2.716A12.97,12.97,0,0,1,660.134,311a16.9,16.9,0,0,1-.958-5.892,17.107,17.107,0,0,1,.854-5.5,12.425,12.425,0,0,1,2.506-4.383,11.5,11.5,0,0,1,4.093-2.9,14.1,14.1,0,0,1,5.616-1.05,13.371,13.371,0,0,1,5.288.971,12.918,12.918,0,0,1,4.08,2.782Z"/><path class="cls-1" d="M692.4,279.625v22.332h1.207a2.576,2.576,0,0,0,1.036-.171,2.134,2.134,0,0,0,.775-.7l6.691-8.266a3.082,3.082,0,0,1,.932-.839,2.669,2.669,0,0,1,1.325-.289H710.3l-8.372,10a6.942,6.942,0,0,1-1.942,1.81,5.165,5.165,0,0,1,.984.919,12.424,12.424,0,0,1,.827,1.128l8.974,13.069h-5.851a3.163,3.163,0,0,1-1.312-.249,2.028,2.028,0,0,1-.919-.906l-6.875-10.208a1.939,1.939,0,0,0-.761-.787,2.9,2.9,0,0,0-1.181-.184H692.4V318.62h-6.482v-39Z"/><path class="cls-1" d="M731.892,297.39a3.235,3.235,0,0,1-.564.577,1.3,1.3,0,0,1-.8.21,1.779,1.779,0,0,1-.971-.3q-.471-.3-1.128-.681a8.4,8.4,0,0,0-1.561-.683,7.184,7.184,0,0,0-2.244-.3,6.865,6.865,0,0,0-2.992.617,5.671,5.671,0,0,0-2.138,1.771,7.991,7.991,0,0,0-1.273,2.8,15,15,0,0,0-.42,3.713,14.557,14.557,0,0,0,.459,3.831,8.166,8.166,0,0,0,1.326,2.821,5.707,5.707,0,0,0,2.1,1.733,6.368,6.368,0,0,0,2.781.59,6.885,6.885,0,0,0,2.506-.38,7.948,7.948,0,0,0,1.615-.84q.656-.459,1.141-.84a1.719,1.719,0,0,1,1.089-.381,1.316,1.316,0,0,1,1.181.6l1.863,2.362a11.728,11.728,0,0,1-2.335,2.112,12.629,12.629,0,0,1-2.611,1.365,13.292,13.292,0,0,1-2.783.721,19.561,19.561,0,0,1-2.846.21,11.947,11.947,0,0,1-4.7-.931,11.117,11.117,0,0,1-3.857-2.716A12.968,12.968,0,0,1,712.119,311a16.875,16.875,0,0,1-.958-5.892,17.107,17.107,0,0,1,.853-5.5,12.456,12.456,0,0,1,2.506-4.383,11.5,11.5,0,0,1,4.094-2.9,14.1,14.1,0,0,1,5.615-1.05,13.364,13.364,0,0,1,5.288.971,12.918,12.918,0,0,1,4.08,2.782Z"/><path class="cls-1" d="M744.382,294.583a14.055,14.055,0,0,1,3.464-2.388,10.041,10.041,0,0,1,4.435-.919,9.647,9.647,0,0,1,3.91.748,7.71,7.71,0,0,1,2.847,2.1,9.222,9.222,0,0,1,1.732,3.227,13.708,13.708,0,0,1,.59,4.133V318.62h-6.481V301.484a5.8,5.8,0,0,0-1.128-3.818,4.227,4.227,0,0,0-3.439-1.352,6.738,6.738,0,0,0-3.148.762,11.254,11.254,0,0,0-2.782,2.072V318.62H737.9v-39h6.482Z"/><path class="cls-1" d="M766.871,295.449A15.977,15.977,0,0,1,778.05,291.2a10.943,10.943,0,0,1,4.225.774,8.929,8.929,0,0,1,3.148,2.153,9.194,9.194,0,0,1,1.956,3.293,12.654,12.654,0,0,1,.669,4.2v17h-2.939a2.966,2.966,0,0,1-1.417-.276,1.9,1.9,0,0,1-.787-1.115l-.577-1.942a23.541,23.541,0,0,1-2,1.614,11.809,11.809,0,0,1-2.021,1.168,10.939,10.939,0,0,1-2.243.722,12.958,12.958,0,0,1-2.638.249,10.371,10.371,0,0,1-3.148-.459,6.924,6.924,0,0,1-2.493-1.378,6.16,6.16,0,0,1-1.627-2.284,8.088,8.088,0,0,1-.577-3.174,6.337,6.337,0,0,1,.34-2.035,5.951,5.951,0,0,1,1.116-1.928,9.21,9.21,0,0,1,2.007-1.732,13.088,13.088,0,0,1,3.031-1.417,26.246,26.246,0,0,1,4.185-.984,41.681,41.681,0,0,1,5.459-.459v-1.575a5.9,5.9,0,0,0-1.155-4,4.228,4.228,0,0,0-3.332-1.3,7.9,7.9,0,0,0-2.611.368,10.864,10.864,0,0,0-1.825.826q-.786.461-1.429.826a2.815,2.815,0,0,1-1.431.369,1.867,1.867,0,0,1-1.154-.355,2.95,2.95,0,0,1-.761-.827Zm14.853,11.676a35.807,35.807,0,0,0-4.723.486,12.552,12.552,0,0,0-3.071.906,4.034,4.034,0,0,0-1.653,1.285,3.181,3.181,0,0,0,.512,4.041,4.372,4.372,0,0,0,2.636.736,7.7,7.7,0,0,0,3.452-.722,10.283,10.283,0,0,0,2.847-2.191Z"/><path class="cls-1" d="M801.746,283.849a3.713,3.713,0,0,1-.341,1.575,4.284,4.284,0,0,1-2.231,2.165,4.057,4.057,0,0,1-1.627.328,3.9,3.9,0,0,1-1.587-.328,4.159,4.159,0,0,1-1.3-.88,4.222,4.222,0,0,1-.879-1.285,3.8,3.8,0,0,1-.328-1.575,4.047,4.047,0,0,1,.328-1.627,4.109,4.109,0,0,1,2.178-2.19,3.9,3.9,0,0,1,1.587-.328,4.057,4.057,0,0,1,1.627.328,4.322,4.322,0,0,1,1.326.879,4.238,4.238,0,0,1,.9,1.311A3.958,3.958,0,0,1,801.746,283.849Zm-.893,7.847V318.62h-6.508V291.7Z"/><path class="cls-1" d="M813.528,295a17.532,17.532,0,0,1,1.719-1.508,10.566,10.566,0,0,1,6.6-2.218,9.644,9.644,0,0,1,3.91.748,7.71,7.71,0,0,1,2.847,2.1,9.223,9.223,0,0,1,1.733,3.227,13.74,13.74,0,0,1,.589,4.133V318.62h-6.481V301.484a5.8,5.8,0,0,0-1.128-3.818,4.225,4.225,0,0,0-3.438-1.352,6.742,6.742,0,0,0-3.149.762,11.268,11.268,0,0,0-2.781,2.072V318.62h-6.483V291.7h3.963a1.593,1.593,0,0,1,1.654,1.18Z"/><path class="cls-1" d="M869.107,297.39a3.235,3.235,0,0,1-.564.577,1.3,1.3,0,0,1-.8.21,1.779,1.779,0,0,1-.971-.3q-.471-.3-1.128-.681a8.4,8.4,0,0,0-1.561-.683,7.187,7.187,0,0,0-2.245-.3,6.864,6.864,0,0,0-2.991.617,5.671,5.671,0,0,0-2.138,1.771,7.973,7.973,0,0,0-1.273,2.8,15,15,0,0,0-.42,3.713,14.557,14.557,0,0,0,.459,3.831,8.183,8.183,0,0,0,1.325,2.821,5.718,5.718,0,0,0,2.1,1.733,6.368,6.368,0,0,0,2.781.59,6.892,6.892,0,0,0,2.506-.38,7.911,7.911,0,0,0,1.614-.84q.657-.459,1.142-.84a1.719,1.719,0,0,1,1.089-.381,1.316,1.316,0,0,1,1.181.6l1.863,2.362a11.728,11.728,0,0,1-2.335,2.112,12.629,12.629,0,0,1-2.611,1.365,13.308,13.308,0,0,1-2.783.721,19.561,19.561,0,0,1-2.846.21,11.944,11.944,0,0,1-4.7-.931,11.108,11.108,0,0,1-3.857-2.716A12.952,12.952,0,0,1,849.334,311a16.875,16.875,0,0,1-.958-5.892,17.107,17.107,0,0,1,.853-5.5,12.425,12.425,0,0,1,2.506-4.383,11.5,11.5,0,0,1,4.094-2.9,14.1,14.1,0,0,1,5.615-1.05,13.367,13.367,0,0,1,5.288.971,12.918,12.918,0,0,1,4.08,2.782Z"/><path class="cls-1" d="M874.486,295.449a15.979,15.979,0,0,1,11.18-4.252,10.941,10.941,0,0,1,4.224.774,8.942,8.942,0,0,1,3.149,2.153,9.206,9.206,0,0,1,1.955,3.293,12.654,12.654,0,0,1,.67,4.2v17h-2.94a2.966,2.966,0,0,1-1.417-.276,1.9,1.9,0,0,1-.787-1.115l-.577-1.942a23.541,23.541,0,0,1-2,1.614,11.771,11.771,0,0,1-2.021,1.168,10.939,10.939,0,0,1-2.243.722,12.958,12.958,0,0,1-2.638.249,10.371,10.371,0,0,1-3.148-.459,6.924,6.924,0,0,1-2.493-1.378,6.183,6.183,0,0,1-1.627-2.284,8.088,8.088,0,0,1-.577-3.174,6.311,6.311,0,0,1,.341-2.035,5.93,5.93,0,0,1,1.115-1.928,9.193,9.193,0,0,1,2.008-1.732,13.079,13.079,0,0,1,3.03-1.417,26.273,26.273,0,0,1,4.185-.984,41.7,41.7,0,0,1,5.459-.459v-1.575a5.892,5.892,0,0,0-1.155-4,4.227,4.227,0,0,0-3.332-1.3,7.9,7.9,0,0,0-2.611.368,10.816,10.816,0,0,0-1.824.826q-.788.461-1.43.826a2.812,2.812,0,0,1-1.431.369,1.867,1.867,0,0,1-1.154-.355,2.965,2.965,0,0,1-.761-.827Zm14.853,11.676a35.807,35.807,0,0,0-4.723.486,12.529,12.529,0,0,0-3.07.906,4.031,4.031,0,0,0-1.654,1.285,3.181,3.181,0,0,0,.512,4.041,4.375,4.375,0,0,0,2.637.736,7.693,7.693,0,0,0,3.451-.722,10.268,10.268,0,0,0,2.847-2.191Z"/><path class="cls-1" d="M907.865,296.367a11.61,11.61,0,0,1,2.992-3.792,6.379,6.379,0,0,1,4.094-1.378,5.011,5.011,0,0,1,2.991.813l-.42,4.856a1.261,1.261,0,0,1-.381.669,1.05,1.05,0,0,1-.669.2,7.592,7.592,0,0,1-1.168-.131,9.051,9.051,0,0,0-1.508-.131,5.429,5.429,0,0,0-1.916.315,4.793,4.793,0,0,0-1.508.905,6.183,6.183,0,0,0-1.182,1.431,13.885,13.885,0,0,0-.957,1.915V318.62h-6.482V291.7h3.805a1.566,1.566,0,0,1,1.915,1.627Z"/><path class="cls-1" d="M925.551,305.971a12.753,12.753,0,0,0,.735,3.582,7.324,7.324,0,0,0,1.522,2.493,5.962,5.962,0,0,0,2.243,1.47,8.176,8.176,0,0,0,2.874.485,8.872,8.872,0,0,0,2.716-.368,12.565,12.565,0,0,0,1.994-.813q.853-.445,1.5-.814a2.52,2.52,0,0,1,1.247-.367,1.34,1.34,0,0,1,1.207.6l1.863,2.362a10.8,10.8,0,0,1-2.414,2.112,13.532,13.532,0,0,1-2.795,1.365,15.284,15.284,0,0,1-2.965.721,21.235,21.235,0,0,1-2.926.21,14.377,14.377,0,0,1-5.222-.931,11.713,11.713,0,0,1-4.2-2.755,12.923,12.923,0,0,1-2.808-4.514,17.473,17.473,0,0,1-1.023-6.232,14.9,14.9,0,0,1,.892-5.183,12.485,12.485,0,0,1,2.558-4.226,12.075,12.075,0,0,1,4.068-2.846,13.392,13.392,0,0,1,5.419-1.05,13.187,13.187,0,0,1,4.7.813,10.237,10.237,0,0,1,3.7,2.375,11.029,11.029,0,0,1,2.428,3.831,14.3,14.3,0,0,1,.879,5.183,4.2,4.2,0,0,1-.316,1.981,1.3,1.3,0,0,1-1.207.512Zm12.36-3.91a7.776,7.776,0,0,0-.355-2.375,5.645,5.645,0,0,0-1.062-1.955,4.947,4.947,0,0,0-1.8-1.325,6.187,6.187,0,0,0-2.533-.486,6,6,0,0,0-4.421,1.6,7.855,7.855,0,0,0-2.061,4.54Z"/><path class="cls-1" d="M953.578,305.971a12.72,12.72,0,0,0,.734,3.582,7.326,7.326,0,0,0,1.523,2.493,5.946,5.946,0,0,0,2.243,1.47,8.168,8.168,0,0,0,2.874.485,8.872,8.872,0,0,0,2.716-.368,12.643,12.643,0,0,0,1.994-.813q.852-.445,1.5-.814a2.519,2.519,0,0,1,1.246-.367,1.34,1.34,0,0,1,1.207.6l1.863,2.362a10.777,10.777,0,0,1-2.414,2.112,13.508,13.508,0,0,1-2.795,1.365,15.266,15.266,0,0,1-2.965.721,21.221,21.221,0,0,1-2.925.21,14.382,14.382,0,0,1-5.223-.931,11.709,11.709,0,0,1-4.2-2.755,12.925,12.925,0,0,1-2.809-4.514,17.474,17.474,0,0,1-1.022-6.232,14.922,14.922,0,0,1,.891-5.183,12.488,12.488,0,0,1,2.559-4.226,12.071,12.071,0,0,1,4.067-2.846,13.4,13.4,0,0,1,5.419-1.05,13.187,13.187,0,0,1,4.7.813,10.249,10.249,0,0,1,3.7,2.375,11.027,11.027,0,0,1,2.427,3.831,14.3,14.3,0,0,1,.879,5.183,4.2,4.2,0,0,1-.315,1.981,1.3,1.3,0,0,1-1.207.512Zm12.359-3.91a7.807,7.807,0,0,0-.354-2.375,5.647,5.647,0,0,0-1.063-1.955,4.939,4.939,0,0,0-1.8-1.325,6.184,6.184,0,0,0-2.533-.486,6,6,0,0,0-4.421,1.6,7.848,7.848,0,0,0-2.06,4.54Z"/><path class="cls-1" d="M982.731,296.367a11.61,11.61,0,0,1,2.992-3.792,6.381,6.381,0,0,1,4.094-1.378,5.011,5.011,0,0,1,2.991.813l-.42,4.856a1.261,1.261,0,0,1-.381.669,1.05,1.05,0,0,1-.669.2,7.57,7.57,0,0,1-1.167-.131,9.072,9.072,0,0,0-1.509-.131,5.42,5.42,0,0,0-1.915.315,4.787,4.787,0,0,0-1.509.905,6.208,6.208,0,0,0-1.182,1.431,13.885,13.885,0,0,0-.957,1.915V318.62h-6.482V291.7h3.805a1.566,1.566,0,0,1,1.915,1.627Z"/><path class="cls-1" d="M1024.271,296.944a1.74,1.74,0,0,1-.552.591,1.421,1.421,0,0,1-.734.171,2.315,2.315,0,0,1-1.01-.263q-.538-.263-1.247-.591a11.428,11.428,0,0,0-1.613-.59,7.744,7.744,0,0,0-2.139-.262,4.927,4.927,0,0,0-3,.813,2.532,2.532,0,0,0-1.089,2.125,2.029,2.029,0,0,0,.564,1.457,5.058,5.058,0,0,0,1.5,1.036,14.55,14.55,0,0,0,2.112.8q1.181.354,2.4.774t2.4.957a8.436,8.436,0,0,1,2.112,1.366,6.01,6.01,0,0,1,2.06,4.762,9.108,9.108,0,0,1-.695,3.582,7.746,7.746,0,0,1-2.06,2.834,9.736,9.736,0,0,1-3.372,1.864,15.814,15.814,0,0,1-7.348.42,16.2,16.2,0,0,1-2.546-.7,14.094,14.094,0,0,1-2.256-1.05,10.864,10.864,0,0,1-1.824-1.312l1.5-2.467a2.126,2.126,0,0,1,.683-.682,1.909,1.909,0,0,1,1-.236,2.1,2.1,0,0,1,1.142.341q.537.342,1.246.734a11.11,11.11,0,0,0,1.667.736,7.338,7.338,0,0,0,2.427.341,6.289,6.289,0,0,0,1.981-.276,4.159,4.159,0,0,0,1.364-.722,2.7,2.7,0,0,0,.788-1.036,3.107,3.107,0,0,0,.249-1.22,2.176,2.176,0,0,0-.564-1.548,4.938,4.938,0,0,0-1.5-1.05,14.348,14.348,0,0,0-2.125-.8q-1.194-.354-2.441-.773a22.826,22.826,0,0,1-2.44-.985,8.281,8.281,0,0,1-2.126-1.43,6.461,6.461,0,0,1-1.5-2.125,7.405,7.405,0,0,1-.565-3.044,7.747,7.747,0,0,1,.657-3.15,7.367,7.367,0,0,1,1.928-2.61,9.566,9.566,0,0,1,3.175-1.785,13.236,13.236,0,0,1,4.4-.669,13.456,13.456,0,0,1,5.064.919,11.445,11.445,0,0,1,3.806,2.414Z"/><path class="cls-1" d="M1039.884,319.04a7.073,7.073,0,0,1-5.392-1.982,7.634,7.634,0,0,1-1.876-5.472V296.55h-2.756a1.259,1.259,0,0,1-.892-.341,1.328,1.328,0,0,1-.367-1.023v-2.571l4.329-.709,1.366-7.348a1.423,1.423,0,0,1,.5-.813,1.479,1.479,0,0,1,.945-.289h3.358v8.476h7.191v4.618H1039.1v14.591a2.9,2.9,0,0,0,.617,1.968,2.125,2.125,0,0,0,1.693.709,3.057,3.057,0,0,0,1.01-.145,5.6,5.6,0,0,0,.709-.3c.2-.106.38-.206.538-.3a.889.889,0,0,1,.471-.145.737.737,0,0,1,.473.145,2.2,2.2,0,0,1,.394.432l1.942,3.15a9.818,9.818,0,0,1-3.254,1.784A12.126,12.126,0,0,1,1039.884,319.04Z"/><path class="cls-1" d="M1049.8,295.449a15.981,15.981,0,0,1,11.18-4.252,10.95,10.95,0,0,1,4.225.774,8.929,8.929,0,0,1,3.148,2.153,9.192,9.192,0,0,1,1.955,3.293,12.654,12.654,0,0,1,.67,4.2v17h-2.939a2.964,2.964,0,0,1-1.417-.276,1.907,1.907,0,0,1-.788-1.115l-.577-1.942a23.228,23.228,0,0,1-1.995,1.614,11.763,11.763,0,0,1-2.02,1.168,10.958,10.958,0,0,1-2.243.722,12.958,12.958,0,0,1-2.638.249,10.373,10.373,0,0,1-3.149-.459,6.932,6.932,0,0,1-2.493-1.378,6.183,6.183,0,0,1-1.627-2.284,8.106,8.106,0,0,1-.577-3.174,6.311,6.311,0,0,1,.341-2.035,5.966,5.966,0,0,1,1.115-1.928,9.24,9.24,0,0,1,2.008-1.732,13.079,13.079,0,0,1,3.03-1.417,26.287,26.287,0,0,1,4.186-.984,41.681,41.681,0,0,1,5.459-.459v-1.575a5.9,5.9,0,0,0-1.155-4,4.228,4.228,0,0,0-3.332-1.3,7.914,7.914,0,0,0-2.612.368,10.852,10.852,0,0,0-1.824.826q-.786.461-1.43.826a2.809,2.809,0,0,1-1.43.369,1.872,1.872,0,0,1-1.155-.355,2.961,2.961,0,0,1-.76-.827Zm14.854,11.676a35.843,35.843,0,0,0-4.724.486,12.542,12.542,0,0,0-3.07.906,4.027,4.027,0,0,0-1.653,1.285,3.182,3.182,0,0,0,.511,4.041,4.375,4.375,0,0,0,2.637.736,7.693,7.693,0,0,0,3.451-.722,10.272,10.272,0,0,0,2.848-2.191Z"/><path class="cls-1" d="M1083.182,296.367a11.61,11.61,0,0,1,2.992-3.792,6.381,6.381,0,0,1,4.094-1.378,5.011,5.011,0,0,1,2.991.813l-.42,4.856a1.254,1.254,0,0,1-.38.669,1.052,1.052,0,0,1-.669.2,7.567,7.567,0,0,1-1.168-.131,9.072,9.072,0,0,0-1.509-.131,5.42,5.42,0,0,0-1.915.315,4.787,4.787,0,0,0-1.509.905,6.208,6.208,0,0,0-1.182,1.431,14,14,0,0,0-.957,1.915V318.62h-6.482V291.7h3.806a1.567,1.567,0,0,1,1.915,1.627Z"/><path class="cls-1" d="M1105.618,319.04a7.074,7.074,0,0,1-5.393-1.982,7.634,7.634,0,0,1-1.876-5.472V296.55h-2.756a1.258,1.258,0,0,1-.891-.341,1.328,1.328,0,0,1-.367-1.023v-2.571l4.329-.709,1.365-7.348a1.433,1.433,0,0,1,.5-.813,1.481,1.481,0,0,1,.945-.289h3.359v8.476h7.19v4.618h-7.19v14.591a2.9,2.9,0,0,0,.617,1.968,2.121,2.121,0,0,0,1.692.709,3.049,3.049,0,0,0,1.01-.145,5.536,5.536,0,0,0,.709-.3c.2-.106.381-.206.538-.3a.892.892,0,0,1,.472-.145.736.736,0,0,1,.472.145,2.2,2.2,0,0,1,.394.432l1.942,3.15a9.818,9.818,0,0,1-3.254,1.784A12.12,12.12,0,0,1,1105.618,319.04Z"/><path class="cls-1" d="M1132.594,296.944a1.738,1.738,0,0,1-.551.591,1.428,1.428,0,0,1-.735.171,2.315,2.315,0,0,1-1.01-.263q-.538-.263-1.247-.591a11.336,11.336,0,0,0-1.613-.59A7.734,7.734,0,0,0,1125.3,296a4.922,4.922,0,0,0-3,.813,2.53,2.53,0,0,0-1.089,2.125,2.028,2.028,0,0,0,.563,1.457,5.058,5.058,0,0,0,1.5,1.036,14.52,14.52,0,0,0,2.113.8q1.181.354,2.4.774t2.4.957a8.46,8.46,0,0,1,2.113,1.366,6,6,0,0,1,2.059,4.762,9.09,9.09,0,0,1-.7,3.582,7.746,7.746,0,0,1-2.06,2.834,9.736,9.736,0,0,1-3.372,1.864,15.809,15.809,0,0,1-7.347.42,16.138,16.138,0,0,1-2.546-.7,14.065,14.065,0,0,1-2.257-1.05,10.814,10.814,0,0,1-1.823-1.312l1.5-2.467a2.123,2.123,0,0,1,.682-.682,1.909,1.909,0,0,1,1-.236,2.09,2.09,0,0,1,1.142.341q.537.342,1.246.734a11.156,11.156,0,0,0,1.667.736,7.338,7.338,0,0,0,2.427.341,6.289,6.289,0,0,0,1.981-.276,4.175,4.175,0,0,0,1.365-.722,2.71,2.71,0,0,0,.788-1.036,3.107,3.107,0,0,0,.249-1.22,2.176,2.176,0,0,0-.565-1.548,4.938,4.938,0,0,0-1.5-1.05,14.348,14.348,0,0,0-2.125-.8q-1.194-.354-2.44-.773a22.842,22.842,0,0,1-2.441-.985,8.281,8.281,0,0,1-2.126-1.43,6.461,6.461,0,0,1-1.495-2.125,7.406,7.406,0,0,1-.564-3.044,7.746,7.746,0,0,1,.656-3.15,7.358,7.358,0,0,1,1.929-2.61,9.551,9.551,0,0,1,3.174-1.785,13.236,13.236,0,0,1,4.4-.669,13.456,13.456,0,0,1,5.064.919,11.445,11.445,0,0,1,3.806,2.414Z"/><path class="cls-1" d="M1158.468,294.583a14.037,14.037,0,0,1,3.464-2.388,10.041,10.041,0,0,1,4.435-.919,9.647,9.647,0,0,1,3.91.748,7.71,7.71,0,0,1,2.847,2.1,9.238,9.238,0,0,1,1.732,3.227,13.708,13.708,0,0,1,.59,4.133V318.62h-6.482V301.484a5.8,5.8,0,0,0-1.127-3.818,4.227,4.227,0,0,0-3.439-1.352,6.738,6.738,0,0,0-3.148.762,11.254,11.254,0,0,0-2.782,2.072V318.62h-6.482v-39h6.482Z"/><path class="cls-1" d="M1186.573,305.971a12.72,12.72,0,0,0,.734,3.582,7.326,7.326,0,0,0,1.523,2.493,5.962,5.962,0,0,0,2.243,1.47,8.168,8.168,0,0,0,2.874.485,8.872,8.872,0,0,0,2.716-.368,12.643,12.643,0,0,0,1.994-.813q.852-.445,1.5-.814a2.519,2.519,0,0,1,1.246-.367,1.34,1.34,0,0,1,1.207.6l1.863,2.362a10.755,10.755,0,0,1-2.414,2.112,13.508,13.508,0,0,1-2.8,1.365,15.274,15.274,0,0,1-2.964.721,21.246,21.246,0,0,1-2.926.21,14.382,14.382,0,0,1-5.223-.931,11.709,11.709,0,0,1-4.2-2.755,12.925,12.925,0,0,1-2.809-4.514,17.5,17.5,0,0,1-1.022-6.232,14.922,14.922,0,0,1,.891-5.183,12.488,12.488,0,0,1,2.559-4.226,12.071,12.071,0,0,1,4.067-2.846,13.4,13.4,0,0,1,5.419-1.05,13.193,13.193,0,0,1,4.7.813,10.245,10.245,0,0,1,3.7,2.375,11.013,11.013,0,0,1,2.427,3.831,14.3,14.3,0,0,1,.879,5.183,4.2,4.2,0,0,1-.315,1.981,1.3,1.3,0,0,1-1.207.512Zm12.359-3.91a7.807,7.807,0,0,0-.354-2.375,5.647,5.647,0,0,0-1.063-1.955,4.93,4.93,0,0,0-1.8-1.325,6.184,6.184,0,0,0-2.533-.486,6,6,0,0,0-4.421,1.6,7.855,7.855,0,0,0-2.06,4.54Z"/><path class="cls-1" d="M1215.726,296.367a11.61,11.61,0,0,1,2.992-3.792,6.381,6.381,0,0,1,4.094-1.378,5.011,5.011,0,0,1,2.991.813l-.42,4.856a1.254,1.254,0,0,1-.38.669,1.052,1.052,0,0,1-.669.2,7.567,7.567,0,0,1-1.168-.131,9.072,9.072,0,0,0-1.509-.131,5.42,5.42,0,0,0-1.915.315,4.787,4.787,0,0,0-1.509.905,6.208,6.208,0,0,0-1.182,1.431,14,14,0,0,0-.957,1.915V318.62h-6.482V291.7h3.806a1.567,1.567,0,0,1,1.915,1.627Z"/><path class="cls-1" d="M1233.413,305.971a12.72,12.72,0,0,0,.734,3.582,7.326,7.326,0,0,0,1.523,2.493,5.946,5.946,0,0,0,2.243,1.47,8.168,8.168,0,0,0,2.874.485,8.872,8.872,0,0,0,2.716-.368,12.643,12.643,0,0,0,1.994-.813q.852-.445,1.5-.814a2.516,2.516,0,0,1,1.246-.367,1.34,1.34,0,0,1,1.207.6l1.863,2.362a10.777,10.777,0,0,1-2.414,2.112,13.508,13.508,0,0,1-2.8,1.365,15.284,15.284,0,0,1-2.965.721,21.221,21.221,0,0,1-2.925.21,14.382,14.382,0,0,1-5.223-.931,11.709,11.709,0,0,1-4.2-2.755,12.925,12.925,0,0,1-2.809-4.514,17.474,17.474,0,0,1-1.022-6.232,14.9,14.9,0,0,1,.891-5.183,12.472,12.472,0,0,1,2.559-4.226,12.071,12.071,0,0,1,4.067-2.846,13.4,13.4,0,0,1,5.419-1.05,13.187,13.187,0,0,1,4.7.813,10.249,10.249,0,0,1,3.7,2.375,11.027,11.027,0,0,1,2.427,3.831,14.3,14.3,0,0,1,.879,5.183,4.2,4.2,0,0,1-.315,1.981,1.3,1.3,0,0,1-1.207.512Zm12.359-3.91a7.807,7.807,0,0,0-.354-2.375,5.647,5.647,0,0,0-1.063-1.955,4.939,4.939,0,0,0-1.8-1.325,6.184,6.184,0,0,0-2.533-.486,6,6,0,0,0-4.421,1.6,7.848,7.848,0,0,0-2.06,4.54Z"/></g></g></svg>