<?xml version="1.0" encoding="utf-8"?>
<!-- Generator: Adobe Illustrator 22.1.0, SVG Export Plug-In . SVG Version: 6.00 Build 0)  -->
<svg version="1.1" id="Layer_1" xmlns="http://www.w3.org/2000/svg" xmlns:xlink="http://www.w3.org/1999/xlink" x="0px" y="0px"
	 viewBox="0 0 106.5 79.7" style="enable-background:new 0 0 106.5 79.7;" xml:space="preserve">
<style type="text/css">
	.st0{fill:#DE7150;}
</style>
<title>007Asset 2</title>
<g id="Layer_2_1_">
	<g id="text_USEME_copy">
		<path class="st0" d="M64.4,47.7h-6.8v2.7c0,1.6-1.3,2.9-2.9,2.9h-3c-1.6,0-2.9-1.3-2.9-2.9v-2.7h-6.8L0,41.2v38.5h106.5V41.2
			L64.4,47.7z"/>
		<path class="st0" d="M73.7,13.1C72.7,4,66.8,0,54.4,0h-2.3C39.7,0,33.8,4,32.8,13.1H0v26.5L42.1,46h6.8v-3.6
			c0-1.6,1.3-2.9,2.9-2.9c0,0,0,0,0,0h3c1.6,0,2.9,1.3,2.9,2.9c0,0,0,0,0,0V46h6.8l42.1-6.5V13.1H73.7z M39.6,13.1
			c0.4-3.6,2.4-6.2,12.5-6.2h2.3c10,0,12.1,2.6,12.5,6.2H39.6z"/>
	</g>
</g>
</svg>
