<?xml version="1.0" encoding="UTF-8"?>
<svg width="193px" height="68px" viewBox="0 0 193 68" version="1.1" xmlns="http://www.w3.org/2000/svg" xmlns:xlink="http://www.w3.org/1999/xlink">
    <!-- Generator: Sketch 46.2 (44496) - http://www.bohemiancoding.com/sketch -->
    <title>Page 1</title>
    <desc>Created with Sketch.</desc>
    <defs></defs>
    <g id="Academy" stroke="none" stroke-width="1" fill="none" fill-rule="evenodd">
        <g id="exports" transform="translate(-72.000000, -63.000000)" fill="#FFFFFF">
            <g id="Page-1" transform="translate(72.000000, 63.000000)">
                <polygon id="Fill-1" points="20.7081577 6.18181818e-05 0.305212179 34.4204255 20.7081577 46.6839164 41.1117218 34.4204255"></polygon>
                <polygon id="Fill-2" points="20.403626 50.6107927 6.18589744e-05 38.3541018 20.403626 67.58792 40.8189433 38.3541018"></polygon>
                <polygon id="Fill-3" points="62.1427215 26.4800036 72.4700772 26.4800036 72.4700772 29.1474582 65.2498978 29.1474582 65.2498978 32.3174945 72.316667 32.3174945 72.316667 34.9855673 65.2498978 34.9855673 65.2498978 38.3738218 72.4700772 38.3738218 72.4700772 41.0635309 62.1427215 41.0635309"></polygon>
                <g id="Group-24" transform="translate(73.612179, 26.169491)">
                    <path d="M1.76922853,12.2702909 L1.76922853,6.76043636 L0.019238141,6.76043636 L0.019238141,4.33345455 L1.76922853,4.33345455 L1.76922853,1.44716364 L4.56958429,1.44716364 L4.56958429,4.33345455 L6.71423494,4.33345455 L6.71423494,6.76043636 L4.56958429,6.76043636 L4.56958429,11.5272364 C4.56958429,12.1825091 4.92032468,12.6857091 5.53272853,12.6857091 C5.94842083,12.6857091 6.3424625,12.5330182 6.49525417,12.3797091 L7.08600737,14.4784364 C6.67031506,14.8505818 5.92677019,15.1565818 4.76691442,15.1565818 C2.81959391,15.1565818 1.76922853,14.1508 1.76922853,12.2702909" id="Fill-4"></path>
                    <path d="M15.7732343,8.46581455 C15.7732343,7.00134182 15.0080388,6.54203273 13.8042631,6.54203273 C12.7322471,6.54203273 11.8785933,7.15403273 11.397949,7.78828727 L11.397949,14.8936691 L8.61924391,14.8936691 L8.61924391,0.31076 L11.397949,0.31076 L11.397949,5.71119636 C12.0753048,4.90199636 13.3885708,4.07116 15.1169106,4.07116 C17.4360035,4.07116 18.5519394,5.33905091 18.5519394,7.39512364 L18.5519394,14.8936691 L15.7732343,14.8936691 L15.7732343,8.46581455 Z" id="Fill-6"></path>
                    <path d="M23.4989872,8.61912364 L28.7062756,8.61912364 C28.6407051,7.61334182 27.9404615,6.27992364 26.1026314,6.27992364 C24.3736731,6.27992364 23.6301282,7.56945091 23.4989872,8.61912364 M26.1026314,4.07116 C29.253109,4.07116 31.3977596,6.43261455 31.3977596,9.88763273 L31.3977596,10.4990145 L23.5422885,10.4990145 C23.7179679,11.8330509 24.789984,12.9482509 26.5832756,12.9482509 C27.5680705,12.9482509 28.7279263,12.5544691 29.4065192,11.8985782 L30.6313269,13.6913055 C29.5809615,14.6538145 27.9188109,15.1563964 26.2770737,15.1563964 C23.0610256,15.1563964 20.6324423,12.9915236 20.6324423,9.60326909 C20.6324423,6.54203273 22.8865833,4.07116 26.1026314,4.07116" id="Fill-8"></path>
                    <path d="M33.4121353,4.33351636 L36.1908404,4.33351636 L36.1908404,5.77697091 C36.9343853,4.83609818 38.2470327,4.09304364 39.5596801,4.09304364 L39.5596801,6.80438909 C39.3629686,6.76049818 39.1006865,6.71660727 38.7944846,6.71660727 C37.8752603,6.71660727 36.649834,7.24144364 36.1908404,7.91958909 L36.1908404,14.8939164 L33.4121353,14.8939164 L33.4121353,4.33351636 Z" id="Fill-10"></path>
                    <path d="M43.4775183,8.61912364 L48.6848067,8.61912364 C48.6192362,7.61334182 47.9189926,6.27992364 46.0811625,6.27992364 C44.3522042,6.27992364 43.6086593,7.56945091 43.4775183,8.61912364 M46.0811625,4.07116 C49.2316401,4.07116 51.3762907,6.43261455 51.3762907,9.88763273 L51.3762907,10.4990145 L43.5208196,10.4990145 C43.696499,11.8330509 44.7685151,12.9482509 46.5618067,12.9482509 C47.5466016,12.9482509 48.7064574,12.5544691 49.3850503,11.8985782 L50.609858,13.6913055 C49.5594926,14.6538145 47.897342,15.1563964 46.2556048,15.1563964 C43.0395567,15.1563964 40.6109734,12.9915236 40.6109734,9.60326909 C40.6109734,6.54203273 42.8651144,4.07116 46.0811625,4.07116" id="Fill-12"></path>
                    <path d="M60.5231298,13.5603745 C59.8012356,14.3695745 58.5318894,15.15652 56.8035497,15.15652 C54.4844567,15.15652 53.3907901,13.8880109 53.3907901,11.8331745 L53.3907901,4.33339273 L56.1694952,4.33339273 L56.1694952,10.7402291 C56.1694952,12.2047018 56.9346907,12.6856473 58.1161971,12.6856473 C59.1888317,12.6856473 60.041867,12.0952836 60.5231298,11.4832836 L60.5231298,4.33339273 L63.3018349,4.33339273 L63.3018349,14.8937927 L60.5231298,14.8937927 L60.5231298,13.5603745 Z" id="Fill-14"></path>
                    <path d="M79.1660019,8.22552727 C79.1660019,7.24138182 78.7280404,6.5416 77.5904538,6.5416 C76.605659,6.5416 75.7965436,7.19810909 75.4025019,7.76621818 L75.4025019,14.8938545 L72.6021462,14.8938545 L72.6021462,8.22552727 C72.6021462,7.24138182 72.1648032,6.5416 71.0265981,6.5416 C70.0640724,6.5416 69.2549571,7.19810909 68.8392647,7.78847273 L68.8392647,14.8938545 L66.059941,14.8938545 L66.059941,4.33345455 L68.8392647,4.33345455 L68.8392647,5.71138182 C69.2766077,5.07712727 70.6764763,4.07072727 72.2959442,4.07072727 C73.8492231,4.07072727 74.8333994,4.79276364 75.227441,5.99574545 C75.8404635,5.03323636 77.2409506,4.07072727 78.8598,4.07072727 C80.8065019,4.07072727 81.9663577,5.09876364 81.9663577,7.26301818 L81.9663577,14.8938545 L79.1660019,14.8938545 L79.1660019,8.22552727 Z" id="Fill-16"></path>
                    <polygon id="Fill-18" points="93.3688224 4.31175636 90.9402391 6.78262909 89.1679795 4.92375636 93.7628641 0.310265455 96.4753801 0.310265455 96.4753801 14.8937927 93.3688224 14.8937927"></polygon>
                    <path d="M104.703985,2.84660364 C102.603254,2.84660364 101.815789,4.92369455 101.815789,7.61340364 C101.815789,10.3024945 102.603254,12.4012218 104.703985,12.4012218 C106.782446,12.4012218 107.569911,10.3024945 107.569911,7.61340364 C107.569911,4.92369455 106.782446,2.84660364 104.703985,2.84660364 M104.703985,0.0919854545 C108.860908,0.0919854545 110.742658,3.85238545 110.742658,7.61340364 C110.742658,11.3738036 108.860908,15.1564582 104.703985,15.1564582 C100.524792,15.1564582 98.6646929,11.3738036 98.6646929,7.61340364 C98.6646929,3.85238545 100.524792,0.0919854545 104.703985,0.0919854545" id="Fill-20"></path>
                    <polygon id="Fill-22" points="115.929842 4.31175636 113.501259 6.78262909 111.728999 4.92375636 116.323884 0.310265455 119.0364 0.310265455 119.0364 14.8937927 115.929842 14.8937927"></polygon>
                </g>
            </g>
        </g>
    </g>
</svg>