<?xml version="1.0" encoding="UTF-8"?>
<svg width="159px" height="50px" viewBox="0 0 159 50" version="1.1" xmlns="http://www.w3.org/2000/svg" xmlns:xlink="http://www.w3.org/1999/xlink">
    <!-- Generator: Sketch 46.2 (44496) - http://www.bohemiancoding.com/sketch -->
    <title>Page 1</title>
    <desc>Created with Sketch.</desc>
    <defs>
        <polygon id="path-1" points="0 44.3807727 0 0.3585 49.7137147 0.3585 49.7137147 44.3807727"></polygon>
        <polygon id="path-3" points="0 49.8218182 158.613986 49.8218182 158.613986 0 0 0"></polygon>
    </defs>
    <g id="Academy" stroke="none" stroke-width="1" fill="none" fill-rule="evenodd">
        <g id="exports" transform="translate(0.000000, -201.000000)">
            <g id="Page-1" transform="translate(0.000000, 201.000000)">
                <g id="Group-3" transform="translate(0.000000, 3.912727)">
                    <mask id="mask-2" fill="white">
                        <use xlink:href="#path-1"></use>
                    </mask>
                    <g id="Clip-2"></g>
                    <path d="M47.5890603,44.3807727 L25.4943663,44.3807727 C24.3205589,44.3807727 23.3697119,43.4207727 23.3697119,42.2366818 L23.3697119,4.64622727 L4.24917365,4.64622727 L4.24917365,19.9394091 L16.7128819,19.9394091 C17.8862388,19.9394091 18.8370858,20.8994091 18.8370858,22.0835 C18.8370858,23.2675909 17.8862388,24.2275909 16.7128819,24.2275909 L2.12451926,24.2275909 C0.951162323,24.2275909 -0.000135127479,23.2675909 -0.000135127479,22.0835 L-0.000135127479,2.50259091 C-0.000135127479,1.31804545 0.951162323,0.3585 2.12451926,0.3585 L25.4943663,0.3585 C26.6677232,0.3585 27.6185703,1.31804545 27.6185703,2.50259091 L27.6185703,40.0925909 L45.4644059,40.0925909 L45.4644059,25.3716818 L32.575947,25.3716818 C31.4025901,25.3716818 30.4517431,24.4116818 30.4517431,23.2275909 C30.4517431,22.0430455 31.4025901,21.0835 32.575947,21.0835 L47.5890603,21.0835 C48.7624173,21.0835 49.7137147,22.0430455 49.7137147,23.2275909 L49.7137147,42.2366818 C49.7137147,43.4207727 48.7624173,44.3807727 47.5890603,44.3807727" id="Fill-1" fill="#FFFFFF" mask="url(#mask-2)"></path>
                </g>
                <path d="M66.1420632,8.90140909 L64.9277176,7.46595455 L66.5096099,6.17595455 L67.7239555,7.61095455 C68.075287,7.04686364 68.267168,6.33686364 68.267168,5.56322727 C68.267168,3.54777273 66.988862,2.03186364 65.0236581,2.03186364 C63.0580037,2.03186364 61.7954626,3.54777273 61.7954626,5.56322727 C61.7954626,7.56277273 63.0580037,9.09504545 65.0236581,9.09504545 C65.4227346,9.09504545 65.8064966,9.03004545 66.1420632,8.90140909 M69.2103578,9.36868182 L69.9931963,10.2882273 L68.411304,11.5941364 L67.5640547,10.5782273 C66.8131963,10.9332273 65.9501822,11.1268636 65.0236581,11.1268636 C61.8116779,11.1268636 59.4622615,8.80459091 59.4622615,5.56322727 C59.4622615,2.32186364 61.8116779,4.54545455e-05 65.0236581,4.54545455e-05 C68.2514031,4.54545455e-05 70.6003691,2.32186364 70.6003691,5.56322727 C70.6003691,7.07913636 70.0729215,8.38504545 69.2103578,9.36868182" id="Fill-4" fill="#FFFFFF"></path>
                <path d="M77.3573737,9.94945455 C76.8303765,10.5458182 75.903402,11.1267273 74.6408609,11.1267273 C72.9468127,11.1267273 72.1482093,10.1912727 72.1482093,8.67536364 L72.1482093,3.14445455 L74.1773737,3.14445455 L74.1773737,7.86945455 C74.1773737,8.94990909 74.7368014,9.30445455 75.5998156,9.30445455 C76.3826541,9.30445455 77.0060422,8.869 77.3573737,8.41763636 L77.3573737,3.14445455 L79.3869884,3.14445455 L79.3869884,10.9330909 L77.3573737,10.9330909 L77.3573737,9.94945455 Z" id="Fill-6" fill="#FFFFFF"></path>
                <path d="M86.9596674,7.03086364 C86.9596674,5.82131818 86.2403388,4.77313636 84.9782482,4.77313636 C83.7157071,4.77313636 83.0125938,5.82131818 83.0125938,7.03086364 C83.0125938,8.25631818 83.7157071,9.3045 84.9782482,9.3045 C86.2403388,9.3045 86.9596674,8.25631818 86.9596674,7.03086364 M80.9032538,7.03086364 C80.9032538,4.82177273 82.4374011,2.95086364 84.9782482,2.95086364 C87.5348601,2.95086364 89.0690074,4.82177273 89.0690074,7.03086364 C89.0690074,9.25631818 87.5348601,11.1267727 84.9782482,11.1267727 C82.4374011,11.1267727 80.9032538,9.25631818 80.9032538,7.03086364" id="Fill-8" fill="#FFFFFF"></path>
                <path d="M90.5692377,3.14459091 L92.598402,3.14459091 L92.598402,4.20868182 C93.1420649,3.51504545 94.1005691,2.96686364 95.0595238,2.96686364 L95.0595238,4.96686364 C94.9153878,4.93459091 94.7239572,4.90186364 94.500096,4.90186364 C93.8289629,4.90186364 92.9339686,5.28913636 92.598402,5.78868182 L92.598402,10.9332273 L90.5692377,10.9332273 L90.5692377,3.14459091 Z" id="Fill-10" fill="#FFFFFF"></path>
                <path d="M101.530328,9.94945455 C101.002881,10.5458182 100.075906,11.1267273 98.8138156,11.1267273 C97.1197674,11.1267273 96.321164,10.1912727 96.321164,8.67536364 L96.321164,3.14445455 L98.3498779,3.14445455 L98.3498779,7.86945455 C98.3498779,8.94990909 98.9097561,9.30445455 99.7727703,9.30445455 C100.555609,9.30445455 101.178546,8.869 101.530328,8.41763636 L101.530328,3.14445455 L103.559493,3.14445455 L103.559493,10.9330909 L101.530328,10.9330909 L101.530328,9.94945455 Z" id="Fill-12" fill="#FFFFFF"></path>
                <path d="M115.14289,6.01477273 C115.14289,5.28886364 114.823539,4.77340909 113.992505,4.77340909 C113.273627,4.77340909 112.682219,5.25704545 112.394397,5.67613636 L112.394397,10.9329545 L110.349018,10.9329545 L110.349018,6.01477273 C110.349018,5.28886364 110.029216,4.77340909 109.198633,4.77340909 C108.495519,4.77340909 107.904562,5.25704545 107.600525,5.69204545 L107.600525,10.9329545 L105.571361,10.9329545 L105.571361,3.14477273 L107.600525,3.14477273 L107.600525,4.16022727 C107.920327,3.69295455 108.942791,2.95113636 110.125157,2.95113636 C111.259777,2.95113636 111.979106,3.48295455 112.266477,4.36977273 C112.713749,3.66022727 113.736664,2.95113636 114.91948,2.95113636 C116.341471,2.95113636 117.18827,3.70886364 117.18827,5.30477273 L117.18827,10.9329545 L115.14289,10.9329545 L115.14289,6.01477273 Z" id="Fill-14" fill="#FFFFFF"></path>
                <path d="M124.216971,0.790181818 L123.018841,3.72472727 L122.89092,3.72472727 L121.692339,0.790181818 L121.692339,3.72472727 L121.244617,3.72472727 L121.244617,0.177 L121.931965,0.177 L122.95443,2.75745455 L123.977345,0.177 L124.664243,0.177 L124.664243,3.72472727 L124.216971,3.72472727 L124.216971,0.790181818 Z M119.67894,3.72472727 L119.231668,3.72472727 L119.231668,0.596545455 L118.240733,0.596545455 L118.240733,0.177 L120.669424,0.177 L120.669424,0.596545455 L119.67894,0.596545455 L119.67894,3.72472727 Z" id="Fill-16" fill="#FFFFFF"></path>
                <path d="M60.4851314,27.0235 C61.2359898,27.8135 62.4025904,28.4744091 63.8727773,28.4744091 C65.1195535,28.4744091 65.7267263,27.8780455 65.7267263,27.2653182 C65.7267263,26.4589545 64.7997518,26.1848636 63.5691909,25.8948636 C61.8273977,25.4912273 59.5905875,25.0075909 59.5905875,22.6048636 C59.5905875,20.8144091 61.1242844,19.3635 63.6331513,19.3635 C65.3271994,19.3635 66.7334261,19.8794091 67.7878708,20.8630455 L66.5253297,22.5403182 C65.662766,21.7339545 64.5119303,21.3630455 63.4732504,21.3630455 C62.4507858,21.3630455 61.9075734,21.8148636 61.9075734,22.4594091 C61.9075734,23.1853182 62.8021173,23.4107727 64.0326782,23.7012273 C65.7902363,24.1044091 68.0274969,24.6366818 68.0274969,27.0235 C68.0274969,28.9907727 66.6374856,30.4744091 63.761072,30.4744091 C61.7156924,30.4744091 60.2455054,29.7807727 59.255021,28.7648636 L60.4851314,27.0235 Z" id="Fill-18" fill="#FFFFFF"></path>
                <path d="M73.2828748,24.1206818 C72.6275065,24.1206818 71.8766482,24.5079545 71.5410816,25.0075 L71.5410816,27.7652273 C71.8766482,28.2493182 72.6275065,28.6520455 73.2828748,28.6520455 C74.4494754,28.6520455 75.2323139,27.7329545 75.2323139,26.3784091 C75.2323139,25.0393182 74.4494754,24.1206818 73.2828748,24.1206818 L73.2828748,24.1206818 Z M69.5114669,33.2479545 L69.5114669,22.4920455 L71.5410816,22.4920455 L71.5410816,23.4756818 C72.1324895,22.7175 72.9792884,22.2984091 73.9220278,22.2984091 C75.903447,22.2984091 77.3416538,23.7820455 77.3416538,26.3784091 C77.3416538,28.9743182 75.903447,30.4743182 73.9220278,30.4743182 C73.0112686,30.4743182 72.1644697,30.0870455 71.5410816,29.2811364 L71.5410816,33.2479545 L69.5114669,33.2479545 Z" id="Fill-20" fill="#FFFFFF"></path>
                <path d="M80.4562521,25.6527727 L84.2591898,25.6527727 C84.2114448,24.9109545 83.7002125,23.9273182 82.3579462,23.9273182 C81.0954051,23.9273182 80.5521926,24.8782273 80.4562521,25.6527727 M82.3579462,22.2986818 C84.6587167,22.2986818 86.2248442,24.0400455 86.2248442,26.5882273 L86.2248442,27.0395909 L80.4882323,27.0395909 C80.6157025,28.0232273 81.3989915,28.8455 82.7092776,28.8455 C83.4286062,28.8455 84.2754051,28.5555 84.7708725,28.0714091 L85.6654164,29.3936818 C84.8983428,30.1032273 83.6839972,30.4741364 82.4858669,30.4741364 C80.1364504,30.4741364 78.3631275,28.8777727 78.3631275,26.3786818 C78.3631275,24.1205 80.0089802,22.2986818 82.3579462,22.2986818" id="Fill-22" fill="#FFFFFF"></path>
                <path d="M91.2884312,22.2985 C92.8707739,22.2985 93.8297286,22.9916818 94.3405105,23.7012273 L93.0144595,24.9594091 C92.6469127,24.4107727 92.087485,24.1207727 91.3843717,24.1207727 C90.1538108,24.1207727 89.2907966,25.0235 89.2907966,26.3785 C89.2907966,27.7330455 90.1538108,28.6521364 91.3843717,28.6521364 C92.087485,28.6521364 92.6469127,28.3294091 93.0144595,27.8135 L94.3405105,29.0553182 C93.8297286,29.7807727 92.8707739,30.4744091 91.2884312,30.4744091 C88.9079354,30.4744091 87.197672,28.7807727 87.197672,26.3785 C87.197672,23.9916818 88.9079354,22.2985 91.2884312,22.2985" id="Fill-24" fill="#FFFFFF"></path>
                <mask id="mask-4" fill="white">
                    <use xlink:href="#path-3"></use>
                </mask>
                <g id="Clip-27"></g>
                <path d="M95.6657507,30.2809091 L97.694915,30.2809091 L97.694915,22.4922727 L95.6657507,22.4922727 L95.6657507,30.2809091 Z M95.4576544,20.2663636 C95.4576544,19.5890909 96.0170822,19.0409091 96.672,19.0409091 C97.3431331,19.0409091 97.8863456,19.5890909 97.8863456,20.2663636 C97.8863456,20.9436364 97.3431331,21.4918182 96.672,21.4918182 C96.0170822,21.4918182 95.4576544,20.9436364 95.4576544,20.2663636 L95.4576544,20.2663636 Z" id="Fill-26" fill="#FFFFFF" mask="url(#mask-4)"></path>
                <path d="M104.341971,27.4425455 C104.006404,26.9911818 103.367251,26.7652727 102.711883,26.7652727 C101.912829,26.7652727 101.257461,27.1848182 101.257461,27.9425455 C101.257461,28.668 101.912829,29.0875455 102.711883,29.0875455 C103.367251,29.0875455 104.006404,28.8616364 104.341971,28.4102727 L104.341971,27.4425455 Z M104.341971,29.4748182 C103.814523,30.1034545 102.903764,30.4743636 101.897064,30.4743636 C100.666503,30.4743636 99.2120813,29.6357273 99.2120813,27.8939091 C99.2120813,26.0716364 100.666503,25.4107273 101.897064,25.4107273 C102.919979,25.4107273 103.830288,25.733 104.341971,26.3620909 L104.341971,25.2816364 C104.341971,24.4911818 103.670838,23.9757273 102.647923,23.9757273 C101.817339,23.9757273 101.049815,24.2816364 100.394897,24.8943636 L99.6278235,23.5239091 C100.570563,22.6852727 101.784908,22.2984545 102.999705,22.2984545 C104.757263,22.2984545 106.371586,23.008 106.371586,25.2493636 L106.371586,30.2807273 L104.341971,30.2807273 L104.341971,29.4748182 Z" id="Fill-28" fill="#FFFFFF" mask="url(#mask-4)"></path>
                <polygon id="Fill-29" fill="#FFFFFF" mask="url(#mask-4)" points="108.383048 30.2809091 110.412212 30.2809091 110.412212 19.5245455 108.383048 19.5245455"></polygon>
                <path d="M112.425161,30.2809091 L114.454326,30.2809091 L114.454326,22.4922727 L112.425161,22.4922727 L112.425161,30.2809091 Z M112.217065,20.2663636 C112.217065,19.5890909 112.776493,19.0409091 113.431411,19.0409091 C114.102544,19.0409091 114.645756,19.5890909 114.645756,20.2663636 C114.645756,20.9436364 114.102544,21.4918182 113.431411,21.4918182 C112.776493,21.4918182 112.217065,20.9436364 112.217065,20.2663636 L112.217065,20.2663636 Z" id="Fill-30" fill="#FFFFFF" mask="url(#mask-4)"></path>
                <path d="M116.674515,27.8296364 C117.233493,28.3619091 118.384328,28.8941818 119.343283,28.8941818 C120.222062,28.8941818 120.637354,28.5878182 120.637354,28.1041818 C120.637354,27.5555455 119.966671,27.3623636 119.086991,27.1846364 C117.76094,26.9269091 116.051127,26.6041818 116.051127,24.7491818 C116.051127,23.4432727 117.185748,22.2987273 119.215362,22.2987273 C120.525648,22.2987273 121.563878,22.7500909 122.331402,23.3623636 L121.516133,24.7655455 C121.053096,24.266 120.174317,23.8623636 119.231127,23.8623636 C118.496034,23.8623636 118.016331,24.1364545 118.016331,24.5882727 C118.016331,25.0719091 118.623954,25.2496364 119.486969,25.4264545 C120.81302,25.6846364 122.586793,26.0396364 122.586793,27.9746364 C122.586793,29.3937273 121.388663,30.4741818 119.247342,30.4741818 C117.904626,30.4741818 116.610555,30.0228182 115.795736,29.2646364 L116.674515,27.8296364 Z" id="Fill-31" fill="#FFFFFF" mask="url(#mask-4)"></path>
                <path d="M128.721625,27.4425455 C128.386059,26.9911818 127.746906,26.7652727 127.091538,26.7652727 C126.292484,26.7652727 125.637566,27.1848182 125.637566,27.9425455 C125.637566,28.668 126.292484,29.0875455 127.091538,29.0875455 C127.746906,29.0875455 128.386059,28.8616364 128.721625,28.4102727 L128.721625,27.4425455 Z M128.721625,29.4748182 C128.194178,30.1034545 127.283419,30.4743636 126.276719,30.4743636 C125.046158,30.4743636 123.592186,29.6357273 123.592186,27.8939091 C123.592186,26.0716364 125.046158,25.4107273 126.276719,25.4107273 C127.299634,25.4107273 128.209943,25.733 128.721625,26.3620909 L128.721625,25.2816364 C128.721625,24.4911818 128.050492,23.9757273 127.027577,23.9757273 C126.196994,23.9757273 125.42947,24.2816364 124.774552,24.8943636 L124.007478,23.5239091 C124.950218,22.6852727 126.164563,22.2984545 127.379359,22.2984545 C129.136917,22.2984545 130.75079,23.008 130.75079,25.2493636 L130.75079,30.2807273 L128.721625,30.2807273 L128.721625,29.4748182 Z" id="Fill-32" fill="#FFFFFF" mask="url(#mask-4)"></path>
                <path d="M133.162545,28.3458636 L133.162545,24.2817727 L131.884239,24.2817727 L131.884239,22.4922273 L133.162545,22.4922273 L133.162545,20.3631364 L135.207925,20.3631364 L135.207925,22.4922273 L136.774052,22.4922273 L136.774052,24.2817727 L135.207925,24.2817727 L135.207925,27.7972273 C135.207925,28.2808636 135.463316,28.6522273 135.911038,28.6522273 C136.214624,28.6522273 136.501995,28.5395 136.614151,28.4263182 L137.045658,29.9745 C136.741622,30.2485909 136.198409,30.4745 135.35161,30.4745 C133.929619,30.4745 133.162545,29.7326818 133.162545,28.3458636" id="Fill-33" fill="#FFFFFF" mask="url(#mask-4)"></path>
                <path d="M138.163343,30.2809091 L140.192507,30.2809091 L140.192507,22.4922727 L138.163343,22.4922727 L138.163343,30.2809091 Z M137.955246,20.2663636 C137.955246,19.5890909 138.514674,19.0409091 139.170042,19.0409091 C139.841176,19.0409091 140.384388,19.5890909 140.384388,20.2663636 C140.384388,20.9436364 139.841176,21.4918182 139.170042,21.4918182 C138.514674,21.4918182 137.955246,20.9436364 137.955246,20.2663636 L137.955246,20.2663636 Z" id="Fill-34" fill="#FFFFFF" mask="url(#mask-4)"></path>
                <path d="M147.766177,26.3785455 C147.766177,25.1685455 147.046848,24.1208182 145.784758,24.1208182 C144.522217,24.1208182 143.819103,25.1685455 143.819103,26.3785455 C143.819103,27.604 144.522217,28.6521818 145.784758,28.6521818 C147.046848,28.6521818 147.766177,27.604 147.766177,26.3785455 M141.709763,26.3785455 C141.709763,24.169 143.243911,22.2985455 145.784758,22.2985455 C148.34137,22.2985455 149.875517,24.169 149.875517,26.3785455 C149.875517,28.604 148.34137,30.4744545 145.784758,30.4744545 C143.243911,30.4744545 141.709763,28.604 141.709763,26.3785455" id="Fill-35" fill="#FFFFFF" mask="url(#mask-4)"></path>
                <path d="M156.585092,25.5717727 C156.585092,24.4913182 156.025664,24.1208636 155.16265,24.1208636 C154.363596,24.1208636 153.740658,24.5722273 153.404641,25.0395 L153.404641,30.2808636 L151.375927,30.2808636 L151.375927,22.4922273 L153.404641,22.4922273 L153.404641,23.5076818 C153.900559,22.9108636 154.843299,22.2985909 156.10584,22.2985909 C157.799437,22.2985909 158.614256,23.2658636 158.614256,24.7817727 L158.614256,30.2808636 L156.585092,30.2808636 L156.585092,25.5717727 Z" id="Fill-36" fill="#FFFFFF" mask="url(#mask-4)"></path>
                <path d="M59.4624416,44.2585 C59.4624416,40.9525909 61.9393283,38.6953182 65.055368,38.6953182 C67.4845096,38.6953182 68.8425408,39.9853182 69.5933992,41.3235 L67.6439601,42.2912273 C67.1966881,41.4203182 66.2377334,40.7266818 65.055368,40.7266818 C63.2018694,40.7266818 61.7956428,42.2262273 61.7956428,44.2585 C61.7956428,46.2903182 63.2018694,47.7903182 65.055368,47.7903182 C66.2377334,47.7903182 67.1966881,47.1125909 67.6439601,46.2257727 L69.5933992,47.1771364 C68.8267759,48.5153182 67.4845096,49.8216818 65.055368,49.8216818 C61.9393283,49.8216818 59.4624416,47.5639545 59.4624416,44.2585" id="Fill-37" fill="#FFFFFF" mask="url(#mask-4)"></path>
                <path d="M76.4628748,45.7260455 C76.4628748,44.5165 75.7435462,43.4683182 74.4814555,43.4683182 C73.2189144,43.4683182 72.5158011,44.5165 72.5158011,45.7260455 C72.5158011,46.9515 73.2189144,47.9996818 74.4814555,47.9996818 C75.7435462,47.9996818 76.4628748,46.9515 76.4628748,45.7260455 M70.4064612,45.7260455 C70.4064612,43.5169545 71.9406085,41.6460455 74.4814555,41.6460455 C77.0380674,41.6460455 78.5722147,43.5169545 78.5722147,45.7260455 C78.5722147,47.9515 77.0380674,49.8219545 74.4814555,49.8219545 C71.9406085,49.8219545 70.4064612,47.9515 70.4064612,45.7260455" id="Fill-38" fill="#FFFFFF" mask="url(#mask-4)"></path>
                <path d="M85.2820147,48.6446364 C84.7545671,49.241 83.8275926,49.8219091 82.565502,49.8219091 C80.8714538,49.8219091 80.0728504,48.8864545 80.0728504,47.3705455 L80.0728504,41.8396364 L82.1015643,41.8396364 L82.1015643,46.5646364 C82.1015643,47.6450909 82.6614425,47.9996364 83.5244567,47.9996364 C84.3072952,47.9996364 84.9302329,47.5641818 85.2820147,47.1128182 L85.2820147,41.8396364 L87.311179,41.8396364 L87.311179,49.6282727 L85.2820147,49.6282727 L85.2820147,48.6446364 Z" id="Fill-39" fill="#FFFFFF" mask="url(#mask-4)"></path>
                <path d="M89.3230921,41.8397727 L91.3522564,41.8397727 L91.3522564,42.9038636 C91.8954688,42.2102273 92.8544235,41.6620455 93.8133782,41.6620455 L93.8133782,43.6620455 C93.6692422,43.6297727 93.4778116,43.5970455 93.2539504,43.5970455 C92.5828173,43.5970455 91.6878229,43.9843182 91.3522564,44.4838636 L91.3522564,49.6284091 L89.3230921,49.6284091 L89.3230921,41.8397727 Z" id="Fill-40" fill="#FFFFFF" mask="url(#mask-4)"></path>
                <path d="M95.2819887,47.1770909 C95.840966,47.7093636 96.9918017,48.2416364 97.9507564,48.2416364 C98.8295354,48.2416364 99.2448272,47.9352727 99.2448272,47.4516364 C99.2448272,46.903 98.5741445,46.7098182 97.6944646,46.5320909 C96.3684136,46.2743636 94.6586006,45.9516364 94.6586006,44.0970909 C94.6586006,42.7911818 95.793221,41.6461818 97.8228357,41.6461818 C99.1331218,41.6461818 100.171351,42.0975455 100.938875,42.7102727 L100.123606,44.1134545 C99.6605694,43.6134545 98.7817904,43.2098182 97.8386006,43.2098182 C97.1035071,43.2098182 96.6238045,43.4843636 96.6238045,43.9357273 C96.6238045,44.4198182 97.2314278,44.5970909 98.0944419,44.7743636 C99.4204929,45.0320909 101.194266,45.3870909 101.194266,47.3220909 C101.194266,48.7411818 99.996136,49.8216364 97.8548159,49.8216364 C96.5120992,49.8216364 95.2180283,49.3702727 94.4032096,48.6120909 L95.2819887,47.1770909 Z" id="Fill-41" fill="#FFFFFF" mask="url(#mask-4)"></path>
                <path d="M104.293145,45.0002727 L108.096533,45.0002727 C108.048788,44.2584545 107.537105,43.2748182 106.195289,43.2748182 C104.932748,43.2748182 104.389085,44.2261818 104.293145,45.0002727 M106.195289,41.6461818 C108.49606,41.6461818 110.062187,43.3875455 110.062187,45.9357273 L110.062187,46.3870909 L104.325125,46.3870909 C104.453046,47.3707273 105.236335,48.193 106.546621,48.193 C107.265949,48.193 108.112298,47.903 108.607765,47.4189091 L109.502309,48.7411818 C108.735686,49.4507273 107.52134,49.8216364 106.322759,49.8216364 C103.973793,49.8216364 102.20002,48.2252727 102.20002,45.7261818 C102.20002,43.4684545 103.845873,41.6461818 106.195289,41.6461818" id="Fill-42" fill="#FFFFFF" mask="url(#mask-4)"></path>
            </g>
        </g>
    </g>
</svg>