<?xml version="1.0" encoding="UTF-8"?>
<svg width="32px" height="30px" viewBox="0 0 32 30" version="1.1" xmlns="http://www.w3.org/2000/svg" xmlns:xlink="http://www.w3.org/1999/xlink">
    <!-- Generator: Sketch 46.2 (44496) - http://www.bohemiancoding.com/sketch -->
    <title>mentored</title>
    <desc>Created with Sketch.</desc>
    <defs></defs>
    <g id="Symbols" stroke="none" stroke-width="1" fill="none" fill-rule="evenodd">
        <g id="mentored">
            <path d="M13,7.19508197 C13.1715173,7.03463035 13.3610133,6.88248023 13.5684939,6.73862705 C13.7759744,6.59477387 14.0028164,6.46752105 14.2490266,6.35686475 C14.4952369,6.24620846 14.760808,6.15906794 15.045748,6.09544057 C15.3306879,6.03181321 15.6391377,6 15.9711066,6 C16.4081989,6 16.8134715,6.06362641 17.1869365,6.19088115 C17.5604015,6.31813588 17.8826831,6.49794966 18.153791,6.73032787 C18.4248989,6.96270608 18.6379091,7.24487539 18.7928279,7.57684426 C18.9477467,7.90881314 19.0252049,8.28227252 19.0252049,8.69723361 C19.0252049,9.11772751 18.9629617,9.48012143 18.8384734,9.78442623 C18.713985,10.088731 18.5563022,10.3556853 18.3654201,10.5852971 C18.174538,10.8149089 17.9670605,11.0140873 17.7429816,11.1828381 C17.5189026,11.351589 17.3072756,11.510655 17.1080943,11.660041 C16.9089129,11.809427 16.7387814,11.9588107 16.5976947,12.1081967 C16.4566079,12.2575827 16.3750001,12.4235647 16.3528689,12.6061475 L16.2034836,13.8759221 L15.1909836,13.8759221 L15.0913934,12.4982582 C15.0692622,12.2492815 15.1162904,12.0321218 15.2324795,11.8467725 C15.3486686,11.6614233 15.5008187,11.4871422 15.6889344,11.3239242 C15.8770501,11.1607062 16.0845276,11.0002569 16.311373,10.8425717 C16.5382183,10.6848865 16.7498453,10.5092223 16.9462602,10.3155738 C17.1426752,10.1219253 17.3072739,9.90199918 17.4400615,9.65578893 C17.572849,9.40957869 17.6392418,9.11496073 17.6392418,8.77192623 C17.6392418,8.5340152 17.5922136,8.31823867 17.4981557,8.12459016 C17.4040979,7.93094165 17.2768451,7.76634289 17.1163934,7.63078893 C16.9559418,7.49523498 16.7664458,7.39149626 16.5478996,7.31956967 C16.3293534,7.24764308 16.0955955,7.21168033 15.8466189,7.21168033 C15.5091172,7.21168033 15.2200319,7.25317581 14.9793545,7.33616803 C14.7386771,7.41916025 14.5353492,7.51045032 14.3693648,7.61004098 C14.2033803,7.70963165 14.0692116,7.80092172 13.9668545,7.88391393 C13.8644974,7.96690615 13.7801233,8.00840164 13.7137295,8.00840164 C13.5754091,8.00840164 13.4675209,7.94477523 13.3900615,7.81752049 L13,7.19508197 Z M14.6183402,17.1126025 C14.6183402,16.9687493 14.6446206,16.8331974 14.6971824,16.7059426 C14.7497441,16.5786879 14.8216696,16.4680333 14.9129611,16.3739754 C15.0042525,16.2799176 15.113524,16.2052257 15.2407787,16.1498975 C15.3680334,16.0945694 15.5035853,16.0669057 15.6474385,16.0669057 C15.7912917,16.0669057 15.9268436,16.0945694 16.0540984,16.1498975 C16.1813531,16.2052257 16.2920077,16.2799176 16.3860656,16.3739754 C16.4801234,16.4680333 16.5548153,16.5786879 16.6101434,16.7059426 C16.6654716,16.8331974 16.6931352,16.9687493 16.6931352,17.1126025 C16.6931352,17.2619885 16.6654716,17.3989236 16.6101434,17.5234119 C16.5548153,17.6479002 16.4801234,17.7571717 16.3860656,17.8512295 C16.2920077,17.9452874 16.1813531,18.018596 16.0540984,18.0711578 C15.9268436,18.1237195 15.7912917,18.15 15.6474385,18.15 C15.5035853,18.15 15.3680334,18.1237195 15.2407787,18.0711578 C15.113524,18.018596 15.0042525,17.9452874 14.9129611,17.8512295 C14.8216696,17.7571717 14.7497441,17.6479002 14.6971824,17.5234119 C14.6446206,17.3989236 14.6183402,17.2619885 14.6183402,17.1126025 Z" id="?" fill="#DE7150"></path>
            <path d="M13.984,21.534 L7.156,27.27 L9,21.007 C4.921,19.734 2,16.302 2,12.267 C2,7.149 6.701,3 12.5,3 L18.625,3 C24.423,3 29.125,7.149 29.125,12.267 C29.125,17.385 24.423,21.534 18.625,21.534 L13.984,21.534 Z" id="Page-1" stroke="#DE7150" stroke-linecap="round" stroke-linejoin="round"></path>
        </g>
    </g>
</svg>