<?xml version="1.0" encoding="UTF-8"?>
<svg width="199px" height="68px" viewBox="0 0 199 68" version="1.1" xmlns="http://www.w3.org/2000/svg" xmlns:xlink="http://www.w3.org/1999/xlink">
    <!-- Generator: Sketch 46.2 (44496) - http://www.bohemiancoding.com/sketch -->
    <title>Page 1</title>
    <desc>Created with Sketch.</desc>
    <defs>
        <polygon id="path-1" points="0 67.3982301 198.828572 67.3982301 198.828572 0.593345133 0 0.593345133"></polygon>
    </defs>
    <g id="Academy" stroke="none" stroke-width="1" fill="none" fill-rule="evenodd">
        <g id="exports" transform="translate(-189.000000, -137.000000)">
            <g id="Page-1" transform="translate(189.000000, 137.000000)">
                <polygon id="Fill-1" fill="#FFFFFF" points="90.8388247 21.7791363 84.1609361 21.7791363 84.1609361 27.7384637 81.150162 27.7384637 81.150162 13.5421097 84.1609361 13.5421097 84.1609361 19.1187115 90.8388247 19.1187115 90.8388247 13.5421097 93.8711771 13.5421097 93.8711771 27.7384637 90.8388247 27.7384637"></polygon>
                <g id="Group-40" transform="translate(0.000000, 0.008425)">
                    <path d="M97.4772729,29.496715 C98.1767699,29.496715 98.6431012,29.3053522 98.8978452,28.7517239 L99.2796614,27.8791575 L95.124038,17.4498832 L98.0071404,17.4498832 L100.678655,24.6013168 L103.35017,17.4498832 L106.254851,17.4498832 L101.441689,29.4118655 C100.678655,31.3483611 99.3216193,31.8592637 97.5623873,31.9019894 C97.2441072,31.9019894 96.5655892,31.8382018 96.2263301,31.7533522 L96.6291253,29.3264142 C96.8628904,29.4329274 97.2225289,29.496715 97.4772729,29.496715 Z" id="Fill-2" fill="#FFFFFF"></path>
                    <path d="M112.466948,19.5995858 C111.597821,19.5995858 110.601623,20.1104885 110.15687,20.7700283 L110.15687,24.4101345 C110.601623,25.0486124 111.597821,25.580577 112.466948,25.580577 C114.014592,25.580577 115.053348,24.3674088 115.053348,22.5795504 C115.053348,20.812754 114.014592,19.5995858 112.466948,19.5995858 L112.466948,19.5995858 Z M107.463776,31.6464177 L107.463776,17.4500637 L110.15687,17.4500637 L110.15687,18.7480814 C110.940882,17.7479398 112.064153,17.1943115 113.315095,17.1943115 C115.944053,17.1943115 117.851936,19.1524708 117.851936,22.5795504 C117.851936,26.0060283 115.944053,27.9858513 113.315095,27.9858513 C112.10671,27.9858513 110.982839,27.4749487 110.15687,26.4104177 L110.15687,31.6464177 L107.463776,31.6464177 Z" id="Fill-4" fill="#FFFFFF"></path>
                    <path d="M121.988199,21.6214124 L127.033928,21.6214124 C126.970392,20.6423327 126.291873,19.344315 124.511063,19.344315 C122.835747,19.344315 122.115271,20.5996071 121.988199,21.6214124 M124.511063,17.1941912 C127.563795,17.1941912 129.641907,19.4929522 129.641907,22.8562442 L129.641907,23.4519965 L122.030157,23.4519965 C122.200386,24.7506159 123.239142,25.8356071 124.977395,25.8356071 C125.931036,25.8356071 127.054907,25.4528814 127.712446,24.8144035 L128.899253,26.5595363 C127.881476,27.4958903 126.270895,27.985731 124.680093,27.985731 C121.563825,27.985731 119.21059,25.8783327 119.21059,22.5794301 C119.21059,19.5994655 121.394795,17.1941912 124.511063,17.1941912" id="Fill-6" fill="#FFFFFF"></path>
                    <path d="M131.593785,17.4498832 L134.286279,17.4498832 L134.286279,18.8544142 C135.006755,17.9391221 136.278677,17.2157947 137.550598,17.2157947 L137.550598,19.8551575 C137.35999,19.8124319 137.105845,19.7697062 136.809143,19.7697062 C135.918439,19.7697062 134.731032,20.2806088 134.286279,20.9401487 L134.286279,27.7299186 L131.593785,27.7299186 L131.593785,17.4498832 Z" id="Fill-8" fill="#FFFFFF"></path>
                    <mask id="mask-2" fill="white">
                        <use xlink:href="#path-1"></use>
                    </mask>
                    <g id="Clip-11"></g>
                    <polygon id="Fill-10" fill="#FFFFFF" mask="url(#mask-2)" points="139.226873 27.7301593 141.919367 27.7301593 141.919367 13.5332035 139.226873 13.5332035"></polygon>
                    <path d="M146.711012,21.6214124 L151.756741,21.6214124 C151.693205,20.6423327 151.014686,19.344315 149.233876,19.344315 C147.55856,19.344315 146.838084,20.5996071 146.711012,21.6214124 M149.233876,17.1941912 C152.286608,17.1941912 154.36472,19.4929522 154.36472,22.8562442 L154.36472,23.4519965 L146.75297,23.4519965 C146.923198,24.7506159 147.961955,25.8356071 149.700208,25.8356071 C150.653849,25.8356071 151.77772,25.4528814 152.435259,24.8144035 L153.622066,26.5595363 C152.604289,27.4958903 150.993708,27.985731 149.402906,27.985731 C146.286638,27.985731 143.933403,25.8783327 143.933403,22.5794301 C143.933403,19.5994655 146.117608,17.1941912 149.233876,17.1941912" id="Fill-12" fill="#FFFFFF" mask="url(#mask-2)"></path>
                    <path d="M163.354844,20.7702088 C162.910091,20.0890053 161.934871,19.5997664 161.022588,19.5997664 C159.496522,19.5997664 158.436787,20.8129345 158.436787,22.6007929 C158.436787,24.3675894 159.496522,25.5807575 161.022588,25.5807575 C161.934871,25.5807575 162.910091,25.0909168 163.354844,24.4097133 L163.354844,20.7702088 Z M163.354844,26.4105982 C162.549254,27.4324035 161.425983,27.9854301 160.196019,27.9854301 C157.609618,27.9854301 155.659179,26.0272708 155.659179,22.6007929 C155.659179,19.2375009 157.588639,17.194492 160.196019,17.194492 C161.404405,17.194492 162.549254,17.7264566 163.354844,18.7693239 L163.354844,13.5333239 L166.068317,13.5333239 L166.068317,27.7302796 L163.354844,27.7302796 L163.354844,26.4105982 Z" id="Fill-13" fill="#FFFFFF" mask="url(#mask-2)"></path>
                    <path d="M175.759557,20.7702088 C175.314804,20.0890053 174.339584,19.5997664 173.44888,19.5997664 C171.922813,19.5997664 170.862479,20.6636956 170.862479,22.430492 C170.862479,24.1966867 171.922813,25.2612177 173.44888,25.2612177 C174.339584,25.2612177 175.314804,24.750315 175.759557,24.0907752 L175.759557,20.7702088 Z M169.738608,28.4114832 C170.565777,29.3267752 171.64709,29.6884389 172.939991,29.6884389 C174.232892,29.6884389 175.759557,29.1137487 175.759557,27.0918018 L175.759557,26.0483327 C174.953967,27.0701381 173.851675,27.666492 172.600732,27.666492 C170.03531,27.666492 168.08487,25.8575717 168.08487,22.430492 C168.08487,19.0672 170.014331,17.194492 172.600732,17.194492 C173.830096,17.194492 174.932988,17.7264566 175.759557,18.7693239 L175.759557,17.4496425 L178.47303,17.4496425 L178.47303,27.0280142 C178.47303,30.9443327 175.462855,31.9023504 172.939991,31.9023504 C171.18016,31.9023504 169.823723,31.4973593 168.530223,30.3696425 L169.738608,28.4114832 Z" id="Fill-14" fill="#FFFFFF" mask="url(#mask-2)"></path>
                    <path d="M183.266652,21.6214124 L188.312381,21.6214124 C188.248845,20.6423327 187.570327,19.344315 185.789517,19.344315 C184.114201,19.344315 183.393725,20.5996071 183.266652,21.6214124 M185.789517,17.1941912 C188.842249,17.1941912 190.92036,19.4929522 190.92036,22.8562442 L190.92036,23.4519965 L183.30861,23.4519965 C183.478839,24.7506159 184.517595,25.8356071 186.255249,25.8356071 C187.20949,25.8356071 188.33336,25.4528814 188.990899,24.8144035 L190.177707,26.5595363 C189.15993,27.4958903 187.549348,27.985731 185.958547,27.985731 C182.842279,27.985731 180.489044,25.8783327 180.489044,22.5794301 C180.489044,19.5994655 182.673249,17.1941912 185.789517,17.1941912" id="Fill-15" fill="#FFFFFF" mask="url(#mask-2)"></path>
                    <path d="M192.871639,17.4498832 L195.564133,17.4498832 L195.564133,18.8544142 C196.284609,17.9391221 197.556531,17.2157947 198.828452,17.2157947 L198.828452,19.8551575 C198.637844,19.8124319 198.383699,19.7697062 198.086998,19.7697062 C197.196293,19.7697062 196.008886,20.2806088 195.564133,20.9401487 L195.564133,27.7299186 L192.871639,27.7299186 L192.871639,17.4498832 Z" id="Fill-16" fill="#FFFFFF" mask="url(#mask-2)"></path>
                    <polygon id="Fill-17" fill="#FFFFFF" mask="url(#mask-2)" points="81.150162 39.0786372 91.1571048 39.0786372 91.1571048 41.6752743 84.1609361 41.6752743 84.1609361 44.7617522 91.0084542 44.7617522 91.0084542 47.3583894 84.1609361 47.3583894 84.1609361 53.2755929 81.150162 53.2755929"></polygon>
                    <path d="M99.3422386,49.5293947 C98.8974855,48.9336425 98.049338,48.6357664 97.1802114,48.6357664 C96.1198771,48.6357664 95.2507506,49.1887929 95.2507506,50.1895363 C95.2507506,51.1469522 96.1198771,51.7005805 97.1802114,51.7005805 C98.049338,51.7005805 98.8974855,51.4027044 99.3422386,50.8063504 L99.3422386,49.5293947 Z M99.3422386,52.2114832 C98.6427416,53.0413239 97.434356,53.5305628 96.0988982,53.5305628 C94.4661392,53.5305628 92.5366783,52.423908 92.5366783,50.1251469 C92.5366783,47.7204743 94.4661392,46.8473062 96.0988982,46.8473062 C97.4559343,46.8473062 98.6637205,47.2733593 99.3422386,48.1032 L99.3422386,46.6770053 C99.3422386,45.6341381 98.4521331,44.9535363 97.095097,44.9535363 C95.9928048,44.9535363 94.9750277,45.3573239 94.1059012,46.1667044 L93.0881241,44.3571823 C94.3390669,43.2505274 95.9502476,42.7396248 97.5614283,42.7396248 C99.8936843,42.7396248 102.034733,43.6759788 102.034733,46.6348814 L102.034733,53.2754124 L99.3422386,53.2754124 L99.3422386,52.2114832 Z" id="Fill-18" fill="#FFFFFF" mask="url(#mask-2)"></path>
                    <path d="M109.711098,51.1257699 C111.28032,51.1257699 112.319077,49.9336637 112.319077,48.1458053 C112.319077,46.3579469 111.28032,45.1447788 109.711098,45.1447788 C108.841971,45.1447788 107.845772,45.6556814 107.401019,46.336885 L107.401019,49.9763894 C107.845772,50.636531 108.841971,51.1257699 109.711098,51.1257699 L109.711098,51.1257699 Z M104.707926,39.0783363 L107.401019,39.0783363 L107.401019,44.3149381 C108.20601,43.271469 109.35086,42.7395044 110.559245,42.7395044 C113.167224,42.7395044 115.096086,44.7825133 115.096086,48.1458053 C115.096086,51.572885 113.145646,53.5310442 110.559245,53.5310442 C109.329281,53.5310442 108.20601,52.9774159 107.401019,51.9556106 L107.401019,53.275292 L104.707926,53.275292 L104.707926,39.0783363 Z" id="Fill-19" fill="#FFFFFF" mask="url(#mask-2)"></path>
                    <path d="M117.133318,42.9951363 L119.825812,42.9951363 L119.825812,44.3996673 C120.546288,43.4843752 121.81821,42.7610478 123.090131,42.7610478 L123.090131,45.4004106 C122.899523,45.357685 122.645378,45.3149593 122.348677,45.3149593 C121.457972,45.3149593 120.270565,45.8258619 119.825812,46.4854018 L119.825812,53.2751717 L117.133318,53.2751717 L117.133318,42.9951363 Z" id="Fill-20" fill="#FFFFFF" mask="url(#mask-2)"></path>
                    <path d="M124.766407,53.275292 L127.458901,53.275292 L127.458901,42.9952566 L124.766407,42.9952566 L124.766407,53.275292 Z M124.490684,40.0574159 C124.490684,39.1637876 125.232738,38.4398584 126.101864,38.4398584 C126.992569,38.4398584 127.713045,39.1637876 127.713045,40.0574159 C127.713045,40.951646 126.992569,41.6755752 126.101864,41.6755752 C125.232738,41.6755752 124.490684,40.951646 124.490684,40.0574159 L124.490684,40.0574159 Z" id="Fill-21" fill="#FFFFFF" mask="url(#mask-2)"></path>
                    <path d="M134.901021,42.7395044 C137.000111,42.7395044 138.272033,43.6547965 138.950551,44.5917522 L137.19072,46.2514336 C136.70341,45.5281062 135.961355,45.1447788 135.028093,45.1447788 C133.395334,45.1447788 132.251084,46.336885 132.251084,48.1247434 C132.251084,49.9126018 133.395334,51.1257699 135.028093,51.1257699 C135.961355,51.1257699 136.70341,50.7003186 137.19072,50.019115 L138.950551,51.6577345 C138.272033,52.6157522 137.000111,53.5310442 134.901021,53.5310442 C131.741596,53.5310442 129.473476,51.2960708 129.473476,48.1247434 C129.473476,44.9744779 131.741596,42.7395044 134.901021,42.7395044" id="Fill-22" fill="#FFFFFF" mask="url(#mask-2)"></path>
                    <polygon id="Fill-23" fill="#FFFFFF" mask="url(#mask-2)" points="149.107463 42.9736531 146.754228 45.3789274 145.036954 43.5694053 149.48928 39.0783965 152.117638 39.0783965 152.117638 53.2753522 149.107463 53.2753522"></polygon>
                    <path d="M160.090945,41.5476991 C158.05539,41.5476991 157.292357,43.569646 157.292357,46.1873451 C157.292357,48.805646 158.05539,50.8492566 160.090945,50.8492566 C162.10492,50.8492566 162.867954,48.805646 162.867954,46.1873451 C162.867954,43.569646 162.10492,41.5476991 160.090945,41.5476991 M160.090945,38.8656106 C164.118896,38.8656106 165.942264,42.5267788 165.942264,46.1873451 C165.942264,49.8485133 164.118896,53.5307434 160.090945,53.5307434 C156.041414,53.5307434 154.239026,49.8485133 154.239026,46.1873451 C154.239026,42.5267788 156.041414,38.8656106 160.090945,38.8656106" id="Fill-24" fill="#FFFFFF" mask="url(#mask-2)"></path>
                    <polygon id="Fill-25" fill="#FFFFFF" mask="url(#mask-2)" points="170.968452 42.9736531 168.615217 45.3789274 166.897943 43.5694053 171.350269 39.0783965 173.978627 39.0783965 173.978627 53.2753522 170.968452 53.2753522"></polygon>
                    <path d="M10.6586078,49.9316177 C10.3684994,50.5424142 9.63243916,50.8041841 9.0240506,50.5123257 L0.697219277,46.5231929 C0.0888307229,46.2319363 -0.171307831,45.4935646 0.118800602,44.8821664 L1.56574639,41.8384142 C1.85585482,41.2276177 2.59191506,40.9664496 3.20030361,41.2577062 L11.5265355,45.2468389 C12.1355235,45.5380956 12.395662,46.2764673 12.1055536,46.8878655 L10.6586078,49.9316177 Z M37.6392916,62.8570336 C37.3485837,63.4678301 36.6131229,63.7289982 36.0047343,63.4377416 L22.3840235,56.9127504 C21.7756349,56.6214938 21.5154964,55.8831221 21.8062042,55.2717239 L23.2525506,52.2279717 C23.5432584,51.6165735 24.2787193,51.3554053 24.8871078,51.6472637 L38.5072193,58.1716531 C39.1162072,58.4635115 39.3763458,59.2018832 39.085638,59.8126796 L37.6392916,62.8570336 Z" id="Fill-26" fill="#FFFFFF" mask="url(#mask-2)"></path>
                    <path d="M43.4604012,15.7633027 C43.1702928,16.3740991 42.4348319,16.635869 41.825844,16.3440106 L28.2800578,9.85512566 C27.6716693,9.56326726 27.4115307,8.82489558 27.7016392,8.21409912 L29.1485849,5.16974513 C29.4386934,4.55894867 30.1741542,4.29778053 30.7831422,4.58903717 L44.3283289,11.0785239 C44.9373169,11.3697805 45.1974554,12.1081522 44.907347,12.7195504 L43.4604012,15.7633027 Z M65.1609916,26.1588779 C64.8702837,26.7702761 64.1348229,27.0314442 63.5264343,26.7395858 L55.1858169,22.7444354 C54.5774283,22.4531788 54.3172898,21.7142053 54.6079976,21.1034088 L56.054344,18.0596566 C56.3450518,17.4482584 57.0805127,17.1870903 57.6889012,17.4789487 L66.0289193,21.4740991 C66.6373078,21.7653558 66.8980458,22.5043292 66.607338,23.1151257 L65.1609916,26.1588779 Z" id="Fill-27" fill="#FFFFFF" mask="url(#mask-2)"></path>
                    <path d="M23.532769,22.8446301 C23.2426605,23.4554265 22.5066003,23.7171965 21.8982117,23.4253381 L13.5713804,19.4362053 C12.9629919,19.1449487 12.7028533,18.406577 12.9929617,17.7951788 L14.4399075,14.7514265 C14.730016,14.1406301 15.4660762,13.8794619 16.0744648,14.1707186 L24.4006967,18.1598513 C25.0096846,18.451108 25.2698232,19.1894796 24.9797148,19.8002761 L23.532769,22.8446301 Z" id="Fill-28" fill="#FFFFFF" mask="url(#mask-2)"></path>
                    <path d="M50.5132729,35.7697451 C50.2231645,36.3805416 49.4871042,36.6423115 48.8787157,36.3504531 L35.2586042,29.8260637 C34.6502157,29.5342053 34.3894777,28.7958336 34.6795861,28.1850372 L36.1271313,25.1406832 C36.4172398,24.5298867 37.1527006,24.2687186 37.7610892,24.5599752 L51.3812006,31.0849664 C51.9901886,31.376223 52.2503271,32.1145947 51.9602187,32.7259929 L50.5132729,35.7697451 Z" id="Fill-29" fill="#FFFFFF" mask="url(#mask-2)"></path>
                    <path d="M52.3026545,53.2542903 C52.0125461,53.8656885 51.2770852,54.1268566 50.6680973,53.8349982 L42.3118955,49.8320248 C41.7029075,49.5407681 41.442769,48.8017947 41.7334768,48.1909982 L43.1798232,45.147246 C43.470531,44.5358478 44.2059919,44.2746796 44.8143804,44.5659363 L53.1711816,48.5695115 C53.7795702,48.8607681 54.0397087,49.5991398 53.7496003,50.2105381 L52.3026545,53.2542903 Z" id="Fill-30" fill="#FFFFFF" mask="url(#mask-2)"></path>
                    <path d="M30.5859404,42.8508319 C30.2958319,43.4616283 29.5603711,43.7233982 28.9513831,43.4315398 L15.3636392,36.9221947 C14.7552506,36.6309381 14.495112,35.8925664 14.7852205,35.2811681 L16.2321663,32.2374159 C16.5222747,31.6266195 17.2583349,31.3648496 17.8667235,31.656708 L31.4544675,38.1660531 C32.062856,38.4573097 32.3229946,39.1956814 32.0328861,39.8064779 L30.5859404,42.8508319 Z" id="Fill-31" fill="#FFFFFF" mask="url(#mask-2)"></path>
                    <path d="M9.27597741,39.1664956 C8.98586898,39.7778938 8.25040813,40.0390619 7.64142018,39.7472035 L4.60846837,38.294531 C4.00007982,38.0026726 3.73994127,37.2643009 4.0300497,36.6535044 L10.5287184,22.9806903 C10.8188268,22.369292 11.5542877,22.1081239 12.1626762,22.3999823 L15.195628,23.8526549 C15.804616,24.1445133 16.0647545,24.882885 15.7746461,25.4936814 L9.27597741,39.1664956 Z" id="Fill-32" fill="#FFFFFF" mask="url(#mask-2)"></path>
                    <path d="M22.1501985,12.079508 C21.8600901,12.6903044 21.1240298,12.9520743 20.5156413,12.6602159 L17.4826895,11.2075434 C16.8743009,10.915685 16.613563,10.1773133 16.9042708,9.56651681 L20.836319,1.29338407 C21.1264274,0.682587611 21.8624877,0.420817699 22.4708762,0.712676106 L25.503828,2.16534867 C26.1122166,2.45720708 26.3723551,3.19557876 26.0822467,3.80637522 L22.1501985,12.079508 Z" id="Fill-33" fill="#FFFFFF" mask="url(#mask-2)"></path>
                    <path d="M45.876453,66.6980708 C45.5857452,67.309469 44.8502843,67.5706372 44.2418958,67.2787788 L41.208944,65.8261062 C40.6005554,65.5342478 40.3398175,64.7958761 40.6305253,64.1850796 L44.5625735,55.9119469 C44.8526819,55.3011504 45.5887422,55.0393805 46.1971307,55.3312389 L49.2300825,56.7839115 C49.8384711,57.0757699 50.0986096,57.8141416 49.8085012,58.4249381 L45.876453,66.6980708 Z" id="Fill-34" fill="#FFFFFF" mask="url(#mask-2)"></path>
                    <path d="M56.1838139,45.0108248 C55.8937054,45.622223 55.1582446,45.8833912 54.5492566,45.5915327 L51.5163048,44.1388602 C50.9079163,43.8470018 50.6477777,43.1086301 50.9378861,42.4978336 L57.4365548,28.8244177 C57.7272627,28.2136212 58.4627235,27.9518513 59.071112,28.2437097 L62.1040639,29.6963823 C62.7130518,29.9882407 62.9731904,30.7266124 62.6824825,31.3374088 L56.1838139,45.0108248 Z" id="Fill-35" fill="#FFFFFF" mask="url(#mask-2)"></path>
                    <path d="M49.1309422,25.0049239 C48.8408337,25.6157204 48.1047735,25.8774903 47.4963849,25.5856319 L44.4634331,24.1329593 C43.8550446,23.8411009 43.5943066,23.1027292 43.8850145,22.4919327 L47.8170627,14.2188 C48.1071711,13.6080035 48.8432313,13.3462336 49.4516199,13.638092 L52.4845717,15.0907646 C53.0929602,15.382623 53.3530988,16.1209947 53.0629904,16.7317912 L49.1309422,25.0049239 Z" id="Fill-36" fill="#FFFFFF" mask="url(#mask-2)"></path>
                    <path d="M36.256781,52.0919115 C35.9666726,52.702708 35.2306123,52.9644779 34.6222238,52.6726195 L31.589272,51.2199469 C30.9808834,50.9280885 30.7201455,50.1897168 31.0108533,49.5789204 L37.5089226,35.9061062 C37.7996304,35.294708 38.5350913,35.0335398 39.1434798,35.3253982 L42.1764316,36.7780708 C42.7854196,37.0699292 43.0455581,37.8083009 42.7554497,38.4190973 L36.256781,52.0919115 Z" id="Fill-37" fill="#FFFFFF" mask="url(#mask-2)"></path>
                    <path d="M18.8959491,53.7728956 C18.6052413,54.383692 17.8697804,54.6454619 17.2613919,54.3536035 L14.2284401,52.900931 C13.6200515,52.6090726 13.3593136,51.8707009 13.6500214,51.2599044 L17.5820696,42.9867717 C17.872178,42.3759752 18.6082383,42.1142053 19.2166268,42.4060637 L22.2495786,43.8587363 C22.8579672,44.1505947 23.1181057,44.8889664 22.8279973,45.4997628 L18.8959491,53.7728956 Z" id="Fill-38" fill="#FFFFFF" mask="url(#mask-2)"></path>
                    <path d="M29.2033099,32.0857097 C28.9132015,32.6965062 28.1777407,32.9582761 27.5687527,32.6664177 L24.5358009,31.2137451 C23.9274123,30.9218867 23.6672738,30.183515 23.9573822,29.5727186 L30.4560509,15.8993027 C30.7467587,15.2879044 31.4822196,15.0267363 32.0906081,15.3185947 L35.1235599,16.7712673 C35.7325479,17.0631257 35.9926864,17.8014973 35.7019786,18.4122938 L29.2033099,32.0857097 Z" id="Fill-39" fill="#FFFFFF" mask="url(#mask-2)"></path>
                </g>
            </g>
        </g>
    </g>
</svg>