<?xml version="1.0" encoding="UTF-8"?>
<svg width="20px" height="30px" viewBox="0 0 20 30" version="1.1" xmlns="http://www.w3.org/2000/svg" xmlns:xlink="http://www.w3.org/1999/xlink">
    <!-- Generator: Sketch 46.2 (44496) - http://www.bohemiancoding.com/sketch -->
    <title>Page 1@2x</title>
    <desc>Created with Sketch.</desc>
    <defs></defs>
    <g id="Symbols" stroke="none" stroke-width="1" fill="none" fill-rule="evenodd">
        <g id="Page-1" stroke="#DE7150">
            <g id="Group" transform="translate(4.000000, 17.000000)">
                <g id="Group-Copy">
                    <polygon id="Polygon" points="6.5 0 12.1291651 3 12.1291651 9 6.5 12 0.870834875 9 0.870834875 3"></polygon>
                    <path d="M11.9166667,3 L6.5,6 L11.9166667,3 Z" id="Polygon-Copy-3" fill="#D8D8D8"></path>
                    <path d="M6.5,12 L6.5,6 L6.5,12 Z" id="Polygon-Copy-2" fill="#D8D8D8"></path>
                    <path d="M6.5,6 L1.08333333,3 L6.5,6 Z" id="Polygon-Copy" fill="#D8D8D8"></path>
                </g>
            </g>
            <g id="Group-6" transform="translate(1.500000, 1.500000)" stroke-width="0.88825">
                <path d="M7.55457273,11.1132361 C8.89093636,4.28936773 2.72727269e-05,4.78068626 2.72727269e-05,4.78068626 C1.90911818,5.95439162 1.50002727,8.38368876 2.86366364,10.0760081 C4.03639091,11.4953727 6.49093636,11.6591456 7.2273,11.6591456 C7.2273,11.6591456 7.3125,11.6666667 7.55457273,11.1132361 Z" id="Fill-4"></path>
                <path d="M11.4618707,5.32261733 C10.3709616,7.01493669 10.8891434,9.55341573 11.1891434,10.6725301 C11.1891434,10.6725301 11.25,11.1111111 11.6255071,11.2457351 C20.5709616,10.5087573 16.534598,0 16.534598,0 C15.9073253,2.64766093 12.9073253,3.08438851 11.4618707,5.32261733 Z" id="Fill-4"></path>
                <path d="M9,19.5454545 C9.9,14.2425405 10.8,11.2880532 11.7,10.6819926" id="Path-2"></path>
                <path d="M9,19.5454545 C9.6,15.1516314 9,12.3486592 7.2,11.136538" id="Path-3"></path>
            </g>
        </g>
    </g>
</svg>