<?xml version="1.0" encoding="UTF-8"?>
<svg width="205px" height="48px" viewBox="0 0 205 48" version="1.1" xmlns="http://www.w3.org/2000/svg" xmlns:xlink="http://www.w3.org/1999/xlink">
    <!-- Generator: Sketch 46.2 (44496) - http://www.bohemiancoding.com/sketch -->
    <title>Page 1</title>
    <desc>Created with Sketch.</desc>
    <defs>
        <polygon id="path-1" points="0 47.83344 204.604428 47.83344 204.604428 0.00024 0 0.00024"></polygon>
    </defs>
    <g id="Academy" stroke="none" stroke-width="1" fill="none" fill-rule="evenodd">
        <g id="exports" transform="translate(-417.000000, -68.000000)">
            <g id="Page-1" transform="translate(417.000000, 68.000000)">
                <path d="M84.245261,18.7545 C85.3165513,18.7545 85.95139,18.1407 85.95139,17.1903 C85.95139,16.3581 85.3562287,15.6447 84.245261,15.6447 L80.614176,15.6447 L80.614176,18.7545 L84.245261,18.7545 Z M84.1460674,13.2489 C85.0983255,13.2489 85.694088,12.6351 85.694088,11.7837 C85.694088,10.9713 85.0983255,10.3383 84.1460674,10.3383 L80.614176,10.3383 L80.614176,13.2489 L84.1460674,13.2489 Z M77.796478,7.9419 L84.7610674,7.9419 C87.2811848,7.9419 88.5707009,9.5457 88.5707009,11.3085 C88.5707009,12.9717 87.539088,14.0811 86.2886481,14.3385 C87.6977977,14.5563 88.8286041,15.9225 88.8286041,17.5863 C88.8286041,19.5663 87.4994106,21.1503 84.9792933,21.1503 L77.796478,21.1503 L77.796478,7.9419 Z" id="Fill-1" fill="#FFFFFF"></path>
                <mask id="mask-2" fill="white">
                    <use xlink:href="#path-1"></use>
                </mask>
                <g id="Clip-4"></g>
                <polygon id="Fill-3" fill="#FFFFFF" mask="url(#mask-2)" points="90.8901466 21.15084 93.4102639 21.15084 93.4102639 7.94184 90.8901466 7.94184"></polygon>
                <path d="M102.814113,16.35798 C102.814113,14.87238 101.921371,13.58598 100.353512,13.58598 C98.7862537,13.58598 97.9133504,14.87238 97.9133504,16.35798 C97.9133504,17.86338 98.7862537,19.15038 100.353512,19.15038 C101.921371,19.15038 102.814113,17.86338 102.814113,16.35798 M95.2940396,16.35798 C95.2940396,13.64538 97.1991569,11.34798 100.353512,11.34798 C103.528306,11.34798 105.433424,13.64538 105.433424,16.35798 C105.433424,19.09098 103.528306,21.38838 100.353512,21.38838 C97.1991569,21.38838 95.2940396,19.09098 95.2940396,16.35798" id="Fill-5" fill="#FFFFFF" mask="url(#mask-2)"></path>
                <path d="M111.760349,11.34822 C113.724982,11.34822 114.915305,12.19962 115.550745,13.07082 L113.903531,14.61522 C113.44724,13.94202 112.752284,13.58562 111.879381,13.58562 C110.351801,13.58562 109.28051,14.69442 109.28051,16.35822 C109.28051,18.02142 110.351801,19.15062 111.879381,19.15062 C112.752284,19.15062 113.44724,18.75462 113.903531,18.12042 L115.550745,19.64502 C114.915305,20.53602 113.724982,21.38802 111.760349,21.38802 C108.804381,21.38802 106.681038,19.30902 106.681038,16.35822 C106.681038,13.42722 108.804381,11.34822 111.760349,11.34822" id="Fill-6" fill="#FFFFFF" mask="url(#mask-2)"></path>
                <polygon id="Fill-7" fill="#FFFFFF" mask="url(#mask-2)" points="120.866617 17.4672 119.715371 18.6948 119.715371 21.1506 117.195855 21.1506 117.195855 7.9416 119.715371 7.9416 119.715371 15.843 123.346456 11.5854 126.441896 11.5854 122.652101 15.9228 126.560928 21.1506 123.406573 21.1506"></polygon>
                <path d="M131.857383,11.34822 C133.821415,11.34822 135.011738,12.19962 135.647177,13.07082 L133.999963,14.61522 C133.543673,13.94202 132.848717,13.58562 131.975814,13.58562 C130.448233,13.58562 129.376943,14.69442 129.376943,16.35822 C129.376943,18.02142 130.448233,19.15062 131.975814,19.15062 C132.848717,19.15062 133.543673,18.75462 133.999963,18.12042 L135.647177,19.64502 C135.011738,20.53602 133.821415,21.38802 131.857383,21.38802 C128.900814,21.38802 126.778072,19.30902 126.778072,16.35822 C126.778072,13.42722 128.900814,11.34822 131.857383,11.34822" id="Fill-8" fill="#FFFFFF" mask="url(#mask-2)"></path>
                <path d="M143.780447,15.3285 C143.780447,14.0013 143.086092,13.5861 141.994362,13.5861 C141.022265,13.5861 140.248556,14.1405 139.811503,14.7147 L139.811503,21.1503 L137.291987,21.1503 L137.291987,7.9413 L139.811503,7.9413 L139.811503,12.8331 C140.427104,12.1005 141.617427,11.3481 143.185286,11.3481 C145.288189,11.3481 146.299963,12.4965 146.299963,14.3583 L146.299963,21.1503 L143.780447,21.1503 L143.780447,15.3285 Z" id="Fill-9" fill="#FFFFFF" mask="url(#mask-2)"></path>
                <path d="M154.552265,17.66526 C154.136254,17.11026 153.342104,16.83306 152.528717,16.83306 C151.53618,16.83306 150.722793,17.34846 150.722793,18.27846 C150.722793,19.17006 151.53618,19.68486 152.528717,19.68486 C153.342104,19.68486 154.136254,19.40766 154.552265,18.85326 L154.552265,17.66526 Z M154.552265,20.16006 C153.897588,20.93226 152.766782,21.38826 151.516342,21.38826 C149.988761,21.38826 148.182837,20.35806 148.182837,18.21966 C148.182837,15.98166 149.988761,15.16986 151.516342,15.16986 C152.786019,15.16986 153.917427,15.56586 154.552265,16.33806 L154.552265,15.01146 C154.552265,14.04126 153.71904,13.40706 152.449362,13.40706 C151.417148,13.40706 150.46489,13.78386 149.651503,14.53626 L148.699245,12.85266 C149.869729,11.82366 151.378072,11.34846 152.885814,11.34846 C155.068072,11.34846 157.072383,12.21966 157.072383,14.97186 L157.072383,21.15066 L154.552265,21.15066 L154.552265,20.16006 Z" id="Fill-10" fill="#FFFFFF" mask="url(#mask-2)"></path>
                <path d="M159.570557,21.15024 L162.090073,21.15024 L162.090073,11.58564 L159.570557,11.58564 L159.570557,21.15024 Z M159.312654,8.85264 C159.312654,8.02104 160.00761,7.34784 160.820396,7.34784 C161.654223,7.34784 162.328739,8.02104 162.328739,8.85264 C162.328739,9.68484 161.654223,10.35804 160.820396,10.35804 C160.00761,10.35804 159.312654,9.68484 159.312654,8.85264 L159.312654,8.85264 Z" id="Fill-11" fill="#FFFFFF" mask="url(#mask-2)"></path>
                <path d="M171.058132,15.36774 C171.058132,14.04114 170.363777,13.58574 169.291886,13.58574 C168.29995,13.58574 167.52624,14.14014 167.109628,14.71434 L167.109628,21.15054 L164.58951,21.15054 L164.58951,11.58534 L167.109628,11.58534 L167.109628,12.83274 C167.724628,12.10074 168.895111,11.34834 170.462971,11.34834 C172.566475,11.34834 173.577648,12.53574 173.577648,14.39754 L173.577648,21.15054 L171.058132,21.15054 L171.058132,15.36774 Z" id="Fill-12" fill="#FFFFFF" mask="url(#mask-2)"></path>
                <path d="M181.710738,13.78398 L180.12304,13.78398 L180.12304,11.58558 L181.710738,11.58558 L181.710738,11.07078 C181.710738,8.99178 183.05977,7.74438 184.944447,7.74438 C185.658641,7.74438 186.313318,7.90218 186.77021,8.13978 L186.254403,9.92178 C186.035576,9.78378 185.737996,9.72378 185.440415,9.72378 C184.726823,9.72378 184.250694,10.19898 184.250694,11.11038 L184.250694,11.58558 L186.194887,11.58558 L186.194887,13.78398 L184.250694,13.78398 L184.250694,21.15018 L181.710738,21.15018 L181.710738,13.78398 Z" id="Fill-13" fill="#FFFFFF" mask="url(#mask-2)"></path>
                <path d="M194.547284,16.35798 C194.547284,14.87238 193.654543,13.58598 192.086683,13.58598 C190.519425,13.58598 189.646522,14.87238 189.646522,16.35798 C189.646522,17.86338 190.519425,19.15038 192.086683,19.15038 C193.654543,19.15038 194.547284,17.86338 194.547284,16.35798 M187.02661,16.35798 C187.02661,13.64538 188.931727,11.34798 192.086683,11.34798 C195.260877,11.34798 197.165994,13.64538 197.165994,16.35798 C197.165994,19.09098 195.260877,21.38838 192.086683,21.38838 C188.931727,21.38838 187.02661,19.09098 187.02661,16.35798" id="Fill-14" fill="#FFFFFF" mask="url(#mask-2)"></path>
                <path d="M199.029089,11.58552 L201.548606,11.58552 L201.548606,12.89292 C202.223723,12.04092 203.414045,11.36772 204.604368,11.36772 L204.604368,13.82292 C204.426421,13.78392 204.187755,13.74432 203.910013,13.74432 C203.076787,13.74432 201.96582,14.21952 201.548606,14.83332 L201.548606,21.15012 L199.029089,21.15012 L199.029089,11.58552 Z" id="Fill-15" fill="#FFFFFF" mask="url(#mask-2)"></path>
                <path d="M83.6103021,36.75798 L80.6146569,36.75798 L80.6146569,40.40118 L83.6103021,40.40118 C84.7212698,40.40118 85.5544956,39.68898 85.5544956,38.57958 C85.5544956,37.49058 84.7212698,36.75798 83.6103021,36.75798 L83.6103021,36.75798 Z M77.7969589,34.34178 L83.9872375,34.34178 C86.8644516,34.34178 88.4317097,36.28278 88.4317097,38.59938 C88.4317097,40.89618 86.8446129,42.81798 83.9872375,42.81798 L80.6146569,42.81798 L80.6146569,47.55018 L77.7969589,47.55018 L77.7969589,34.34178 Z" id="Fill-16" fill="#FFFFFF" mask="url(#mask-2)"></path>
                <path d="M90.1163768,37.98552 L92.6364941,37.98552 L92.6364941,39.29292 C93.3110103,38.44092 94.5013328,37.76772 95.6916554,37.76772 L95.6916554,40.22292 C95.5137082,40.18392 95.2756437,40.14432 94.9973006,40.14432 C94.1640748,40.14432 93.053107,40.61952 92.6364941,41.23332 L92.6364941,47.55012 L90.1163768,47.55012 L90.1163768,37.98552 Z" id="Fill-17" fill="#FFFFFF" mask="url(#mask-2)"></path>
                <path d="M104.162905,42.75798 C104.162905,41.27238 103.270163,39.98598 101.702304,39.98598 C100.135045,39.98598 99.2621422,41.27238 99.2621422,42.75798 C99.2621422,44.26338 100.135045,45.55038 101.702304,45.55038 C103.270163,45.55038 104.162905,44.26338 104.162905,42.75798 M96.6428314,42.75798 C96.6428314,40.04538 98.5479487,37.74798 101.702304,37.74798 C104.877098,37.74798 106.781614,40.04538 106.781614,42.75798 C106.781614,45.49098 104.877098,47.78838 101.702304,47.78838 C98.5479487,47.78838 96.6428314,45.49098 96.6428314,42.75798" id="Fill-18" fill="#FFFFFF" mask="url(#mask-2)"></path>
                <path d="M109.201276,40.18398 L107.613578,40.18398 L107.613578,37.98558 L109.201276,37.98558 L109.201276,37.47078 C109.201276,35.39178 110.550308,34.14438 112.434985,34.14438 C113.149179,34.14438 113.803856,34.30218 114.260748,34.53978 L113.744941,36.32178 C113.526114,36.18378 113.228534,36.12378 112.930953,36.12378 C112.217361,36.12378 111.741232,36.59898 111.741232,37.51038 L111.741232,37.98558 L113.685425,37.98558 L113.685425,40.18398 L111.741232,40.18398 L111.741232,47.55018 L109.201276,47.55018 L109.201276,40.18398 Z" id="Fill-19" fill="#FFFFFF" mask="url(#mask-2)"></path>
                <path d="M117.116921,41.8668 L121.839135,41.8668 C121.779619,40.956 121.14478,39.7482 119.478328,39.7482 C117.910469,39.7482 117.235953,40.9164 117.116921,41.8668 M119.478328,37.7484 C122.335103,37.7484 124.279897,39.8868 124.279897,43.0158 L124.279897,43.5702 L117.155997,43.5702 C117.315308,44.778 118.287405,45.7878 119.914179,45.7878 C120.807522,45.7878 121.858974,45.4314 122.473974,44.8374 L123.585543,46.461 C122.632683,47.3322 121.124941,47.7882 119.636437,47.7882 C116.720147,47.7882 114.517449,45.828 114.517449,42.7578 C114.517449,39.9858 116.561437,37.7484 119.478328,37.7484" id="Fill-20" fill="#FFFFFF" mask="url(#mask-2)"></path>
                <path d="M126.361098,44.5404 C127.054852,45.1938 128.48384,45.8472 129.674764,45.8472 C130.765292,45.8472 131.281699,45.471 131.281699,44.877 C131.281699,44.2032 130.448474,43.9662 129.356743,43.7484 C127.71013,43.431 125.586787,43.035 125.586787,40.758 C125.586787,39.1536 126.995937,37.7484 129.515453,37.7484 C131.142828,37.7484 132.432345,38.3028 133.385204,39.0546 L132.372828,40.7778 C131.797506,40.164 130.706377,39.669 129.535292,39.669 C128.622711,39.669 128.026949,40.005 128.026949,40.56 C128.026949,41.154 128.781421,41.3718 129.853312,41.5896 C131.499925,41.9064 133.702022,42.342 133.702022,44.7186 C133.702022,46.461 132.214119,47.7882 129.55513,47.7882 C127.888679,47.7882 126.281142,47.2332 125.269969,46.3032 L126.361098,44.5404 Z" id="Fill-21" fill="#FFFFFF" mask="url(#mask-2)"></path>
                <path d="M135.824283,44.5404 C136.518037,45.1938 137.947025,45.8472 139.137949,45.8472 C140.228477,45.8472 140.744884,45.471 140.744884,44.877 C140.744884,44.2032 139.911658,43.9662 138.819928,43.7484 C137.173315,43.431 135.049972,43.035 135.049972,40.758 C135.049972,39.1536 136.459122,37.7484 138.978638,37.7484 C140.606013,37.7484 141.895529,38.3028 142.848389,39.0546 L141.836013,40.7778 C141.260691,40.164 140.169562,39.669 138.998477,39.669 C138.085896,39.669 137.490735,40.005 137.490735,40.56 C137.490735,41.154 138.244606,41.3718 139.316497,41.5896 C140.96311,41.9064 143.165207,42.342 143.165207,44.7186 C143.165207,46.461 141.677304,47.7882 139.018315,47.7882 C137.351864,47.7882 135.744327,47.2332 134.733154,46.3032 L135.824283,44.5404 Z" id="Fill-22" fill="#FFFFFF" mask="url(#mask-2)"></path>
                <path d="M145.028783,47.55024 L147.548299,47.55024 L147.548299,37.98564 L145.028783,37.98564 L145.028783,47.55024 Z M144.77088,35.25264 C144.77088,34.42104 145.465235,33.74784 146.278622,33.74784 C147.112449,33.74784 147.786965,34.42104 147.786965,35.25264 C147.786965,36.08484 147.112449,36.75804 146.278622,36.75804 C145.465235,36.75804 144.77088,36.08484 144.77088,35.25264 L144.77088,35.25264 Z" id="Fill-23" fill="#FFFFFF" mask="url(#mask-2)"></path>
                <path d="M156.95287,42.75798 C156.95287,41.27238 156.060128,39.98598 154.492268,39.98598 C152.92501,39.98598 152.052107,41.27238 152.052107,42.75798 C152.052107,44.26338 152.92501,45.55038 154.492268,45.55038 C156.060128,45.55038 156.95287,44.26338 156.95287,42.75798 M149.432195,42.75798 C149.432195,40.04538 151.337312,37.74798 154.492268,37.74798 C157.666462,37.74798 159.571579,40.04538 159.571579,42.75798 C159.571579,45.49098 157.666462,47.78838 154.492268,47.78838 C151.337312,47.78838 149.432195,45.49098 149.432195,42.75798" id="Fill-24" fill="#FFFFFF" mask="url(#mask-2)"></path>
                <path d="M167.903717,41.76774 C167.903717,40.44114 167.209362,39.98574 166.137471,39.98574 C165.145535,39.98574 164.371826,40.54014 163.955213,41.11434 L163.955213,47.55054 L161.435095,47.55054 L161.435095,37.98534 L163.955213,37.98534 L163.955213,39.23274 C164.570213,38.50074 165.740696,37.74834 167.308556,37.74834 C169.41206,37.74834 170.423233,38.93574 170.423233,40.79754 L170.423233,47.55054 L167.903717,47.55054 L167.903717,41.76774 Z" id="Fill-25" fill="#FFFFFF" mask="url(#mask-2)"></path>
                <path d="M178.675535,44.06526 C178.259523,43.51026 177.465374,43.23306 176.651987,43.23306 C175.65945,43.23306 174.846063,43.74846 174.846063,44.67846 C174.846063,45.57006 175.65945,46.08486 176.651987,46.08486 C177.465374,46.08486 178.259523,45.80766 178.675535,45.25326 L178.675535,44.06526 Z M178.675535,46.56006 C178.020858,47.33226 176.890051,47.78826 175.639611,47.78826 C174.112031,47.78826 172.306107,46.75806 172.306107,44.61966 C172.306107,42.38166 174.112031,41.56986 175.639611,41.56986 C176.909289,41.56986 178.040696,41.96586 178.675535,42.73806 L178.675535,41.41146 C178.675535,40.44126 177.842309,39.80706 176.572632,39.80706 C175.540418,39.80706 174.58816,40.18386 173.774773,40.93626 L172.822515,39.25266 C173.992999,38.22366 175.501342,37.74846 177.009084,37.74846 C179.191342,37.74846 181.195652,38.61966 181.195652,41.37186 L181.195652,47.55066 L178.675535,47.55066 L178.675535,46.56006 Z" id="Fill-26" fill="#FFFFFF" mask="url(#mask-2)"></path>
                <polygon id="Fill-27" fill="#FFFFFF" mask="url(#mask-2)" points="183.693827 47.55084 186.213343 47.55084 186.213343 34.34184 183.693827 34.34184"></polygon>
                <path d="M188.971164,44.5404 C189.664918,45.1938 191.093906,45.8472 192.28483,45.8472 C193.375358,45.8472 193.891765,45.471 193.891765,44.877 C193.891765,44.2032 193.05854,43.9662 191.966809,43.7484 C190.320196,43.431 188.196853,43.035 188.196853,40.758 C188.196853,39.1536 189.606003,37.7484 192.125519,37.7484 C193.752894,37.7484 195.042411,38.3028 195.99527,39.0546 L194.982894,40.7778 C194.407572,40.164 193.316443,39.669 192.145358,39.669 C191.232777,39.669 190.637015,40.005 190.637015,40.56 C190.637015,41.154 191.391487,41.3718 192.463378,41.5896 C194.109991,41.9064 196.312088,42.342 196.312088,44.7186 C196.312088,46.461 194.824185,47.7882 192.165196,47.7882 C190.498745,47.7882 188.891208,47.2332 187.880035,46.3032 L188.971164,44.5404 Z" id="Fill-28" fill="#FFFFFF" mask="url(#mask-2)"></path>
                <path d="M38.7181276,28.59528 L34.6241393,28.59528 L34.6241393,30.23508 C34.6241393,31.19268 33.8462214,31.96848 32.8867493,31.96848 L31.11389,31.96848 C30.1538167,31.96848 29.3765,31.19268 29.3765,30.23508 L29.3765,28.59528 L25.2825117,28.59528 L0.000180351906,24.72168 L0.000180351906,47.83308 L64.0004589,47.83308 L64.0004589,24.72168 L38.7181276,28.59528 Z" id="Fill-29" fill="#FFFFFF" mask="url(#mask-2)"></path>
                <path d="M23.8106598,7.83762 C24.0589443,5.66922 25.2799267,4.13322 31.3084897,4.13322 L32.6917889,4.13322 C38.7203519,4.13322 39.9419355,5.66922 40.1902199,7.83762 L23.8106598,7.83762 Z M44.2950293,7.83762 C43.6938563,2.37642 40.134912,-0.00018 32.6917889,-0.00018 L31.3084897,-0.00018 C23.8653666,-0.00018 20.3064223,2.37642 19.7052493,7.83762 L0,7.83762 L0,23.71782 L25.2823314,27.59142 L29.3763196,27.59142 L29.3763196,25.43622 C29.3763196,24.47862 30.1542375,23.70222 31.1137097,23.70222 L32.8871701,23.70222 C33.8466422,23.70222 34.6239589,24.47862 34.6239589,25.43622 L34.6239589,27.59142 L38.7179472,27.59142 L64.0008798,23.71782 L64.0008798,7.83762 L44.2950293,7.83762 Z" id="Fill-30" fill="#FFFFFF" mask="url(#mask-2)"></path>
            </g>
        </g>
    </g>
</svg>