<?xml version="1.0" encoding="UTF-8"?>
<svg width="182px" height="70px" viewBox="0 0 182 70" version="1.1" xmlns="http://www.w3.org/2000/svg" xmlns:xlink="http://www.w3.org/1999/xlink">
    <!-- Generator: Sketch 46.2 (44496) - http://www.bohemiancoding.com/sketch -->
    <title>Page 1</title>
    <desc>Created with Sketch.</desc>
    <defs>
        <polygon id="path-1" points="9.2088396 0.344615385 0.208549175 0.344615385 0.208549175 13.5158034 9.2088396 13.5158034 9.2088396 0.344615385"></polygon>
        <polygon id="path-3" points="0 69.4017094 181.984983 69.4017094 181.984983 0.344615385 0 0.344615385"></polygon>
    </defs>
    <g id="Academy" stroke="none" stroke-width="1" fill="none" fill-rule="evenodd">
        <g id="exports" transform="translate(0.000000, -137.000000)">
            <g id="Page-1" transform="translate(0.000000, 137.000000)">
                <polygon id="Fill-1" fill="#FFFFFF" points="70.3096634 0.598230769 70.3096634 13.7695983 79.6667459 13.7695983 79.6667459 11.3405385 73.1249571 11.3405385 73.1249571 8.27968376 79.5279934 8.27968376 79.5279934 5.87096581 73.1249571 5.87096581 73.1249571 3.00754701 79.6667459 3.00754701 79.6667459 0.598230769"></polygon>
                <g id="Group-44" transform="translate(0.000000, 0.253675)">
                    <path d="M82.3016013,11.146094 L82.3016013,6.1707094 L80.7158587,6.1707094 L80.7158587,3.97857265 L82.3016013,3.97857265 L82.3016013,1.37182051 L84.8393901,1.37182051 L84.8393901,3.97857265 L86.7819248,3.97857265 L86.7819248,6.1707094 L84.8393901,6.1707094 L84.8393901,10.474812 C84.8393901,11.0671197 85.1565386,11.5218205 85.7115485,11.5218205 C86.0881624,11.5218205 86.4449545,11.3830171 86.5837069,11.244812 L87.1194957,13.1407949 C86.7422812,13.4764359 86.0683406,13.7528462 85.0177861,13.7528462 C83.2530469,13.7528462 82.3016013,12.844641 82.3016013,11.146094 Z" id="Fill-2" fill="#FFFFFF"></path>
                    <g id="Group-6" transform="translate(88.297030, 0.000000)">
                        <mask id="mask-2" fill="white">
                            <use xlink:href="#path-1"></use>
                        </mask>
                        <g id="Clip-5"></g>
                        <path d="M6.69147327,7.71058974 C6.69147327,6.38717094 5.99771089,5.97315385 4.90691221,5.97315385 C3.93564488,5.97315385 3.16259538,6.52597436 2.72651617,7.09853846 L2.72651617,13.5158034 L0.208549175,13.5158034 L0.208549175,0.344435897 L2.72651617,0.344435897 L2.72651617,5.22229915 C3.34099142,4.49178632 4.53029835,3.74152991 6.0968198,3.74152991 C8.19792871,3.74152991 9.2088396,4.88665812 9.2088396,6.74315385 L9.2088396,13.5158034 L6.69147327,13.5158034 L6.69147327,7.71058974 Z" id="Fill-4" fill="#FFFFFF" mask="url(#mask-2)"></path>
                    </g>
                    <path d="M101.984631,7.8484359 L106.702816,7.8484359 C106.64335,6.94023077 106.009053,5.73587179 104.344024,5.73587179 C102.777502,5.73587179 102.103562,6.90074359 101.984631,7.8484359 M104.344024,3.74176923 C107.19836,3.74176923 109.141496,5.87407692 109.141496,8.99416239 L109.141496,9.54698291 L102.023674,9.54698291 C102.182849,10.7513419 103.154116,11.758265 104.779502,11.758265 C105.672083,11.758265 106.722638,11.4028803 107.337113,10.8105726 L108.447733,12.429547 C107.495687,13.298265 105.989232,13.7529658 104.501997,13.7529658 C101.588195,13.7529658 99.3873769,11.7983504 99.3873769,8.73689744 C99.3873769,5.97279487 101.429621,3.74176923 104.344024,3.74176923" id="Fill-7" fill="#FFFFFF"></path>
                    <path d="M110.963478,3.9782735 L113.480844,3.9782735 L113.480844,5.28194872 C114.154785,4.43237607 115.344692,3.76109402 116.533999,3.76109402 L116.533999,6.20929915 C116.356204,6.17041026 116.117742,6.13092308 115.840237,6.13092308 C115.007722,6.13092308 113.897702,6.60476923 113.480844,7.21682051 L113.480844,13.5156239 L110.963478,13.5156239 L110.963478,3.9782735 Z" id="Fill-9" fill="#FFFFFF"></path>
                    <path d="M120.081317,7.8484359 L124.799502,7.8484359 C124.740037,6.94023077 124.10574,5.73587179 122.44071,5.73587179 C120.874189,5.73587179 120.200248,6.90074359 120.081317,7.8484359 M122.44071,3.74176923 C125.295047,3.74176923 127.238182,5.87407692 127.238182,8.99416239 L127.238182,9.54698291 L120.12036,9.54698291 C120.279535,10.7513419 121.250803,11.758265 122.876189,11.758265 C123.76877,11.758265 124.819324,11.4028803 125.433799,10.8105726 L126.54442,12.429547 C125.592374,13.298265 124.085918,13.7529658 122.598684,13.7529658 C119.684882,13.7529658 117.484664,11.7983504 117.484664,8.73689744 C117.484664,5.97279487 119.526308,3.74176923 122.44071,3.74176923" id="Fill-11" fill="#FFFFFF"></path>
                    <path d="M135.523086,12.3110855 C134.868968,13.0421966 133.718704,13.7529658 132.153383,13.7529658 C130.051674,13.7529658 129.059984,12.6072393 129.059984,10.7513419 L129.059984,3.97809402 L131.577951,3.97809402 L131.577951,9.76416239 C131.577951,11.0869829 132.271714,11.5219402 133.34209,11.5219402 C134.313357,11.5219402 135.086407,10.988265 135.523086,10.4354444 L135.523086,3.97809402 L138.040453,3.97809402 L138.040453,13.5160427 L135.523086,13.5160427 L135.523086,12.3110855 Z" id="Fill-13" fill="#FFFFFF"></path>
                    <path d="M152.412506,7.49323077 C152.412506,6.60476923 152.016071,5.97297436 150.984737,5.97297436 C150.092757,5.97297436 149.359351,6.56468376 149.001958,7.07861538 L149.001958,13.5156239 L146.46477,13.5156239 L146.46477,7.49323077 C146.46477,6.60476923 146.068335,5.97297436 145.037602,5.97297436 C144.165444,5.97297436 143.432038,6.56468376 143.054823,7.09835897 L143.054823,13.5156239 L140.536856,13.5156239 L140.536856,3.9782735 L143.054823,3.9782735 L143.054823,5.22211966 C143.451259,4.64955556 144.719853,3.74135043 146.187265,3.74135043 C147.594612,3.74135043 148.487193,4.39288889 148.843985,5.47938462 C149.398394,4.61066667 150.667589,3.74135043 152.134401,3.74135043 C153.89914,3.74135043 154.950295,4.66929915 154.950295,6.62451282 L154.950295,13.5156239 L152.412506,13.5156239 L152.412506,7.49323077 Z" id="Fill-15" fill="#FFFFFF"></path>
                    <path d="M77.9617723,34.9596752 L76.4553168,33.2018974 L78.4176733,31.6224103 L79.9247294,33.3795897 C80.3608086,32.6885641 80.59867,31.8198462 80.59867,30.8721538 C80.59867,28.4036068 79.0129274,26.5471111 76.5742475,26.5471111 C74.1355677,26.5471111 72.5696469,28.4036068 72.5696469,30.8721538 C72.5696469,33.320359 74.1355677,35.1965983 76.5742475,35.1965983 C77.0697921,35.1965983 77.5455149,35.1176239 77.9617723,34.9596752 M81.7681551,35.5322393 L82.7394224,36.6576239 L80.777066,38.257453 L79.7265116,37.0130085 C78.7942871,37.4473675 77.7239109,37.6848889 76.5742475,37.6848889 C72.5894686,37.6848889 69.675066,34.8412137 69.675066,30.8721538 C69.675066,26.9024957 72.5894686,24.0594188 76.5742475,24.0594188 C80.5788482,24.0594188 83.4926502,26.9024957 83.4926502,30.8721538 C83.4926502,32.7286496 82.8385314,34.3272821 81.7681551,35.5322393" id="Fill-17" fill="#FFFFFF"></path>
                    <path d="M88.0703406,32.7476154 L92.4515551,32.7476154 L90.2711591,26.7054786 L88.0703406,32.7476154 Z M93.2252053,35.1766752 L87.3171129,35.1766752 L86.484598,37.447188 L83.3917993,37.447188 L88.5064198,24.2764188 L92.0352977,24.2764188 L97.1300964,37.447188 L94.0571195,37.447188 L93.2252053,35.1766752 Z" id="Fill-19" fill="#FFFFFF"></path>
                    <polygon id="Fill-21" fill="#FFFFFF" points="103.431741 24.276359 112.788824 24.276359 112.788824 26.6856752 106.247035 26.6856752 106.247035 29.549094 112.650071 29.549094 112.650071 31.957812 106.247035 31.957812 106.247035 35.0186667 112.788824 35.0186667 112.788824 37.4477265 103.431741 37.4477265"></polygon>
                    <path d="M121.391117,31.6813419 C121.391117,30.3585214 120.697354,29.9044188 119.626378,29.9044188 C118.635288,29.9044188 117.862239,30.4572393 117.445982,31.0298034 L117.445982,37.4476667 L114.928015,37.4476667 L114.928015,27.9097179 L117.445982,27.9097179 L117.445982,29.1535641 C118.060457,28.4236496 119.229942,27.6733932 120.796463,27.6733932 C122.898173,27.6733932 123.908483,28.8574103 123.908483,30.713906 L123.908483,37.4476667 L121.391117,37.4476667 L121.391117,31.6813419 Z" id="Fill-23" fill="#FFFFFF"></path>
                    <path d="M132.966737,30.9901368 C132.55048,30.3583419 131.638678,29.9048376 130.805562,29.9048376 C129.378394,29.9048376 128.387305,30.8914188 128.387305,32.530735 C128.387305,34.169453 129.378394,35.1572308 130.805562,35.1572308 C131.638678,35.1572308 132.55048,34.6827863 132.966737,34.070735 L132.966737,30.9901368 Z M127.33675,38.0792821 C128.1098,38.9288547 129.120711,39.2638974 130.32984,39.2638974 C131.539569,39.2638974 132.966737,38.7308205 132.966737,36.8551795 L132.966737,35.8877436 C132.21351,36.8354359 131.182176,37.3882564 130.012691,37.3882564 C127.614255,37.3882564 125.790651,35.7100513 125.790651,32.530735 C125.790651,29.4106496 127.594434,27.6732137 130.012691,27.6732137 C131.162354,27.6732137 132.193688,28.1662051 132.966737,29.1342393 L132.966737,27.9101368 L135.504526,27.9101368 L135.504526,36.7959487 C135.504526,40.4287692 132.689232,41.3178291 130.32984,41.3178291 C128.684632,41.3178291 127.416038,40.9427009 126.206308,39.8962906 L127.33675,38.0792821 Z" id="Fill-25" fill="#FFFFFF"></path>
                    <mask id="mask-4" fill="white">
                        <use xlink:href="#path-3"></use>
                    </mask>
                    <g id="Clip-28"></g>
                    <path d="M138.000449,37.4470085 L140.517815,37.4470085 L140.517815,27.9096581 L138.000449,27.9096581 L138.000449,37.4470085 Z M137.742766,25.1850427 C137.742766,24.355812 138.436528,23.6845299 139.249221,23.6845299 C140.081736,23.6845299 140.755677,24.355812 140.755677,25.1850427 C140.755677,26.0142735 140.081736,26.6861538 139.249221,26.6861538 C138.436528,26.6861538 137.742766,26.0142735 137.742766,25.1850427 L137.742766,25.1850427 Z" id="Fill-27" fill="#FFFFFF" mask="url(#mask-4)"></path>
                    <path d="M149.477861,31.6813419 C149.477861,30.3585214 148.784099,29.9044188 147.713122,29.9044188 C146.722033,29.9044188 145.948983,30.4572393 145.532726,31.0298034 L145.532726,37.4476667 L143.014759,37.4476667 L143.014759,27.9097179 L145.532726,27.9097179 L145.532726,29.1535641 C146.147201,28.4236496 147.316686,27.6733932 148.883208,27.6733932 C150.984917,27.6733932 151.995228,28.8574103 151.995228,30.713906 L151.995228,37.4476667 L149.477861,37.4476667 L149.477861,31.6813419 Z" id="Fill-29" fill="#FFFFFF" mask="url(#mask-4)"></path>
                    <path d="M156.473989,31.7800598 L161.192174,31.7800598 C161.132709,30.8718547 160.498412,29.6674957 158.833382,29.6674957 C157.266861,29.6674957 156.59292,30.8323675 156.473989,31.7800598 M158.833382,27.6733932 C161.687719,27.6733932 163.630854,29.8057009 163.630854,32.9257863 L163.630854,33.4786068 L156.513032,33.4786068 C156.672207,34.6829658 157.643475,35.6898889 159.268861,35.6898889 C160.161442,35.6898889 161.211996,35.3345043 161.826471,34.7421966 L162.937092,36.3611709 C161.985046,37.2298889 160.47859,37.6845897 158.991356,37.6845897 C156.077554,37.6845897 153.877336,35.7299744 153.877336,32.6685214 C153.877336,29.9044188 155.91898,27.6733932 158.833382,27.6733932" id="Fill-30" fill="#FFFFFF" mask="url(#mask-4)"></path>
                    <path d="M167.435495,31.7800598 L172.15368,31.7800598 C172.094215,30.8718547 171.459917,29.6674957 169.794888,29.6674957 C168.228366,29.6674957 167.554426,30.8323675 167.435495,31.7800598 M169.794888,27.6733932 C172.649224,27.6733932 174.59236,29.8057009 174.59236,32.9257863 L174.59236,33.4786068 L167.474538,33.4786068 C167.633713,34.6829658 168.60498,35.6898889 170.230366,35.6898889 C171.122947,35.6898889 172.173502,35.3345043 172.787977,34.7421966 L173.898597,36.3611709 C172.946551,37.2298889 171.440096,37.6845897 169.952861,37.6845897 C167.039059,37.6845897 164.838241,35.7299744 164.838241,32.6685214 C164.838241,29.9044188 166.880485,27.6733932 169.794888,27.6733932" id="Fill-31" fill="#FFFFFF" mask="url(#mask-4)"></path>
                    <path d="M176.414282,27.9098974 L178.931648,27.9098974 L178.931648,29.2135726 C179.605589,28.364 180.795496,27.6927179 181.984803,27.6927179 L181.984803,30.1409231 C181.807008,30.1020342 181.568546,30.062547 181.291041,30.062547 C180.458526,30.062547 179.348506,30.5363932 178.931648,31.1484444 L178.931648,37.4472479 L176.414282,37.4472479 L176.414282,27.9098974 Z" id="Fill-32" fill="#FFFFFF" mask="url(#mask-4)"></path>
                    <path d="M69.6751261,54.8037778 C69.6751261,50.7551453 72.748103,47.9910427 76.6139512,47.9910427 C79.626862,47.9910427 81.3123142,49.5705299 82.243938,51.2098462 L79.8250799,52.3944615 C79.2706706,51.3277094 78.080763,50.478735 76.6139512,50.478735 C74.3140238,50.478735 72.5697069,52.3154872 72.5697069,54.8037778 C72.5697069,57.2914701 74.3140238,59.1282222 76.6139512,59.1282222 C78.080763,59.1282222 79.2706706,58.2989915 79.8250799,57.2124957 L82.243938,58.3779658 C81.2924924,60.0166838 79.626862,61.6165128 76.6139512,61.6165128 C72.748103,61.6165128 69.6751261,58.851812 69.6751261,54.8037778" id="Fill-33" fill="#FFFFFF" mask="url(#mask-4)"></path>
                    <path d="M90.7665835,56.6003846 C90.7665835,55.1190171 89.8746033,53.8362821 88.3080818,53.8362821 C86.7421611,53.8362821 85.8700026,55.1190171 85.8700026,56.6003846 C85.8700026,58.1014957 86.7421611,59.3848291 88.3080818,59.3848291 C89.8746033,59.3848291 90.7665835,58.1014957 90.7665835,56.6003846 M83.2529267,56.6003846 C83.2529267,53.8955128 85.1564185,51.6046581 88.3080818,51.6046581 C91.4801677,51.6046581 93.3830587,53.8955128 93.3830587,56.6003846 C93.3830587,59.3255983 91.4801677,61.616453 88.3080818,61.616453 C85.1564185,61.616453 83.2529267,59.3255983 83.2529267,56.6003846" id="Fill-34" fill="#FFFFFF" mask="url(#mask-4)"></path>
                    <path d="M101.707787,60.1743333 C101.053668,60.9054444 99.903404,61.6162137 98.3380838,61.6162137 C96.2363743,61.6162137 95.2446845,60.4704872 95.2446845,58.6145897 L95.2446845,51.8413419 L97.7626515,51.8413419 L97.7626515,57.6274103 C97.7626515,58.9502308 98.4564139,59.385188 99.5267901,59.385188 C100.498057,59.385188 101.271107,58.8515128 101.707787,58.2986923 L101.707787,51.8413419 L104.225153,51.8413419 L104.225153,61.3792906 L101.707787,61.3792906 L101.707787,60.1743333 Z" id="Fill-35" fill="#FFFFFF" mask="url(#mask-4)"></path>
                    <path d="M106.721857,51.8415214 L109.239223,51.8415214 L109.239223,53.1451966 C109.913764,52.2956239 111.103071,51.6243419 112.292378,51.6243419 L112.292378,54.072547 C112.114583,54.0336581 111.876121,53.9941709 111.598616,53.9941709 C110.766101,53.9941709 109.656081,54.4680171 109.239223,55.0800684 L109.239223,61.3788718 L106.721857,61.3788718 L106.721857,51.8415214 Z" id="Fill-36" fill="#FFFFFF" mask="url(#mask-4)"></path>
                    <path d="M114.115141,58.3777265 C114.808303,59.029265 116.236072,59.6808034 117.42598,59.6808034 C118.515577,59.6808034 119.031544,59.3056752 119.031544,58.7133675 C119.031544,58.0414872 118.199029,57.8051624 117.10823,57.5879829 C115.463022,57.2714872 113.341491,56.8766154 113.341491,54.6061026 C113.341491,53.0062735 114.749438,51.6050769 117.266805,51.6050769 C118.892791,51.6050769 120.181207,52.1578974 121.133253,52.9075556 L120.121742,54.6258462 C119.54691,54.0137949 118.456712,53.5202051 117.286626,53.5202051 C116.374824,53.5202051 115.77957,53.8552479 115.77957,54.4086667 C115.77957,55.0009744 116.533399,55.2181538 117.604376,55.4353333 C119.249583,55.7512308 121.449801,56.1855897 121.449801,58.5554188 C121.449801,60.2928547 119.963168,61.6162735 117.306448,61.6162735 C115.641418,61.6162735 114.035253,61.0628547 113.024943,60.1355043 L114.115141,58.3777265 Z" id="Fill-37" fill="#FFFFFF" mask="url(#mask-4)"></path>
                    <path d="M125.294807,55.7116838 L130.012991,55.7116838 C129.953526,54.8034786 129.319229,53.5991197 127.654199,53.5991197 C126.087678,53.5991197 125.413737,54.7639915 125.294807,55.7116838 M127.654199,51.6050171 C130.508536,51.6050171 132.451671,53.7373248 132.451671,56.8574103 L132.451671,57.4102308 L125.33385,57.4102308 C125.493024,58.6145897 126.464292,59.6215128 128.089678,59.6215128 C128.982259,59.6215128 130.032813,59.2661282 130.647288,58.6738205 L131.757909,60.2927949 C130.805863,61.1615128 129.299407,61.6162137 127.812173,61.6162137 C124.898371,61.6162137 122.698153,59.6615983 122.698153,56.6001453 C122.698153,53.8360427 124.739797,51.6050171 127.654199,51.6050171" id="Fill-38" fill="#FFFFFF" mask="url(#mask-4)"></path>
                    <polygon id="Fill-39" fill="#FFFFFF" mask="url(#mask-4)" points="20.0940013 15.0960085 14.9968 23.6671197 20.0940013 26.7201966 25.1912026 23.6671197"></polygon>
                    <polygon id="Fill-40" fill="#FFFFFF" mask="url(#mask-4)" points="20.0177175 27.6981026 14.9205162 24.6462222 20.0177175 31.9256239 25.1179221 24.6462222"></polygon>
                    <path d="M13.7295875,29.4035897 C13.5716139,29.4035897 13.4136403,29.3431624 13.2923069,29.222906 L8.51766007,24.467094 C8.40173267,24.3516239 8.33626073,24.1948718 8.33626073,24.0315385 C8.33626073,23.8688034 8.40173267,23.7120513 8.51766007,23.5965812 L12.9066832,19.2242735 C13.1481485,18.9837607 13.5397789,18.9837607 13.7806436,19.2242735 C14.0221089,19.4647863 14.0221089,19.8548718 13.7806436,20.0953846 L9.82890099,24.0315385 L14.166868,28.3523932 C14.4083333,28.592906 14.4083333,28.9823932 14.166868,29.222906 C14.0461353,29.3431624 13.8881617,29.4035897 13.7295875,29.4035897" id="Fill-41" fill="#FFFFFF" mask="url(#mask-4)"></path>
                    <path d="M26.381831,19.044188 C26.5404053,19.044188 26.6983789,19.1046154 26.8191116,19.2242735 L31.5943591,23.9806838 C31.7102865,24.0961538 31.7751578,24.252906 31.7751578,24.4162393 C31.7751578,24.5789744 31.7102865,24.7357265 31.5943591,24.8511966 L27.205336,29.222906 C26.96327,29.4640171 26.5722403,29.4640171 26.3307749,29.222906 C26.0893096,28.9823932 26.0893096,28.592906 26.3307749,28.3523932 L30.2831182,24.4162393 L25.9445505,20.0953846 C25.7036858,19.8548718 25.7036858,19.4647863 25.9445505,19.2242735 C26.0658838,19.1046154 26.2238574,19.044188 26.381831,19.044188" id="Fill-42" fill="#FFFFFF" mask="url(#mask-4)"></path>
                    <path d="M3.00330033,33.3173077 L3.00330033,13.7041453 L20.0560396,3.89816239 L37.1081782,13.7041453 L37.1081782,33.3173077 L20.0560396,43.1238889 L3.00330033,33.3173077 Z M48.7982244,64.877735 L48.7982244,64.877735 L48.7982244,64.8771368 L35.4011023,41.4026068 L35.4005017,41.4032051 C35.4005017,41.4026068 35.4005017,41.4014103 35.4005017,41.400812 C35.3296238,41.2769658 34.8887393,41.3768803 34.2268119,41.6383333 L32.8476964,39.2218376 L40.1114785,35.0445726 L40.1114785,11.9774786 L20.0560396,0.443632479 L0,11.9774786 L0,35.0445726 L20.0560396,46.5778205 L27.1378218,42.5046581 L28.4953135,44.8840598 C27.9312937,45.3166239 27.6195512,45.6426923 27.6910297,45.7671368 L27.6916304,45.767735 L27.6916304,45.767735 L41.0881518,69.2428632 L41.0887525,69.2428632 C41.3554455,69.7101282 43.2973795,69.1112393 45.4255182,67.9056838 C47.5536568,66.7007265 49.0625149,65.3455983 48.7982244,64.877735 L48.7982244,64.877735 Z" id="Fill-43" fill="#FFFFFF" mask="url(#mask-4)"></path>
                </g>
            </g>
        </g>
    </g>
</svg>