<?xml version="1.0" encoding="UTF-8"?>
<svg width="188px" height="68px" viewBox="0 0 188 68" version="1.1" xmlns="http://www.w3.org/2000/svg" xmlns:xlink="http://www.w3.org/1999/xlink">
    <!-- Generator: Sketch 46.2 (44496) - http://www.bohemiancoding.com/sketch -->
    <title>Page 1</title>
    <desc>Created with Sketch.</desc>
    <defs>
        <polygon id="path-1" points="0 67.3982301 187.467233 67.3982301 187.467233 0.164283186 0 0.164283186"></polygon>
    </defs>
    <g id="Academy" stroke="none" stroke-width="1" fill="none" fill-rule="evenodd">
        <g id="exports" transform="translate(-194.000000, -68.000000)">
            <g id="Page-1" transform="translate(194.000000, 68.000000)">
                <polygon id="Fill-1" fill="#FFFFFF" points="89.5792371 0.601830088 89.5792371 5.64706903 83.5247962 5.64706903 83.5247962 0.601830088 80.7960933 0.601830088 80.7960933 13.4454053 83.5247962 13.4454053 83.5247962 8.05414867 89.5792371 8.05414867 89.5792371 13.4454053 92.327761 13.4454053 92.327761 0.601830088"></polygon>
                <g id="Group-52" transform="translate(0.000000, 0.437487)">
                    <path d="M95.5954173,14.6064602 C96.229692,14.6064602 96.6525419,14.4331504 96.8831872,13.9324779 L97.2291553,13.142354 L93.4619476,3.70780531 L96.0759284,3.70780531 L98.4977048,10.1774336 L100.918881,3.70780531 L103.552082,3.70780531 L99.1890403,14.5288319 C98.4977048,16.2811858 97.2675962,16.7439469 95.672299,16.7818584 C95.3839923,16.7818584 94.768938,16.7246903 94.4614109,16.6476637 L94.8265994,14.4518053 C95.0380243,14.5480885 95.3647719,14.6064602 95.5954173,14.6064602 Z" id="Fill-2" fill="#FFFFFF"></path>
                    <path d="M109.183433,5.65278584 C108.395394,5.65278584 107.492634,6.11494513 107.089004,6.71190088 L107.089004,10.0041841 C107.492634,10.5818832 108.395394,11.0632991 109.183433,11.0632991 C110.586525,11.0632991 111.528327,9.9656708 111.528327,8.34811327 C111.528327,6.74981239 110.586525,5.65278584 109.183433,5.65278584 L109.183433,5.65278584 Z M104.648008,16.5508389 L104.648008,3.70786549 L107.089004,3.70786549 L107.089004,4.88252035 C107.79956,3.97745841 108.818845,3.47678584 109.95225,3.47678584 C112.335586,3.47678584 114.065426,5.24779469 114.065426,8.34811327 C114.065426,11.4484319 112.335586,13.2386973 109.95225,13.2386973 C108.856685,13.2386973 107.838602,12.7771398 107.089004,11.814308 L107.089004,16.5508389 L104.648008,16.5508389 Z" id="Fill-4" fill="#FFFFFF"></path>
                    <path d="M117.814074,7.4815646 L122.38794,7.4815646 C122.330879,6.59575929 121.715224,5.42110442 120.101307,5.42110442 C118.582291,5.42110442 117.928796,6.55784779 117.814074,7.4815646 M120.101307,3.47678584 C122.868451,3.47678584 124.752055,5.55650265 124.752055,8.59844956 L124.752055,9.1376354 L117.851914,9.1376354 C118.005678,10.3122903 118.948081,11.2943788 120.524157,11.2943788 C121.388477,11.2943788 122.40716,10.9477593 123.003595,10.3700602 L124.079339,11.9491044 C123.157358,12.7963965 121.696004,13.2386973 120.25447,13.2386973 C117.429065,13.2386973 115.296196,11.3322903 115.296196,8.34811327 C115.296196,5.65278584 117.275902,3.47678584 120.101307,3.47678584" id="Fill-6" fill="#FFFFFF"></path>
                    <path d="M126.520456,3.7075646 L128.960852,3.7075646 L128.960852,4.97850265 C129.614948,4.15046726 130.767574,3.49574159 131.920801,3.49574159 L131.920801,5.8835646 C131.747817,5.84505133 131.517172,5.80653805 131.248686,5.80653805 C130.440827,5.80653805 129.365082,6.26869735 128.960852,6.8656531 L128.960852,13.0079186 L126.520456,13.0079186 L126.520456,3.7075646 Z" id="Fill-8" fill="#FFFFFF"></path>
                    <mask id="mask-2" fill="white">
                        <use xlink:href="#path-1"></use>
                    </mask>
                    <g id="Clip-11"></g>
                    <polygon id="Fill-10" fill="#FFFFFF" mask="url(#mask-2)" points="133.439757 13.0078584 135.880153 13.0078584 135.880153 0.164283186 133.439757 0.164283186"></polygon>
                    <path d="M140.224275,7.4815646 L144.798141,7.4815646 C144.74108,6.59575929 144.125425,5.42110442 142.511508,5.42110442 C140.992492,5.42110442 140.338997,6.55784779 140.224275,7.4815646 M142.511508,3.47678584 C145.278652,3.47678584 147.162256,5.55650265 147.162256,8.59844956 L147.162256,9.1376354 L140.262115,9.1376354 C140.415879,10.3122903 141.358281,11.2943788 142.934358,11.2943788 C143.798677,11.2943788 144.817361,10.9477593 145.413796,10.3700602 L146.48954,11.9491044 C145.567559,12.7963965 144.106204,13.2386973 142.664671,13.2386973 C139.839265,13.2386973 137.706396,11.3322903 137.706396,8.34811327 C137.706396,5.65278584 139.686102,3.47678584 142.511508,3.47678584" id="Fill-12" fill="#FFFFFF" mask="url(#mask-2)"></path>
                    <path d="M155.311245,6.71172035 C154.907615,6.09550796 154.023475,5.65260531 153.196996,5.65260531 C151.813724,5.65260531 150.852702,6.74963186 150.852702,8.36718938 C150.852702,9.96549027 151.813724,11.0631186 153.196996,11.0631186 C154.023475,11.0631186 154.907615,10.6202159 155.311245,10.0046053 L155.311245,6.71172035 Z M155.311245,11.8141274 C154.580868,12.738446 153.562785,13.2391186 152.447398,13.2391186 C150.103104,13.2391186 148.334823,11.467508 148.334823,8.36718938 C148.334823,5.32524248 150.083884,3.47660531 152.447398,3.47660531 C153.543564,3.47660531 154.580868,3.95802124 155.311245,4.90159646 L155.311245,0.164463717 L157.771462,0.164463717 L157.771462,13.0080389 L155.311245,13.0080389 L155.311245,11.8141274 Z" id="Fill-13" fill="#FFFFFF" mask="url(#mask-2)"></path>
                    <path d="M166.555627,6.71172035 C166.151997,6.09550796 165.267256,5.65260531 164.460598,5.65260531 C163.076726,5.65260531 162.115704,6.61543717 162.115704,8.21313628 C162.115704,9.81143717 163.076726,10.774269 164.460598,10.774269 C165.267256,10.774269 166.151997,10.3121097 166.555627,9.71515398 L166.555627,6.71172035 Z M161.09702,13.6242513 C161.846617,14.451685 162.82686,14.7790478 163.999307,14.7790478 C165.171755,14.7790478 166.555627,14.2597204 166.555627,12.4303398 L166.555627,11.4873664 C165.82525,12.4110832 164.825787,12.950269 163.69178,12.950269 C161.366106,12.950269 159.597825,11.3134549 159.597825,8.21313628 C159.597825,5.17058761 161.346886,3.47660531 163.69178,3.47660531 C164.806566,3.47660531 165.806029,3.95802124 166.555627,4.90159646 L166.555627,3.70768496 L169.015844,3.70768496 L169.015844,12.3725699 C169.015844,15.9157912 166.286541,16.7817381 163.999307,16.7817381 C162.40401,16.7817381 161.173902,16.4164637 160.002055,15.3958619 L161.09702,13.6242513 Z" id="Fill-14" fill="#FFFFFF" mask="url(#mask-2)"></path>
                    <path d="M173.360326,7.4815646 L177.934192,7.4815646 C177.877131,6.59575929 177.261476,5.42110442 175.647559,5.42110442 C174.128543,5.42110442 173.475048,6.55784779 173.360326,7.4815646 M175.647559,3.47678584 C178.414703,3.47678584 180.298307,5.55650265 180.298307,8.59844956 L180.298307,9.1376354 L173.398166,9.1376354 C173.55193,10.3122903 174.494332,11.2943788 176.070409,11.2943788 C176.934728,11.2943788 177.953412,10.9477593 178.549847,10.3700602 L179.625591,11.9491044 C178.70361,12.7963965 177.242256,13.2386973 175.800722,13.2386973 C172.975316,13.2386973 170.842447,11.3322903 170.842447,8.34811327 C170.842447,5.65278584 172.822153,3.47678584 175.647559,3.47678584" id="Fill-15" fill="#FFFFFF" mask="url(#mask-2)"></path>
                    <path d="M182.066648,3.7075646 L184.507044,3.7075646 L184.507044,4.97850265 C185.16114,4.15046726 186.313766,3.49574159 187.466993,3.49574159 L187.466993,5.8835646 C187.294009,5.84505133 187.063364,5.80653805 186.794878,5.80653805 C185.987019,5.80653805 184.911274,6.26869735 184.507044,6.8656531 L184.507044,13.0079186 L182.066648,13.0079186 L182.066648,3.7075646 Z" id="Fill-16" fill="#FFFFFF" mask="url(#mask-2)"></path>
                    <polygon id="Fill-17" fill="#FFFFFF" mask="url(#mask-2)" points="80.7959131 18.2176212 89.8673636 18.2176212 89.8673636 20.566931 83.524616 20.566931 83.524616 23.3591434 89.7328204 23.3591434 89.7328204 25.7078513 83.524616 25.7078513 83.524616 31.0611965 80.7959131 31.0611965"></polygon>
                    <path d="M97.2868166,27.6720283 C96.8831872,27.1328425 96.1143693,26.8632496 95.326331,26.8632496 C94.3653086,26.8632496 93.5772703,27.3639221 93.5772703,28.2689841 C93.5772703,29.1355327 94.3653086,29.6362053 95.326331,29.6362053 C96.1143693,29.6362053 96.8831872,29.3666124 97.2868166,28.8274265 L97.2868166,27.6720283 Z M97.2868166,30.0983646 C96.6525419,30.8493735 95.5569764,31.2922761 94.3460882,31.2922761 C92.8661137,31.2922761 91.1176537,30.290931 91.1176537,28.2112142 C91.1176537,26.0352142 92.8661137,25.2462938 94.3460882,25.2462938 C95.5761968,25.2462938 96.6717623,25.6308248 97.2868166,26.3818336 L97.2868166,25.0922407 C97.2868166,24.1486655 96.4795578,23.5324531 95.2494492,23.5324531 C94.2499859,23.5324531 93.3274045,23.8983292 92.5393661,24.6294796 L91.6173853,22.9932673 C92.7507911,21.9919221 94.211545,21.5297628 95.672299,21.5297628 C97.7865482,21.5297628 99.7272128,22.3770549 99.7272128,25.0531257 L99.7272128,31.0611965 L97.2868166,31.0611965 L97.2868166,30.0983646 Z" id="Fill-18" fill="#FFFFFF" mask="url(#mask-2)"></path>
                    <path d="M106.685255,29.1165168 C108.107568,29.1165168 109.049971,28.0381451 109.049971,26.4205876 C109.049971,24.8030301 108.107568,23.7060035 106.685255,23.7060035 C105.897217,23.7060035 104.994456,24.1675611 104.590827,24.7837735 L104.590827,28.0760566 C104.994456,28.6736142 105.897217,29.1165168 106.685255,29.1165168 L106.685255,29.1165168 Z M102.14983,18.2178619 L104.590827,18.2178619 L104.590827,22.9549947 C105.321204,22.0108177 106.358507,21.5300035 107.454073,21.5300035 C109.818188,21.5300035 111.567249,23.3786407 111.567249,26.4205876 C111.567249,29.5209062 109.798967,31.291915 107.454073,31.291915 C106.339888,31.291915 105.321204,30.7912425 104.590827,29.8675257 L104.590827,31.0608354 L102.14983,31.0608354 L102.14983,18.2178619 Z" id="Fill-19" fill="#FFFFFF" mask="url(#mask-2)"></path>
                    <path d="M113.413132,21.7606619 L115.853528,21.7606619 L115.853528,23.0316 C116.507624,22.2035646 117.66025,21.5488389 118.813477,21.5488389 L118.813477,23.9366619 C118.640493,23.8981487 118.409848,23.8596354 118.141362,23.8596354 C117.333503,23.8596354 116.257758,24.3217947 115.853528,24.9187504 L115.853528,31.0610159 L113.413132,31.0610159 L113.413132,21.7606619 Z" id="Fill-20" fill="#FFFFFF" mask="url(#mask-2)"></path>
                    <path d="M120.332013,31.0609558 L122.772409,31.0609558 L122.772409,21.7606018 L120.332013,21.7606018 L120.332013,31.0609558 Z M120.082147,19.1037876 C120.082147,18.2944071 120.754863,17.6396814 121.542901,17.6396814 C122.35076,17.6396814 123.004256,18.2944071 123.004256,19.1037876 C123.004256,19.9125664 122.35076,20.567292 121.542901,20.567292 C120.754863,20.567292 120.082147,19.9125664 120.082147,19.1037876 L120.082147,19.1037876 Z" id="Fill-21" fill="#FFFFFF" mask="url(#mask-2)"></path>
                    <path d="M129.518906,21.5297027 C131.42173,21.5297027 132.574957,22.3577381 133.190012,23.2050301 L131.594714,24.706446 C131.153245,24.0517204 130.480529,23.7057027 129.634229,23.7057027 C128.154855,23.7057027 127.116951,24.7834726 127.116951,26.4016319 C127.116951,28.0185876 128.154855,29.1162159 129.634229,29.1162159 C130.480529,29.1162159 131.153245,28.7310832 131.594714,28.1148708 L133.190012,29.5976319 C132.574957,30.4641805 131.42173,31.2922159 129.518906,31.2922159 C126.655059,31.2922159 124.599072,29.270269 124.599072,26.4016319 C124.599072,23.5510478 126.655059,21.5297027 129.518906,21.5297027" id="Fill-22" fill="#FFFFFF" mask="url(#mask-2)"></path>
                    <path d="M85.8505904,46.7070938 C88.3876895,46.7070938 89.8670633,44.878315 89.8670633,42.702315 C89.8670633,40.4300319 88.4837917,38.6776779 85.8505904,38.6776779 L83.5249163,38.6776779 L83.5249163,46.7070938 L85.8505904,46.7070938 Z M80.7956128,36.2705982 L85.8505904,36.2705982 C89.8670633,36.2705982 92.6540281,38.831731 92.6540281,42.702315 C92.6540281,46.5722973 89.8670633,49.1141735 85.8505904,49.1141735 L80.7956128,49.1141735 L80.7956128,36.2705982 Z" id="Fill-23" fill="#FFFFFF" mask="url(#mask-2)"></path>
                    <path d="M96.4603374,43.5877593 L101.034203,43.5877593 C100.976542,42.701954 100.361488,41.5272991 98.7475706,41.5272991 C97.2291553,41.5272991 96.5756601,42.6640425 96.4603374,43.5877593 M98.7475706,39.5829805 C101.514714,39.5829805 103.398318,41.6626973 103.398318,44.7046442 L103.398318,45.2438301 L96.4987783,45.2438301 C96.6525419,46.418485 97.5943438,47.4005735 99.1704204,47.4005735 C100.03474,47.4005735 101.053424,47.053954 101.649258,46.4762549 L102.725603,48.0552991 C101.803021,48.9025912 100.342267,49.344892 98.9007335,49.344892 C96.0759284,49.344892 93.9424588,47.438485 93.9424588,44.454308 C93.9424588,41.7589805 95.9221649,39.5829805 98.7475706,39.5829805" id="Fill-24" fill="#FFFFFF" mask="url(#mask-2)"></path>
                    <polygon id="Fill-25" fill="#FFFFFF" mask="url(#mask-2)" points="103.841049 39.8137593 106.45503 39.8137593 108.876806 46.2833876 111.297982 39.8137593 113.931183 39.8137593 110.202417 49.1141133 107.569215 49.1141133"></polygon>
                    <path d="M116.948914,43.5877593 L121.52278,43.5877593 C121.465719,42.701954 120.850064,41.5272991 119.236147,41.5272991 C117.717131,41.5272991 117.063636,42.6640425 116.948914,43.5877593 M119.236147,39.5829805 C122.003291,39.5829805 123.886895,41.6626973 123.886895,44.7046442 L123.886895,45.2438301 L116.986754,45.2438301 C117.140518,46.418485 118.08292,47.4005735 119.658997,47.4005735 C120.523316,47.4005735 121.542,47.053954 122.138435,46.4762549 L123.214179,48.0552991 C122.292198,48.9025912 120.830843,49.344892 119.38931,49.344892 C116.563904,49.344892 114.431636,47.438485 114.431636,44.454308 C114.431636,41.7589805 116.410741,39.5829805 119.236147,39.5829805" id="Fill-26" fill="#FFFFFF" mask="url(#mask-2)"></path>
                    <polygon id="Fill-27" fill="#FFFFFF" mask="url(#mask-2)" points="125.656077 49.1140531 128.096473 49.1140531 128.096473 36.2704779 125.656077 36.2704779"></polygon>
                    <path d="M137.206965,44.4545487 C137.206965,43.0103009 136.342045,41.7592212 134.823629,41.7592212 C133.305214,41.7592212 132.460115,43.0103009 132.460115,44.4545487 C132.460115,45.9180531 133.305214,47.1697345 134.823629,47.1697345 C136.342045,47.1697345 137.206965,45.9180531 137.206965,44.4545487 M129.922415,44.4545487 C129.922415,41.8163894 131.767578,39.5826195 134.823629,39.5826195 C137.8983,39.5826195 139.744064,41.8163894 139.744064,44.4545487 C139.744064,47.1113628 137.8983,49.3451327 134.823629,49.3451327 C131.767578,49.3451327 129.922415,47.1113628 129.922415,44.4545487" id="Fill-28" fill="#FFFFFF" mask="url(#mask-2)"></path>
                    <path d="M146.086331,41.7589805 C145.298293,41.7589805 144.395532,42.2211398 143.991302,42.8180956 L143.991302,46.1103788 C144.395532,46.6880779 145.298293,47.1694938 146.086331,47.1694938 C147.489424,47.1694938 148.430625,46.0718655 148.430625,44.454308 C148.430625,42.8560071 147.489424,41.7589805 146.086331,41.7589805 L146.086331,41.7589805 Z M141.550305,52.6570336 L141.550305,39.8140602 L143.991302,39.8140602 L143.991302,40.988715 C144.702459,40.0836531 145.721142,39.5829805 146.855149,39.5829805 C149.237884,39.5829805 150.967724,41.3539894 150.967724,44.454308 C150.967724,47.5546265 149.237884,49.344892 146.855149,49.344892 C145.759583,49.344892 144.7409,48.8833345 143.991302,47.9205027 L143.991302,52.6570336 L141.550305,52.6570336 Z" id="Fill-29" fill="#FFFFFF" mask="url(#mask-2)"></path>
                    <path d="M154.716432,43.5877593 L159.290298,43.5877593 C159.233237,42.701954 158.617582,41.5272991 157.003665,41.5272991 C155.484649,41.5272991 154.831154,42.6640425 154.716432,43.5877593 M157.003665,39.5829805 C159.770809,39.5829805 161.654413,41.6626973 161.654413,44.7046442 L161.654413,45.2438301 L154.754272,45.2438301 C154.908036,46.418485 155.850438,47.4005735 157.426515,47.4005735 C158.290835,47.4005735 159.309518,47.053954 159.905953,46.4762549 L160.981697,48.0552991 C160.059716,48.9025912 158.598362,49.344892 157.156828,49.344892 C154.331422,49.344892 152.199154,47.438485 152.199154,44.454308 C152.199154,41.7589805 154.178259,39.5829805 157.003665,39.5829805" id="Fill-30" fill="#FFFFFF" mask="url(#mask-2)"></path>
                    <path d="M163.423355,39.8137593 L165.863751,39.8137593 L165.863751,41.0846973 C166.517847,40.2566619 167.670473,39.6019363 168.8237,39.6019363 L168.8237,41.9897593 C168.650716,41.951246 168.42007,41.9127327 168.151585,41.9127327 C167.343725,41.9127327 166.267981,42.374892 165.863751,42.9718478 L165.863751,49.1141133 L163.423355,49.1141133 L163.423355,39.8137593 Z" id="Fill-31" fill="#FFFFFF" mask="url(#mask-2)"></path>
                    <path d="M80.1809188,60.7552319 C80.1809188,56.8076212 83.1594875,54.1122938 86.9074748,54.1122938 C89.8289827,54.1122938 91.4627208,55.6528248 92.3660818,57.2511257 L90.0211872,58.4065239 C89.4830147,57.3660637 88.3297879,56.5380283 86.9074748,56.5380283 C84.6779029,56.5380283 82.9871042,58.3294973 82.9871042,60.7552319 C82.9871042,63.1815681 84.6779029,64.9724354 86.9074748,64.9724354 C88.3297879,64.9724354 89.4830147,64.1636566 90.0211872,63.1039398 L92.3660818,64.2406832 C91.4428997,65.8383823 89.8289827,67.3981699 86.9074748,67.3981699 C83.1594875,67.3981699 80.1809188,64.7028425 80.1809188,60.7552319" id="Fill-32" fill="#FFFFFF" mask="url(#mask-2)"></path>
                    <path d="M100.630754,62.507646 C100.630754,61.0633982 99.7658339,59.8123186 98.2474185,59.8123186 C96.7296038,59.8123186 95.8839042,61.0633982 95.8839042,62.507646 C95.8839042,63.9711504 96.7296038,65.2228319 98.2474185,65.2228319 C99.7658339,65.2228319 100.630754,63.9711504 100.630754,62.507646 M93.3468051,62.507646 C93.3468051,59.8694867 95.1919681,57.6357168 98.2474185,57.6357168 C101.32269,57.6357168 103.167853,59.8694867 103.167853,62.507646 C103.167853,65.1644602 101.32269,67.3982301 98.2474185,67.3982301 C95.1919681,67.3982301 93.3468051,65.1644602 93.3468051,62.507646" id="Fill-33" fill="#FFFFFF" mask="url(#mask-2)"></path>
                    <path d="M111.240501,65.9925558 C110.606226,66.7056531 109.49144,67.3982903 107.973626,67.3982903 C105.935658,67.3982903 104.974635,66.2814053 104.974635,64.4718832 L104.974635,57.8668566 L107.415632,57.8668566 L107.415632,63.5090513 C107.415632,64.799246 108.088348,65.222892 109.126252,65.222892 C110.068054,65.222892 110.817651,64.7023611 111.240501,64.163777 L111.240501,57.8668566 L113.680897,57.8668566 L113.680897,67.1672106 L111.240501,67.1672106 L111.240501,65.9925558 Z" id="Fill-34" fill="#FFFFFF" mask="url(#mask-2)"></path>
                    <path d="M116.103094,57.8668566 L118.54349,57.8668566 L118.54349,59.1377947 C119.197586,58.3097593 120.350212,57.6550336 121.503439,57.6550336 L121.503439,60.0428566 C121.330455,60.0043434 121.09981,59.9658301 120.831324,59.9658301 C120.023465,59.9658301 118.94772,60.4279894 118.54349,61.0249451 L118.54349,67.1672106 L116.103094,67.1672106 L116.103094,57.8668566 Z" id="Fill-35" fill="#FFFFFF" mask="url(#mask-2)"></path>
                    <path d="M123.27202,64.2406832 C123.944736,64.8761522 125.328608,65.5110195 126.481835,65.5110195 C127.53896,65.5110195 128.038691,65.1457451 128.038691,64.568046 C128.038691,63.9133204 127.231433,63.6816389 126.174308,63.4704177 C124.579011,63.1623115 122.522423,62.776577 122.522423,60.5626655 C122.522423,59.0028779 123.887075,57.6356566 126.328072,57.6356566 C127.904148,57.6356566 129.152877,58.1748425 130.075458,58.9071965 L129.095215,60.5819221 C128.538423,59.9849664 127.481298,59.5035504 126.347292,59.5035504 C125.462551,59.5035504 124.886538,59.8309133 124.886538,60.3700991 C124.886538,60.9477982 125.616915,61.1596212 126.654819,61.3714442 C128.249516,61.6795504 130.382985,62.1031965 130.382985,64.4139929 C130.382985,66.108577 128.941452,67.3981699 126.365912,67.3981699 C124.751995,67.3981699 123.195139,66.8595858 122.214896,65.9545239 L123.27202,64.2406832 Z" id="Fill-36" fill="#FFFFFF" mask="url(#mask-2)"></path>
                    <path d="M134.112293,61.6408566 L138.686158,61.6408566 C138.629098,60.7550513 138.013443,59.5803965 136.399526,59.5803965 C134.88051,59.5803965 134.227015,60.7171398 134.112293,61.6408566 M136.399526,57.6360779 C139.16667,57.6360779 141.050273,59.7157947 141.050273,62.7577416 L141.050273,63.2969274 L134.150133,63.2969274 C134.303896,64.4715823 135.246299,65.4536708 136.822376,65.4536708 C137.686695,65.4536708 138.705379,65.1070513 139.301813,64.5293522 L140.377558,66.1083965 C139.455577,66.9556885 137.994222,67.3979894 136.552689,67.3979894 C133.727283,67.3979894 131.594414,65.4915823 131.594414,62.5074053 C131.594414,59.8120779 133.57412,57.6360779 136.399526,57.6360779" id="Fill-37" fill="#FFFFFF" mask="url(#mask-2)"></path>
                    <path d="M10.6806824,49.561108 C10.3899732,50.1719044 9.6523885,50.4336743 9.04273994,50.1418159 L0.698663259,46.1526832 C0.0890146965,45.8614265 -0.17166262,45.1230549 0.119046645,44.5116566 L1.56898914,41.4679044 C1.8596984,40.857108 2.59728307,40.5959398 3.20693163,40.8871965 L11.5504077,44.8763292 C12.1606569,45.1675858 12.4213342,45.9059575 12.1306249,46.5173558 L10.6806824,49.561108 Z M37.7172447,62.4865239 C37.4259348,63.0973204 36.6889508,63.3584885 36.0793022,63.0672319 L22.4303821,56.5422407 C21.8207335,56.2509841 21.5600562,55.5126124 21.8513661,54.9012142 L23.300708,51.8574619 C23.5920179,51.2466655 24.3290019,50.9848956 24.9386505,51.276754 L38.58697,57.8011434 C39.1972192,58.0930018 39.4578965,58.8313735 39.1665866,59.4421699 L37.7172447,62.4865239 Z" id="Fill-38" fill="#FFFFFF" mask="url(#mask-2)"></path>
                    <path d="M43.5504102,15.3927327 C43.259701,16.0035292 42.5221163,16.2652991 41.9124677,15.9734407 L28.3386275,9.48455575 C27.7289789,9.19269735 27.4683016,8.45432566 27.7590109,7.8435292 L29.2089534,4.79917522 C29.4996626,4.18837876 30.2366466,3.92721062 30.8468958,4.21846726 L44.4201355,10.707954 C45.0303847,10.9992106 45.291062,11.7375823 45.0003527,12.3489805 L43.5504102,15.3927327 Z M65.2959438,25.788308 C65.0046339,26.3997062 64.2676498,26.6608743 63.6580013,26.3690159 L55.3001099,22.3738655 C54.6904613,22.0826088 54.429784,21.3442372 54.7210939,20.7328389 L56.1704358,17.6890867 C56.4617457,17.0782903 57.1987297,16.8165204 57.8083783,17.1083788 L66.165669,21.1035292 C66.7753176,21.3953876 67.0365955,22.1337593 66.7452856,22.7445558 L65.2959438,25.788308 Z" id="Fill-39" fill="#FFFFFF" mask="url(#mask-2)"></path>
                    <path d="M23.5815067,22.4741204 C23.2901968,23.0849168 22.5532128,23.3466867 21.9435642,23.0548283 L13.5994875,19.0656956 C12.989839,18.7744389 12.7291617,18.0360673 13.0198709,17.424669 L14.4698134,14.3809168 C14.7605227,13.7701204 15.4981073,13.5089522 16.1077559,13.8002088 L24.4512319,17.7893416 C25.0614812,18.0805982 25.3221585,18.8189699 25.0314492,19.4303681 L23.5815067,22.4741204 Z" id="Fill-40" fill="#FFFFFF" mask="url(#mask-2)"></path>
                    <path d="M50.6178888,35.3992354 C50.3265789,36.0106336 49.5895949,36.2718018 48.9799463,35.9799434 L35.3316268,29.455554 C34.7219783,29.1636956 34.4607003,28.4253239 34.7514096,27.8145274 L36.2019527,24.7701735 C36.492662,24.159377 37.229646,23.8982088 37.8392946,24.1894655 L51.4876141,30.7144566 C52.0978633,31.0057133 52.3585406,31.744085 52.0678313,32.3554832 L50.6178888,35.3992354 Z" id="Fill-41" fill="#FFFFFF" mask="url(#mask-2)"></path>
                    <path d="M52.4110364,52.8837805 C52.1203272,53.4951788 51.3833431,53.7563469 50.7730939,53.4644885 L42.3995859,49.461515 C41.7893367,49.1702584 41.5286594,48.431285 41.8199693,47.8204885 L43.2693112,44.7767363 C43.5606211,44.1653381 44.2976051,43.9041699 44.9072537,44.1954265 L53.2813623,48.1990018 C53.8910109,48.4902584 54.1516882,49.2292319 53.8609789,49.8400283 L52.4110364,52.8837805 Z" id="Fill-42" fill="#FFFFFF" mask="url(#mask-2)"></path>
                    <path d="M30.6492856,42.4803221 C30.3585764,43.0911186 29.6215923,43.3528885 29.0113431,43.0610301 L15.3954581,36.551685 C14.7858096,36.2604283 14.5251323,35.5220566 14.8158415,34.9106584 L16.265784,31.8669062 C16.5564933,31.2561097 17.294078,30.9949416 17.9037265,31.2861982 L31.5196115,37.7955434 C32.1292601,38.0868 32.3899374,38.8251717 32.0992281,39.4365699 L30.6492856,42.4803221 Z" id="Fill-43" fill="#FFFFFF" mask="url(#mask-2)"></path>
                    <path d="M9.29524856,38.7959257 C9.0045393,39.4073239 8.26695463,39.668492 7.65730607,39.3766336 L4.61807284,37.9239611 C4.00842428,37.6321027 3.74714633,36.893731 4.03845623,36.2829345 L10.550584,22.6101204 C10.8412933,21.9987221 11.5782773,21.737554 12.1879259,22.0294124 L15.2271591,23.482085 C15.8374083,23.7739434 16.0980856,24.512315 15.8073764,25.1231115 L9.29524856,38.7959257 Z" id="Fill-44" fill="#FFFFFF" mask="url(#mask-2)"></path>
                    <path d="M22.1960728,11.7089381 C21.9053636,12.3203363 21.1677789,12.5815044 20.5581304,12.289646 L17.5188971,10.8369735 C16.9092486,10.545115 16.6479706,9.80674336 16.9392805,9.1959469 L20.8794722,0.922814159 C21.1701815,0.312017699 21.9077661,0.0502477876 22.5174147,0.342106195 L25.5566479,1.79477876 C26.1662965,2.08663717 26.4269738,2.82500885 26.1362645,3.43580531 L22.1960728,11.7089381 Z" id="Fill-45" fill="#FFFFFF" mask="url(#mask-2)"></path>
                    <path d="M45.9711655,66.3275009 C45.6804562,66.9388991 44.9434722,67.2000673 44.333223,66.9082088 L41.2939898,65.4555363 C40.6843412,65.1636779 40.4236639,64.4253062 40.7143732,63.8145097 L44.6545649,55.541377 C44.9452741,54.9305805 45.6828588,54.6688106 46.2925073,54.960669 L49.3317406,56.4133416 C49.9413891,56.7052 50.2020665,57.4435717 49.9113572,58.0543681 L45.9711655,66.3275009 Z" id="Fill-46" fill="#FFFFFF" mask="url(#mask-2)"></path>
                    <path d="M56.3002339,44.6402549 C56.0095246,45.2516531 55.2725406,45.5128212 54.6622914,45.2209628 L51.6230581,43.7682903 C51.0134096,43.4764319 50.7527323,42.7380602 51.0434415,42.1272637 L57.5555693,28.4538478 C57.8468792,27.8430513 58.5838633,27.5812814 59.1935118,27.8731398 L62.232745,29.3258124 C62.8429942,29.6176708 63.1036716,30.3560425 62.8123617,30.9668389 L56.3002339,44.6402549 Z" id="Fill-47" fill="#FFFFFF" mask="url(#mask-2)"></path>
                    <path d="M49.2327553,24.634354 C48.9414454,25.2451504 48.2044613,25.5069204 47.5948128,25.2150619 L44.5555796,23.7623894 C43.945931,23.470531 43.684653,22.7321593 43.9759629,22.1213628 L47.9161546,13.8482301 C48.2068639,13.2374336 48.9444486,12.9756637 49.5540971,13.2675221 L52.5933304,14.7201947 C53.2029789,15.0120531 53.4636562,15.7504248 53.172947,16.3612212 L49.2327553,24.634354 Z" id="Fill-48" fill="#FFFFFF" mask="url(#mask-2)"></path>
                    <path d="M36.331931,51.7213416 C36.0412217,52.3321381 35.3036371,52.593908 34.6939885,52.3020496 L31.6547553,50.849377 C31.0451067,50.5575186 30.7838288,49.8191469 31.0751387,49.2083504 L37.5866658,35.5355363 C37.8779757,34.9241381 38.6149597,34.6629699 39.2246083,34.9548283 L42.2638415,36.4075009 C42.8740907,36.6993593 43.1347681,37.437731 42.8440588,38.0485274 L36.331931,51.7213416 Z" id="Fill-49" fill="#FFFFFF" mask="url(#mask-2)"></path>
                    <path d="M18.9347834,53.4023858 C18.6440741,54.0131823 17.9070901,54.2749522 17.2968409,53.9830938 L14.2576077,52.5304212 C13.6479591,52.2385628 13.3872818,51.5001912 13.6779911,50.8893947 L17.6181827,42.6162619 C17.908892,42.0054655 18.6464767,41.7436956 19.2561252,42.035554 L22.2953585,43.4882265 C22.905007,43.780085 23.1656843,44.5184566 22.8749751,45.1292531 L18.9347834,53.4023858 Z" id="Fill-50" fill="#FFFFFF" mask="url(#mask-2)"></path>
                    <path d="M29.2638518,31.7151398 C28.9731425,32.3259363 28.2361585,32.5877062 27.6259093,32.2958478 L24.586676,30.8431752 C23.9770275,30.5513168 23.7163502,29.8129451 24.0070594,29.2021487 L30.5191872,15.5287327 C30.8104971,14.9179363 31.5474812,14.6561664 32.1571297,14.9480248 L35.1963629,16.4006973 C35.8066121,16.6925558 36.0672895,17.4309274 35.7759796,18.0417239 L29.2638518,31.7151398 Z" id="Fill-51" fill="#FFFFFF" mask="url(#mask-2)"></path>
                </g>
            </g>
        </g>
    </g>
</svg>