<?xml version="1.0" encoding="UTF-8"?>
<svg width="32px" height="30px" viewBox="0 0 32 30" version="1.1" xmlns="http://www.w3.org/2000/svg" xmlns:xlink="http://www.w3.org/1999/xlink">
    <!-- Generator: Sketch 46.2 (44496) - http://www.bohemiancoding.com/sketch -->
    <title>free copy</title>
    <desc>Created with Sketch.</desc>
    <defs>
        <path d="M3.121,0.519 L3.121,2.128 C2.303,2.225 1.66,2.532 1.192,3.046 C0.724,3.561 0.49,4.22 0.49,5.023 C0.49,5.813 0.73,6.463 1.207,6.975 C1.685,7.487 2.445,7.902 3.489,8.221 C4.239,8.469 4.772,8.749 5.087,9.059 C5.403,9.368 5.561,9.747 5.561,10.197 C5.561,10.731 5.377,11.152 5.01,11.461 C4.643,11.771 4.138,11.924 3.496,11.924 C2.839,11.924 2.333,11.74 1.975,11.373 C1.617,11.006 1.438,10.482 1.438,9.801 L0.079,9.801 C0.079,10.771 0.337,11.538 0.854,12.104 C1.37,12.67 2.085,12.995 2.997,13.078 L2.997,14.482 L4.084,14.482 L4.084,13.078 C4.98,12.986 5.678,12.687 6.175,12.182 C6.672,11.677 6.921,11.011 6.921,10.183 C6.921,9.663 6.822,9.21 6.623,8.823 C6.425,8.435 6.116,8.097 5.698,7.804 C5.278,7.514 4.696,7.246 3.948,7.004 C3.201,6.762 2.665,6.492 2.339,6.195 C2.013,5.899 1.85,5.501 1.85,5.001 C1.85,4.462 2.004,4.042 2.314,3.741 C2.622,3.439 3.068,3.289 3.651,3.289 C4.209,3.289 4.653,3.492 4.98,3.898 C5.31,4.306 5.474,4.854 5.474,5.545 L6.825,5.545 C6.825,4.541 6.597,3.749 6.139,3.171 C5.681,2.592 5.04,2.248 4.216,2.134 L4.216,0.519 L3.121,0.519 Z" id="path-1"></path>
    </defs>
    <g id="Symbols" stroke="none" stroke-width="1" fill="none" fill-rule="evenodd">
        <g id="free-copy">
            <g id="Page-1" transform="translate(2.000000, 0.500000)">
                <path d="M14.4998,28.5 C22.2318,28.5 28.4998,22.232 28.4998,14.5 C28.4998,6.768 22.2318,0.5 14.4998,0.5 C6.7678,0.5 0.4998,6.768 0.4998,14.5 C0.4998,22.232 6.7678,28.5 14.4998,28.5 Z" id="Stroke-1" stroke="#DE7150"></path>
                <g id="Group-5" transform="translate(11.000000, 7.000000)">
                    <mask id="mask-2" fill="white">
                        <use xlink:href="#path-1"></use>
                    </mask>
                    <g id="Clip-4"></g>
                    <polygon id="Fill-3" fill="#DE7150" mask="url(#mask-2)" points="-6.903 21.464 13.903 21.464 13.903 -6.464 -6.903 -6.464"></polygon>
                </g>
                <g id="Group-10" transform="translate(5.000000, 3.000000)" stroke="#DE7150">
                    <path d="M14.3665,16.3662 L19.3995,21.3992" id="Stroke-6"></path>
                    <path d="M5.5301,5.6416 L0.4971,0.6086" id="Stroke-8"></path>
                </g>
            </g>
        </g>
    </g>
</svg>