<svg id="Layer_1" data-name="Layer 1" xmlns="http://www.w3.org/2000/svg" viewBox="0 0 649.726 649.719"><defs><style>.cls-1{fill:#de7150;}</style></defs><title>cto-logo-orange</title><path class="cls-1" d="M216.233,216.108H80.838V80.712h135.4ZM98.5,198.447H198.573V98.373H98.5Z" transform="translate(-0.274 -0.154)"/><path class="cls-1" d="M392.836,216.108h-135.4V80.712h135.4ZM275.1,198.447H375.176V98.373H275.1Z" transform="translate(-0.274 -0.154)"/><path class="cls-1" d="M569.439,216.108h-135.4V80.712h135.4ZM451.7,198.447H551.778V98.373H451.7Z" transform="translate(-0.274 -0.154)"/><path class="cls-1" d="M216.233,392.71H80.838v-135.4h135.4ZM98.5,375.05H198.573V274.975H98.5Z" transform="translate(-0.274 -0.154)"/><path class="cls-1" d="M392.836,392.71h-135.4v-135.4h135.4ZM275.1,375.05H375.176V274.975H275.1Z" transform="translate(-0.274 -0.154)"/><path class="cls-1" d="M569.439,392.71h-135.4v-135.4h135.4ZM451.7,375.05H551.778V274.975H451.7Z" transform="translate(-0.274 -0.154)"/><path class="cls-1" d="M216.233,569.313H80.838v-135.4h135.4ZM98.5,551.653H198.573V451.578H98.5Z" transform="translate(-0.274 -0.154)"/><path class="cls-1" d="M392.836,569.313h-135.4v-135.4h135.4ZM275.1,551.653H375.176V451.578H275.1Z" transform="translate(-0.274 -0.154)"/><path class="cls-1" d="M569.439,569.313h-135.4v-135.4h135.4ZM451.7,551.653H551.778V451.578H451.7Z" transform="translate(-0.274 -0.154)"/><rect class="cls-1" x="207.129" y="139.426" width="58.868" height="17.66"/><rect class="cls-1" x="382.749" y="139.426" width="59.851" height="17.66"/><rect class="cls-1" x="492.637" y="207.123" width="17.66" height="58.868"/><rect class="cls-1" x="382.749" y="316.028" width="59.851" height="17.66"/><rect class="cls-1" x="207.129" y="312.317" width="58.868" height="17.66"/><rect class="cls-1" x="139.431" y="383.726" width="17.66" height="58.868"/><rect class="cls-1" x="207.129" y="492.631" width="58.868" height="17.66"/><rect class="cls-1" x="383.732" y="492.631" width="58.868" height="17.66"/><path class="cls-1" d="M632.341,17.8V632.218H17.932V17.8H632.341M650,.154H.274V649.873H650V.154Z" transform="translate(-0.274 -0.154)"/></svg>