<svg xmlns="http://www.w3.org/2000/svg" viewBox="0 0 750 422"><defs><style>.cls-1{fill:#389c66;}.cls-2{fill:#fff;}</style></defs><title>cto-101-hero</title><g id="Layer_2" data-name="Layer 2"><rect class="cls-1" width="750" height="422"/></g><g id="Layer_4" data-name="Layer 4"><path class="cls-2" d="M341.707,161.329h12.928c4.678,0,7.073,2.983,7.073,6.262a5.457,5.457,0,0,1-4.236,5.635,5.955,5.955,0,0,1,4.715,6.041c0,3.684-2.468,6.63-7.146,6.63H341.707Zm11.787,9.871a2.712,2.712,0,1,0,0-5.414h-6.557V171.2Zm.184,10.24c1.989,0,3.168-1.142,3.168-2.909a2.871,2.871,0,0,0-3.168-2.874h-6.741v5.783Z"/><path class="cls-2" d="M366.016,161.329h4.678V185.9h-4.678Z"/><path class="cls-2" d="M374.192,176.983a9.412,9.412,0,1,1,9.393,9.356A9.011,9.011,0,0,1,374.192,176.983Zm13.96,0c0-2.762-1.657-5.156-4.567-5.156s-4.53,2.394-4.53,5.156c0,2.8,1.621,5.194,4.53,5.194S388.152,179.783,388.152,176.983Z"/><path class="cls-2" d="M404.764,167.664a8.279,8.279,0,0,1,7.035,3.205l-3.057,2.873a4.316,4.316,0,0,0-3.758-1.915c-2.836,0-4.825,2.062-4.825,5.156s1.989,5.194,4.825,5.194a4.492,4.492,0,0,0,3.758-1.915L411.8,183.1a8.2,8.2,0,0,1-7.035,3.241,9.338,9.338,0,1,1,0-18.675Z"/><path class="cls-2" d="M421.669,179.046l-2.136,2.284V185.9h-4.679V161.329h4.679v14.7l6.74-7.92h5.747l-7.036,8.067,7.257,9.724h-5.857Z"/><path class="cls-2" d="M442.075,167.664a8.276,8.276,0,0,1,7.035,3.205l-3.056,2.873a4.317,4.317,0,0,0-3.758-1.915c-2.836,0-4.825,2.062-4.825,5.156s1.989,5.194,4.825,5.194a4.494,4.494,0,0,0,3.758-1.915l3.056,2.836a8.2,8.2,0,0,1-7.035,3.241,9.338,9.338,0,1,1,0-18.675Z"/><path class="cls-2" d="M464.211,175.068c0-2.468-1.289-3.241-3.315-3.241a5.179,5.179,0,0,0-4.051,2.1V185.9h-4.679V161.329h4.679v9.1a8.229,8.229,0,0,1,6.261-2.763c3.905,0,5.784,2.137,5.784,5.6V185.9h-4.679Z"/><path class="cls-2" d="M484.211,184.056a7.364,7.364,0,0,1-5.636,2.283,5.926,5.926,0,0,1-6.188-5.893c0-4.162,3.351-5.673,6.188-5.673a7.19,7.19,0,0,1,5.636,2.174v-2.468c0-1.805-1.547-2.984-3.9-2.984a7.488,7.488,0,0,0-5.195,2.1l-1.767-3.131a11.666,11.666,0,0,1,7.771-2.8c4.052,0,7.773,1.621,7.773,6.741V185.9h-4.678Zm0-4.641a4.677,4.677,0,0,0-3.758-1.547c-1.842,0-3.351.957-3.351,2.689,0,1.657,1.509,2.615,3.351,2.615a4.68,4.68,0,0,0,3.758-1.547Z"/><path class="cls-2" d="M493.05,163.023a2.8,2.8,0,1,1,2.8,2.8A2.822,2.822,0,0,1,493.05,163.023Zm.478,5.083h4.679V185.9h-4.679Z"/><path class="cls-2" d="M514.855,175.142c0-2.468-1.29-3.315-3.278-3.315a5.068,5.068,0,0,0-4.052,2.1V185.9h-4.678V168.106h4.678v2.321a8.146,8.146,0,0,1,6.225-2.763c3.9,0,5.783,2.211,5.783,5.673V185.9h-4.678Z"/><path class="cls-2" d="M534.633,172.2h-2.946v-4.089h2.946v-.958c0-3.867,2.5-6.188,6-6.188a7.564,7.564,0,0,1,3.388.737l-.958,3.315a2.869,2.869,0,0,0-1.509-.368c-1.327,0-2.211.884-2.211,2.578v.884h3.61V172.2h-3.61v13.7h-4.715Z"/><path class="cls-2" d="M544.505,176.983a9.411,9.411,0,1,1,9.392,9.356A9.011,9.011,0,0,1,544.505,176.983Zm13.96,0c0-2.762-1.657-5.156-4.568-5.156s-4.53,2.394-4.53,5.156c0,2.8,1.621,5.194,4.53,5.194S558.465,179.783,558.465,176.983Z"/><path class="cls-2" d="M566.788,168.106h4.679v2.432a7.61,7.61,0,0,1,5.672-2.837v4.568a5.9,5.9,0,0,0-1.289-.148,5.958,5.958,0,0,0-4.383,2.026V185.9h-4.679Z"/><path class="cls-2" d="M344.922,205.471h-5.005v-3.208h13.654v3.208h-4.979v13.91h-3.67Z"/><path class="cls-2" d="M358.938,206.677c3.7,0,6.211,2.772,6.211,6.827v.719h-9.214A3.34,3.34,0,0,0,359.5,217.1a5.064,5.064,0,0,0,3.311-1.233l1.437,2.106a7.724,7.724,0,0,1-5.107,1.718,6.506,6.506,0,1,1-.2-13.011Zm-3.054,5.339h6.108a2.872,2.872,0,0,0-3.054-2.747A2.979,2.979,0,0,0,355.884,212.016Z"/><path class="cls-2" d="M373.288,206.677a5.765,5.765,0,0,1,4.9,2.233l-2.128,2a3.009,3.009,0,0,0-2.619-1.335,3.615,3.615,0,0,0,0,7.212,3.133,3.133,0,0,0,2.619-1.335l2.128,1.977a5.711,5.711,0,0,1-4.9,2.257,6.506,6.506,0,1,1,0-13.011Z"/><path class="cls-2" d="M388.716,211.836c0-1.72-.9-2.259-2.311-2.259a3.613,3.613,0,0,0-2.823,1.463v8.341h-3.259V202.263h3.259V208.6a5.736,5.736,0,0,1,4.363-1.925c2.721,0,4.03,1.489,4.03,3.9v8.8h-3.259Z"/><path class="cls-2" d="M403.578,211.887a2.011,2.011,0,0,0-2.284-2.31,3.531,3.531,0,0,0-2.823,1.463v8.341h-3.259v-12.4h3.259V208.6a5.676,5.676,0,0,1,4.338-1.925c2.72,0,4.029,1.54,4.029,3.952v8.752h-3.26Z"/><path class="cls-2" d="M409.742,203.443a1.951,1.951,0,1,1,1.95,1.951A1.966,1.966,0,0,1,409.742,203.443Zm.334,3.542h3.259v12.4h-3.259Z"/><path class="cls-2" d="M422.345,206.677a5.769,5.769,0,0,1,4.9,2.233l-2.131,2a3,3,0,0,0-2.617-1.335,3.615,3.615,0,0,0,0,7.212,3.128,3.128,0,0,0,2.617-1.335l2.131,1.977a5.714,5.714,0,0,1-4.9,2.257,6.506,6.506,0,1,1,0-13.011Z"/><path class="cls-2" d="M436.822,218.1a5.125,5.125,0,0,1-3.926,1.59,4.13,4.13,0,0,1-4.312-4.106c0-2.9,2.336-3.952,4.312-3.952a5.009,5.009,0,0,1,3.926,1.515v-1.72c0-1.258-1.078-2.079-2.72-2.079a5.218,5.218,0,0,0-3.619,1.463l-1.232-2.182a8.136,8.136,0,0,1,5.416-1.95c2.823,0,5.415,1.129,5.415,4.7v8.007h-3.26Zm0-3.234a3.261,3.261,0,0,0-2.617-1.078c-1.283,0-2.336.667-2.336,1.873,0,1.155,1.053,1.822,2.336,1.822a3.258,3.258,0,0,0,2.617-1.078Z"/><path class="cls-2" d="M443.319,202.263h3.259v17.118h-3.259Z"/><path class="cls-2" d="M456.463,202.263h12.113v3.131h-8.469v3.721H468.4v3.131h-8.289v3.978h8.469v3.157H456.463Z"/><path class="cls-2" d="M476.2,215.2l-2.849,4.184h-3.619l4.389-6.365-4.132-6.031h3.645l2.566,3.824,2.541-3.824h3.645l-4.159,6.031,4.441,6.365h-3.645Z"/><path class="cls-2" d="M489.3,206.677c3.7,0,6.211,2.772,6.211,6.827v.719h-9.214a3.341,3.341,0,0,0,3.567,2.874,5.067,5.067,0,0,0,3.312-1.233l1.437,2.106a7.726,7.726,0,0,1-5.107,1.718,6.506,6.506,0,1,1-.206-13.011Zm-3.054,5.339h6.109a2.873,2.873,0,0,0-3.055-2.747A2.981,2.981,0,0,0,486.241,212.016Z"/><path class="cls-2" d="M503.646,206.677a5.769,5.769,0,0,1,4.9,2.233l-2.131,2a3,3,0,0,0-2.617-1.335,3.615,3.615,0,0,0,0,7.212,3.128,3.128,0,0,0,2.617-1.335l2.131,1.977a5.714,5.714,0,0,1-4.9,2.257,6.506,6.506,0,1,1,0-13.011Z"/><path class="cls-2" d="M519.047,217.815a5.8,5.8,0,0,1-4.362,1.873c-2.721,0-4-1.488-4-3.9v-8.8h3.258v7.52a1.994,1.994,0,0,0,2.285,2.284,3.649,3.649,0,0,0,2.823-1.412v-8.392h3.26v12.4h-3.26Z"/><path class="cls-2" d="M526.186,216.3v-6.467h-2.054v-2.849h2.054V203.6h3.285v3.388h2.514v2.849h-2.514v5.595c0,.769.41,1.36,1.129,1.36a1.784,1.784,0,0,0,1.129-.359l.693,2.464a4.031,4.031,0,0,1-2.721.794C527.417,219.688,526.186,218.508,526.186,216.3Z"/><path class="cls-2" d="M533.887,203.443a1.951,1.951,0,1,1,1.95,1.951A1.965,1.965,0,0,1,533.887,203.443Zm.334,3.542h3.258v12.4h-3.258Z"/><path class="cls-2" d="M538.944,206.985h3.492l3.233,8.623,3.233-8.623h3.517l-4.98,12.4h-3.515Z"/><path class="cls-2" d="M559.505,206.677c3.7,0,6.211,2.772,6.211,6.827v.719H556.5a3.341,3.341,0,0,0,3.568,2.874,5.066,5.066,0,0,0,3.311-1.233l1.437,2.106a7.726,7.726,0,0,1-5.107,1.718,6.506,6.506,0,1,1-.206-13.011Zm-3.054,5.339h6.109a2.873,2.873,0,0,0-3.055-2.747A2.98,2.98,0,0,0,556.451,212.016Z"/><path class="cls-2" d="M568.414,215.479a7.088,7.088,0,0,0,4.286,1.695c1.412,0,2.079-.488,2.079-1.258,0-.873-1.078-1.181-2.489-1.463-2.13-.41-4.877-.924-4.877-3.875,0-2.078,1.822-3.9,5.082-3.9a7.92,7.92,0,0,1,5,1.694l-1.309,2.233a5.229,5.229,0,0,0-3.67-1.437c-1.181,0-1.951.436-1.951,1.154,0,.77.976,1.053,2.362,1.335,2.13.41,4.978.975,4.978,4.055,0,2.259-1.925,3.977-5.363,3.977A8.346,8.346,0,0,1,567,217.764Z"/><path class="cls-2" d="M350.307,254.651a6.248,6.248,0,0,1-4.782,1.938,5.028,5.028,0,0,1-5.25-5c0-3.531,2.844-4.813,5.25-4.813a6.1,6.1,0,0,1,4.782,1.844v-2.094c0-1.531-1.313-2.531-3.313-2.531a6.352,6.352,0,0,0-4.406,1.781l-1.5-2.656a9.9,9.9,0,0,1,6.594-2.375c3.437,0,6.593,1.375,6.593,5.719v9.75h-3.968Zm0-3.937a3.972,3.972,0,0,0-3.188-1.313c-1.562,0-2.844.813-2.844,2.282,0,1.406,1.282,2.218,2.844,2.218a3.972,3.972,0,0,0,3.188-1.312Z"/><path class="cls-2" d="M368.62,247.089c0-2.094-1.094-2.813-2.781-2.813a4.3,4.3,0,0,0-3.438,1.782v10.156h-3.968V241.12H362.4v1.969a6.914,6.914,0,0,1,5.282-2.344c3.312,0,4.906,1.875,4.906,4.813v10.656H368.62Z"/><path class="cls-2" d="M387.121,254.276a5.859,5.859,0,0,1-4.656,2.313c-3.813,0-6.688-2.875-6.688-7.906,0-4.938,2.844-7.938,6.688-7.938a5.81,5.81,0,0,1,4.656,2.313V235.37h4v20.844h-4Zm0-8.281a4.318,4.318,0,0,0-3.437-1.719c-2.25,0-3.813,1.782-3.813,4.407,0,2.593,1.563,4.375,3.813,4.375a4.318,4.318,0,0,0,3.437-1.719Z"/><path class="cls-2" d="M416.873,252.62h-9.312l-1.313,3.594h-4.875l8.063-20.844H415l8.031,20.844h-4.843Zm-8.125-3.844h6.906l-3.437-9.562Z"/><path class="cls-2" d="M435.28,247.089c0-2.094-1.093-2.813-2.781-2.813a4.3,4.3,0,0,0-3.437,1.782v10.156h-3.969V241.12h3.969v1.969a6.91,6.91,0,0,1,5.281-2.344c3.312,0,4.906,1.875,4.906,4.813v10.656H435.28Z"/><path class="cls-2" d="M452.469,254.651a6.246,6.246,0,0,1-4.781,1.938,5.028,5.028,0,0,1-5.25-5c0-3.531,2.843-4.813,5.25-4.813a6.1,6.1,0,0,1,4.781,1.844v-2.094c0-1.531-1.313-2.531-3.313-2.531a6.352,6.352,0,0,0-4.406,1.781l-1.5-2.656a9.9,9.9,0,0,1,6.594-2.375c3.437,0,6.594,1.375,6.594,5.719v9.75h-3.969Zm0-3.937a3.972,3.972,0,0,0-3.188-1.313c-1.562,0-2.843.813-2.843,2.282,0,1.406,1.281,2.218,2.843,2.218a3.972,3.972,0,0,0,3.188-1.312Z"/><path class="cls-2" d="M460.6,235.37h3.968v20.844H460.6Z"/><path class="cls-2" d="M470.032,258.808a2,2,0,0,0,2.094-1.094l.562-1.281-6.125-15.313h4.25l3.938,10.5,3.937-10.5h4.282l-7.094,17.563c-1.125,2.843-3.125,3.593-5.719,3.656a10.849,10.849,0,0,1-1.969-.219l.594-3.562A3.435,3.435,0,0,0,470.032,258.808Z"/><path class="cls-2" d="M485.377,251.464a8.642,8.642,0,0,0,5.219,2.062c1.718,0,2.531-.593,2.531-1.531,0-1.062-1.313-1.437-3.031-1.781-2.594-.5-5.938-1.125-5.938-4.719,0-2.531,2.219-4.75,6.188-4.75a9.638,9.638,0,0,1,6.093,2.063l-1.593,2.718a6.372,6.372,0,0,0-4.469-1.75c-1.438,0-2.375.532-2.375,1.407,0,.937,1.187,1.281,2.875,1.625,2.594.5,6.062,1.187,6.062,4.937,0,2.75-2.343,4.844-6.531,4.844a10.16,10.16,0,0,1-6.75-2.344Z"/><path class="cls-2" d="M500.878,252.464v-7.875h-2.5V241.12h2.5V237h4v4.125h3.062v3.469h-3.062V251.4c0,.938.5,1.657,1.375,1.657a2.167,2.167,0,0,0,1.375-.438l.844,3a4.9,4.9,0,0,1-3.313.969C502.378,256.589,500.878,255.151,500.878,252.464Z"/><path class="cls-2" d="M511.284,251.464a8.642,8.642,0,0,0,5.219,2.062c1.719,0,2.531-.593,2.531-1.531,0-1.062-1.312-1.437-3.031-1.781-2.594-.5-5.938-1.125-5.938-4.719,0-2.531,2.219-4.75,6.188-4.75a9.641,9.641,0,0,1,6.094,2.063l-1.594,2.718a6.371,6.371,0,0,0-4.469-1.75c-1.437,0-2.375.532-2.375,1.407,0,.937,1.188,1.281,2.875,1.625,2.594.5,6.063,1.187,6.063,4.937,0,2.75-2.344,4.844-6.532,4.844a10.16,10.16,0,0,1-6.75-2.344Z"/><path class="cls-2" d="M538.6,241.089l-3.469,3.531-2.531-2.656,6.562-6.594h3.875v20.844H538.6Z"/><path class="cls-2" d="M555.005,235.058c5.937,0,8.625,5.375,8.625,10.75s-2.688,10.781-8.625,10.781c-5.969,0-8.625-5.406-8.625-10.781S549.036,235.058,555.005,235.058Zm0,3.937c-3,0-4.125,2.969-4.125,6.813s1.125,6.843,4.125,6.843c2.969,0,4.094-3,4.094-6.843S557.974,239,555.005,239Z"/><path class="cls-2" d="M571.256,241.089l-3.469,3.531-2.531-2.656,6.562-6.594h3.875v20.844h-4.437Z"/><path class="cls-2" d="M234.221,190.351H208.549V164.68h25.672ZM211.9,187h18.974V168.028H211.9Z"/><path class="cls-2" d="M267.705,190.351H242.034V164.68h25.671ZM245.382,187h18.975V168.028H245.382Z"/><path class="cls-2" d="M301.19,190.351H275.518V164.68H301.19ZM278.867,187h18.974V168.028H278.867Z"/><path class="cls-2" d="M234.221,223.835H208.549V198.164h25.672ZM211.9,220.487h18.974V201.513H211.9Z"/><path class="cls-2" d="M267.705,223.835H242.034V198.164h25.671Zm-22.323-3.348h18.975V201.513H245.382Z"/><path class="cls-2" d="M301.19,223.835H275.518V198.164H301.19Zm-22.323-3.348h18.974V201.513H278.867Z"/><path class="cls-2" d="M234.221,257.32H208.549V231.648h25.672ZM211.9,253.971h18.974V235H211.9Z"/><path class="cls-2" d="M267.705,257.32H242.034V231.648h25.671Zm-22.323-3.349h18.975V235H245.382Z"/><path class="cls-2" d="M301.19,257.32H275.518V231.648H301.19Zm-22.323-3.349h18.974V235H278.867Z"/><rect class="cls-2" x="232.547" y="175.841" width="11.161" height="3.348"/><rect class="cls-2" x="265.845" y="175.841" width="11.348" height="3.348"/><rect class="cls-2" x="286.68" y="188.677" width="3.348" height="11.161"/><rect class="cls-2" x="265.845" y="209.326" width="11.348" height="3.348"/><rect class="cls-2" x="232.547" y="208.622" width="11.161" height="3.348"/><rect class="cls-2" x="219.711" y="222.161" width="3.348" height="11.161"/><rect class="cls-2" x="232.547" y="242.81" width="11.161" height="3.348"/><rect class="cls-2" x="266.031" y="242.81" width="11.161" height="3.348"/><path class="cls-2" d="M313.116,152.752v116.5H196.622V152.752H313.116m3.348-3.346H193.274V272.594h123.19V149.406Z"/></g></svg>