<svg id="Layer_1" data-name="Layer 1" xmlns="http://www.w3.org/2000/svg" viewBox="0 0 1244.657 308.226"><defs><style>.cls-1,.cls-10{fill:#de7150;}.cls-2,.cls-3{fill:#fff;}.cls-3{fill-rule:evenodd;}.cls-4,.cls-5,.cls-6,.cls-8{fill:none;}.cls-4,.cls-5,.cls-6{stroke:#de7150;stroke-linecap:round;stroke-width:3px;}.cls-10,.cls-4,.cls-5,.cls-6,.cls-8{stroke-miterlimit:10;}.cls-5{stroke-dasharray:11.86 11.86;}.cls-6{stroke-dasharray:8.995 8.995;}.cls-7{fill:#575756;}.cls-10,.cls-8{stroke:#575756;stroke-width:2px;}.cls-9{fill:#dd4f52;}</style></defs><title>dsc-timeline</title><rect class="cls-1" x="51.709" y="181.153" width="762.333" height="73.612"/><path class="cls-2" d="M158.7,246.3H170.03v2.928h-7.921v3.481h7.753v2.928h-7.753v3.72h7.921v2.953H158.7Z" transform="translate(-0.434 -38.391)"/><path class="cls-2" d="M173.221,259.431v-6.049H171.3v-2.664h1.921v-3.169h3.072v3.169h2.352v2.664h-2.352v5.232c0,.72.384,1.273,1.056,1.273a1.665,1.665,0,0,0,1.056-.336l.648,2.3a3.757,3.757,0,0,1-2.544.745C174.373,262.6,173.221,261.494,173.221,259.431Z" transform="translate(-0.434 -38.391)"/><path class="cls-2" d="M188.581,255.254c0-1.608-.84-2.112-2.16-2.112a3.374,3.374,0,0,0-2.64,1.368v7.8h-3.049V246.3h3.049v5.928a5.367,5.367,0,0,1,4.08-1.8c2.544,0,3.768,1.391,3.768,3.648v8.233h-3.048Z" transform="translate(-0.434 -38.391)"/><path class="cls-2" d="M199.909,250.43c3.456,0,5.808,2.591,5.808,6.384v.672H197.1a3.124,3.124,0,0,0,3.336,2.689,4.741,4.741,0,0,0,3.1-1.153l1.344,1.968A7.221,7.221,0,0,1,200.1,262.6a6.085,6.085,0,1,1-.192-12.169Zm-2.857,4.992h5.713a2.685,2.685,0,0,0-2.856-2.568A2.787,2.787,0,0,0,197.052,255.422Z" transform="translate(-0.434 -38.391)"/><path class="cls-2" d="M207.924,250.718h3.049V252.3a4.96,4.96,0,0,1,3.7-1.849v2.977a3.744,3.744,0,0,0-3.7,1.224v7.657h-3.049Z" transform="translate(-0.434 -38.391)"/><path class="cls-2" d="M221.82,250.43c3.457,0,5.809,2.591,5.809,6.384v.672h-8.617a3.124,3.124,0,0,0,3.336,2.689,4.742,4.742,0,0,0,3.1-1.153l1.344,1.968a7.223,7.223,0,0,1-4.777,1.609,6.085,6.085,0,1,1-.192-12.169Zm-2.856,4.992h5.713a2.686,2.686,0,0,0-2.857-2.568A2.786,2.786,0,0,0,218.964,255.422Z" transform="translate(-0.434 -38.391)"/><path class="cls-2" d="M237.661,260.847a5.43,5.43,0,0,1-4.081,1.752c-2.544,0-3.744-1.393-3.744-3.649v-8.232h3.048v7.032a1.865,1.865,0,0,0,2.137,2.137,3.416,3.416,0,0,0,2.64-1.321v-7.848h3.048v11.593h-3.048Z" transform="translate(-0.434 -38.391)"/><path class="cls-2" d="M258.108,254.99c0-1.08-.48-1.848-1.728-1.848a3.075,3.075,0,0,0-2.4,1.344v7.825h-3.072V254.99c0-1.08-.48-1.848-1.728-1.848a3.108,3.108,0,0,0-2.4,1.368v7.8h-3.049V250.718h3.049v1.511a5.07,5.07,0,0,1,3.792-1.8,3.067,3.067,0,0,1,3.216,2.112,4.918,4.918,0,0,1,3.984-2.112c2.137,0,3.409,1.128,3.409,3.5v8.377h-3.073Z" transform="translate(-0.434 -38.391)"/><path class="cls-2" d="M270.4,246.3h6.313c5.016,0,8.5,3.192,8.5,8.016s-3.481,7.994-8.5,7.994H270.4Zm6.313,13.01a4.793,4.793,0,0,0,5.016-4.994,4.684,4.684,0,0,0-5.016-5.015H273.8v10.009Z" transform="translate(-0.434 -38.391)"/><path class="cls-2" d="M292.811,250.43c3.457,0,5.809,2.591,5.809,6.384v.672H290a3.124,3.124,0,0,0,3.336,2.689,4.746,4.746,0,0,0,3.1-1.153l1.343,1.968A7.221,7.221,0,0,1,293,262.6a6.085,6.085,0,1,1-.192-12.169Zm-2.856,4.992h5.712a2.685,2.685,0,0,0-2.856-2.568A2.786,2.786,0,0,0,289.955,255.422Z" transform="translate(-0.434 -38.391)"/><path class="cls-2" d="M299.17,250.718h3.265l3.024,8.064,3.024-8.064h3.288l-4.656,11.593h-3.288Z" transform="translate(-0.434 -38.391)"/><path class="cls-2" d="M318.4,250.43c3.457,0,5.809,2.591,5.809,6.384v.672h-8.617a3.124,3.124,0,0,0,3.336,2.689,4.746,4.746,0,0,0,3.1-1.153l1.343,1.968a7.221,7.221,0,0,1-4.776,1.609,6.085,6.085,0,1,1-.192-12.169Zm-2.856,4.992h5.712a2.685,2.685,0,0,0-2.856-2.568A2.786,2.786,0,0,0,315.539,255.422Z" transform="translate(-0.434 -38.391)"/><path class="cls-2" d="M326.41,246.3h3.048v16.01H326.41Z" transform="translate(-0.434 -38.391)"/><path class="cls-2" d="M331.738,256.5a6.133,6.133,0,1,1,6.12,6.1A5.871,5.871,0,0,1,331.738,256.5Zm9.1,0c0-1.8-1.08-3.36-2.976-3.36s-2.952,1.56-2.952,3.36c0,1.824,1.056,3.385,2.952,3.385S340.834,258.326,340.834,256.5Z" transform="translate(-0.434 -38.391)"/><path class="cls-2" d="M346.258,266.727V250.718h3.048v1.464a4.478,4.478,0,0,1,3.576-1.752c2.976,0,5.137,2.208,5.137,6.072s-2.161,6.1-5.137,6.1a4.43,4.43,0,0,1-3.576-1.777v5.9Zm5.664-13.585a3.414,3.414,0,0,0-2.616,1.32v4.1a3.491,3.491,0,0,0,2.616,1.321c1.752,0,2.929-1.368,2.929-3.385C354.851,254.51,353.674,253.142,351.922,253.142Z" transform="translate(-0.434 -38.391)"/><path class="cls-2" d="M365.554,250.43c3.457,0,5.809,2.591,5.809,6.384v.672h-8.617a3.125,3.125,0,0,0,3.337,2.689,4.741,4.741,0,0,0,3.1-1.153l1.343,1.968a7.219,7.219,0,0,1-4.776,1.609,6.085,6.085,0,1,1-.192-12.169Zm-2.856,4.992h5.713a2.686,2.686,0,0,0-2.857-2.568A2.786,2.786,0,0,0,362.7,255.422Z" transform="translate(-0.434 -38.391)"/><path class="cls-2" d="M373.569,250.718h3.049V252.3a4.96,4.96,0,0,1,3.7-1.849v2.977a3.744,3.744,0,0,0-3.7,1.224v7.657h-3.049Z" transform="translate(-0.434 -38.391)"/><path class="cls-2" d="M387.657,254.317a8.1,8.1,0,0,1,8.4-8.28,7.387,7.387,0,0,1,6.816,3.912l-2.928,1.441a4.384,4.384,0,0,0-3.888-2.328,5.269,5.269,0,0,0,0,10.512,4.339,4.339,0,0,0,3.888-2.328l2.928,1.416a7.431,7.431,0,0,1-6.816,3.937A8.1,8.1,0,0,1,387.657,254.317Z" transform="translate(-0.434 -38.391)"/><path class="cls-2" d="M404.1,256.5a6.133,6.133,0,1,1,6.12,6.1A5.871,5.871,0,0,1,404.1,256.5Zm9.1,0c0-1.8-1.08-3.36-2.976-3.36s-2.952,1.56-2.952,3.36c0,1.824,1.056,3.385,2.952,3.385S413.193,258.326,413.193,256.5Z" transform="translate(-0.434 -38.391)"/><path class="cls-2" d="M426.441,260.847a5.429,5.429,0,0,1-4.08,1.752c-2.544,0-3.744-1.393-3.744-3.649v-8.232h3.048v7.032a1.864,1.864,0,0,0,2.136,2.137,3.413,3.413,0,0,0,2.64-1.321v-7.848h3.049v11.593h-3.049Z" transform="translate(-0.434 -38.391)"/><path class="cls-2" d="M432.513,250.718h3.048V252.3a4.96,4.96,0,0,1,3.7-1.849v2.977a3.744,3.744,0,0,0-3.7,1.224v7.657h-3.048Z" transform="translate(-0.434 -38.391)"/><path class="cls-2" d="M441.464,258.662a6.638,6.638,0,0,0,4.009,1.584c1.32,0,1.944-.456,1.944-1.176,0-.816-1.008-1.1-2.329-1.368-1.992-.384-4.56-.864-4.56-3.624,0-1.944,1.7-3.648,4.753-3.648a7.4,7.4,0,0,1,4.68,1.584l-1.224,2.088a4.886,4.886,0,0,0-3.432-1.344c-1.1,0-1.825.408-1.825,1.08,0,.72.913.984,2.208,1.248,1.993.384,4.657.912,4.657,3.792,0,2.112-1.8,3.721-5.016,3.721a7.8,7.8,0,0,1-5.185-1.8Z" transform="translate(-0.434 -38.391)"/><path class="cls-2" d="M457.856,250.43c3.457,0,5.809,2.591,5.809,6.384v.672h-8.617a3.125,3.125,0,0,0,3.336,2.689,4.742,4.742,0,0,0,3.1-1.153l1.344,1.968a7.222,7.222,0,0,1-4.777,1.609,6.085,6.085,0,1,1-.192-12.169ZM455,255.422h5.713a2.685,2.685,0,0,0-2.857-2.568A2.786,2.786,0,0,0,455,255.422Z" transform="translate(-0.434 -38.391)"/><polygon class="cls-3" points="130.134 194.36 115.895 218.397 130.134 226.96 144.372 218.397 130.134 194.36"/><polygon class="cls-3" points="129.921 229.702 115.682 221.144 129.921 241.557 144.168 221.144 129.921 229.702"/><polyline class="cls-4" points="1192.205 76.364 1192.205 82.364 1186.205 82.364"/><line class="cls-5" x1="1174.344" y1="82.364" x2="539.829" y2="82.364"/><polyline class="cls-4" points="533.899 82.364 527.899 82.364 527.899 76.364"/><line class="cls-6" x1="527.899" y1="67.369" x2="527.899" y2="53.876"/><polyline class="cls-4" points="527.899 49.378 527.899 43.378 533.899 43.378"/><line class="cls-5" x1="545.759" y1="43.378" x2="1180.275" y2="43.378"/><polyline class="cls-4" points="1186.205 43.378 1192.205 43.378 1192.205 49.378"/><line class="cls-6" x1="1192.205" y1="58.373" x2="1192.205" y2="71.866"/><path class="cls-7" d="M.434,146.2H6.675a4.285,4.285,0,1,1,0,8.562h-3.4v4.781H.434ZM6.3,148.641H3.274v3.68H6.3a1.844,1.844,0,1,0,0-3.68Z" transform="translate(-0.434 -38.391)"/><path class="cls-7" d="M12.854,149.881H15.4v1.32a4.132,4.132,0,0,1,3.08-1.54v2.481a3.12,3.12,0,0,0-3.08,1.02v6.381H12.854Z" transform="translate(-0.434 -38.391)"/><path class="cls-7" d="M19.434,154.7a4.893,4.893,0,0,1,5.1-5.061,5.071,5.071,0,1,1,0,10.142A4.9,4.9,0,0,1,19.434,154.7Zm7.581,0a2.492,2.492,0,1,0-2.48,2.82A2.551,2.551,0,0,0,27.015,154.7Z" transform="translate(-0.434 -38.391)"/><path class="cls-7" d="M32.474,160.183a3.838,3.838,0,0,0,3.02,1.2,2.362,2.362,0,0,0,2.661-2.44v-.981a3.762,3.762,0,0,1-2.981,1.521c-2.421,0-4.261-1.7-4.261-4.921,0-3.161,1.82-4.921,4.261-4.921a3.722,3.722,0,0,1,2.981,1.48v-1.24h2.56v9c0,3.68-2.84,4.581-5.221,4.581a5.854,5.854,0,0,1-4.161-1.441ZM38.155,153a2.757,2.757,0,0,0-2.181-1.1,2.671,2.671,0,0,0,0,5.322,2.818,2.818,0,0,0,2.181-1.1Z" transform="translate(-0.434 -38.391)"/><path class="cls-7" d="M43.233,149.881h2.541v1.32a4.132,4.132,0,0,1,3.08-1.54v2.481a3.2,3.2,0,0,0-.7-.08,3.236,3.236,0,0,0-2.38,1.1v6.381H43.233Z" transform="translate(-0.434 -38.391)"/><path class="cls-7" d="M56.234,158.543a4,4,0,0,1-3.06,1.24,3.218,3.218,0,0,1-3.361-3.2,3.06,3.06,0,0,1,3.361-3.082,3.9,3.9,0,0,1,3.06,1.181v-1.34c0-.981-.84-1.621-2.12-1.621a4.071,4.071,0,0,0-2.821,1.14l-.96-1.7a6.339,6.339,0,0,1,4.221-1.52c2.2,0,4.221.88,4.221,3.661v6.241H56.234Zm0-2.521a2.541,2.541,0,0,0-2.04-.84c-1,0-1.82.52-1.82,1.461,0,.9.82,1.419,1.82,1.419a2.54,2.54,0,0,0,2.04-.839Z" transform="translate(-0.434 -38.391)"/><path class="cls-7" d="M73.275,153.442c0-.9-.4-1.541-1.44-1.541a2.564,2.564,0,0,0-2,1.12v6.522H67.274v-6.1c0-.9-.4-1.541-1.44-1.541a2.593,2.593,0,0,0-2,1.141v6.5h-2.54v-9.662h2.54v1.26a4.228,4.228,0,0,1,3.161-1.5,2.557,2.557,0,0,1,2.681,1.76A4.1,4.1,0,0,1,73,149.641a2.579,2.579,0,0,1,2.84,2.921v6.981H73.275Z" transform="translate(-0.434 -38.391)"/><path class="cls-7" d="M90.315,153.442c0-.9-.4-1.541-1.44-1.541a2.563,2.563,0,0,0-2,1.12v6.522H84.314v-6.1c0-.9-.4-1.541-1.44-1.541a2.591,2.591,0,0,0-2,1.141v6.5h-2.54v-9.662h2.54v1.26a4.226,4.226,0,0,1,3.161-1.5,2.556,2.556,0,0,1,2.68,1.76,4.1,4.1,0,0,1,3.321-1.76,2.579,2.579,0,0,1,2.84,2.921v6.981h-2.56Z" transform="translate(-0.434 -38.391)"/><path class="cls-7" d="M99.753,149.641c2.881,0,4.842,2.16,4.842,5.321v.56H97.413a2.6,2.6,0,0,0,2.78,2.241,3.952,3.952,0,0,0,2.581-.961l1.121,1.641a6.026,6.026,0,0,1-3.981,1.34,5.072,5.072,0,1,1-.161-10.142Zm-2.38,4.161h4.761a2.238,2.238,0,0,0-2.381-2.141A2.322,2.322,0,0,0,97.373,153.8Z" transform="translate(-0.434 -38.391)"/><path class="cls-7" d="M23.074,170.2h2.54v4.921a3.724,3.724,0,0,1,2.981-1.48c2.461,0,4.281,1.92,4.281,5.081,0,3.221-1.84,5.061-4.281,5.061a3.753,3.753,0,0,1-2.981-1.48v1.24h-2.54ZM27.8,181.522a2.835,2.835,0,0,0,0-5.621,2.8,2.8,0,0,0-2.181,1.12v3.421A2.829,2.829,0,0,0,27.8,181.522Z" transform="translate(-0.434 -38.391)"/><path class="cls-7" d="M39.174,173.641c2.881,0,4.842,2.16,4.842,5.321v.56H36.834a2.6,2.6,0,0,0,2.78,2.241A3.952,3.952,0,0,0,42.2,180.8l1.12,1.641a6.022,6.022,0,0,1-3.981,1.34,5.072,5.072,0,1,1-.16-10.142Zm-2.38,4.161h4.761a2.238,2.238,0,0,0-2.381-2.141A2.322,2.322,0,0,0,36.794,177.8Z" transform="translate(-0.434 -38.391)"/><path class="cls-7" d="M46.794,184.183a3.839,3.839,0,0,0,3.02,1.2,2.361,2.361,0,0,0,2.661-2.44v-.981a3.76,3.76,0,0,1-2.981,1.521c-2.42,0-4.261-1.7-4.261-4.921,0-3.161,1.821-4.921,4.261-4.921a3.721,3.721,0,0,1,2.981,1.48v-1.24h2.561v9c0,3.68-2.841,4.581-5.222,4.581a5.858,5.858,0,0,1-4.161-1.441ZM52.475,177a2.754,2.754,0,0,0-2.181-1.1,2.671,2.671,0,0,0,0,5.322,2.814,2.814,0,0,0,2.181-1.1Z" transform="translate(-0.434 -38.391)"/><path class="cls-7" d="M57.293,171.12a1.521,1.521,0,1,1,1.52,1.521A1.532,1.532,0,0,1,57.293,171.12Zm.26,2.761h2.541v9.662H57.553Z" transform="translate(-0.434 -38.391)"/><path class="cls-7" d="M69.135,177.7a1.568,1.568,0,0,0-1.781-1.8,2.749,2.749,0,0,0-2.2,1.141v6.5H62.613v-9.662h2.541v1.26a4.424,4.424,0,0,1,3.381-1.5,2.81,2.81,0,0,1,3.14,3.081v6.821h-2.54Z" transform="translate(-0.434 -38.391)"/><path class="cls-7" d="M74.453,180.5a5.524,5.524,0,0,0,3.34,1.321c1.1,0,1.621-.381,1.621-.981,0-.68-.84-.92-1.94-1.14-1.661-.32-3.8-.72-3.8-3.02,0-1.621,1.42-3.041,3.961-3.041a6.176,6.176,0,0,1,3.9,1.32L80.514,176.7a4.076,4.076,0,0,0-2.86-1.121c-.921,0-1.521.34-1.521.9,0,.6.761.821,1.841,1.04,1.66.321,3.88.761,3.88,3.161,0,1.761-1.5,3.1-4.18,3.1a6.5,6.5,0,0,1-4.321-1.5Z" transform="translate(-0.434 -38.391)"/><path class="cls-7" d="M462.645,149.861l-2.221,2.261-1.62-1.7,4.2-4.221h2.48v13.343h-2.84Z" transform="translate(-0.434 -38.391)"/><path class="cls-7" d="M468.324,156.5a5.524,5.524,0,0,0,3.341,1.321c1.1,0,1.62-.381,1.62-.981,0-.68-.84-.92-1.94-1.14-1.661-.32-3.8-.72-3.8-3.02,0-1.621,1.42-3.041,3.961-3.041a6.176,6.176,0,0,1,3.9,1.32l-1.021,1.741a4.076,4.076,0,0,0-2.86-1.121c-.921,0-1.521.34-1.521.9,0,.6.761.821,1.841,1.04,1.66.321,3.881.761,3.881,3.161,0,1.761-1.5,3.1-4.181,3.1a6.5,6.5,0,0,1-4.321-1.5Z" transform="translate(-0.434 -38.391)"/><path class="cls-7" d="M478.1,157.143V152.1h-1.6v-2.221h1.6V147.24h2.561v2.641h1.96V152.1h-1.96v4.36c0,.6.32,1.06.88,1.06a1.394,1.394,0,0,0,.88-.279l.54,1.92a3.136,3.136,0,0,1-2.12.62A2.415,2.415,0,0,1,478.1,157.143Z" transform="translate(-0.434 -38.391)"/><path class="cls-7" d="M493.985,149.641a4.5,4.5,0,0,1,3.821,1.74l-1.66,1.56a2.345,2.345,0,0,0-2.041-1.04,2.817,2.817,0,0,0,0,5.621,2.439,2.439,0,0,0,2.041-1.04l1.66,1.54a4.452,4.452,0,0,1-3.821,1.761,5.071,5.071,0,1,1,0-10.142Z" transform="translate(-0.434 -38.391)"/><path class="cls-7" d="M498.844,154.7a5.111,5.111,0,1,1,5.1,5.081A4.893,4.893,0,0,1,498.844,154.7Zm7.581,0a2.492,2.492,0,1,0-2.48,2.82A2.551,2.551,0,0,0,506.425,154.7Z" transform="translate(-0.434 -38.391)"/><path class="cls-7" d="M517.465,158.323a4.522,4.522,0,0,1-3.4,1.46,2.767,2.767,0,0,1-3.121-3.041v-6.861h2.541v5.861a1.553,1.553,0,0,0,1.78,1.78,2.844,2.844,0,0,0,2.2-1.1v-6.541h2.54v9.662h-2.54Z" transform="translate(-0.434 -38.391)"/><path class="cls-7" d="M522.523,149.881h2.541v1.32a4.133,4.133,0,0,1,3.081-1.54v2.481a3.122,3.122,0,0,0-3.081,1.02v6.381h-2.541Z" transform="translate(-0.434 -38.391)"/><path class="cls-7" d="M529.983,156.5a5.529,5.529,0,0,0,3.341,1.321c1.1,0,1.62-.381,1.62-.981,0-.68-.84-.92-1.94-1.14-1.661-.32-3.8-.72-3.8-3.02,0-1.621,1.421-3.041,3.961-3.041a6.176,6.176,0,0,1,3.9,1.32l-1.021,1.741a4.076,4.076,0,0,0-2.86-1.121c-.92,0-1.52.34-1.52.9,0,.6.76.821,1.84,1.04,1.661.321,3.881.761,3.881,3.161,0,1.761-1.5,3.1-4.181,3.1a6.5,6.5,0,0,1-4.321-1.5Z" transform="translate(-0.434 -38.391)"/><path class="cls-7" d="M543.644,149.641c2.88,0,4.841,2.16,4.841,5.321v.56H541.3a2.6,2.6,0,0,0,2.78,2.241,3.952,3.952,0,0,0,2.581-.961l1.121,1.641a6.026,6.026,0,0,1-3.981,1.34,5.072,5.072,0,1,1-.16-10.142Zm-2.381,4.161h4.761a2.238,2.238,0,0,0-2.38-2.141A2.322,2.322,0,0,0,541.263,153.8Z" transform="translate(-0.434 -38.391)"/><path class="cls-7" d="M559.824,149.641c2.881,0,4.841,2.16,4.841,5.321v.56h-7.182a2.605,2.605,0,0,0,2.781,2.241,3.951,3.951,0,0,0,2.58-.961l1.121,1.641a6.026,6.026,0,0,1-3.981,1.34,5.072,5.072,0,1,1-.16-10.142Zm-2.381,4.161H562.2a2.237,2.237,0,0,0-2.38-2.141A2.323,2.323,0,0,0,557.443,153.8Z" transform="translate(-0.434 -38.391)"/><path class="cls-7" d="M573.024,153.7a1.568,1.568,0,0,0-1.78-1.8,2.75,2.75,0,0,0-2.2,1.141v6.5H566.5v-9.662h2.541v1.26a4.424,4.424,0,0,1,3.381-1.5,2.81,2.81,0,0,1,3.14,3.081v6.821h-2.54Z" transform="translate(-0.434 -38.391)"/><path class="cls-7" d="M584.724,158.3a3.75,3.75,0,0,1-2.981,1.48c-2.44,0-4.281-1.84-4.281-5.061,0-3.161,1.821-5.081,4.281-5.081a3.721,3.721,0,0,1,2.981,1.48V146.2h2.561v13.343h-2.561Zm0-5.3a2.764,2.764,0,0,0-2.2-1.1,2.839,2.839,0,0,0,0,5.621,2.764,2.764,0,0,0,2.2-1.1Z" transform="translate(-0.434 -38.391)"/><path class="cls-7" d="M590.062,156.5a5.529,5.529,0,0,0,3.341,1.321c1.1,0,1.62-.381,1.62-.981,0-.68-.84-.92-1.94-1.14-1.661-.32-3.8-.72-3.8-3.02,0-1.621,1.421-3.041,3.961-3.041a6.174,6.174,0,0,1,3.9,1.32l-1.02,1.741a4.08,4.08,0,0,0-2.861-1.121c-.92,0-1.52.34-1.52.9,0,.6.76.821,1.84,1.04,1.661.321,3.881.761,3.881,3.161,0,1.761-1.5,3.1-4.181,3.1a6.505,6.505,0,0,1-4.321-1.5Z" transform="translate(-0.434 -38.391)"/><path class="cls-7" d="M510.694,170.2h9.442v2.441h-6.6v2.9H520v2.44h-6.461v3.1h6.6v2.46h-9.442Z" transform="translate(-0.434 -38.391)"/><path class="cls-7" d="M525.434,172.7h-3.9v-2.5h10.643v2.5h-3.881v10.842h-2.861Z" transform="translate(-0.434 -38.391)"/><path class="cls-7" d="M543.136,177.942h-6.3v5.6h-2.84V170.2h2.84v5.241h6.3V170.2H546v13.343h-2.86Z" transform="translate(-0.434 -38.391)"/><path class="cls-7" d="M255.339,330.7a4.873,4.873,0,0,0,3.56,1.44c1.581,0,2.481-.9,2.481-2,0-1.22-.88-2.04-2.4-2.04a3.848,3.848,0,0,0-2.8,1.1l-1.98-.54v-7.621h9.161v2.441h-6.381v3.34a4.61,4.61,0,0,1,3-1.12,4.171,4.171,0,0,1,4.281,4.321c0,2.82-2.121,4.6-5.342,4.6a6.659,6.659,0,0,1-5.141-2Z" transform="translate(-0.434 -38.391)"/><path class="cls-7" d="M277.78,327.794l-2.041,6.582h-2.72l-2.941-9.662h2.641l1.8,6.5,2.121-6.5h2.26l2.121,6.5,1.8-6.5h2.64l-2.94,9.662h-2.7Z" transform="translate(-0.434 -38.391)"/><path class="cls-7" d="M291.1,324.474c2.881,0,4.841,2.16,4.841,5.321v.559h-7.181a2.6,2.6,0,0,0,2.78,2.242,3.954,3.954,0,0,0,2.581-.961l1.12,1.64a6.023,6.023,0,0,1-3.981,1.341,5.072,5.072,0,1,1-.16-10.142Zm-2.38,4.161h4.76a2.236,2.236,0,0,0-2.38-2.141A2.322,2.322,0,0,0,288.719,328.635Z" transform="translate(-0.434 -38.391)"/><path class="cls-7" d="M302.159,324.474c2.881,0,4.841,2.16,4.841,5.321v.559h-7.182A2.6,2.6,0,0,0,302.6,332.6a3.951,3.951,0,0,0,2.58-.961l1.121,1.64a6.026,6.026,0,0,1-3.981,1.341,5.072,5.072,0,1,1-.16-10.142Zm-2.381,4.161h4.761a2.238,2.238,0,0,0-2.38-2.141A2.323,2.323,0,0,0,299.778,328.635Z" transform="translate(-0.434 -38.391)"/><path class="cls-7" d="M312.539,330.655l-1.161,1.241v2.48h-2.54V321.033h2.54v7.982l3.661-4.3h3.121l-3.821,4.381,3.941,5.281H315.1Z" transform="translate(-0.434 -38.391)"/><path class="cls-7" d="M319.658,331.335a5.529,5.529,0,0,0,3.341,1.32c1.1,0,1.62-.38,1.62-.98,0-.68-.84-.92-1.94-1.14-1.66-.32-3.8-.721-3.8-3.02,0-1.621,1.42-3.041,3.961-3.041a6.176,6.176,0,0,1,3.9,1.32l-1.021,1.74a4.075,4.075,0,0,0-2.86-1.12c-.921,0-1.521.34-1.521.9,0,.6.761.821,1.841,1.04,1.66.321,3.881.76,3.881,3.161,0,1.76-1.5,3.1-4.181,3.1a6.5,6.5,0,0,1-4.321-1.5Z" transform="translate(-0.434 -38.391)"/><path class="cls-7" d="M805.317,94.137h9.442v2.441h-6.6v2.9h6.462v2.44h-6.462v3.1h6.6v2.46h-9.442Z" transform="translate(-0.434 -38.391)"/><path class="cls-7" d="M820.7,104.219l-2.219,3.261h-2.822l3.421-4.961-3.221-4.7H818.7l2,2.98,1.981-2.98h2.841l-3.241,4.7,3.46,4.961H822.9Z" transform="translate(-0.434 -38.391)"/><path class="cls-7" d="M832.8,106.48a4,4,0,0,1-3.061,1.24,3.218,3.218,0,0,1-3.36-3.2,3.06,3.06,0,0,1,3.36-3.082,3.906,3.906,0,0,1,3.061,1.181v-1.34c0-.981-.84-1.621-2.12-1.621a4.071,4.071,0,0,0-2.821,1.14l-.961-1.7a6.344,6.344,0,0,1,4.222-1.52c2.2,0,4.221.88,4.221,3.661v6.241H832.8Zm0-2.521a2.541,2.541,0,0,0-2.04-.84c-1,0-1.82.52-1.82,1.461,0,.9.82,1.42,1.82,1.42a2.541,2.541,0,0,0,2.04-.84Z" transform="translate(-0.434 -38.391)"/><path class="cls-7" d="M849.839,101.379c0-.9-.4-1.541-1.44-1.541a2.568,2.568,0,0,0-2,1.12v6.522h-2.56v-6.1c0-.9-.4-1.541-1.441-1.541a2.592,2.592,0,0,0-2,1.141v6.5h-2.541V97.818H840.4v1.26a4.226,4.226,0,0,1,3.161-1.5,2.555,2.555,0,0,1,2.68,1.76,4.1,4.1,0,0,1,3.322-1.76A2.578,2.578,0,0,1,852.4,100.5v6.981h-2.56Z" transform="translate(-0.434 -38.391)"/><path class="cls-7" d="M860.017,111.161V97.818h2.54v1.22a3.732,3.732,0,0,1,2.98-1.46c2.482,0,4.281,1.84,4.281,5.061s-1.8,5.081-4.281,5.081a3.691,3.691,0,0,1-2.98-1.48v4.921Zm4.72-11.323a2.845,2.845,0,0,0-2.18,1.1v3.421a2.909,2.909,0,0,0,2.18,1.1c1.46,0,2.441-1.14,2.441-2.82A2.506,2.506,0,0,0,864.737,99.838Z" transform="translate(-0.434 -38.391)"/><path class="cls-7" d="M876.1,97.578c2.881,0,4.84,2.16,4.84,5.321v.56h-7.181a2.6,2.6,0,0,0,2.78,2.241,3.952,3.952,0,0,0,2.581-.961l1.12,1.641a6.021,6.021,0,0,1-3.98,1.34,5.072,5.072,0,1,1-.16-10.142Zm-2.381,4.161h4.761A2.238,2.238,0,0,0,876.1,99.6,2.323,2.323,0,0,0,873.717,101.739Z" transform="translate(-0.434 -38.391)"/><path class="cls-7" d="M882.776,97.818h2.54v1.32A4.136,4.136,0,0,1,888.4,97.6v2.481a3.2,3.2,0,0,0-.7-.08,3.238,3.238,0,0,0-2.381,1.1v6.381h-2.54Z" transform="translate(-0.434 -38.391)"/><path class="cls-7" d="M889.716,95.057a1.521,1.521,0,1,1,1.52,1.521A1.532,1.532,0,0,1,889.716,95.057Zm.26,2.761h2.541v9.662h-2.541Z" transform="translate(-0.434 -38.391)"/><path class="cls-7" d="M894.416,102.639a5.111,5.111,0,1,1,5.1,5.081A4.893,4.893,0,0,1,894.416,102.639Zm7.581,0a2.492,2.492,0,1,0-2.48,2.82A2.55,2.55,0,0,0,902,102.639Z" transform="translate(-0.434 -38.391)"/><path class="cls-7" d="M913.157,106.24a3.753,3.753,0,0,1-2.981,1.48c-2.441,0-4.28-1.84-4.28-5.061,0-3.161,1.82-5.081,4.28-5.081a3.724,3.724,0,0,1,2.981,1.48V94.137h2.561V107.48h-2.561Zm0-5.3a2.767,2.767,0,0,0-2.2-1.1,2.839,2.839,0,0,0,0,5.621,2.764,2.764,0,0,0,2.2-1.1Z" transform="translate(-0.434 -38.391)"/><path class="cls-7" d="M1140.93,148.2h6.242a4.285,4.285,0,1,1,0,8.561h-3.4v4.781h-2.841Zm5.861,2.44h-3.02v3.681h3.02a1.844,1.844,0,1,0,0-3.681Z" transform="translate(-0.434 -38.391)"/><path class="cls-7" d="M1153.35,151.881h2.541V153.2a4.128,4.128,0,0,1,3.08-1.541v2.481a3.12,3.12,0,0,0-3.08,1.02v6.381h-2.541Z" transform="translate(-0.434 -38.391)"/><path class="cls-7" d="M1159.93,156.7a5.111,5.111,0,1,1,5.1,5.081A4.894,4.894,0,0,1,1159.93,156.7Zm7.582,0a2.493,2.493,0,1,0-2.481,2.82A2.551,2.551,0,0,0,1167.512,156.7Z" transform="translate(-0.434 -38.391)"/><path class="cls-7" d="M1172.97,162.184a3.839,3.839,0,0,0,3.02,1.2,2.361,2.361,0,0,0,2.66-2.441v-.98a3.759,3.759,0,0,1-2.98,1.52c-2.42,0-4.261-1.7-4.261-4.921,0-3.16,1.82-4.921,4.261-4.921a3.72,3.72,0,0,1,2.98,1.481v-1.241h2.561v9c0,3.681-2.84,4.581-5.221,4.581a5.855,5.855,0,0,1-4.161-1.44Zm5.68-7.182a2.752,2.752,0,0,0-2.179-1.1,2.67,2.67,0,0,0,0,5.321,2.811,2.811,0,0,0,2.179-1.1Z" transform="translate(-0.434 -38.391)"/><path class="cls-7" d="M1183.729,151.881h2.541V153.2a4.13,4.13,0,0,1,3.081-1.541v2.481a3.122,3.122,0,0,0-3.081,1.02v6.381h-2.541Z" transform="translate(-0.434 -38.391)"/><path class="cls-7" d="M1196.73,160.543a4,4,0,0,1-3.06,1.241,3.219,3.219,0,0,1-3.361-3.2,3.06,3.06,0,0,1,3.361-3.081,3.9,3.9,0,0,1,3.06,1.181v-1.341c0-.98-.839-1.62-2.121-1.62a4.066,4.066,0,0,0-2.82,1.14l-.96-1.7a6.341,6.341,0,0,1,4.222-1.521c2.2,0,4.22.88,4.22,3.661v6.241h-2.541Zm0-2.521a2.539,2.539,0,0,0-2.041-.839c-1,0-1.82.52-1.82,1.46,0,.9.82,1.42,1.82,1.42a2.54,2.54,0,0,0,2.041-.84Z" transform="translate(-0.434 -38.391)"/><path class="cls-7" d="M1213.771,155.442c0-.9-.4-1.54-1.439-1.54a2.566,2.566,0,0,0-2,1.12v6.521h-2.56v-6.1c0-.9-.4-1.54-1.441-1.54a2.589,2.589,0,0,0-2,1.14v6.5h-2.541v-9.662h2.541v1.261a4.224,4.224,0,0,1,3.16-1.5,2.557,2.557,0,0,1,2.681,1.761,4.1,4.1,0,0,1,3.321-1.761,2.58,2.58,0,0,1,2.84,2.921v6.981h-2.561Z" transform="translate(-0.434 -38.391)"/><path class="cls-7" d="M1230.811,155.442c0-.9-.4-1.54-1.44-1.54a2.563,2.563,0,0,0-2,1.12v6.521h-2.56v-6.1c0-.9-.4-1.54-1.442-1.54a2.593,2.593,0,0,0-2,1.14v6.5h-2.541v-9.662h2.541v1.261a4.228,4.228,0,0,1,3.16-1.5,2.558,2.558,0,0,1,2.682,1.761,4.1,4.1,0,0,1,3.32-1.761,2.579,2.579,0,0,1,2.84,2.921v6.981h-2.56Z" transform="translate(-0.434 -38.391)"/><path class="cls-7" d="M1240.25,151.641c2.881,0,4.841,2.161,4.841,5.321v.56h-7.182a2.6,2.6,0,0,0,2.78,2.241,3.951,3.951,0,0,0,2.581-.96l1.121,1.64a6.026,6.026,0,0,1-3.981,1.341,5.072,5.072,0,1,1-.16-10.143Zm-2.381,4.161h4.761a2.238,2.238,0,0,0-2.38-2.14A2.322,2.322,0,0,0,1237.869,155.8Z" transform="translate(-0.434 -38.391)"/><path class="cls-7" d="M1176.33,175.641c2.881,0,4.842,2.161,4.842,5.321v.56h-7.182a2.6,2.6,0,0,0,2.781,2.241,3.957,3.957,0,0,0,2.581-.96l1.12,1.64a6.025,6.025,0,0,1-3.982,1.341,5.072,5.072,0,1,1-.16-10.143Zm-2.38,4.161h4.761a2.237,2.237,0,0,0-2.381-2.14A2.321,2.321,0,0,0,1173.95,179.8Z" transform="translate(-0.434 -38.391)"/><path class="cls-7" d="M1189.531,179.7a1.567,1.567,0,0,0-1.78-1.8,2.75,2.75,0,0,0-2.2,1.14v6.5h-2.541v-9.662h2.541v1.261a4.419,4.419,0,0,1,3.381-1.5,2.811,2.811,0,0,1,3.14,3.081v6.821h-2.541Z" transform="translate(-0.434 -38.391)"/><path class="cls-7" d="M1201.23,184.3a3.75,3.75,0,0,1-2.98,1.481c-2.44,0-4.281-1.841-4.281-5.061,0-3.161,1.82-5.082,4.281-5.082a3.719,3.719,0,0,1,2.98,1.481V172.2h2.561v13.342h-2.561Zm0-5.3a2.76,2.76,0,0,0-2.2-1.1,2.839,2.839,0,0,0,0,5.621,2.76,2.76,0,0,0,2.2-1.1Z" transform="translate(-0.434 -38.391)"/><path class="cls-7" d="M1206.57,182.5a5.529,5.529,0,0,0,3.34,1.32c1.1,0,1.621-.38,1.621-.98,0-.68-.841-.92-1.941-1.14-1.66-.32-3.8-.721-3.8-3.021,0-1.62,1.421-3.041,3.961-3.041a6.177,6.177,0,0,1,3.9,1.32l-1.02,1.741a4.075,4.075,0,0,0-2.86-1.12c-.921,0-1.521.34-1.521.9,0,.6.76.82,1.84,1.04,1.661.32,3.881.76,3.881,3.161,0,1.76-1.5,3.1-4.18,3.1a6.5,6.5,0,0,1-4.322-1.5Z" transform="translate(-0.434 -38.391)"/><polyline class="cls-8" points="51.692 149.399 51.692 254.653 1194.423 254.653 1194.423 149.399"/><line class="cls-8" x1="528.566" y1="148.399" x2="528.566" y2="253.653"/><line class="cls-8" x1="242.185" y1="254.653" x2="242.185" y2="264.528"/><line class="cls-8" x1="146.947" y1="254.653" x2="146.947" y2="264.528"/><line class="cls-8" x1="51.709" y1="254.653" x2="51.709" y2="264.528"/><line class="cls-8" x1="337.423" y1="254.653" x2="337.423" y2="264.528"/><line class="cls-8" x1="433.566" y1="254.653" x2="433.566" y2="264.528"/><line class="cls-8" x1="528.566" y1="254.653" x2="528.566" y2="264.528"/><line class="cls-8" x1="623.566" y1="254.653" x2="623.566" y2="264.528"/><line class="cls-8" x1="718.804" y1="254.653" x2="718.804" y2="264.528"/><line class="cls-8" x1="814.042" y1="254.653" x2="814.042" y2="264.528"/><line class="cls-8" x1="909.28" y1="254.653" x2="909.28" y2="264.528"/><line class="cls-8" x1="1004.518" y1="254.653" x2="1004.518" y2="264.528"/><line class="cls-8" x1="1099.756" y1="254.653" x2="1099.756" y2="264.528"/><line class="cls-8" x1="1194.566" y1="254.653" x2="1194.566" y2="264.528"/><path class="cls-7" d="M849.8,235.967h9.442v2.44h-6.6v2.9H859.1v2.44h-6.461v5.562H849.8Z" transform="translate(-0.434 -38.391)"/><path class="cls-7" d="M860.9,236.887a1.521,1.521,0,1,1,1.52,1.52A1.533,1.533,0,0,1,860.9,236.887Zm.26,2.76h2.54v9.663h-2.54Z" transform="translate(-0.434 -38.391)"/><path class="cls-7" d="M872.736,243.468a1.567,1.567,0,0,0-1.78-1.8,2.751,2.751,0,0,0-2.2,1.14v6.5h-2.541v-9.663h2.541v1.26a4.424,4.424,0,0,1,3.381-1.5,2.81,2.81,0,0,1,3.14,3.081v6.822h-2.541Z" transform="translate(-0.434 -38.391)"/><path class="cls-7" d="M883.6,248.31a4,4,0,0,1-3.061,1.24,3.219,3.219,0,0,1-3.36-3.2,3.059,3.059,0,0,1,3.36-3.081,3.906,3.906,0,0,1,3.061,1.18v-1.34c0-.98-.84-1.621-2.12-1.621a4.068,4.068,0,0,0-2.821,1.141l-.961-1.7a6.345,6.345,0,0,1,4.222-1.521c2.2,0,4.221.88,4.221,3.661v6.242H883.6Zm0-2.522a2.544,2.544,0,0,0-2.04-.84c-1,0-1.821.521-1.821,1.461,0,.9.821,1.42,1.821,1.42a2.541,2.541,0,0,0,2.04-.84Z" transform="translate(-0.434 -38.391)"/><path class="cls-7" d="M888.654,235.967H891.2V249.31h-2.541Z" transform="translate(-0.434 -38.391)"/><path class="cls-7" d="M903.216,239.407c2.881,0,4.841,2.16,4.841,5.322v.559h-7.182a2.6,2.6,0,0,0,2.781,2.241,3.946,3.946,0,0,0,2.58-.961l1.12,1.641a6.022,6.022,0,0,1-3.98,1.341,5.072,5.072,0,1,1-.16-10.143Zm-2.381,4.161H905.6a2.237,2.237,0,0,0-2.38-2.14A2.322,2.322,0,0,0,900.835,243.568Z" transform="translate(-0.434 -38.391)"/><path class="cls-7" d="M913,246.049l-2.22,3.261h-2.821l3.421-4.961-3.221-4.7H911l2,2.981,1.981-2.981h2.84l-3.24,4.7,3.46,4.961H915.2Z" transform="translate(-0.434 -38.391)"/><path class="cls-7" d="M925.1,248.31a4,4,0,0,1-3.061,1.24,3.219,3.219,0,0,1-3.361-3.2,3.06,3.06,0,0,1,3.361-3.081,3.908,3.908,0,0,1,3.061,1.18v-1.34c0-.98-.841-1.621-2.121-1.621a4.07,4.07,0,0,0-2.821,1.141l-.96-1.7a6.34,6.34,0,0,1,4.221-1.521c2.2,0,4.221.88,4.221,3.661v6.242H925.1Zm0-2.522a2.546,2.546,0,0,0-2.041-.84c-1,0-1.821.521-1.821,1.461,0,.9.821,1.42,1.821,1.42a2.543,2.543,0,0,0,2.041-.84Z" transform="translate(-0.434 -38.391)"/><path class="cls-7" d="M942.137,243.208c0-.9-.4-1.54-1.44-1.54a2.568,2.568,0,0,0-2,1.12v6.522h-2.56v-6.1c0-.9-.4-1.54-1.441-1.54a2.593,2.593,0,0,0-2,1.14v6.5h-2.541v-9.663H932.7v1.26a4.225,4.225,0,0,1,3.16-1.5,2.555,2.555,0,0,1,2.681,1.761,4.1,4.1,0,0,1,3.321-1.761,2.579,2.579,0,0,1,2.84,2.921v6.982h-2.56Z" transform="translate(-0.434 -38.391)"/><path class="cls-7" d="M958.115,248.31a4,4,0,0,1-3.06,1.24,3.22,3.22,0,0,1-3.361-3.2,3.06,3.06,0,0,1,3.361-3.081,3.9,3.9,0,0,1,3.06,1.18v-1.34c0-.98-.84-1.621-2.12-1.621a4.064,4.064,0,0,0-2.82,1.141l-.961-1.7a6.343,6.343,0,0,1,4.222-1.521c2.2,0,4.22.88,4.22,3.661v6.242h-2.541Zm0-2.522a2.542,2.542,0,0,0-2.04-.84c-1,0-1.82.521-1.82,1.461,0,.9.82,1.42,1.82,1.42a2.539,2.539,0,0,0,2.04-.84Z" transform="translate(-0.434 -38.391)"/><path class="cls-7" d="M969.7,243.468a1.567,1.567,0,0,0-1.78-1.8,2.751,2.751,0,0,0-2.2,1.14v6.5h-2.541v-9.663h2.541v1.26a4.424,4.424,0,0,1,3.381-1.5,2.81,2.81,0,0,1,3.14,3.081v6.822H969.7Z" transform="translate(-0.434 -38.391)"/><path class="cls-7" d="M981.4,248.069a3.753,3.753,0,0,1-2.981,1.481c-2.44,0-4.281-1.841-4.281-5.062,0-3.161,1.82-5.081,4.281-5.081a3.719,3.719,0,0,1,2.981,1.481v-4.921h2.56V249.31H981.4Zm0-5.3a2.764,2.764,0,0,0-2.2-1.1,2.839,2.839,0,0,0,0,5.621,2.762,2.762,0,0,0,2.2-1.1Z" transform="translate(-0.434 -38.391)"/><path class="cls-7" d="M996.1,239.407a4.5,4.5,0,0,1,3.821,1.74l-1.66,1.561a2.343,2.343,0,0,0-2.041-1.04,2.817,2.817,0,0,0,0,5.621,2.441,2.441,0,0,0,2.041-1.04l1.66,1.54a4.456,4.456,0,0,1-3.821,1.761,5.072,5.072,0,1,1,0-10.143Z" transform="translate(-0.434 -38.391)"/><path class="cls-7" d="M1005.955,239.407c2.881,0,4.841,2.16,4.841,5.322v.559h-7.182a2.6,2.6,0,0,0,2.782,2.241,3.95,3.95,0,0,0,2.58-.961l1.12,1.641a6.025,6.025,0,0,1-3.981,1.341,5.072,5.072,0,1,1-.16-10.143Zm-2.381,4.161h4.761a2.236,2.236,0,0,0-2.38-2.14A2.322,2.322,0,0,0,1003.574,243.568Z" transform="translate(-0.434 -38.391)"/><path class="cls-7" d="M1012.634,239.647h2.54v1.321a4.132,4.132,0,0,1,3.081-1.541v2.481a3.122,3.122,0,0,0-3.081,1.02v6.382h-2.54Z" transform="translate(-0.434 -38.391)"/><path class="cls-7" d="M1020.333,246.909v-5.041h-1.6v-2.221h1.6v-2.64h2.561v2.64h1.96v2.221h-1.96v4.361c0,.6.32,1.06.88,1.06a1.391,1.391,0,0,0,.88-.28l.54,1.921a3.136,3.136,0,0,1-2.12.62A2.416,2.416,0,0,1,1020.333,246.909Z" transform="translate(-0.434 -38.391)"/><path class="cls-7" d="M1026.333,236.887a1.521,1.521,0,1,1,1.521,1.52A1.533,1.533,0,0,1,1026.333,236.887Zm.261,2.76h2.54v9.663h-2.54Z" transform="translate(-0.434 -38.391)"/><path class="cls-7" d="M1032.213,241.868h-1.6v-2.221h1.6v-.52a3.113,3.113,0,0,1,3.261-3.36,4.107,4.107,0,0,1,1.84.4l-.52,1.84a1.424,1.424,0,0,0-.82-.24c-.72,0-1.2.48-1.2,1.36v.52h1.961v2.221h-1.961v7.442h-2.56Zm5.722-4.981a1.52,1.52,0,1,1,1.52,1.52A1.533,1.533,0,0,1,1037.935,236.887Zm.259,2.76h2.541v9.663h-2.541Z" transform="translate(-0.434 -38.391)"/><path class="cls-7" d="M1047.754,239.407a4.5,4.5,0,0,1,3.82,1.74l-1.66,1.561a2.34,2.34,0,0,0-2.04-1.04,2.817,2.817,0,0,0,0,5.621,2.438,2.438,0,0,0,2.04-1.04l1.66,1.54a4.451,4.451,0,0,1-3.82,1.761,5.072,5.072,0,1,1,0-10.143Z" transform="translate(-0.434 -38.391)"/><path class="cls-7" d="M1059.034,248.31a4,4,0,0,1-3.06,1.24,3.22,3.22,0,0,1-3.362-3.2,3.06,3.06,0,0,1,3.362-3.081,3.9,3.9,0,0,1,3.06,1.18v-1.34c0-.98-.841-1.621-2.121-1.621a4.066,4.066,0,0,0-2.82,1.141l-.96-1.7a6.337,6.337,0,0,1,4.221-1.521c2.2,0,4.22.88,4.22,3.661v6.242h-2.54Zm0-2.522a2.546,2.546,0,0,0-2.041-.84c-1,0-1.82.521-1.82,1.461,0,.9.82,1.42,1.82,1.42a2.543,2.543,0,0,0,2.041-.84Z" transform="translate(-0.434 -38.391)"/><path class="cls-7" d="M1064.593,246.909v-5.041h-1.6v-2.221h1.6v-2.64h2.56v2.64h1.96v2.221h-1.96v4.361c0,.6.321,1.06.88,1.06a1.4,1.4,0,0,0,.881-.28l.54,1.921a3.139,3.139,0,0,1-2.121.62A2.415,2.415,0,0,1,1064.593,246.909Z" transform="translate(-0.434 -38.391)"/><path class="cls-7" d="M1070.593,236.887a1.521,1.521,0,1,1,1.52,1.52A1.533,1.533,0,0,1,1070.593,236.887Zm.26,2.76h2.541v9.663h-2.541Z" transform="translate(-0.434 -38.391)"/><path class="cls-7" d="M1075.292,244.469a5.112,5.112,0,1,1,5.1,5.081A4.895,4.895,0,0,1,1075.292,244.469Zm7.582,0a2.492,2.492,0,1,0-2.48,2.82A2.55,2.55,0,0,0,1082.874,244.469Z" transform="translate(-0.434 -38.391)"/><path class="cls-7" d="M1093.914,243.468a1.567,1.567,0,0,0-1.78-1.8,2.752,2.752,0,0,0-2.2,1.14v6.5h-2.54v-9.663h2.54v1.26a4.423,4.423,0,0,1,3.38-1.5,2.81,2.81,0,0,1,3.141,3.081v6.822h-2.54Z" transform="translate(-0.434 -38.391)"/><path class="cls-7" d="M1104.092,252.99V239.647h2.541v1.22a3.735,3.735,0,0,1,2.98-1.46c2.481,0,4.282,1.841,4.282,5.062s-1.8,5.081-4.282,5.081a3.692,3.692,0,0,1-2.98-1.481v4.921Zm4.721-11.322a2.842,2.842,0,0,0-2.18,1.1v3.42a2.906,2.906,0,0,0,2.18,1.1c1.46,0,2.441-1.141,2.441-2.82A2.505,2.505,0,0,0,1108.813,241.668Z" transform="translate(-0.434 -38.391)"/><path class="cls-7" d="M1120.173,239.407c2.881,0,4.841,2.16,4.841,5.322v.559h-7.182a2.6,2.6,0,0,0,2.781,2.241,3.946,3.946,0,0,0,2.58-.961l1.12,1.641a6.02,6.02,0,0,1-3.98,1.341,5.072,5.072,0,1,1-.16-10.143Zm-2.381,4.161h4.761a2.236,2.236,0,0,0-2.38-2.14A2.322,2.322,0,0,0,1117.792,243.568Z" transform="translate(-0.434 -38.391)"/><path class="cls-7" d="M1126.852,239.647h2.541v1.321a4.127,4.127,0,0,1,3.08-1.541v2.481a3.12,3.12,0,0,0-3.08,1.02v6.382h-2.541Z" transform="translate(-0.434 -38.391)"/><path class="cls-7" d="M1133.791,236.887a1.521,1.521,0,1,1,1.521,1.52A1.533,1.533,0,0,1,1133.791,236.887Zm.261,2.76h2.54v9.663h-2.54Z" transform="translate(-0.434 -38.391)"/><path class="cls-7" d="M1138.491,244.469a5.112,5.112,0,1,1,5.1,5.081A4.895,4.895,0,0,1,1138.491,244.469Zm7.582,0a2.492,2.492,0,1,0-2.48,2.82A2.55,2.55,0,0,0,1146.073,244.469Z" transform="translate(-0.434 -38.391)"/><path class="cls-7" d="M1157.232,248.069a3.75,3.75,0,0,1-2.98,1.481c-2.44,0-4.281-1.841-4.281-5.062,0-3.161,1.82-5.081,4.281-5.081a3.716,3.716,0,0,1,2.98,1.481v-4.921h2.561V249.31h-2.561Zm0-5.3a2.762,2.762,0,0,0-2.2-1.1,2.839,2.839,0,0,0,0,5.621,2.76,2.76,0,0,0,2.2-1.1Z" transform="translate(-0.434 -38.391)"/><path class="cls-7" d="M941.114,268.448a13.944,13.944,0,0,1,3.16-8.842l1.6,1.2a14.727,14.727,0,0,0-2.021,7.641,14.488,14.488,0,0,0,2.021,7.6l-1.6,1.24A13.9,13.9,0,0,1,941.114,268.448Z" transform="translate(-0.434 -38.391)"/><path class="cls-7" d="M947.494,259.967h2.54v4.921a3.722,3.722,0,0,1,2.981-1.481c2.461,0,4.281,1.92,4.281,5.081,0,3.221-1.84,5.062-4.281,5.062a3.753,3.753,0,0,1-2.981-1.481v1.241h-2.54Zm4.721,11.322a2.835,2.835,0,0,0,0-5.621,2.8,2.8,0,0,0-2.181,1.12v3.421A2.829,2.829,0,0,0,952.215,271.289Z" transform="translate(-0.434 -38.391)"/><path class="cls-7" d="M958.594,268.469a5.111,5.111,0,1,1,5.1,5.081A4.894,4.894,0,0,1,958.594,268.469Zm7.582,0a2.493,2.493,0,1,0-2.481,2.82A2.551,2.551,0,0,0,966.176,268.469Z" transform="translate(-0.434 -38.391)"/><path class="cls-7" d="M971.193,270.909v-5.041h-1.6v-2.221h1.6v-2.64h2.561v2.64h1.961v2.221h-1.961v4.361c0,.6.32,1.06.881,1.06a1.394,1.394,0,0,0,.88-.28l.54,1.921a3.138,3.138,0,0,1-2.12.62A2.416,2.416,0,0,1,971.193,270.909Z" transform="translate(-0.434 -38.391)"/><path class="cls-7" d="M984,267.428c0-1.34-.7-1.76-1.8-1.76a2.814,2.814,0,0,0-2.2,1.14v6.5h-2.541V259.967h2.541v4.94a4.471,4.471,0,0,1,3.4-1.5c2.12,0,3.14,1.16,3.14,3.041v6.862H984Z" transform="translate(-0.434 -38.391)"/><path class="cls-7" d="M998.674,263.407a4.5,4.5,0,0,1,3.821,1.74l-1.66,1.561a2.343,2.343,0,0,0-2.041-1.04,2.817,2.817,0,0,0,0,5.621,2.441,2.441,0,0,0,2.041-1.04l1.66,1.54a4.456,4.456,0,0,1-3.821,1.761,5.072,5.072,0,1,1,0-10.143Z" transform="translate(-0.434 -38.391)"/><path class="cls-7" d="M1003.533,268.469a5.111,5.111,0,1,1,5.1,5.081A4.894,4.894,0,0,1,1003.533,268.469Zm7.581,0a2.492,2.492,0,1,0-2.48,2.82A2.549,2.549,0,0,0,1011.114,268.469Z" transform="translate(-0.434 -38.391)"/><path class="cls-7" d="M1022.154,272.089a4.522,4.522,0,0,1-3.4,1.461,2.767,2.767,0,0,1-3.121-3.041v-6.862h2.541v5.862a1.553,1.553,0,0,0,1.78,1.78,2.838,2.838,0,0,0,2.2-1.1v-6.541h2.541v9.663h-2.541Z" transform="translate(-0.434 -38.391)"/><path class="cls-7" d="M1027.213,263.647h2.54v1.321a4.134,4.134,0,0,1,3.081-1.541v2.481a3.122,3.122,0,0,0-3.081,1.02v6.382h-2.54Z" transform="translate(-0.434 -38.391)"/><path class="cls-7" d="M1034.673,270.269a5.527,5.527,0,0,0,3.34,1.32c1.1,0,1.621-.38,1.621-.981,0-.679-.841-.92-1.941-1.139-1.66-.321-3.8-.721-3.8-3.021,0-1.621,1.419-3.041,3.961-3.041a6.173,6.173,0,0,1,3.9,1.321l-1.021,1.74a4.073,4.073,0,0,0-2.86-1.12c-.92,0-1.52.34-1.52.9,0,.6.76.82,1.84,1.04,1.661.32,3.881.76,3.881,3.16,0,1.761-1.5,3.1-4.18,3.1a6.509,6.509,0,0,1-4.322-1.5Z" transform="translate(-0.434 -38.391)"/><path class="cls-7" d="M1048.333,263.407c2.881,0,4.842,2.16,4.842,5.322v.559h-7.182a2.6,2.6,0,0,0,2.78,2.241,3.949,3.949,0,0,0,2.581-.961l1.121,1.641a6.027,6.027,0,0,1-3.982,1.341,5.072,5.072,0,1,1-.16-10.143Zm-2.38,4.161h4.761a2.237,2.237,0,0,0-2.381-2.14A2.321,2.321,0,0,0,1045.953,267.568Z" transform="translate(-0.434 -38.391)"/><path class="cls-7" d="M1055.272,270.269a5.532,5.532,0,0,0,3.34,1.32c1.1,0,1.621-.38,1.621-.981,0-.679-.84-.92-1.94-1.139-1.66-.321-3.8-.721-3.8-3.021,0-1.621,1.42-3.041,3.961-3.041a6.174,6.174,0,0,1,3.9,1.321l-1.021,1.74a4.075,4.075,0,0,0-2.86-1.12c-.92,0-1.521.34-1.521.9,0,.6.761.82,1.841,1.04,1.66.32,3.881.76,3.881,3.16,0,1.761-1.5,3.1-4.181,3.1a6.5,6.5,0,0,1-4.321-1.5Z" transform="translate(-0.434 -38.391)"/><path class="cls-7" d="M1063.632,260.807l1.6-1.2a13.812,13.812,0,0,1,0,17.684l-1.6-1.24a14.148,14.148,0,0,0,2.04-7.6A14.379,14.379,0,0,0,1063.632,260.807Z" transform="translate(-0.434 -38.391)"/><path class="cls-2" d="M1182.689,100.981" transform="translate(-0.434 -38.391)"/><path class="cls-2" d="M887.648,100.981" transform="translate(-0.434 -38.391)"/><line class="cls-2" x1="780.955" y1="62.591" x2="538.566" y2="62.591"/><line class="cls-4" x1="780.955" y1="62.591" x2="559.748" y2="62.591"/><polygon class="cls-1" points="538.566 62.591 568.414 50.394 561.331 62.591 568.414 74.784 538.566 62.591"/><line class="cls-2" x1="1182.205" y1="62.591" x2="939.816" y2="62.591"/><line class="cls-4" x1="1161.023" y1="62.591" x2="939.816" y2="62.591"/><polygon class="cls-1" points="1182.205 62.591 1152.357 50.394 1159.439 62.591 1152.357 74.784 1182.205 62.591"/><line class="cls-8" x1="813.566" y1="148.399" x2="813.566" y2="253.653"/><path class="cls-7" d="M739.8,153.97c5.461-4.021,7.061-5.4,7.061-7.041,0-1.161-1.06-1.741-2.18-1.741a4.757,4.757,0,0,0-3.562,1.541l-1.62-1.881a6.8,6.8,0,0,1,5.142-2.181c2.84,0,5.1,1.6,5.1,4.262,0,2.28-1.88,4.26-5.461,6.781h5.562v2.5H739.8Z" transform="translate(-0.434 -38.391)"/><path class="cls-7" d="M758.643,150.369a1.568,1.568,0,0,0-1.781-1.8,2.751,2.751,0,0,0-2.2,1.14v6.5h-2.541v-9.662h2.541v1.261a4.421,4.421,0,0,1,3.381-1.5,2.811,2.811,0,0,1,3.141,3.081v6.821h-2.541Z" transform="translate(-0.434 -38.391)"/><path class="cls-7" d="M770.343,154.97a3.755,3.755,0,0,1-2.982,1.481c-2.44,0-4.28-1.841-4.28-5.061,0-3.161,1.82-5.082,4.28-5.082a3.725,3.725,0,0,1,2.982,1.481v-4.921h2.56V156.21h-2.56Zm0-5.3a2.767,2.767,0,0,0-2.2-1.1,2.838,2.838,0,0,0,0,5.621,2.767,2.767,0,0,0,2.2-1.1Z" transform="translate(-0.434 -38.391)"/><path class="cls-7" d="M785.042,146.308a4.492,4.492,0,0,1,3.82,1.741l-1.66,1.56a2.343,2.343,0,0,0-2.04-1.04,2.817,2.817,0,0,0,0,5.621,2.438,2.438,0,0,0,2.04-1.04l1.66,1.54a4.451,4.451,0,0,1-3.82,1.761,5.072,5.072,0,1,1,0-10.143Z" transform="translate(-0.434 -38.391)"/><path class="cls-7" d="M789.9,151.37a5.112,5.112,0,1,1,5.1,5.081A4.895,4.895,0,0,1,789.9,151.37Zm7.582,0a2.492,2.492,0,1,0-2.48,2.82A2.55,2.55,0,0,0,797.482,151.37Z" transform="translate(-0.434 -38.391)"/><path class="cls-7" d="M808.522,154.99a4.522,4.522,0,0,1-3.4,1.461A2.767,2.767,0,0,1,802,153.41v-6.862h2.54v5.862a1.553,1.553,0,0,0,1.78,1.78,2.844,2.844,0,0,0,2.2-1.1v-6.542h2.54v9.662h-2.54Z" transform="translate(-0.434 -38.391)"/><path class="cls-7" d="M813.58,146.548h2.541v1.321a4.13,4.13,0,0,1,3.08-1.541v2.481a3.12,3.12,0,0,0-3.08,1.02v6.381H813.58Z" transform="translate(-0.434 -38.391)"/><path class="cls-7" d="M821.04,153.17a5.532,5.532,0,0,0,3.341,1.32c1.1,0,1.62-.38,1.62-.98,0-.68-.84-.92-1.94-1.14-1.661-.32-3.8-.721-3.8-3.021,0-1.62,1.421-3.041,3.961-3.041a6.182,6.182,0,0,1,3.9,1.32l-1.02,1.741a4.08,4.08,0,0,0-2.861-1.12c-.921,0-1.52.34-1.52.9,0,.6.759.82,1.84,1.04,1.661.32,3.88.76,3.88,3.161,0,1.76-1.5,3.1-4.18,3.1a6.5,6.5,0,0,1-4.322-1.5Z" transform="translate(-0.434 -38.391)"/><path class="cls-7" d="M834.7,146.308c2.881,0,4.841,2.161,4.841,5.321v.56H832.36a2.605,2.605,0,0,0,2.782,2.241,3.952,3.952,0,0,0,2.58-.96l1.12,1.64a6.025,6.025,0,0,1-3.981,1.341,5.072,5.072,0,1,1-.16-10.143Zm-2.381,4.161h4.761a2.237,2.237,0,0,0-2.38-2.14A2.322,2.322,0,0,0,832.32,150.469Z" transform="translate(-0.434 -38.391)"/><path class="cls-7" d="M850.881,146.308c2.881,0,4.841,2.161,4.841,5.321v.56H848.54a2.6,2.6,0,0,0,2.781,2.241,3.95,3.95,0,0,0,2.58-.96l1.12,1.64a6.02,6.02,0,0,1-3.98,1.341,5.072,5.072,0,1,1-.16-10.143Zm-2.381,4.161h4.761a2.237,2.237,0,0,0-2.38-2.14A2.322,2.322,0,0,0,848.5,150.469Z" transform="translate(-0.434 -38.391)"/><path class="cls-7" d="M864.081,150.369a1.567,1.567,0,0,0-1.78-1.8,2.751,2.751,0,0,0-2.2,1.14v6.5H857.56v-9.662H860.1v1.261a4.419,4.419,0,0,1,3.38-1.5,2.811,2.811,0,0,1,3.141,3.081v6.821h-2.541Z" transform="translate(-0.434 -38.391)"/><path class="cls-7" d="M875.781,154.97a3.751,3.751,0,0,1-2.981,1.481c-2.441,0-4.28-1.841-4.28-5.061,0-3.161,1.82-5.082,4.28-5.082a3.723,3.723,0,0,1,2.981,1.481v-4.921h2.561V156.21h-2.561Zm0-5.3a2.767,2.767,0,0,0-2.2-1.1,2.839,2.839,0,0,0,0,5.621,2.767,2.767,0,0,0,2.2-1.1Z" transform="translate(-0.434 -38.391)"/><path class="cls-7" d="M881.12,153.17a5.529,5.529,0,0,0,3.34,1.32c1.1,0,1.621-.38,1.621-.98,0-.68-.841-.92-1.94-1.14-1.661-.32-3.8-.721-3.8-3.021,0-1.62,1.42-3.041,3.961-3.041a6.179,6.179,0,0,1,3.9,1.32l-1.02,1.741a4.076,4.076,0,0,0-2.861-1.12c-.92,0-1.52.34-1.52.9,0,.6.761.82,1.841,1.04,1.66.32,3.88.76,3.88,3.161,0,1.76-1.5,3.1-4.18,3.1a6.5,6.5,0,0,1-4.321-1.5Z" transform="translate(-0.434 -38.391)"/><path class="cls-7" d="M806.213,174.609h-6.3v5.6H797.07V166.868h2.841v5.241h6.3v-5.241h2.86V180.21h-2.86Z" transform="translate(-0.434 -38.391)"/><path class="cls-7" d="M811.69,166.868h2.841V177.71h5.641v2.5H811.69Z" transform="translate(-0.434 -38.391)"/><path class="cls-7" d="M822.15,166.868h9.442v2.44h-6.6v2.9h6.461v2.44h-6.461v5.561H822.15Z" transform="translate(-0.434 -38.391)"/><path class="cls-7" d="M454.382,38.991h9.441v2.44h-6.6v2.9h6.461v2.44h-6.461v3.1h6.6v2.46h-9.441Z" transform="translate(-0.434 -38.391)"/><path class="cls-7" d="M469.122,41.491h-3.9v-2.5h10.642v2.5h-3.881V52.333h-2.86Z" transform="translate(-0.434 -38.391)"/><path class="cls-7" d="M486.823,46.732h-6.3v5.6h-2.84V38.991h2.84v5.241h6.3V38.991h2.861V52.333h-2.861Z" transform="translate(-0.434 -38.391)"/><path class="cls-7" d="M501.741,42.431c2.881,0,4.842,2.161,4.842,5.321v.56H499.4a2.6,2.6,0,0,0,2.781,2.241,3.95,3.95,0,0,0,2.58-.96l1.121,1.64a6.027,6.027,0,0,1-3.982,1.341,5.072,5.072,0,1,1-.16-10.143Zm-2.38,4.161h4.761a2.238,2.238,0,0,0-2.381-2.14A2.321,2.321,0,0,0,499.361,46.592Z" transform="translate(-0.434 -38.391)"/><path class="cls-7" d="M511.521,49.073l-2.22,3.26H506.48l3.421-4.96-3.22-4.7h2.84l2,2.981,1.981-2.981h2.841l-3.241,4.7,3.46,4.96h-2.84Z" transform="translate(-0.434 -38.391)"/><path class="cls-7" d="M523.622,51.333a4,4,0,0,1-3.06,1.241,3.22,3.22,0,0,1-3.362-3.2,3.06,3.06,0,0,1,3.362-3.081,3.9,3.9,0,0,1,3.06,1.181V46.132c0-.98-.841-1.62-2.121-1.62a4.065,4.065,0,0,0-2.82,1.14l-.96-1.7a6.336,6.336,0,0,1,4.22-1.521c2.2,0,4.221.881,4.221,3.661v6.241h-2.54Zm0-2.521a2.542,2.542,0,0,0-2.041-.839c-1,0-1.82.52-1.82,1.46,0,.9.82,1.42,1.82,1.42a2.543,2.543,0,0,0,2.041-.84Z" transform="translate(-0.434 -38.391)"/><path class="cls-7" d="M540.663,46.232c0-.9-.4-1.54-1.439-1.54a2.565,2.565,0,0,0-2,1.12v6.521h-2.561v-6.1c0-.9-.4-1.54-1.44-1.54a2.593,2.593,0,0,0-2,1.14v6.5h-2.541V42.671h2.541v1.261a4.222,4.222,0,0,1,3.16-1.5,2.554,2.554,0,0,1,2.68,1.761,4.1,4.1,0,0,1,3.322-1.761,2.579,2.579,0,0,1,2.84,2.921v6.981h-2.561Z" transform="translate(-0.434 -38.391)"/><path class="cls-7" d="M550.221,47.493a5.111,5.111,0,1,1,5.1,5.081A4.894,4.894,0,0,1,550.221,47.493Zm7.581,0a2.49,2.49,0,1,0-4.941,0,2.492,2.492,0,1,0,4.941,0Z" transform="translate(-0.434 -38.391)"/><path class="cls-7" d="M562.32,56.014V42.671h2.54v1.221a3.736,3.736,0,0,1,2.981-1.461c2.481,0,4.281,1.841,4.281,5.062s-1.8,5.081-4.281,5.081a3.7,3.7,0,0,1-2.981-1.481v4.921Zm4.721-11.322a2.847,2.847,0,0,0-2.181,1.1v3.421a2.911,2.911,0,0,0,2.181,1.1c1.46,0,2.44-1.14,2.44-2.82A2.5,2.5,0,0,0,567.041,44.692Z" transform="translate(-0.434 -38.391)"/><path class="cls-7" d="M578.4,42.431c2.881,0,4.842,2.161,4.842,5.321v.56h-7.181a2.6,2.6,0,0,0,2.78,2.241,3.95,3.95,0,0,0,2.58-.96l1.121,1.64a6.025,6.025,0,0,1-3.981,1.341,5.072,5.072,0,1,1-.161-10.143Zm-2.379,4.161h4.76a2.237,2.237,0,0,0-2.381-2.14A2.32,2.32,0,0,0,576.021,46.592Z" transform="translate(-0.434 -38.391)"/><path class="cls-7" d="M591.6,46.492a1.568,1.568,0,0,0-1.781-1.8,2.752,2.752,0,0,0-2.2,1.14v6.5h-2.54V42.671h2.54v1.261a4.423,4.423,0,0,1,3.381-1.5,2.811,2.811,0,0,1,3.141,3.081v6.821H591.6Z" transform="translate(-0.434 -38.391)"/><path class="cls-7" d="M596.92,49.293a5.532,5.532,0,0,0,3.341,1.32c1.1,0,1.62-.38,1.62-.98,0-.68-.84-.92-1.941-1.14-1.66-.32-3.8-.721-3.8-3.021,0-1.62,1.421-3.041,3.961-3.041a6.182,6.182,0,0,1,3.9,1.32l-1.021,1.741a4.075,4.075,0,0,0-2.86-1.12c-.921,0-1.52.34-1.52.9,0,.6.759.82,1.839,1.04,1.662.32,3.881.76,3.881,3.161,0,1.76-1.5,3.1-4.18,3.1a6.5,6.5,0,0,1-4.322-1.5Z" transform="translate(-0.434 -38.391)"/><path class="cls-7" d="M635.817,330.6a5.363,5.363,0,0,0,3.681,1.494c1.62,0,2.521-.689,2.521-1.692,0-1.061-.821-1.553-2.681-1.553-.561,0-1.46,0-1.66.019v-2.438c.24.019,1.16.019,1.66.019,1.48,0,2.461-.471,2.461-1.456,0-1.042-1.081-1.573-2.481-1.573a4.912,4.912,0,0,0-3.4,1.377l-1.4-1.73a6.614,6.614,0,0,1,5.1-2.085c3.12,0,5.041,1.377,5.041,3.559a3.243,3.243,0,0,1-2.921,2.99,3.32,3.32,0,0,1,3.121,3.147c0,2.262-2.06,3.855-5.261,3.855a6.723,6.723,0,0,1-5.261-2.1Z" transform="translate(-0.434 -38.391)"/><path class="cls-7" d="M658.5,327.821l-2.04,6.471h-2.721l-2.94-9.5h2.641l1.8,6.393,2.121-6.393h2.26l2.121,6.393,1.8-6.393h2.641l-2.941,9.5h-2.7Z" transform="translate(-0.434 -38.391)"/><path class="cls-7" d="M671.817,324.556c2.881,0,4.842,2.125,4.842,5.232v.551h-7.181a2.591,2.591,0,0,0,2.78,2.2,3.989,3.989,0,0,0,2.58-.943l1.121,1.612a6.091,6.091,0,0,1-3.981,1.318,4.988,4.988,0,1,1-.161-9.972Zm-2.379,4.091h4.76a2.221,2.221,0,0,0-2.381-2.1A2.3,2.3,0,0,0,669.438,328.647Z" transform="translate(-0.434 -38.391)"/><path class="cls-7" d="M682.877,324.556c2.881,0,4.842,2.125,4.842,5.232v.551h-7.182a2.591,2.591,0,0,0,2.78,2.2,3.987,3.987,0,0,0,2.58-.943l1.122,1.612a6.094,6.094,0,0,1-3.982,1.318,4.988,4.988,0,1,1-.16-9.972Zm-2.38,4.091h4.761a2.221,2.221,0,0,0-2.381-2.1A2.305,2.305,0,0,0,680.5,328.647Z" transform="translate(-0.434 -38.391)"/><path class="cls-7" d="M693.257,330.634l-1.16,1.22v2.438h-2.54V321.173h2.54v7.848l3.661-4.229h3.12l-3.82,4.308,3.94,5.192h-3.181Z" transform="translate(-0.434 -38.391)"/><path class="cls-7" d="M700.376,331.3a5.59,5.59,0,0,0,3.341,1.3c1.1,0,1.62-.374,1.62-.964,0-.669-.84-.9-1.941-1.121-1.66-.315-3.8-.708-3.8-2.97,0-1.594,1.421-2.99,3.961-2.99a6.238,6.238,0,0,1,3.9,1.3l-1.02,1.711a4.119,4.119,0,0,0-2.861-1.1c-.921,0-1.52.334-1.52.885,0,.59.759.806,1.839,1.023,1.662.315,3.881.747,3.881,3.107,0,1.731-1.5,3.049-4.18,3.049a6.573,6.573,0,0,1-4.322-1.475Z" transform="translate(-0.434 -38.391)"/><path class="cls-7" d="M968.01,327.494c-1.481-.519-2.641-1.48-2.641-3.14,0-2.5,2.66-3.521,5.142-3.521,2.46,0,5.14,1.021,5.14,3.521,0,1.66-1.18,2.621-2.66,3.14a3.851,3.851,0,0,1,2.88,3.421c0,2.481-2.56,3.7-5.36,3.7s-5.362-1.2-5.362-3.7A3.829,3.829,0,0,1,968.01,327.494Zm2.5,1.261c-.841.1-2.482.66-2.482,1.82,0,.98,1.081,1.6,2.482,1.6,1.359,0,2.48-.62,2.48-1.6C972.991,329.415,971.33,328.854,970.511,328.755Zm0-5.482c-1.321,0-2.261.581-2.261,1.521,0,1.04,1.44,1.5,2.261,1.62.819-.12,2.24-.58,2.24-1.62C972.751,323.854,971.811,323.273,970.511,323.273Z" transform="translate(-0.434 -38.391)"/><path class="cls-7" d="M989.391,327.794l-2.041,6.582h-2.721l-2.941-9.662h2.641l1.8,6.5,2.12-6.5h2.261l2.12,6.5,1.8-6.5h2.64l-2.94,9.662h-2.7Z" transform="translate(-0.434 -38.391)"/><path class="cls-7" d="M1002.71,324.474c2.881,0,4.841,2.16,4.841,5.321v.559h-7.182a2.6,2.6,0,0,0,2.78,2.242,3.952,3.952,0,0,0,2.581-.961l1.121,1.64a6.025,6.025,0,0,1-3.981,1.341,5.072,5.072,0,1,1-.16-10.142Zm-2.381,4.161h4.761a2.237,2.237,0,0,0-2.38-2.141A2.323,2.323,0,0,0,1000.329,328.635Z" transform="translate(-0.434 -38.391)"/><path class="cls-7" d="M1013.77,324.474c2.88,0,4.841,2.16,4.841,5.321v.559h-7.181a2.6,2.6,0,0,0,2.78,2.242,3.951,3.951,0,0,0,2.58-.961l1.121,1.64a6.025,6.025,0,0,1-3.981,1.341,5.072,5.072,0,1,1-.16-10.142Zm-2.38,4.161h4.76a2.237,2.237,0,0,0-2.38-2.141A2.321,2.321,0,0,0,1011.39,328.635Z" transform="translate(-0.434 -38.391)"/><path class="cls-7" d="M1024.149,330.655l-1.16,1.241v2.48h-2.541V321.033h2.541v7.982l3.66-4.3h3.122l-3.822,4.381,3.942,5.281h-3.181Z" transform="translate(-0.434 -38.391)"/><path class="cls-7" d="M1031.269,331.335a5.529,5.529,0,0,0,3.34,1.32c1.1,0,1.62-.38,1.62-.98,0-.68-.839-.92-1.94-1.14-1.66-.32-3.8-.721-3.8-3.02,0-1.621,1.421-3.041,3.961-3.041a6.177,6.177,0,0,1,3.9,1.32l-1.021,1.74a4.077,4.077,0,0,0-2.86-1.12c-.921,0-1.521.34-1.521.9,0,.6.76.821,1.84,1.04,1.661.321,3.881.76,3.881,3.161,0,1.76-1.5,3.1-4.181,3.1a6.5,6.5,0,0,1-4.321-1.5Z" transform="translate(-0.434 -38.391)"/><path class="cls-7" d="M748.1,46.732h-6.3v5.6h-2.841V38.991H741.8v5.241h6.3V38.991h2.86V52.333H748.1Z" transform="translate(-0.434 -38.391)"/><path class="cls-7" d="M753.577,38.991h2.841V49.833h5.642v2.5h-8.483Z" transform="translate(-0.434 -38.391)"/><path class="cls-7" d="M764.037,38.991h9.442v2.44h-6.6v2.9h6.461v2.44h-6.461v5.561h-2.841Z" transform="translate(-0.434 -38.391)"/><path class="cls-7" d="M784.9,42.431c2.881,0,4.841,2.161,4.841,5.321v.56h-7.181a2.6,2.6,0,0,0,2.781,2.241,3.952,3.952,0,0,0,2.58-.96l1.12,1.64a6.022,6.022,0,0,1-3.98,1.341,5.072,5.072,0,1,1-.161-10.143Zm-2.38,4.161h4.76a2.236,2.236,0,0,0-2.38-2.14A2.321,2.321,0,0,0,782.518,46.592Z" transform="translate(-0.434 -38.391)"/><path class="cls-7" d="M794.678,49.073l-2.22,3.26h-2.821l3.421-4.96-3.221-4.7h2.841l2,2.981,1.98-2.981H799.5l-3.24,4.7,3.46,4.96h-2.84Z" transform="translate(-0.434 -38.391)"/><path class="cls-7" d="M806.778,51.333a4,4,0,0,1-3.06,1.241,3.22,3.22,0,0,1-3.361-3.2,3.06,3.06,0,0,1,3.361-3.081,3.9,3.9,0,0,1,3.06,1.181V46.132c0-.98-.84-1.62-2.12-1.62a4.063,4.063,0,0,0-2.82,1.14l-.961-1.7a6.343,6.343,0,0,1,4.222-1.521c2.2,0,4.22.881,4.22,3.661v6.241h-2.541Zm0-2.521a2.539,2.539,0,0,0-2.04-.839c-1,0-1.82.52-1.82,1.46,0,.9.82,1.42,1.82,1.42a2.539,2.539,0,0,0,2.04-.84Z" transform="translate(-0.434 -38.391)"/><path class="cls-7" d="M823.819,46.232c0-.9-.4-1.54-1.439-1.54a2.565,2.565,0,0,0-2,1.12v6.521h-2.561v-6.1c0-.9-.4-1.54-1.44-1.54a2.593,2.593,0,0,0-2,1.14v6.5h-2.541V42.671h2.541v1.261a4.224,4.224,0,0,1,3.16-1.5,2.556,2.556,0,0,1,2.681,1.761,4.1,4.1,0,0,1,3.321-1.761,2.579,2.579,0,0,1,2.84,2.921v6.981h-2.561Z" transform="translate(-0.434 -38.391)"/><path class="cls-7" d="M833.377,47.493a5.111,5.111,0,1,1,5.1,5.081A4.894,4.894,0,0,1,833.377,47.493Zm7.581,0a2.49,2.49,0,1,0-4.94,0,2.492,2.492,0,1,0,4.94,0Z" transform="translate(-0.434 -38.391)"/><path class="cls-7" d="M845.477,56.014V42.671h2.541v1.221A3.731,3.731,0,0,1,851,42.431c2.481,0,4.281,1.841,4.281,5.062s-1.8,5.081-4.281,5.081a3.691,3.691,0,0,1-2.98-1.481v4.921ZM850.2,44.692a2.845,2.845,0,0,0-2.18,1.1v3.421a2.909,2.909,0,0,0,2.18,1.1c1.46,0,2.441-1.14,2.441-2.82A2.505,2.505,0,0,0,850.2,44.692Z" transform="translate(-0.434 -38.391)"/><path class="cls-7" d="M861.558,42.431c2.88,0,4.84,2.161,4.84,5.321v.56h-7.181A2.6,2.6,0,0,0,862,50.553a3.952,3.952,0,0,0,2.58-.96l1.12,1.64a6.022,6.022,0,0,1-3.98,1.341,5.072,5.072,0,1,1-.16-10.143Zm-2.381,4.161h4.761a2.238,2.238,0,0,0-2.38-2.14A2.322,2.322,0,0,0,859.177,46.592Z" transform="translate(-0.434 -38.391)"/><path class="cls-7" d="M874.758,46.492a1.567,1.567,0,0,0-1.78-1.8,2.753,2.753,0,0,0-2.2,1.14v6.5h-2.541V42.671h2.541v1.261a4.421,4.421,0,0,1,3.381-1.5,2.811,2.811,0,0,1,3.141,3.081v6.821h-2.541Z" transform="translate(-0.434 -38.391)"/><path class="cls-7" d="M880.076,49.293a5.532,5.532,0,0,0,3.341,1.32c1.1,0,1.62-.38,1.62-.98,0-.68-.84-.92-1.94-1.14-1.66-.32-3.8-.721-3.8-3.021,0-1.62,1.421-3.041,3.961-3.041a6.182,6.182,0,0,1,3.9,1.32l-1.02,1.741a4.078,4.078,0,0,0-2.861-1.12c-.921,0-1.52.34-1.52.9,0,.6.76.82,1.84,1.04,1.661.32,3.881.76,3.881,3.161,0,1.76-1.5,3.1-4.181,3.1a6.5,6.5,0,0,1-4.321-1.5Z" transform="translate(-0.434 -38.391)"/><line class="cls-8" x1="861.661" y1="254.653" x2="861.661" y2="264.528"/><line class="cls-8" x1="956.899" y1="254.827" x2="956.899" y2="264.702"/><line class="cls-8" x1="1052.137" y1="254.827" x2="1052.137" y2="264.702"/><line class="cls-8" x1="1147.161" y1="253.89" x2="1147.161" y2="263.765"/><path class="cls-7" d="M1068.01,38.991h9.442v2.44h-6.6v2.9h6.461v2.44h-6.461v3.1h6.6v2.46h-9.442Z" transform="translate(-0.434 -38.391)"/><path class="cls-7" d="M1083.391,49.073l-2.221,3.26h-2.82l3.421-4.96-3.221-4.7h2.84l2,2.981,1.98-2.981h2.841l-3.241,4.7,3.461,4.96h-2.841Z" transform="translate(-0.434 -38.391)"/><path class="cls-7" d="M1095.491,51.333a4,4,0,0,1-3.06,1.241,3.22,3.22,0,0,1-3.362-3.2,3.06,3.06,0,0,1,3.362-3.081,3.9,3.9,0,0,1,3.06,1.181V46.132c0-.98-.841-1.62-2.121-1.62a4.065,4.065,0,0,0-2.82,1.14l-.96-1.7a6.338,6.338,0,0,1,4.221-1.521c2.2,0,4.22.881,4.22,3.661v6.241h-2.54Zm0-2.521a2.541,2.541,0,0,0-2.041-.839c-1,0-1.82.52-1.82,1.46,0,.9.82,1.42,1.82,1.42a2.541,2.541,0,0,0,2.041-.84Z" transform="translate(-0.434 -38.391)"/><path class="cls-7" d="M1112.532,46.232c0-.9-.4-1.54-1.44-1.54a2.561,2.561,0,0,0-2,1.12v6.521h-2.561v-6.1c0-.9-.4-1.54-1.44-1.54a2.593,2.593,0,0,0-2,1.14v6.5h-2.54V42.671h2.54v1.261a4.228,4.228,0,0,1,3.161-1.5,2.558,2.558,0,0,1,2.681,1.761,4.1,4.1,0,0,1,3.32-1.761,2.58,2.58,0,0,1,2.841,2.921v6.981h-2.561Z" transform="translate(-0.434 -38.391)"/><path class="cls-7" d="M1122.709,56.014V42.671h2.541v1.221a3.733,3.733,0,0,1,2.98-1.461c2.481,0,4.282,1.841,4.282,5.062s-1.8,5.081-4.282,5.081a3.692,3.692,0,0,1-2.98-1.481v4.921Zm4.722-11.322a2.845,2.845,0,0,0-2.181,1.1v3.421a2.909,2.909,0,0,0,2.181,1.1c1.46,0,2.44-1.14,2.44-2.82A2.5,2.5,0,0,0,1127.431,44.692Z" transform="translate(-0.434 -38.391)"/><path class="cls-7" d="M1138.79,42.431c2.881,0,4.842,2.161,4.842,5.321v.56h-7.182a2.6,2.6,0,0,0,2.78,2.241,3.953,3.953,0,0,0,2.581-.96l1.121,1.64a6.027,6.027,0,0,1-3.982,1.341,5.072,5.072,0,1,1-.16-10.143Zm-2.38,4.161h4.761a2.238,2.238,0,0,0-2.381-2.14A2.321,2.321,0,0,0,1136.41,46.592Z" transform="translate(-0.434 -38.391)"/><path class="cls-7" d="M1145.469,42.671h2.541v1.321a4.128,4.128,0,0,1,3.08-1.541v2.481a3.12,3.12,0,0,0-3.08,1.02v6.381h-2.541Z" transform="translate(-0.434 -38.391)"/><path class="cls-7" d="M1152.408,39.911a1.521,1.521,0,1,1,1.521,1.52A1.532,1.532,0,0,1,1152.408,39.911Zm.261,2.76h2.54v9.662h-2.54Z" transform="translate(-0.434 -38.391)"/><path class="cls-7" d="M1157.108,47.493a5.112,5.112,0,1,1,5.1,5.081A4.895,4.895,0,0,1,1157.108,47.493Zm7.582,0a2.49,2.49,0,1,0-4.941,0,2.492,2.492,0,1,0,4.941,0Z" transform="translate(-0.434 -38.391)"/><path class="cls-7" d="M1175.85,51.093a3.753,3.753,0,0,1-2.981,1.481c-2.44,0-4.281-1.841-4.281-5.061,0-3.161,1.82-5.082,4.281-5.082a3.722,3.722,0,0,1,2.981,1.481V38.991h2.56V52.333h-2.56Zm0-5.3a2.764,2.764,0,0,0-2.2-1.1,2.523,2.523,0,0,0-2.44,2.821,2.515,2.515,0,0,0,2.44,2.8,2.764,2.764,0,0,0,2.2-1.1Z" transform="translate(-0.434 -38.391)"/><path class="cls-7" d="M1190.43,42.431c2.881,0,4.841,2.161,4.841,5.321v.56h-7.182a2.6,2.6,0,0,0,2.781,2.241,3.95,3.95,0,0,0,2.58-.96l1.12,1.64a6.022,6.022,0,0,1-3.98,1.341,5.072,5.072,0,1,1-.16-10.143Zm-2.381,4.161h4.761a2.238,2.238,0,0,0-2.38-2.14A2.322,2.322,0,0,0,1188.049,46.592Z" transform="translate(-0.434 -38.391)"/><path class="cls-7" d="M1203.63,46.492a1.567,1.567,0,0,0-1.78-1.8,2.754,2.754,0,0,0-2.2,1.14v6.5h-2.54V42.671h2.54v1.261a4.424,4.424,0,0,1,3.381-1.5,2.811,2.811,0,0,1,3.141,3.081v6.821h-2.54Z" transform="translate(-0.434 -38.391)"/><path class="cls-7" d="M1215.33,51.093a3.753,3.753,0,0,1-2.981,1.481c-2.441,0-4.281-1.841-4.281-5.061,0-3.161,1.821-5.082,4.281-5.082a3.725,3.725,0,0,1,2.981,1.481V38.991h2.561V52.333h-2.561Zm0-5.3a2.767,2.767,0,0,0-2.2-1.1,2.523,2.523,0,0,0-2.441,2.821,2.516,2.516,0,0,0,2.441,2.8,2.767,2.767,0,0,0,2.2-1.1Z" transform="translate(-0.434 -38.391)"/><path class="cls-7" d="M1220.668,49.293a5.532,5.532,0,0,0,3.341,1.32c1.1,0,1.62-.38,1.62-.98,0-.68-.84-.92-1.941-1.14-1.66-.32-3.8-.721-3.8-3.021,0-1.62,1.421-3.041,3.961-3.041a6.182,6.182,0,0,1,3.9,1.32l-1.021,1.741a4.075,4.075,0,0,0-2.86-1.12c-.921,0-1.52.34-1.52.9,0,.6.759.82,1.839,1.04,1.662.32,3.881.76,3.881,3.161,0,1.76-1.5,3.1-4.18,3.1a6.5,6.5,0,0,1-4.322-1.5Z" transform="translate(-0.434 -38.391)"/><path class="cls-9" d="M31.533,319.135a3.02,3.02,0,0,0,2.121.961,1.98,1.98,0,0,0,2.08-2.141v-8.922h2.841V318c0,3.16-1.961,4.621-4.7,4.621a4.959,4.959,0,0,1-3.581-1.3Z" transform="translate(-0.434 -38.391)"/><path class="cls-9" d="M47.674,321.155a4.519,4.519,0,0,1-3.4,1.461,2.767,2.767,0,0,1-3.12-3.041v-6.861h2.54v5.861a1.554,1.554,0,0,0,1.781,1.78,2.843,2.843,0,0,0,2.2-1.1v-6.541h2.541v9.662H47.674Z" transform="translate(-0.434 -38.391)"/><path class="cls-9" d="M59.254,316.534a1.567,1.567,0,0,0-1.78-1.8,2.753,2.753,0,0,0-2.2,1.14v6.5h-2.54v-9.662h2.54v1.26a4.424,4.424,0,0,1,3.381-1.5,2.811,2.811,0,0,1,3.141,3.081v6.821H59.254Z" transform="translate(-0.434 -38.391)"/><path class="cls-9" d="M68.693,312.474c2.881,0,4.842,2.16,4.842,5.321v.559H66.353a2.6,2.6,0,0,0,2.78,2.242,3.952,3.952,0,0,0,2.581-.961l1.12,1.64a6.022,6.022,0,0,1-3.98,1.341,5.072,5.072,0,1,1-.161-10.142Zm-2.38,4.161h4.761a2.238,2.238,0,0,0-2.381-2.141A2.322,2.322,0,0,0,66.313,316.635Z" transform="translate(-0.434 -38.391)"/><path class="cls-9" d="M38.8,336.693l-2.221,2.261-1.62-1.7,4.2-4.221h2.48v13.343H38.8Z" transform="translate(-0.434 -38.391)"/><path class="cls-9" d="M47.023,336.693l-2.22,2.261-1.62-1.7,4.2-4.221h2.481v13.343H47.023Z" transform="translate(-0.434 -38.391)"/><path class="cls-9" d="M52.943,343.976v-5.041h-1.6v-2.221h1.6v-2.641H55.5v2.641h1.961v2.221H55.5v4.36c0,.6.321,1.06.881,1.06a1.388,1.388,0,0,0,.88-.28L57.8,346a3.136,3.136,0,0,1-2.12.62A2.415,2.415,0,0,1,52.943,343.976Z" transform="translate(-0.434 -38.391)"/><path class="cls-9" d="M65.744,340.494c0-1.34-.7-1.76-1.8-1.76a2.814,2.814,0,0,0-2.2,1.14v6.5H59.2V333.033h2.54v4.941a4.467,4.467,0,0,1,3.4-1.5c2.12,0,3.141,1.16,3.141,3.041v6.861H65.744Z" transform="translate(-0.434 -38.391)"/><path class="cls-9" d="M512.051,319.135a3.02,3.02,0,0,0,2.12.961,1.98,1.98,0,0,0,2.08-2.141v-8.922h2.841V318c0,3.16-1.96,4.621-4.7,4.621a4.959,4.959,0,0,1-3.58-1.3Z" transform="translate(-0.434 -38.391)"/><path class="cls-9" d="M528.192,321.155a4.519,4.519,0,0,1-3.4,1.461,2.767,2.767,0,0,1-3.121-3.041v-6.861h2.541v5.861a1.553,1.553,0,0,0,1.78,1.78,2.844,2.844,0,0,0,2.2-1.1v-6.541h2.54v9.662h-2.54Z" transform="translate(-0.434 -38.391)"/><path class="cls-9" d="M533.25,309.033h2.541v13.343H533.25Z" transform="translate(-0.434 -38.391)"/><path class="cls-9" d="M539.15,324.036a1.283,1.283,0,0,0,1.341-.7l.36-.82-3.921-9.8h2.72l2.521,6.722,2.52-6.722h2.741l-4.541,11.242a3.511,3.511,0,0,1-3.661,2.341,6.946,6.946,0,0,1-1.26-.141l.38-2.28A2.195,2.195,0,0,0,539.15,324.036Z" transform="translate(-0.434 -38.391)"/><path class="cls-9" d="M513.8,336.693l-2.22,2.261-1.621-1.7,4.2-4.221h2.481v13.343H513.8Z" transform="translate(-0.434 -38.391)"/><path class="cls-9" d="M524.861,332.833a6.021,6.021,0,0,1,3.941,1.38l-1.28,2.141a3.553,3.553,0,0,0-2.661-1.061c-2.02,0-3.34,1.741-3.34,3.861a1.243,1.243,0,0,0,.02.281,4.323,4.323,0,0,1,3.42-1.7c2.4,0,4.541,1.461,4.541,4.3,0,2.6-2.06,4.581-5.1,4.581-4.061,0-5.761-3.121-5.761-6.882C518.64,335.693,520.92,332.833,524.861,332.833Zm-.72,7.262a3.421,3.421,0,0,0-2.6,1.28,2.723,2.723,0,0,0,2.72,2.76,2.146,2.146,0,0,0,2.361-1.98C526.622,340.715,525.441,340.1,524.141,340.1Z" transform="translate(-0.434 -38.391)"/><path class="cls-9" d="M531.66,343.976v-5.041h-1.6v-2.221h1.6v-2.641h2.561v2.641h1.96v2.221h-1.96v4.36c0,.6.32,1.06.88,1.06a1.388,1.388,0,0,0,.88-.28l.54,1.921a3.136,3.136,0,0,1-2.12.62A2.415,2.415,0,0,1,531.66,343.976Z" transform="translate(-0.434 -38.391)"/><path class="cls-9" d="M544.462,340.494c0-1.34-.7-1.76-1.8-1.76a2.814,2.814,0,0,0-2.2,1.14v6.5H537.92V333.033h2.541v4.941a4.467,4.467,0,0,1,3.4-1.5c2.12,0,3.14,1.16,3.14,3.041v6.861h-2.54Z" transform="translate(-0.434 -38.391)"/><path class="cls-9" d="M792.068,320.075h-5.962l-.839,2.3h-3.121l5.161-13.343h3.561l5.141,13.343h-3.1Zm-5.2-2.461h4.421l-2.2-6.121Z" transform="translate(-0.434 -38.391)"/><path class="cls-9" d="M803.428,321.155a4.521,4.521,0,0,1-3.4,1.461,2.767,2.767,0,0,1-3.12-3.041v-6.861h2.54v5.861a1.553,1.553,0,0,0,1.781,1.78,2.847,2.847,0,0,0,2.2-1.1v-6.541h2.54v9.662h-2.54Z" transform="translate(-0.434 -38.391)"/><path class="cls-9" d="M809.427,323.016a3.838,3.838,0,0,0,3.02,1.2,2.361,2.361,0,0,0,2.66-2.441v-.98a3.756,3.756,0,0,1-2.98,1.52c-2.421,0-4.261-1.7-4.261-4.92,0-3.161,1.821-4.921,4.261-4.921a3.72,3.72,0,0,1,2.98,1.48v-1.24h2.561v9c0,3.68-2.841,4.581-5.221,4.581a5.854,5.854,0,0,1-4.161-1.441Zm5.68-7.182a2.751,2.751,0,0,0-2.18-1.1,2.671,2.671,0,0,0,0,5.322,2.811,2.811,0,0,0,2.18-1.1Z" transform="translate(-0.434 -38.391)"/><path class="cls-9" d="M826.707,321.155a4.518,4.518,0,0,1-3.4,1.461,2.767,2.767,0,0,1-3.121-3.041v-6.861h2.541v5.861a1.553,1.553,0,0,0,1.78,1.78,2.842,2.842,0,0,0,2.2-1.1v-6.541h2.541v9.662h-2.541Z" transform="translate(-0.434 -38.391)"/><path class="cls-9" d="M832.026,319.335a5.532,5.532,0,0,0,3.34,1.32c1.1,0,1.621-.38,1.621-.98,0-.68-.841-.92-1.94-1.14-1.66-.32-3.8-.721-3.8-3.02,0-1.621,1.42-3.041,3.961-3.041a6.171,6.171,0,0,1,3.9,1.32l-1.02,1.74a4.075,4.075,0,0,0-2.86-1.12c-.92,0-1.521.34-1.521.9,0,.6.761.821,1.841,1.04,1.66.321,3.881.76,3.881,3.161,0,1.76-1.5,3.1-4.181,3.1a6.5,6.5,0,0,1-4.321-1.5Z" transform="translate(-0.434 -38.391)"/><path class="cls-9" d="M841.806,319.976v-5.041h-1.6v-2.221h1.6v-2.641h2.56v2.641h1.96v2.221h-1.96v4.36c0,.6.321,1.06.88,1.06a1.393,1.393,0,0,0,.881-.28l.54,1.921a3.141,3.141,0,0,1-2.121.62A2.415,2.415,0,0,1,841.806,319.976Z" transform="translate(-0.434 -38.391)"/><path class="cls-9" d="M806.277,332.833a6.023,6.023,0,0,1,3.941,1.38l-1.28,2.141a3.555,3.555,0,0,0-2.661-1.061c-2.02,0-3.34,1.741-3.34,3.861a1.307,1.307,0,0,0,.019.281,4.325,4.325,0,0,1,3.421-1.7c2.4,0,4.541,1.461,4.541,4.3,0,2.6-2.061,4.581-5.1,4.581-4.061,0-5.761-3.121-5.761-6.882C800.056,335.693,802.336,332.833,806.277,332.833Zm-.72,7.262a3.424,3.424,0,0,0-2.6,1.28,2.724,2.724,0,0,0,2.721,2.76,2.145,2.145,0,0,0,2.36-1.98C808.037,340.715,806.857,340.1,805.557,340.1Z" transform="translate(-0.434 -38.391)"/><path class="cls-9" d="M813.076,343.976v-5.041h-1.6v-2.221h1.6v-2.641h2.561v2.641h1.96v2.221h-1.96v4.36c0,.6.32,1.06.88,1.06a1.39,1.39,0,0,0,.88-.28l.541,1.921a3.142,3.142,0,0,1-2.122.62A2.415,2.415,0,0,1,813.076,343.976Z" transform="translate(-0.434 -38.391)"/><path class="cls-9" d="M825.878,340.494c0-1.34-.7-1.76-1.8-1.76a2.812,2.812,0,0,0-2.2,1.14v6.5h-2.541V333.033h2.541v4.941a4.467,4.467,0,0,1,3.4-1.5c2.12,0,3.141,1.16,3.141,3.041v6.861h-2.54Z" transform="translate(-0.434 -38.391)"/><path class="cls-9" d="M1141.161,318.335a5.853,5.853,0,0,0,4.241,1.8c1.561,0,2.321-.739,2.321-1.5,0-1-1.161-1.34-2.7-1.7-2.18-.5-4.981-1.1-4.981-4.081,0-2.221,1.921-4.021,5.062-4.021a7.425,7.425,0,0,1,5.2,1.86l-1.581,2.08a5.693,5.693,0,0,0-3.821-1.46c-1.28,0-1.961.56-1.961,1.361,0,.9,1.121,1.18,2.662,1.54,2.2.5,5,1.16,5,4.121,0,2.44-1.741,4.281-5.341,4.281a7.6,7.6,0,0,1-5.642-2.121Z" transform="translate(-0.434 -38.391)"/><path class="cls-9" d="M1156.842,312.474c2.881,0,4.842,2.16,4.842,5.321v.559H1154.5a2.6,2.6,0,0,0,2.78,2.242,3.949,3.949,0,0,0,2.58-.961l1.121,1.64a6.025,6.025,0,0,1-3.981,1.341,5.072,5.072,0,1,1-.16-10.142Zm-2.38,4.161h4.761a2.239,2.239,0,0,0-2.381-2.141A2.322,2.322,0,0,0,1154.462,316.635Z" transform="translate(-0.434 -38.391)"/><path class="cls-9" d="M1163.521,326.057V312.714h2.541v1.22a3.73,3.73,0,0,1,2.98-1.46c2.48,0,4.281,1.84,4.281,5.061s-1.8,5.081-4.281,5.081a3.69,3.69,0,0,1-2.98-1.48v4.921Zm4.721-11.323a2.843,2.843,0,0,0-2.18,1.1v3.421a2.907,2.907,0,0,0,2.18,1.1c1.46,0,2.441-1.14,2.441-2.82A2.505,2.505,0,0,0,1168.242,314.734Z" transform="translate(-0.434 -38.391)"/><path class="cls-9" d="M1175.721,319.976v-5.041h-1.6v-2.221h1.6v-2.641h2.56v2.641h1.961v2.221h-1.961v4.36c0,.6.321,1.06.881,1.06a1.388,1.388,0,0,0,.88-.28l.54,1.921a3.138,3.138,0,0,1-2.12.62A2.415,2.415,0,0,1,1175.721,319.976Z" transform="translate(-0.434 -38.391)"/><path class="cls-9" d="M1186.361,312.474c2.881,0,4.842,2.16,4.842,5.321v.559h-7.182a2.6,2.6,0,0,0,2.781,2.242,3.951,3.951,0,0,0,2.58-.961l1.121,1.64a6.027,6.027,0,0,1-3.982,1.341,5.072,5.072,0,1,1-.16-10.142Zm-2.38,4.161h4.761a2.237,2.237,0,0,0-2.381-2.141A2.322,2.322,0,0,0,1183.981,316.635Z" transform="translate(-0.434 -38.391)"/><path class="cls-9" d="M1205.022,316.274c0-.9-.4-1.54-1.439-1.54a2.566,2.566,0,0,0-2,1.12v6.522h-2.561v-6.1c0-.9-.4-1.54-1.44-1.54a2.593,2.593,0,0,0-2,1.14v6.5h-2.541v-9.662h2.541v1.26a4.223,4.223,0,0,1,3.16-1.5,2.557,2.557,0,0,1,2.681,1.76,4.1,4.1,0,0,1,3.321-1.76,2.579,2.579,0,0,1,2.84,2.921v6.981h-2.561Z" transform="translate(-0.434 -38.391)"/><path class="cls-9" d="M1210.08,309.033h2.541v4.921a3.721,3.721,0,0,1,2.981-1.48c2.46,0,4.281,1.92,4.281,5.081,0,3.22-1.841,5.061-4.281,5.061a3.75,3.75,0,0,1-2.981-1.48v1.24h-2.541Zm4.722,11.322a2.835,2.835,0,0,0,0-5.621,2.8,2.8,0,0,0-2.181,1.12v3.421A2.824,2.824,0,0,0,1214.8,320.355Z" transform="translate(-0.434 -38.391)"/><path class="cls-9" d="M1226.181,312.474c2.881,0,4.841,2.16,4.841,5.321v.559h-7.181a2.6,2.6,0,0,0,2.78,2.242,3.951,3.951,0,0,0,2.58-.961l1.121,1.64a6.025,6.025,0,0,1-3.981,1.341,5.072,5.072,0,1,1-.16-10.142Zm-2.38,4.161h4.761a2.239,2.239,0,0,0-2.381-2.141A2.322,2.322,0,0,0,1223.8,316.635Z" transform="translate(-0.434 -38.391)"/><path class="cls-9" d="M1232.86,312.714h2.54v1.32a4.137,4.137,0,0,1,3.081-1.541v2.482a3.2,3.2,0,0,0-.7-.08,3.237,3.237,0,0,0-2.381,1.1v6.382h-2.54Z" transform="translate(-0.434 -38.391)"/><path class="cls-9" d="M1169.631,342.615a5.316,5.316,0,0,0,3.681,1.52c1.621,0,2.52-.7,2.52-1.72,0-1.08-.819-1.58-2.68-1.58-.56,0-1.461,0-1.661.019v-2.48c.24.02,1.16.02,1.661.02,1.48,0,2.46-.48,2.46-1.48,0-1.06-1.08-1.6-2.48-1.6a4.865,4.865,0,0,0-3.4,1.4l-1.4-1.761a6.568,6.568,0,0,1,5.1-2.12c3.121,0,5.041,1.4,5.041,3.62a3.272,3.272,0,0,1-2.92,3.041,3.348,3.348,0,0,1,3.12,3.2c0,2.3-2.061,3.921-5.261,3.921a6.671,6.671,0,0,1-5.262-2.14Z" transform="translate(-0.434 -38.391)"/><path class="cls-9" d="M1185.691,332.833c3.8,0,5.522,3.44,5.522,6.881s-1.721,6.9-5.522,6.9c-3.82,0-5.52-3.461-5.52-6.9S1181.871,332.833,1185.691,332.833Zm0,2.521c-1.92,0-2.64,1.9-2.64,4.36s.72,4.382,2.64,4.382c1.9,0,2.621-1.921,2.621-4.382S1187.592,335.354,1185.691,335.354Z" transform="translate(-0.434 -38.391)"/><path class="cls-9" d="M1193.65,343.976v-5.041h-1.6v-2.221h1.6v-2.641h2.561v2.641h1.961v2.221h-1.961v4.36c0,.6.32,1.06.881,1.06a1.388,1.388,0,0,0,.88-.28l.54,1.921a3.138,3.138,0,0,1-2.12.62A2.416,2.416,0,0,1,1193.65,343.976Z" transform="translate(-0.434 -38.391)"/><path class="cls-9" d="M1206.452,340.494c0-1.34-.7-1.76-1.8-1.76a2.814,2.814,0,0,0-2.2,1.14v6.5h-2.541V333.033h2.541v4.941a4.467,4.467,0,0,1,3.4-1.5c2.12,0,3.14,1.16,3.14,3.041v6.861h-2.54Z" transform="translate(-0.434 -38.391)"/><path class="cls-2" d="M616.073,244.723H609.45v5.887h-2.986V236.585h2.986v5.51h6.623v-5.51h3.007V250.61h-3.007Z" transform="translate(-0.434 -38.391)"/><path class="cls-2" d="M622.635,252.355a1.346,1.346,0,0,0,1.408-.736l.379-.862-4.121-10.3h2.859l2.65,7.066,2.649-7.066h2.88l-4.773,11.817c-.756,1.914-2.1,2.418-3.847,2.46a7.3,7.3,0,0,1-1.325-.147l.4-2.4A2.331,2.331,0,0,0,622.635,252.355Z" transform="translate(-0.434 -38.391)"/><path class="cls-2" d="M632.518,254.479V240.454h2.67v1.283a3.923,3.923,0,0,1,3.132-1.535c2.608,0,4.5,1.935,4.5,5.319s-1.892,5.341-4.5,5.341a3.882,3.882,0,0,1-3.132-1.555v5.172Zm4.961-11.9a2.991,2.991,0,0,0-2.291,1.156v3.6a3.054,3.054,0,0,0,2.291,1.156c1.536,0,2.566-1.2,2.566-2.965C640.045,243.776,639.015,242.578,637.479,242.578Z" transform="translate(-0.434 -38.391)"/><path class="cls-2" d="M649.4,240.2c3.029,0,5.089,2.271,5.089,5.593v.589h-7.549a2.737,2.737,0,0,0,2.923,2.354,4.148,4.148,0,0,0,2.712-1.009l1.178,1.725a6.332,6.332,0,0,1-4.185,1.408,5.331,5.331,0,1,1-.168-10.66Zm-2.5,4.373h5a2.351,2.351,0,0,0-2.5-2.25A2.441,2.441,0,0,0,646.9,244.575Z" transform="translate(-0.434 -38.391)"/><path class="cls-2" d="M656.405,240.454h2.67v1.388a4.346,4.346,0,0,1,3.238-1.619v2.607a3.282,3.282,0,0,0-3.238,1.072v6.708h-2.67Z" transform="translate(-0.434 -38.391)"/><path class="cls-2" d="M663.953,236.585h2.671V250.61h-2.671Z" transform="translate(-0.434 -38.391)"/><path class="cls-2" d="M673.857,240.2c3.028,0,5.088,2.271,5.088,5.593v.589H671.4a2.738,2.738,0,0,0,2.923,2.354,4.152,4.152,0,0,0,2.713-1.009l1.178,1.725a6.332,6.332,0,0,1-4.185,1.408,5.331,5.331,0,1,1-.168-10.66Zm-2.5,4.373h5a2.353,2.353,0,0,0-2.5-2.25A2.442,2.442,0,0,0,671.354,244.575Z" transform="translate(-0.434 -38.391)"/><path class="cls-2" d="M687.84,249.307a3.945,3.945,0,0,1-3.133,1.555c-2.564,0-4.5-1.934-4.5-5.319,0-3.322,1.913-5.341,4.5-5.341a3.913,3.913,0,0,1,3.133,1.556v-5.173h2.691V250.61H687.84Zm0-5.573a2.907,2.907,0,0,0-2.313-1.156c-1.513,0-2.565,1.2-2.565,2.965a2.644,2.644,0,0,0,2.565,2.943,2.9,2.9,0,0,0,2.313-1.156Z" transform="translate(-0.434 -38.391)"/><path class="cls-2" d="M694.148,251.283a4.037,4.037,0,0,0,3.176,1.262,2.483,2.483,0,0,0,2.8-2.566v-1.03a3.954,3.954,0,0,1-3.133,1.6c-2.544,0-4.478-1.787-4.478-5.173,0-3.321,1.913-5.172,4.478-5.172a3.91,3.91,0,0,1,3.133,1.556v-1.3h2.692v9.462c0,3.869-2.986,4.815-5.488,4.815a6.156,6.156,0,0,1-4.374-1.513Zm5.972-7.549a2.9,2.9,0,0,0-2.292-1.156,2.807,2.807,0,0,0,0,5.593,2.957,2.957,0,0,0,2.292-1.156Z" transform="translate(-0.434 -38.391)"/><path class="cls-2" d="M710.046,240.2c3.027,0,5.088,2.271,5.088,5.593v.589h-7.548a2.736,2.736,0,0,0,2.922,2.354,4.154,4.154,0,0,0,2.713-1.009l1.177,1.725a6.329,6.329,0,0,1-4.184,1.408,5.331,5.331,0,1,1-.168-10.66Zm-2.5,4.373h5a2.353,2.353,0,0,0-2.5-2.25A2.441,2.441,0,0,0,707.544,244.575Z" transform="translate(-0.434 -38.391)"/><path class="cls-2" d="M717.048,240.454h2.671v1.388a4.344,4.344,0,0,1,3.238-1.619v2.607a3.282,3.282,0,0,0-3.238,1.072v6.708h-2.671Z" transform="translate(-0.434 -38.391)"/><path class="cls-2" d="M730.022,236.585h9.925v2.565h-6.939V242.2H739.8v2.566h-6.792v5.845h-2.986Z" transform="translate(-0.434 -38.391)"/><path class="cls-2" d="M748.043,249.559a4.2,4.2,0,0,1-3.218,1.3,3.383,3.383,0,0,1-3.532-3.364c0-2.376,1.913-3.238,3.532-3.238a4.107,4.107,0,0,1,3.218,1.241v-1.409c0-1.03-.884-1.7-2.23-1.7a4.273,4.273,0,0,0-2.964,1.2L741.84,241.8a6.663,6.663,0,0,1,4.436-1.6c2.313,0,4.437.925,4.437,3.848v6.56h-2.67Zm0-2.65a2.672,2.672,0,0,0-2.146-.883c-1.05,0-1.913.547-1.913,1.536,0,.946.863,1.492,1.913,1.492a2.672,2.672,0,0,0,2.146-.883Z" transform="translate(-0.434 -38.391)"/><path class="cls-2" d="M753.342,236.585h2.671v5.173a3.912,3.912,0,0,1,3.133-1.556c2.585,0,4.5,2.019,4.5,5.341,0,3.385-1.935,5.319-4.5,5.319a3.945,3.945,0,0,1-3.133-1.555v1.3h-2.671Zm4.963,11.9c1.555,0,2.586-1.177,2.586-2.943s-1.031-2.965-2.586-2.965a2.944,2.944,0,0,0-2.292,1.178v3.595A2.969,2.969,0,0,0,758.305,248.486Z" transform="translate(-0.434 -38.391)"/><path class="cls-2" d="M765.644,240.454h2.67v1.388a4.346,4.346,0,0,1,3.239-1.619v2.607a3.284,3.284,0,0,0-3.239,1.072v6.708h-2.67Z" transform="translate(-0.434 -38.391)"/><path class="cls-2" d="M772.919,237.553a1.6,1.6,0,1,1,1.6,1.6A1.611,1.611,0,0,1,772.919,237.553Zm.272,2.9h2.671V250.61h-2.671Z" transform="translate(-0.434 -38.391)"/><path class="cls-2" d="M783.223,240.2a4.724,4.724,0,0,1,4.015,1.829l-1.745,1.64a2.46,2.46,0,0,0-2.144-1.093,2.961,2.961,0,0,0,0,5.908,2.563,2.563,0,0,0,2.144-1.093l1.745,1.619a4.679,4.679,0,0,1-4.015,1.85,5.33,5.33,0,1,1,0-10.66Z" transform="translate(-0.434 -38.391)"/><path class="cls-2" d="M606.464,258.57h5.53c4.395,0,7.444,2.8,7.444,7.024s-3.049,7-7.444,7h-5.53Zm5.53,11.4a4.2,4.2,0,0,0,4.395-4.373,4.1,4.1,0,0,0-4.395-4.395H609.45v8.768Z" transform="translate(-0.434 -38.391)"/><path class="cls-2" d="M626.882,262.188c3.028,0,5.089,2.27,5.089,5.592v.589h-7.549a2.737,2.737,0,0,0,2.923,2.355,4.151,4.151,0,0,0,2.712-1.009l1.177,1.724a6.328,6.328,0,0,1-4.184,1.409,5.331,5.331,0,1,1-.168-10.66Zm-2.5,4.373h5a2.353,2.353,0,0,0-2.5-2.25A2.441,2.441,0,0,0,624.38,266.561Z" transform="translate(-0.434 -38.391)"/><path class="cls-2" d="M633.232,262.439h2.86l2.649,7.066,2.65-7.066h2.88L640.192,272.6h-2.88Z" transform="translate(-0.434 -38.391)"/><path class="cls-2" d="M650.854,262.188c3.027,0,5.087,2.27,5.087,5.592v.589h-7.548a2.738,2.738,0,0,0,2.922,2.355,4.152,4.152,0,0,0,2.713-1.009l1.178,1.724a6.333,6.333,0,0,1-4.185,1.409,5.331,5.331,0,1,1-.167-10.66Zm-2.5,4.373h5a2.352,2.352,0,0,0-2.5-2.25A2.442,2.442,0,0,0,648.351,266.561Z" transform="translate(-0.434 -38.391)"/><path class="cls-2" d="M658.655,258.57h2.67V272.6h-2.67Z" transform="translate(-0.434 -38.391)"/><path class="cls-2" d="M664.1,267.507a5.373,5.373,0,1,1,5.362,5.341A5.143,5.143,0,0,1,664.1,267.507Zm7.969,0a2.62,2.62,0,1,0-2.607,2.965A2.681,2.681,0,0,0,672.07,267.507Z" transform="translate(-0.434 -38.391)"/><path class="cls-2" d="M677.6,276.464V262.439h2.67v1.284a3.921,3.921,0,0,1,3.133-1.535c2.607,0,4.5,1.934,4.5,5.319s-1.892,5.341-4.5,5.341a3.882,3.882,0,0,1-3.133-1.556v5.172Zm4.962-11.9a2.992,2.992,0,0,0-2.292,1.157v3.595a3.059,3.059,0,0,0,2.292,1.157c1.535,0,2.565-1.2,2.565-2.965C685.128,265.762,684.1,264.563,682.563,264.563Z" transform="translate(-0.434 -38.391)"/><path class="cls-2" d="M695.285,262.188c3.027,0,5.088,2.27,5.088,5.592v.589h-7.548a2.737,2.737,0,0,0,2.923,2.355,4.151,4.151,0,0,0,2.712-1.009l1.178,1.724a6.335,6.335,0,0,1-4.185,1.409,5.331,5.331,0,1,1-.168-10.66Zm-2.5,4.373h5a2.353,2.353,0,0,0-2.5-2.25A2.441,2.441,0,0,0,692.783,266.561Z" transform="translate(-0.434 -38.391)"/><path class="cls-2" d="M703.086,262.439h2.671v1.388A4.344,4.344,0,0,1,709,262.208v2.607a3.28,3.28,0,0,0-3.238,1.073V272.6h-2.671Z" transform="translate(-0.434 -38.391)"/><path class="cls-2" d="M716.985,265.594a7.1,7.1,0,0,1,7.36-7.254,6.469,6.469,0,0,1,5.971,3.427l-2.565,1.261a3.843,3.843,0,0,0-3.406-2.04,4.617,4.617,0,0,0,0,9.21,3.8,3.8,0,0,0,3.406-2.039l2.565,1.24a6.507,6.507,0,0,1-5.971,3.449A7.1,7.1,0,0,1,716.985,265.594Z" transform="translate(-0.434 -38.391)"/><path class="cls-2" d="M732.167,267.507a5.372,5.372,0,1,1,5.361,5.341A5.143,5.143,0,0,1,732.167,267.507Zm7.969,0a2.62,2.62,0,1,0-2.608,2.965A2.681,2.681,0,0,0,740.136,267.507Z" transform="translate(-0.434 -38.391)"/><path class="cls-2" d="M752.522,271.312a4.752,4.752,0,0,1-3.575,1.536c-2.228,0-3.28-1.22-3.28-3.2v-7.212h2.671V268.6a1.633,1.633,0,0,0,1.871,1.871,2.989,2.989,0,0,0,2.313-1.157v-6.876h2.67V272.6h-2.67Z" transform="translate(-0.434 -38.391)"/><path class="cls-2" d="M758.62,262.439h2.671v1.388a4.346,4.346,0,0,1,3.238-1.619v2.607a3.28,3.28,0,0,0-3.238,1.073V272.6H758.62Z" transform="translate(-0.434 -38.391)"/><path class="cls-2" d="M767.241,269.4a5.81,5.81,0,0,0,3.512,1.388c1.156,0,1.7-.4,1.7-1.03,0-.715-.883-.967-2.039-1.2-1.745-.337-4-.757-4-3.175,0-1.7,1.492-3.2,4.163-3.2a6.486,6.486,0,0,1,4.1,1.387l-1.073,1.829a4.284,4.284,0,0,0-3.007-1.177c-.966,0-1.6.357-1.6.946,0,.631.8.862,1.934,1.094,1.746.336,4.079.8,4.079,3.322,0,1.85-1.577,3.259-4.394,3.259a6.836,6.836,0,0,1-4.542-1.577Z" transform="translate(-0.434 -38.391)"/><path class="cls-2" d="M782.381,262.188c3.027,0,5.088,2.27,5.088,5.592v.589h-7.548a2.737,2.737,0,0,0,2.923,2.355,4.153,4.153,0,0,0,2.712-1.009l1.177,1.724a6.33,6.33,0,0,1-4.184,1.409,5.331,5.331,0,1,1-.168-10.66Zm-2.5,4.373h5a2.354,2.354,0,0,0-2.5-2.25A2.441,2.441,0,0,0,779.879,266.561Z" transform="translate(-0.434 -38.391)"/><path class="cls-2" d="M573.561,272.107a.775.775,0,0,1-1.03.365l-8.585-4.1a.774.774,0,0,1-.365-1.03l.912-1.911a.775.775,0,0,1,1.03-.365l8.585,4.1a.774.774,0,0,1,.365,1.03Zm-17.006-8.115a.775.775,0,0,1-1.03.365l-5.248-2.5a.776.776,0,0,1-.365-1.031l.912-1.911a.775.775,0,0,1,1.03-.364l5.248,2.5a.775.775,0,0,1,.365,1.03Z" transform="translate(-0.434 -38.391)"/><path class="cls-2" d="M590.908,249.067a.775.775,0,0,1-1.03.365l-5.257-2.508a.776.776,0,0,1-.365-1.031l.912-1.911a.775.775,0,0,1,1.03-.364l5.257,2.508a.775.775,0,0,1,.365,1.03Zm-13.678-6.526a.774.774,0,0,1-1.03.364l-8.538-4.074a.774.774,0,0,1-.365-1.03l.912-1.911a.776.776,0,0,1,1.031-.364l8.537,4.074a.774.774,0,0,1,.365,1.03Z" transform="translate(-0.434 -38.391)"/><rect class="cls-2" x="559.972" y="240.766" width="3.663" height="7.361" rx="0.773" ry="0.773" transform="translate(98.81 607.822) rotate(-64.491)"/><rect class="cls-2" x="575.31" y="246.236" width="3.663" height="11.058" rx="0.773" ry="0.773" transform="translate(100.937 625.831) rotate(-64.491)"/><rect class="cls-2" x="578.097" y="259.843" width="3.663" height="7.382" rx="0.773" ry="0.773" transform="translate(91.903 635.047) rotate(-64.491)"/><rect class="cls-2" x="562.76" y="250.698" width="3.663" height="11.035" rx="0.773" ry="0.773" transform="matrix(0.431, -0.903, 0.903, 0.431, 89.776, 617.039)"/><rect class="cls-2" x="550.55" y="250.321" width="11.057" height="3.664" rx="0.773" ry="0.773" transform="translate(88.595 607.042) rotate(-64.491)"/><rect class="cls-2" x="559.734" y="235.01" width="7.3" height="3.664" rx="0.773" ry="0.773" transform="translate(106.573 604.919) rotate(-64.491)"/><rect class="cls-2" x="574.689" y="269.301" width="7.3" height="3.664" rx="0.773" ry="0.773" transform="matrix(0.431, -0.903, 0.903, 0.431, 84.139, 637.939)"/><rect class="cls-2" x="580.116" y="253.99" width="11.057" height="3.664" rx="0.773" ry="0.773" transform="translate(102.117 635.815) rotate(-64.491)"/><rect class="cls-2" x="576.74" y="243.125" width="7.3" height="3.664" rx="0.773" ry="0.773" transform="translate(108.931 624.887) rotate(-64.491)"/><rect class="cls-2" x="567.556" y="258.436" width="11.057" height="3.664" rx="0.773" ry="0.773" transform="translate(90.953 627.011) rotate(-64.491)"/><rect class="cls-2" x="557.683" y="261.186" width="7.3" height="3.664" rx="0.773" ry="0.773" transform="translate(81.78 617.971) rotate(-64.491)"/><rect class="cls-2" x="563.11" y="245.875" width="11.057" height="3.664" rx="0.773" ry="0.773" transform="translate(99.758 615.847) rotate(-64.491)"/><line class="cls-10" x1="528.566" y1="21.04" x2="528.566" y2="30.915"/><line class="cls-8" x1="812.433" y1="21.04" x2="812.433" y2="30.915"/><line class="cls-8" x1="1192.205" y1="21.04" x2="1192.205" y2="30.915"/></svg>