<svg id="Layer_1" data-name="Layer 1" xmlns="http://www.w3.org/2000/svg" xmlns:xlink="http://www.w3.org/1999/xlink" viewBox="0 0 750 422"><defs><style>.cls-1,.cls-2{fill:none;}.cls-1{clip-rule:evenodd;}.cls-3{fill:#389c66;}.cls-4{fill:#fff;}.cls-5{clip-path:url(#clip-path);}.cls-6{clip-path:url(#clip-path-2);}.cls-7{clip-path:url(#clip-path-3);}</style><clipPath id="clip-path"><polygon class="cls-1" points="235.581 148.65 197.961 212.157 235.581 234.782 273.2 212.157 235.581 148.65"/></clipPath><clipPath id="clip-path-2"><rect class="cls-2" x="-82.665" y="52.371" width="1056.847" height="1585.27"/></clipPath><clipPath id="clip-path-3"><polygon class="cls-1" points="235.019 242.027 197.399 219.414 235.019 273.35 272.661 219.414 235.019 242.027"/></clipPath></defs><title>eth-101-hero-logo</title><rect class="cls-3" width="750" height="422"/><path class="cls-4" d="M16.97,81.377,30.435,67.913l3.48,3.48L24.5,80.807l4.136,4.136,9.214-9.214,3.48,3.48-9.214,9.214,7.931,7.931L36,100.405Z"/><path class="cls-4" d="M52.488,70.279l-2.967,2.967,6.818,6.818-4.051,4.051L33.261,65.087l8.9-8.9c3.965-3.965,8.986-3.794,12.523-.257,3.367,3.367,3.053,7.274,1.484,9.814L67.693,68.71l-4.65,4.65ZM45.042,60.266l-4.25,4.25,5.249,5.249,4.25-4.25a3.724,3.724,0,1,0-5.249-5.249Z"/><path class="cls-4" d="M51.6,46.743,65.07,33.277l3.48,3.48-9.415,9.415,4.136,4.136,9.215-9.215,3.48,3.48-9.215,9.215,4.422,4.422L80.589,48.8,84.1,52.306,70.633,65.771Z"/><path class="cls-4" d="M68.238,30.11,81.7,16.645l3.48,3.48L75.769,29.54l4.136,4.136,9.214-9.214,3.48,3.48-9.214,9.214,4.422,4.422,9.414-9.414,3.509,3.509L87.266,49.138Z"/><g class="cls-5"><g class="cls-6"><rect class="cls-4" x="184.751" y="135.44" width="101.66" height="112.553"/></g></g><g class="cls-7"><g class="cls-6"><rect class="cls-4" x="184.189" y="206.204" width="101.683" height="80.357"/></g></g><path class="cls-4" d="M311.977,197.506h19.042v4.922H317.706v5.849h13.029V213.2H317.706v6.252h13.312v4.962H311.977Z"/><path class="cls-4" d="M336.386,219.572V209.406h-3.227v-4.478h3.227V199.6h5.164v5.325H345.5v4.478h-3.954V218.2c0,1.21.646,2.137,1.775,2.137a2.793,2.793,0,0,0,1.774-.565l1.089,3.873a6.321,6.321,0,0,1-4.276,1.251C338.323,224.9,336.386,223.042,336.386,219.572Z"/><path class="cls-4" d="M362.206,212.553c0-2.7-1.411-3.55-3.63-3.55a5.673,5.673,0,0,0-4.437,2.3v13.11h-5.124V197.506h5.124v9.964A9.013,9.013,0,0,1,361,204.444c4.276,0,6.333,2.34,6.333,6.132v13.836h-5.124Z"/><path class="cls-4" d="M381.251,204.444c5.809,0,9.763,4.357,9.763,10.731V216.3H376.531c.323,2.462,2.3,4.519,5.607,4.519a7.968,7.968,0,0,0,5.2-1.937l2.259,3.308a12.144,12.144,0,0,1-8.028,2.7c-5.93,0-10.407-3.994-10.407-10.246A9.917,9.917,0,0,1,381.251,204.444Zm-4.8,8.391h9.6a4.514,4.514,0,0,0-4.8-4.316A4.681,4.681,0,0,0,376.451,212.835Z"/><path class="cls-4" d="M394.728,204.929h5.124v2.663a8.333,8.333,0,0,1,6.212-3.106v5a6.291,6.291,0,0,0-6.212,2.057v12.868h-5.124Z"/><path class="cls-4" d="M418.087,204.444c5.809,0,9.763,4.357,9.763,10.731V216.3H413.367c.323,2.462,2.3,4.519,5.607,4.519a7.968,7.968,0,0,0,5.2-1.937l2.259,3.308a12.144,12.144,0,0,1-8.028,2.7c-5.93,0-10.407-3.994-10.407-10.246A9.917,9.917,0,0,1,418.087,204.444Zm-4.8,8.391h9.6a4.514,4.514,0,0,0-4.8-4.316A4.681,4.681,0,0,0,413.286,212.835Z"/><path class="cls-4" d="M444.715,221.952a9.119,9.119,0,0,1-6.858,2.945c-4.276,0-6.293-2.34-6.293-6.132V204.929h5.124v11.82c0,2.7,1.411,3.59,3.59,3.59a5.735,5.735,0,0,0,4.437-2.219V204.929h5.124v19.484h-5.124Z"/><path class="cls-4" d="M479.088,212.11c0-1.816-.808-3.106-2.9-3.106a5.173,5.173,0,0,0-4.034,2.259v13.151h-5.164v-12.3c0-1.816-.806-3.106-2.9-3.106a5.228,5.228,0,0,0-4.033,2.3v13.11h-5.124V204.929h5.124v2.541a8.522,8.522,0,0,1,6.373-3.026c2.865,0,4.679,1.332,5.405,3.55a8.272,8.272,0,0,1,6.7-3.55c3.59,0,5.728,1.9,5.728,5.89v14.079h-5.164Z"/><path class="cls-4" d="M505.275,204.888l-4.478,4.559-3.268-3.429L506,197.506h5v26.907h-5.728Z"/><path class="cls-4" d="M526.174,197.1c7.664,0,11.134,6.938,11.134,13.877s-3.47,13.918-11.134,13.918c-7.705,0-11.135-6.979-11.135-13.918S518.469,197.1,526.174,197.1Zm0,5.083c-3.873,0-5.325,3.832-5.325,8.794s1.452,8.834,5.325,8.834c3.833,0,5.284-3.873,5.284-8.834S530.007,202.186,526.174,202.186Z"/><path class="cls-4" d="M546.872,204.888l-4.478,4.559-3.268-3.429,8.472-8.512h5v26.907h-5.728Z"/></svg>