<svg xmlns="http://www.w3.org/2000/svg" viewBox="0 0 245.044 60.498"><defs><style>.cls-1{fill:#fff;}</style></defs><title>007Asset 1</title><g id="Layer_2" data-name="Layer 2"><g id="Layer_1-2" data-name="Layer 1"><path class="cls-1" d="M71.5,34.946a.775.775,0,0,1-.8.746H55.833c.373,3.677,3.144,7.033,7.034,7.033a6.957,6.957,0,0,0,6.127-3.143.813.813,0,0,1,.64-.373.727.727,0,0,1,.745.746.774.774,0,0,1-.106.373,8.385,8.385,0,0,1-7.406,3.889c-5.009,0-8.579-4.475-8.579-9.271s3.57-9.271,8.579-9.271S71.5,30.15,71.5,34.946M69.9,34.2c-.32-3.677-3.144-7.033-7.033-7.033s-6.661,3.356-7.034,7.033Z"/><path class="cls-1" d="M89.562,26.047a.762.762,0,0,1,.746.746.729.729,0,0,1-.746.746h-4V43.2a.746.746,0,1,1-1.492,0V27.539H80.237a.728.728,0,0,1-.745-.746.761.761,0,0,1,.745-.746h3.837V20.292a.746.746,0,1,1,1.492,0v5.755Z"/><path class="cls-1" d="M113.913,33.614V43.1a.761.761,0,0,1-.746.745.728.728,0,0,1-.746-.745V33.614c0-3.2-1.812-6.394-5.382-6.394-4.582,0-6.553,4-6.287,8.1,0,.107.053.586.053.64V43.1a.746.746,0,0,1-1.492,0V11.928a.746.746,0,0,1,1.492,0V29.565a7.172,7.172,0,0,1,6.234-3.837c4.37,0,6.874,3.837,6.874,7.886"/><path class="cls-1" d="M140.609,34.946a.775.775,0,0,1-.8.746H124.943c.373,3.677,3.144,7.033,7.034,7.033a6.957,6.957,0,0,0,6.127-3.143.813.813,0,0,1,.64-.373.728.728,0,0,1,.746.746.774.774,0,0,1-.107.373,8.385,8.385,0,0,1-7.406,3.889c-5.009,0-8.579-4.475-8.579-9.271s3.57-9.271,8.579-9.271,8.632,4.475,8.632,9.271m-1.6-.746c-.32-3.677-3.144-7.033-7.033-7.033s-6.661,3.356-7.034,7.033Z"/><path class="cls-1" d="M158.884,26.74a.732.732,0,0,1-.693.8c-4.369.64-6.34,4.21-6.34,8.366v7.14a.746.746,0,1,1-1.492,0V26.793a.746.746,0,0,1,1.492,0v3.3c1.225-2.078,3.676-4.05,6.234-4.05a.765.765,0,0,1,.8.693"/><path class="cls-1" d="M183.343,34.946a.775.775,0,0,1-.8.746H167.677c.373,3.677,3.144,7.033,7.034,7.033a6.957,6.957,0,0,0,6.127-3.143.813.813,0,0,1,.64-.373.728.728,0,0,1,.746.746.774.774,0,0,1-.107.373,8.385,8.385,0,0,1-7.406,3.889c-5.009,0-8.579-4.475-8.579-9.271s3.57-9.271,8.579-9.271,8.632,4.475,8.632,9.271m-1.6-.746c-.32-3.677-3.144-7.033-7.033-7.033s-6.661,3.356-7.034,7.033Z"/><path class="cls-1" d="M207.373,26.9V43.205a.762.762,0,0,1-.746.746.729.729,0,0,1-.746-.746V40.114a6.98,6.98,0,0,1-6.181,4.21c-4.422,0-6.873-3.837-6.873-7.886V26.9a.746.746,0,1,1,1.491,0v9.538c0,3.2,1.812,6.394,5.382,6.394,5.009,0,6.181-4.689,6.181-9.858V26.9a.762.762,0,0,1,.746-.746.8.8,0,0,1,.746.746"/><path class="cls-1" d="M245.044,33.56V43.1a.762.762,0,0,1-.746.746.729.729,0,0,1-.746-.746V33.56c0-3.2-1.812-6.341-5.382-6.341-4.475,0-6.181,4.8-6.181,8.526V43.1a.761.761,0,0,1-.745.746.728.728,0,0,1-.746-.746V33.56c0-3.2-1.812-6.341-5.382-6.341-4.529,0-6.394,3.57-6.234,8.313,0,.106.053.319,0,.373V43.1a.746.746,0,0,1-1.492,0v-16.3a.746.746,0,0,1,1.492,0V29.51a7.123,7.123,0,0,1,6.234-3.783,6.618,6.618,0,0,1,6.341,4.743,7.37,7.37,0,0,1,6.713-4.743c4.37,0,6.874,3.783,6.874,7.833"/><polygon class="cls-1" points="18.569 0 0 30.81 18.569 41.787 37.138 30.81 18.569 0"/><polygon class="cls-1" points="19.054 45.302 0.485 34.331 19.054 60.498 37.634 34.331 19.054 45.302"/></g></g></svg>