<svg xmlns="http://www.w3.org/2000/svg" viewBox="0 0 750 422"><defs><style>.cls-1{fill:#389c66;}.cls-2{fill:#fff;}</style></defs><title>hlf-101-hero</title><g id="Layer_2" data-name="Layer 2"><rect class="cls-1" width="750" height="422"/></g><g id="Layer_4" data-name="Layer 4"><path class="cls-2" d="M365.907,183.634H353.574V194.6h-5.56V168.481h5.56V178.74h12.333V168.481h5.6V194.6h-5.6Z"/><path class="cls-2" d="M378.167,197.847a2.508,2.508,0,0,0,2.623-1.37l.7-1.606-7.674-19.185h5.325l4.933,13.155,4.934-13.155h5.364l-8.889,22c-1.409,3.563-3.915,4.5-7.165,4.581a13.569,13.569,0,0,1-2.467-.274l.745-4.463A4.308,4.308,0,0,0,378.167,197.847Z"/><path class="cls-2" d="M396.61,201.8V175.686h4.973v2.388a7.3,7.3,0,0,1,5.834-2.858c4.854,0,8.379,3.6,8.379,9.906s-3.525,9.945-8.379,9.945a7.224,7.224,0,0,1-5.834-2.9V201.8Zm9.241-22.162a5.568,5.568,0,0,0-4.268,2.154v6.695a5.693,5.693,0,0,0,4.268,2.154c2.858,0,4.776-2.232,4.776-5.521C410.627,181.872,408.709,179.64,405.851,179.64Z"/><path class="cls-2" d="M428.093,175.216c5.638,0,9.475,4.228,9.475,10.415v1.1H423.512c.313,2.389,2.232,4.385,5.443,4.385a7.732,7.732,0,0,0,5.051-1.879l2.192,3.211a11.788,11.788,0,0,1-7.792,2.623c-5.756,0-10.1-3.876-10.1-9.945A9.624,9.624,0,0,1,428.093,175.216Zm-4.659,8.144h9.319a4.382,4.382,0,0,0-4.66-4.19A4.545,4.545,0,0,0,423.434,183.36Z"/><path class="cls-2" d="M441.174,175.686h4.972v2.584a8.091,8.091,0,0,1,6.03-3.015v4.855a6.114,6.114,0,0,0-6.03,2V194.6h-4.972Z"/><path class="cls-2" d="M455.271,168.481h4.973V194.6h-4.973Z"/><path class="cls-2" d="M473.753,175.216c5.639,0,9.476,4.228,9.476,10.415v1.1H469.172c.313,2.389,2.232,4.385,5.443,4.385a7.732,7.732,0,0,0,5.051-1.879l2.192,3.211a11.786,11.786,0,0,1-7.792,2.623c-5.755,0-10.1-3.876-10.1-9.945A9.624,9.624,0,0,1,473.753,175.216Zm-4.659,8.144h9.319a4.382,4.382,0,0,0-4.66-4.19A4.545,4.545,0,0,0,469.094,183.36Z"/><path class="cls-2" d="M499.833,192.169a7.34,7.34,0,0,1-5.834,2.9c-4.776,0-8.379-3.6-8.379-9.906,0-6.186,3.564-9.945,8.379-9.945a7.286,7.286,0,0,1,5.834,2.9v-9.632h5.012V194.6h-5.012Zm0-10.375a5.409,5.409,0,0,0-4.307-2.154c-2.819,0-4.777,2.232-4.777,5.521,0,3.25,1.958,5.482,4.777,5.482a5.409,5.409,0,0,0,4.307-2.154Z"/><path class="cls-2" d="M511.621,195.85a7.516,7.516,0,0,0,5.912,2.349c2.389,0,5.208-1.057,5.208-4.777V191.5a7.365,7.365,0,0,1-5.834,2.975c-4.737,0-8.34-3.328-8.34-9.631,0-6.186,3.564-9.632,8.34-9.632a7.284,7.284,0,0,1,5.834,2.9v-2.427h5.012v17.619c0,7.2-5.56,8.966-10.22,8.966a11.457,11.457,0,0,1-8.143-2.819Zm11.12-14.056a5.391,5.391,0,0,0-4.267-2.154c-2.82,0-4.778,1.958-4.778,5.208s1.958,5.207,4.778,5.207a5.5,5.5,0,0,0,4.267-2.153Z"/><path class="cls-2" d="M541.264,175.216c5.638,0,9.475,4.228,9.475,10.415v1.1H536.683c.313,2.389,2.232,4.385,5.442,4.385a7.733,7.733,0,0,0,5.052-1.879l2.192,3.211a11.788,11.788,0,0,1-7.792,2.623c-5.756,0-10.1-3.876-10.1-9.945A9.624,9.624,0,0,1,541.264,175.216Zm-4.66,8.144h9.32a4.382,4.382,0,0,0-4.66-4.19A4.546,4.546,0,0,0,536.6,183.36Z"/><path class="cls-2" d="M554.345,175.686h4.972v2.584a8.09,8.09,0,0,1,6.03-3.015v4.855a6.114,6.114,0,0,0-6.03,2V194.6h-4.972Z"/><path class="cls-2" d="M348.014,215.473H366.5v4.777H353.574v5.678h12.647V230.7H353.574v10.885h-5.56Z"/><path class="cls-2" d="M381.611,239.631a7.824,7.824,0,0,1-5.99,2.428c-3.015,0-6.578-2.037-6.578-6.265,0-4.424,3.563-6.029,6.578-6.029a7.645,7.645,0,0,1,5.99,2.309v-2.623c0-1.919-1.644-3.172-4.15-3.172a7.955,7.955,0,0,0-5.521,2.233l-1.879-3.328a12.4,12.4,0,0,1,8.261-2.976c4.308,0,8.262,1.723,8.262,7.165v12.216h-4.973Zm0-4.934a4.975,4.975,0,0,0-3.993-1.643c-1.958,0-3.563,1.017-3.563,2.857,0,1.763,1.605,2.78,3.563,2.78a4.97,4.97,0,0,0,3.993-1.644Z"/><path class="cls-2" d="M391.521,215.473h4.972v9.632a7.283,7.283,0,0,1,5.834-2.9c4.816,0,8.379,3.759,8.379,9.944,0,6.305-3.6,9.907-8.379,9.907a7.339,7.339,0,0,1-5.834-2.9v2.428h-4.972Zm9.24,22.162c2.9,0,4.816-2.194,4.816-5.483s-1.919-5.52-4.816-5.52a5.485,5.485,0,0,0-4.268,2.192v6.7A5.536,5.536,0,0,0,400.761,237.635Z"/><path class="cls-2" d="M414.469,222.678h4.972v2.584a8.09,8.09,0,0,1,6.03-3.015V227.1a6.259,6.259,0,0,0-1.37-.157,6.336,6.336,0,0,0-4.66,2.154v12.49h-4.972Z"/><path class="cls-2" d="M428.057,217.274a2.976,2.976,0,1,1,2.975,2.976A3,3,0,0,1,428.057,217.274Zm.508,5.4h4.973v18.911h-4.973Z"/><path class="cls-2" d="M447.282,222.208c3.876,0,6.226,1.684,7.479,3.406l-3.25,3.054a4.587,4.587,0,0,0-3.993-2.036c-3.016,0-5.13,2.192-5.13,5.481s2.114,5.522,5.13,5.522a4.773,4.773,0,0,0,3.993-2.036l3.25,3.014c-1.253,1.762-3.6,3.446-7.479,3.446a9.926,9.926,0,1,1,0-19.851Z"/><path class="cls-2" d="M473.52,222.639l-4.346,4.423L466,223.734l8.223-8.261h4.854v26.116H473.52Z"/><path class="cls-2" d="M493.8,215.082c7.439,0,10.806,6.734,10.806,13.469s-3.367,13.508-10.806,13.508c-7.479,0-10.807-6.774-10.807-13.508S486.325,215.082,493.8,215.082Zm0,4.933c-3.759,0-5.168,3.719-5.168,8.536s1.409,8.574,5.168,8.574c3.719,0,5.129-3.759,5.129-8.574S497.523,220.015,493.8,220.015Z"/><path class="cls-2" d="M513.894,222.639l-4.346,4.423-3.172-3.328,8.223-8.261h4.854v26.116h-5.559Z"/><path class="cls-2" d="M267.655,259.215a2.271,2.271,0,0,1-3.019,1.068l-25.154-12a2.272,2.272,0,0,1-1.069-3.019l2.672-5.6a2.272,2.272,0,0,1,3.019-1.069l25.154,12a2.272,2.272,0,0,1,1.069,3.019Zm-49.829-23.777a2.272,2.272,0,0,1-3.019,1.069l-15.377-7.338a2.272,2.272,0,0,1-1.069-3.019l2.672-5.6a2.272,2.272,0,0,1,3.019-1.069l15.378,7.338a2.272,2.272,0,0,1,1.068,3.019Z"/><path class="cls-2" d="M318.483,191.707a2.272,2.272,0,0,1-3.019,1.069l-15.4-7.35a2.272,2.272,0,0,1-1.069-3.019l2.672-5.6a2.272,2.272,0,0,1,3.019-1.069l15.4,7.35a2.272,2.272,0,0,1,1.069,3.019Zm-40.077-19.123a2.272,2.272,0,0,1-3.019,1.068l-25.016-11.937A2.272,2.272,0,0,1,249.3,158.7l2.672-5.6a2.272,2.272,0,0,1,3.019-1.069l25.016,11.938a2.271,2.271,0,0,1,1.069,3.018Z"/><rect class="cls-2" x="227.84" y="167.383" width="10.733" height="21.568" rx="2.264" ry="2.264" transform="translate(-28.023 311.911) rotate(-64.491)"/><rect class="cls-2" x="272.78" y="183.411" width="10.733" height="32.4" rx="2.264" ry="2.264" transform="translate(-21.79 364.68) rotate(-64.491)"/><rect class="cls-2" x="280.946" y="223.28" width="10.733" height="21.628" rx="2.264" ry="2.264" transform="translate(-48.263 391.682) rotate(-64.491)"/><rect class="cls-2" x="236.008" y="196.484" width="10.733" height="32.333" rx="2.264" ry="2.264" transform="translate(-54.495 338.916) rotate(-64.491)"/><rect class="cls-2" x="200.231" y="195.381" width="32.397" height="10.735" rx="2.264" ry="2.264" transform="translate(-57.955 309.627) rotate(-64.491)"/><rect class="cls-2" x="227.14" y="150.519" width="21.391" height="10.735" rx="2.264" ry="2.264" transform="translate(-5.279 303.405) rotate(-64.491)"/><rect class="cls-2" x="270.959" y="250.993" width="21.391" height="10.735" rx="2.264" ry="2.264" transform="translate(-71.011 400.156) rotate(-64.491)"/><rect class="cls-2" x="286.862" y="206.131" width="32.398" height="10.735" rx="2.264" ry="2.264" transform="translate(-18.334 393.934) rotate(-64.491)"/><rect class="cls-2" x="276.97" y="174.296" width="21.391" height="10.735" rx="2.264" ry="2.264" transform="translate(1.632 361.913) rotate(-64.491)"/><rect class="cls-2" x="250.06" y="219.157" width="32.397" height="10.735" rx="2.264" ry="2.264" transform="translate(-51.044 368.135) rotate(-64.491)"/><rect class="cls-2" x="221.13" y="227.216" width="21.391" height="10.735" rx="2.264" ry="2.264" transform="translate(-77.922 341.648) rotate(-64.491)"/><rect class="cls-2" x="237.033" y="182.354" width="32.398" height="10.735" rx="2.264" ry="2.264" transform="translate(-25.245 335.425) rotate(-64.491)"/></g></svg>