<svg id="Layer_1" data-name="Layer 1" xmlns="http://www.w3.org/2000/svg" viewBox="0 0 1034.922 186.697"><defs><style>.cls-1{fill:#de7150;}.cls-2,.cls-3,.cls-4,.cls-6{fill:none;stroke-miterlimit:10;}.cls-2,.cls-3,.cls-4{stroke:#de7150;stroke-linecap:round;stroke-width:3px;}.cls-3{stroke-dasharray:11.8 11.8;}.cls-4{stroke-dasharray:11.519 11.519;}.cls-5{fill:#575756;}.cls-6{stroke:#575756;stroke-width:2px;}.cls-7{fill:#fff;}</style></defs><title>hlf-timeline</title><rect class="cls-1" x="44.199" y="62.943" width="381.381" height="73.612"/><polyline class="cls-2" points="994.219 128.03 994.219 134.03 988.219 134.03"/><line class="cls-3" x1="976.419" y1="134.03" x2="439.536" y2="134.03"/><polyline class="cls-2" points="433.637 134.03 427.637 134.03 427.637 128.03"/><line class="cls-4" x1="427.637" y1="116.512" x2="427.637" y2="76.197"/><polyline class="cls-2" points="427.637 70.437 427.637 64.437 433.637 64.437"/><line class="cls-3" x1="445.436" y1="64.437" x2="982.319" y2="64.437"/><polyline class="cls-2" points="988.219 64.437 994.219 64.437 994.219 70.437"/><line class="cls-4" x1="994.219" y1="81.956" x2="994.219" y2="122.271"/><path class="cls-5" d="M104.96,166.5a5.848,5.848,0,0,0,4.241,1.8c1.561,0,2.321-.74,2.321-1.5,0-1-1.16-1.34-2.7-1.7-2.181-.5-4.981-1.1-4.981-4.081,0-2.221,1.92-4.021,5.061-4.021a7.423,7.423,0,0,1,5.2,1.86l-1.581,2.081a5.693,5.693,0,0,0-3.821-1.46c-1.28,0-1.96.56-1.96,1.36,0,.9,1.12,1.18,2.661,1.541,2.2.5,5,1.16,5,4.121,0,2.441-1.74,4.281-5.341,4.281a7.607,7.607,0,0,1-5.642-2.121Z" transform="translate(-103.42 -156.601)"/><path class="cls-5" d="M116.541,168.143V163.1h-1.6v-2.221h1.6v-2.641H119.1v2.641h1.96V163.1H119.1v4.361c0,.6.32,1.06.88,1.06a1.392,1.392,0,0,0,.88-.28l.54,1.92a3.139,3.139,0,0,1-2.121.62A2.415,2.415,0,0,1,116.541,168.143Z" transform="translate(-103.42 -156.601)"/><path class="cls-5" d="M128.6,169.543a4,4,0,0,1-3.061,1.24,3.219,3.219,0,0,1-3.361-3.2,3.06,3.06,0,0,1,3.361-3.081,3.9,3.9,0,0,1,3.061,1.181v-1.34c0-.98-.84-1.621-2.121-1.621a4.066,4.066,0,0,0-2.82,1.14l-.96-1.7a6.339,6.339,0,0,1,4.221-1.521c2.2,0,4.221.88,4.221,3.661v6.241H128.6Zm0-2.521a2.541,2.541,0,0,0-2.041-.84c-1,0-1.82.52-1.82,1.46,0,.9.82,1.42,1.82,1.42a2.541,2.541,0,0,0,2.041-.84Z" transform="translate(-103.42 -156.601)"/><path class="cls-5" d="M133.66,160.881H136.2v1.32a4.133,4.133,0,0,1,3.081-1.541v2.481a3.121,3.121,0,0,0-3.081,1.02v6.381H133.66Z" transform="translate(-103.42 -156.601)"/><path class="cls-5" d="M141.36,168.143V163.1h-1.6v-2.221h1.6v-2.641h2.561v2.641h1.96V163.1h-1.96v4.361c0,.6.32,1.06.88,1.06a1.392,1.392,0,0,0,.88-.28l.54,1.92a3.139,3.139,0,0,1-2.121.62A2.415,2.415,0,0,1,141.36,168.143Z" transform="translate(-103.42 -156.601)"/><path class="cls-5" d="M159.381,169.3a3.752,3.752,0,0,1-2.981,1.48c-2.44,0-4.281-1.84-4.281-5.061,0-3.161,1.82-5.082,4.281-5.082a3.722,3.722,0,0,1,2.981,1.48V157.2h2.561v13.343h-2.561Zm0-5.3a2.765,2.765,0,0,0-2.2-1.1,2.839,2.839,0,0,0,0,5.621,2.765,2.765,0,0,0,2.2-1.1Z" transform="translate(-103.42 -156.601)"/><path class="cls-5" d="M170.261,169.543a4,4,0,0,1-3.061,1.24,3.219,3.219,0,0,1-3.361-3.2A3.06,3.06,0,0,1,167.2,164.5a3.9,3.9,0,0,1,3.061,1.181v-1.34c0-.98-.84-1.621-2.121-1.621a4.066,4.066,0,0,0-2.82,1.14l-.96-1.7a6.339,6.339,0,0,1,4.221-1.521c2.2,0,4.221.88,4.221,3.661v6.241h-2.541Zm0-2.521a2.541,2.541,0,0,0-2.041-.84c-1,0-1.82.52-1.82,1.46,0,.9.82,1.42,1.82,1.42a2.541,2.541,0,0,0,2.041-.84Z" transform="translate(-103.42 -156.601)"/><path class="cls-5" d="M175.82,168.143V163.1h-1.6v-2.221h1.6v-2.641h2.561v2.641h1.96V163.1h-1.96v4.361c0,.6.32,1.06.88,1.06a1.392,1.392,0,0,0,.88-.28l.54,1.92a3.139,3.139,0,0,1-2.121.62A2.415,2.415,0,0,1,175.82,168.143Z" transform="translate(-103.42 -156.601)"/><path class="cls-5" d="M186.46,160.641c2.881,0,4.841,2.161,4.841,5.321v.56H184.12a2.6,2.6,0,0,0,2.781,2.241,3.951,3.951,0,0,0,2.58-.96l1.121,1.641a6.025,6.025,0,0,1-3.981,1.34,5.072,5.072,0,1,1-.16-10.143Zm-2.38,4.161h4.761a2.237,2.237,0,0,0-2.38-2.141A2.322,2.322,0,0,0,184.08,164.8Z" transform="translate(-103.42 -156.601)"/><path class="cls-5" d="M467.69,163.882a6.754,6.754,0,0,1,7-6.9,6.157,6.157,0,0,1,5.681,3.261l-2.44,1.2a3.654,3.654,0,0,0-3.241-1.94,4.392,4.392,0,0,0,0,8.762,3.617,3.617,0,0,0,3.241-1.94l2.44,1.18a6.193,6.193,0,0,1-5.681,3.281A6.754,6.754,0,0,1,467.69,163.882Z" transform="translate(-103.42 -156.601)"/><path class="cls-5" d="M481.39,165.7a5.111,5.111,0,1,1,5.1,5.081A4.894,4.894,0,0,1,481.39,165.7Zm7.582,0a2.492,2.492,0,1,0-2.48,2.82A2.55,2.55,0,0,0,488.971,165.7Z" transform="translate(-103.42 -156.601)"/><path class="cls-5" d="M500.011,169.323a4.522,4.522,0,0,1-3.4,1.46,2.767,2.767,0,0,1-3.121-3.041v-6.861h2.541v5.861a1.553,1.553,0,0,0,1.78,1.78,2.844,2.844,0,0,0,2.2-1.1v-6.542h2.541v9.662h-2.541Z" transform="translate(-103.42 -156.601)"/><path class="cls-5" d="M505.07,160.881h2.541v1.32a4.133,4.133,0,0,1,3.081-1.541v2.481a3.121,3.121,0,0,0-3.081,1.02v6.381H505.07Z" transform="translate(-103.42 -156.601)"/><path class="cls-5" d="M512.53,167.5a5.529,5.529,0,0,0,3.34,1.32c1.1,0,1.621-.38,1.621-.98,0-.68-.84-.92-1.94-1.14-1.66-.32-3.8-.72-3.8-3.021,0-1.621,1.42-3.041,3.961-3.041a6.175,6.175,0,0,1,3.9,1.32l-1.021,1.741a4.076,4.076,0,0,0-2.86-1.121c-.92,0-1.521.34-1.521.9,0,.6.76.82,1.84,1.04,1.661.32,3.881.76,3.881,3.161,0,1.761-1.5,3.1-4.181,3.1a6.5,6.5,0,0,1-4.321-1.5Z" transform="translate(-103.42 -156.601)"/><path class="cls-5" d="M526.19,160.641c2.881,0,4.841,2.161,4.841,5.321v.56H523.85a2.6,2.6,0,0,0,2.781,2.241,3.951,3.951,0,0,0,2.58-.96l1.121,1.641a6.025,6.025,0,0,1-3.981,1.34,5.072,5.072,0,1,1-.16-10.143Zm-2.38,4.161h4.761a2.237,2.237,0,0,0-2.38-2.141A2.322,2.322,0,0,0,523.81,164.8Z" transform="translate(-103.42 -156.601)"/><path class="cls-5" d="M538.549,163.1h-1.6v-2.221h1.6v-.52A3.114,3.114,0,0,1,541.81,157a4.1,4.1,0,0,1,1.84.4l-.52,1.84a1.424,1.424,0,0,0-.82-.24c-.72,0-1.2.48-1.2,1.36v.52h1.96V163.1h-1.96v7.441h-2.561Zm5.721-4.981a1.52,1.52,0,1,1,1.521,1.521A1.533,1.533,0,0,1,544.27,158.121Zm.26,2.761h2.541v9.662H544.53Z" transform="translate(-103.42 -156.601)"/><path class="cls-5" d="M556.11,164.7a1.568,1.568,0,0,0-1.78-1.8,2.751,2.751,0,0,0-2.2,1.14v6.5h-2.541v-9.662h2.541v1.26a4.424,4.424,0,0,1,3.381-1.5,2.811,2.811,0,0,1,3.141,3.081v6.821H556.11Z" transform="translate(-103.42 -156.601)"/><path class="cls-5" d="M560.908,158.121a1.521,1.521,0,1,1,1.521,1.521A1.533,1.533,0,0,1,560.908,158.121Zm.26,2.761h2.541v9.662h-2.541Z" transform="translate(-103.42 -156.601)"/><path class="cls-5" d="M566.489,167.5a5.529,5.529,0,0,0,3.34,1.32c1.1,0,1.621-.38,1.621-.98,0-.68-.84-.92-1.94-1.14-1.66-.32-3.8-.72-3.8-3.021,0-1.621,1.42-3.041,3.961-3.041a6.175,6.175,0,0,1,3.9,1.32L572.55,163.7a4.076,4.076,0,0,0-2.86-1.121c-.92,0-1.521.34-1.521.9,0,.6.76.82,1.84,1.04,1.661.32,3.881.76,3.881,3.161,0,1.761-1.5,3.1-4.181,3.1a6.5,6.5,0,0,1-4.321-1.5Z" transform="translate(-103.42 -156.601)"/><path class="cls-5" d="M582.31,164.662c0-1.34-.7-1.76-1.8-1.76a2.814,2.814,0,0,0-2.2,1.14v6.5h-2.541V157.2h2.541v4.941a4.471,4.471,0,0,1,3.4-1.5c2.12,0,3.141,1.161,3.141,3.041v6.861H582.31Z" transform="translate(-103.42 -156.601)"/><path class="cls-5" d="M206.242,332.5c-1.48-.52-2.64-1.48-2.64-3.141,0-2.5,2.66-3.521,5.141-3.521,2.46,0,5.141,1.021,5.141,3.521,0,1.66-1.181,2.621-2.661,3.141a3.85,3.85,0,0,1,2.88,3.421c0,2.48-2.561,3.7-5.361,3.7s-5.361-1.2-5.361-3.7A3.829,3.829,0,0,1,206.242,332.5Zm2.5,1.261c-.84.1-2.481.66-2.481,1.82,0,.979,1.081,1.6,2.481,1.6,1.36,0,2.48-.62,2.48-1.6C211.223,334.416,209.563,333.855,208.743,333.756Zm0-5.481c-1.32,0-2.261.58-2.261,1.521,0,1.04,1.44,1.5,2.261,1.62.82-.12,2.24-.58,2.24-1.62C210.983,328.854,210.043,328.274,208.743,328.274Z" transform="translate(-103.42 -156.601)"/><path class="cls-5" d="M227.623,332.795l-2.041,6.582h-2.721l-2.94-9.662h2.641l1.8,6.5,2.121-6.5h2.26l2.121,6.5,1.8-6.5H235.3l-2.94,9.662h-2.7Z" transform="translate(-103.42 -156.601)"/><path class="cls-5" d="M240.942,329.475c2.881,0,4.841,2.16,4.841,5.321v.56H238.6a2.6,2.6,0,0,0,2.78,2.241,3.949,3.949,0,0,0,2.581-.961l1.121,1.641a6.025,6.025,0,0,1-3.981,1.341,5.072,5.072,0,1,1-.16-10.143Zm-2.38,4.161h4.761a2.237,2.237,0,0,0-2.38-2.141A2.322,2.322,0,0,0,238.562,333.636Z" transform="translate(-103.42 -156.601)"/><path class="cls-5" d="M252,329.475c2.881,0,4.841,2.16,4.841,5.321v.56h-7.182a2.6,2.6,0,0,0,2.781,2.241,3.949,3.949,0,0,0,2.58-.961l1.121,1.641a6.025,6.025,0,0,1-3.981,1.341,5.072,5.072,0,1,1-.16-10.143Zm-2.38,4.161h4.761A2.237,2.237,0,0,0,252,331.5,2.322,2.322,0,0,0,249.622,333.636Z" transform="translate(-103.42 -156.601)"/><path class="cls-5" d="M262.381,335.656l-1.16,1.24v2.48h-2.541V326.034h2.541v7.981l3.661-4.3H268l-3.821,4.381,3.941,5.281h-3.181Z" transform="translate(-103.42 -156.601)"/><path class="cls-5" d="M269.5,336.336a5.529,5.529,0,0,0,3.34,1.32c1.1,0,1.621-.38,1.621-.98,0-.68-.84-.92-1.94-1.14-1.66-.32-3.8-.721-3.8-3.021,0-1.621,1.42-3.041,3.961-3.041a6.175,6.175,0,0,1,3.9,1.32l-1.021,1.74a4.075,4.075,0,0,0-2.86-1.12c-.92,0-1.521.34-1.521.9,0,.6.76.82,1.84,1.04,1.661.32,3.881.76,3.881,3.16,0,1.761-1.5,3.1-4.181,3.1a6.5,6.5,0,0,1-4.321-1.5Z" transform="translate(-103.42 -156.601)"/><path class="cls-5" d="M284.161,336.336a5.529,5.529,0,0,0,3.34,1.32c1.1,0,1.621-.38,1.621-.98,0-.68-.84-.92-1.94-1.14-1.661-.32-3.8-.721-3.8-3.021,0-1.621,1.42-3.041,3.961-3.041a6.175,6.175,0,0,1,3.9,1.32l-1.021,1.74a4.075,4.075,0,0,0-2.86-1.12c-.92,0-1.521.34-1.521.9,0,.6.76.82,1.84,1.04,1.661.32,3.881.76,3.881,3.16,0,1.761-1.5,3.1-4.181,3.1a6.5,6.5,0,0,1-4.321-1.5Z" transform="translate(-103.42 -156.601)"/><path class="cls-5" d="M299.962,338.156a4.522,4.522,0,0,1-3.4,1.461,2.767,2.767,0,0,1-3.121-3.041v-6.861h2.541v5.861a1.553,1.553,0,0,0,1.78,1.78,2.843,2.843,0,0,0,2.2-1.1v-6.541H302.5v9.662h-2.541Z" transform="translate(-103.42 -156.601)"/><path class="cls-5" d="M305.02,343.058V329.715h2.541v1.22a3.734,3.734,0,0,1,2.98-1.46c2.481,0,4.281,1.841,4.281,5.062s-1.8,5.081-4.281,5.081a3.692,3.692,0,0,1-2.98-1.48v4.921Zm4.721-11.322a2.845,2.845,0,0,0-2.181,1.1v3.421a2.908,2.908,0,0,0,2.181,1.1c1.46,0,2.44-1.141,2.44-2.82A2.5,2.5,0,0,0,309.741,331.735Z" transform="translate(-103.42 -156.601)"/><path class="cls-5" d="M316.72,343.058V329.715h2.541v1.22a3.734,3.734,0,0,1,2.98-1.46c2.481,0,4.281,1.841,4.281,5.062s-1.8,5.081-4.281,5.081a3.692,3.692,0,0,1-2.98-1.48v4.921Zm4.721-11.322a2.845,2.845,0,0,0-2.181,1.1v3.421a2.908,2.908,0,0,0,2.181,1.1c1.46,0,2.44-1.141,2.44-2.82A2.5,2.5,0,0,0,321.441,331.735Z" transform="translate(-103.42 -156.601)"/><path class="cls-5" d="M327.8,334.536a5.111,5.111,0,1,1,5.1,5.081A4.894,4.894,0,0,1,327.8,334.536Zm7.582,0a2.492,2.492,0,1,0-2.48,2.82A2.55,2.55,0,0,0,335.381,334.536Z" transform="translate(-103.42 -156.601)"/><path class="cls-5" d="M339.9,329.715h2.541v1.32a4.133,4.133,0,0,1,3.081-1.541v2.481A3.121,3.121,0,0,0,342.44,333v6.382H339.9Z" transform="translate(-103.42 -156.601)"/><path class="cls-5" d="M347.6,336.977v-5.041H346v-2.221h1.6v-2.641h2.561v2.641h1.96v2.221h-1.96v4.36c0,.6.32,1.061.88,1.061a1.389,1.389,0,0,0,.88-.28L352.46,339a3.139,3.139,0,0,1-2.121.62A2.415,2.415,0,0,1,347.6,336.977Z" transform="translate(-103.42 -156.601)"/><path class="cls-5" d="M358.24,329.475c2.881,0,4.841,2.16,4.841,5.321v.56H355.9a2.6,2.6,0,0,0,2.781,2.241,3.949,3.949,0,0,0,2.58-.961l1.121,1.641a6.025,6.025,0,0,1-3.981,1.341,5.072,5.072,0,1,1-.16-10.143Zm-2.38,4.161h4.761a2.237,2.237,0,0,0-2.38-2.141A2.322,2.322,0,0,0,355.86,333.636Z" transform="translate(-103.42 -156.601)"/><path class="cls-5" d="M371.561,338.137a3.752,3.752,0,0,1-2.981,1.48c-2.44,0-4.281-1.841-4.281-5.062,0-3.161,1.82-5.081,4.281-5.081a3.721,3.721,0,0,1,2.981,1.48v-4.921h2.561v13.343h-2.561Zm0-5.3a2.766,2.766,0,0,0-2.2-1.1,2.839,2.839,0,0,0,0,5.621,2.764,2.764,0,0,0,2.2-1.1Z" transform="translate(-103.42 -156.601)"/><path class="cls-5" d="M393.262,339.377h-3.241c-.28-.261-.62-.62-1-1a5.883,5.883,0,0,1-3.641,1.24c-2.44,0-4.4-1.28-4.4-3.861,0-2.04,1.34-3.081,2.881-3.86a6.178,6.178,0,0,1-.9-2.861c0-1.8,1.6-3.2,3.821-3.2,1.88,0,3.5,1.04,3.5,2.82,0,2.041-1.621,2.9-3.261,3.661.38.54.8,1.04,1.14,1.44.38.479.74.92,1.12,1.36a9.341,9.341,0,0,0,1.22-2.581l2.041.94a15.8,15.8,0,0,1-1.86,3.2C391.481,337.557,392.322,338.437,393.262,339.377Zm-5.6-2.461c-.6-.66-1.16-1.28-1.48-1.681-.44-.54-.9-1.14-1.34-1.76a2.4,2.4,0,0,0-1.16,2.04,2.018,2.018,0,0,0,2.061,2.1A3.327,3.327,0,0,0,387.661,336.916Zm-1.581-6.041c1.141-.521,2-1.1,2-2.08a1.1,1.1,0,0,0-1.18-1.121,1.384,1.384,0,0,0-1.4,1.421A3.953,3.953,0,0,0,386.08,330.875Z" transform="translate(-103.42 -156.601)"/><path class="cls-5" d="M406.32,338.156a4.522,4.522,0,0,1-3.4,1.461,2.767,2.767,0,0,1-3.121-3.041v-6.861h2.541v5.861a1.553,1.553,0,0,0,1.78,1.78,2.843,2.843,0,0,0,2.2-1.1v-6.541h2.541v9.662H406.32Z" transform="translate(-103.42 -156.601)"/><path class="cls-5" d="M411.379,343.058V329.715h2.541v1.22a3.734,3.734,0,0,1,2.98-1.46c2.481,0,4.281,1.841,4.281,5.062s-1.8,5.081-4.281,5.081a3.692,3.692,0,0,1-2.98-1.48v4.921Zm4.721-11.322a2.845,2.845,0,0,0-2.181,1.1v3.421a2.908,2.908,0,0,0,2.181,1.1c1.46,0,2.44-1.141,2.44-2.82A2.5,2.5,0,0,0,416.1,331.735Z" transform="translate(-103.42 -156.601)"/><path class="cls-5" d="M429.72,338.137a3.752,3.752,0,0,1-2.981,1.48c-2.44,0-4.281-1.841-4.281-5.062,0-3.161,1.82-5.081,4.281-5.081a3.721,3.721,0,0,1,2.981,1.48v-4.921h2.561v13.343H429.72Zm0-5.3a2.766,2.766,0,0,0-2.2-1.1,2.839,2.839,0,0,0,0,5.621,2.764,2.764,0,0,0,2.2-1.1Z" transform="translate(-103.42 -156.601)"/><path class="cls-5" d="M440.6,338.377a4,4,0,0,1-3.061,1.24,3.219,3.219,0,0,1-3.361-3.2,3.06,3.06,0,0,1,3.361-3.081,3.9,3.9,0,0,1,3.061,1.181v-1.34c0-.98-.84-1.621-2.121-1.621a4.067,4.067,0,0,0-2.82,1.141l-.96-1.7a6.339,6.339,0,0,1,4.221-1.521c2.2,0,4.221.88,4.221,3.661v6.241H440.6Zm0-2.521a2.542,2.542,0,0,0-2.041-.84c-1,0-1.82.521-1.82,1.461,0,.9.82,1.42,1.82,1.42a2.542,2.542,0,0,0,2.041-.84Z" transform="translate(-103.42 -156.601)"/><path class="cls-5" d="M446.159,336.977v-5.041h-1.6v-2.221h1.6v-2.641h2.561v2.641h1.96v2.221h-1.96v4.36c0,.6.32,1.061.88,1.061a1.389,1.389,0,0,0,.88-.28L451.02,339a3.139,3.139,0,0,1-2.121.62A2.415,2.415,0,0,1,446.159,336.977Z" transform="translate(-103.42 -156.601)"/><path class="cls-5" d="M456.8,329.475c2.881,0,4.841,2.16,4.841,5.321v.56h-7.182a2.6,2.6,0,0,0,2.78,2.241,3.949,3.949,0,0,0,2.581-.961l1.121,1.641a6.025,6.025,0,0,1-3.981,1.341,5.072,5.072,0,1,1-.16-10.143Zm-2.38,4.161h4.761a2.237,2.237,0,0,0-2.38-2.141A2.322,2.322,0,0,0,454.419,333.636Z" transform="translate(-103.42 -156.601)"/><path class="cls-5" d="M470.12,338.137a3.752,3.752,0,0,1-2.981,1.48c-2.44,0-4.281-1.841-4.281-5.062,0-3.161,1.82-5.081,4.281-5.081a3.721,3.721,0,0,1,2.981,1.48v-4.921h2.561v13.343H470.12Zm0-5.3a2.766,2.766,0,0,0-2.2-1.1,2.839,2.839,0,0,0,0,5.621,2.764,2.764,0,0,0,2.2-1.1Z" transform="translate(-103.42 -156.601)"/><path class="cls-5" d="M681.739,329.694l-2.221,2.261-1.62-1.7,4.2-4.221h2.48v13.343h-2.84Z" transform="translate(-103.42 -156.601)"/><path class="cls-5" d="M686.838,337.136c5.461-4.021,7.062-5.4,7.062-7.041,0-1.16-1.061-1.74-2.181-1.74a4.757,4.757,0,0,0-3.561,1.54l-1.62-1.88a6.793,6.793,0,0,1,5.141-2.181c2.841,0,5.1,1.6,5.1,4.261,0,2.28-1.881,4.261-5.461,6.781h5.561v2.5H686.838Z" transform="translate(-103.42 -156.601)"/><path class="cls-5" d="M710.72,332.795l-2.041,6.582h-2.721l-2.94-9.662h2.641l1.8,6.5,2.12-6.5h2.261l2.12,6.5,1.8-6.5H718.4l-2.94,9.662h-2.7Z" transform="translate(-103.42 -156.601)"/><path class="cls-5" d="M724.039,329.475c2.881,0,4.841,2.16,4.841,5.321v.56H721.7a2.6,2.6,0,0,0,2.781,2.241,3.95,3.95,0,0,0,2.58-.961l1.12,1.641a6.024,6.024,0,0,1-3.98,1.341,5.072,5.072,0,1,1-.16-10.143Zm-2.381,4.161h4.761a2.237,2.237,0,0,0-2.38-2.141A2.322,2.322,0,0,0,721.658,333.636Z" transform="translate(-103.42 -156.601)"/><path class="cls-5" d="M735.1,329.475c2.881,0,4.841,2.16,4.841,5.321v.56h-7.182a2.6,2.6,0,0,0,2.781,2.241,3.95,3.95,0,0,0,2.58-.961l1.12,1.641a6.024,6.024,0,0,1-3.98,1.341,5.072,5.072,0,1,1-.16-10.143Zm-2.381,4.161h4.761a2.237,2.237,0,0,0-2.38-2.141A2.322,2.322,0,0,0,732.718,333.636Z" transform="translate(-103.42 -156.601)"/><path class="cls-5" d="M745.479,335.656l-1.16,1.24v2.48h-2.541V326.034h2.541v7.981l3.66-4.3H751.1l-3.821,4.381,3.941,5.281h-3.181Z" transform="translate(-103.42 -156.601)"/><path class="cls-5" d="M752.6,336.336a5.531,5.531,0,0,0,3.341,1.32c1.1,0,1.62-.38,1.62-.98,0-.68-.84-.92-1.94-1.14-1.66-.32-3.8-.721-3.8-3.021,0-1.621,1.421-3.041,3.961-3.041a6.177,6.177,0,0,1,3.9,1.32l-1.021,1.74a4.076,4.076,0,0,0-2.86-1.12c-.921,0-1.521.34-1.521.9,0,.6.76.82,1.84,1.04,1.661.32,3.881.76,3.881,3.16,0,1.761-1.5,3.1-4.181,3.1a6.5,6.5,0,0,1-4.321-1.5Z" transform="translate(-103.42 -156.601)"/><path class="cls-5" d="M771.5,329.475a4.5,4.5,0,0,1,3.821,1.74l-1.66,1.561a2.344,2.344,0,0,0-2.041-1.04,2.817,2.817,0,0,0,0,5.621,2.442,2.442,0,0,0,2.041-1.04l1.66,1.54a4.454,4.454,0,0,1-3.821,1.761,5.072,5.072,0,1,1,0-10.143Z" transform="translate(-103.42 -156.601)"/><path class="cls-5" d="M776.357,334.536a5.111,5.111,0,1,1,5.1,5.081A4.893,4.893,0,0,1,776.357,334.536Zm7.581,0a2.492,2.492,0,1,0-2.48,2.82A2.55,2.55,0,0,0,783.938,334.536Z" transform="translate(-103.42 -156.601)"/><path class="cls-5" d="M800.439,333.275c0-.9-.4-1.54-1.44-1.54a2.561,2.561,0,0,0-2,1.12v6.521h-2.561v-6.1c0-.9-.4-1.54-1.44-1.54a2.592,2.592,0,0,0-2,1.14v6.5h-2.54v-9.662H791v1.26a4.228,4.228,0,0,1,3.161-1.5,2.557,2.557,0,0,1,2.681,1.761,4.1,4.1,0,0,1,3.32-1.761A2.58,2.58,0,0,1,803,332.4v6.981h-2.561Z" transform="translate(-103.42 -156.601)"/><path class="cls-5" d="M817.479,333.275c0-.9-.4-1.54-1.44-1.54a2.561,2.561,0,0,0-2,1.12v6.521h-2.561v-6.1c0-.9-.4-1.54-1.44-1.54a2.592,2.592,0,0,0-2,1.14v6.5H805.5v-9.662h2.54v1.26a4.228,4.228,0,0,1,3.161-1.5,2.557,2.557,0,0,1,2.681,1.761,4.1,4.1,0,0,1,3.32-1.761,2.58,2.58,0,0,1,2.841,2.921v6.981h-2.561Z" transform="translate(-103.42 -156.601)"/><path class="cls-5" d="M829.058,338.156a4.522,4.522,0,0,1-3.4,1.461,2.768,2.768,0,0,1-3.121-3.041v-6.861h2.541v5.861a1.553,1.553,0,0,0,1.78,1.78,2.841,2.841,0,0,0,2.2-1.1v-6.541H831.6v9.662h-2.541Z" transform="translate(-103.42 -156.601)"/><path class="cls-5" d="M840.638,333.535a1.567,1.567,0,0,0-1.78-1.8,2.751,2.751,0,0,0-2.2,1.14v6.5h-2.541v-9.662h2.541v1.26a4.423,4.423,0,0,1,3.381-1.5,2.811,2.811,0,0,1,3.141,3.081v6.821h-2.541Z" transform="translate(-103.42 -156.601)"/><path class="cls-5" d="M845.437,326.954a1.521,1.521,0,1,1,1.521,1.521A1.533,1.533,0,0,1,845.437,326.954Zm.26,2.761h2.541v9.662H845.7Z" transform="translate(-103.42 -156.601)"/><path class="cls-5" d="M851.256,336.977v-5.041h-1.6v-2.221h1.6v-2.641h2.561v2.641h1.961v2.221h-1.961v4.36c0,.6.32,1.061.881,1.061a1.389,1.389,0,0,0,.88-.28l.54,1.921a3.137,3.137,0,0,1-2.12.62A2.416,2.416,0,0,1,851.256,336.977Z" transform="translate(-103.42 -156.601)"/><path class="cls-5" d="M858.356,341.037a1.281,1.281,0,0,0,1.34-.7l.36-.82-3.921-9.8h2.721l2.521,6.722,2.521-6.722h2.74L862.1,340.957a3.51,3.51,0,0,1-3.66,2.341,6.941,6.941,0,0,1-1.261-.141l.38-2.28A2.209,2.209,0,0,0,858.356,341.037Z" transform="translate(-103.42 -156.601)"/><path class="cls-5" d="M873.156,336.336a5.528,5.528,0,0,0,3.34,1.32c1.1,0,1.621-.38,1.621-.98,0-.68-.841-.92-1.94-1.14-1.66-.32-3.8-.721-3.8-3.021,0-1.621,1.42-3.041,3.961-3.041a6.174,6.174,0,0,1,3.9,1.32l-1.021,1.74a4.075,4.075,0,0,0-2.86-1.12c-.92,0-1.521.34-1.521.9,0,.6.761.82,1.841,1.04,1.66.32,3.881.76,3.881,3.16,0,1.761-1.5,3.1-4.181,3.1a6.5,6.5,0,0,1-4.321-1.5Z" transform="translate(-103.42 -156.601)"/><path class="cls-5" d="M888.957,338.156a4.522,4.522,0,0,1-3.4,1.461,2.768,2.768,0,0,1-3.121-3.041v-6.861h2.541v5.861a1.553,1.553,0,0,0,1.78,1.78,2.841,2.841,0,0,0,2.2-1.1v-6.541H891.5v9.662h-2.541Z" transform="translate(-103.42 -156.601)"/><path class="cls-5" d="M894.016,343.058V329.715h2.54v1.22a3.735,3.735,0,0,1,2.98-1.46c2.481,0,4.281,1.841,4.281,5.062s-1.8,5.081-4.281,5.081a3.693,3.693,0,0,1-2.98-1.48v4.921Zm4.721-11.322a2.845,2.845,0,0,0-2.181,1.1v3.421a2.908,2.908,0,0,0,2.181,1.1c1.46,0,2.44-1.141,2.44-2.82A2.5,2.5,0,0,0,898.736,331.735Z" transform="translate(-103.42 -156.601)"/><path class="cls-5" d="M905.715,343.058V329.715h2.541v1.22a3.734,3.734,0,0,1,2.98-1.46c2.48,0,4.281,1.841,4.281,5.062s-1.8,5.081-4.281,5.081a3.692,3.692,0,0,1-2.98-1.48v4.921Zm4.722-11.322a2.845,2.845,0,0,0-2.181,1.1v3.421a2.908,2.908,0,0,0,2.181,1.1c1.46,0,2.44-1.141,2.44-2.82A2.5,2.5,0,0,0,910.437,331.735Z" transform="translate(-103.42 -156.601)"/><path class="cls-5" d="M916.795,334.536a5.111,5.111,0,1,1,5.1,5.081A4.894,4.894,0,0,1,916.795,334.536Zm7.582,0a2.492,2.492,0,1,0-2.48,2.82A2.55,2.55,0,0,0,924.377,334.536Z" transform="translate(-103.42 -156.601)"/><path class="cls-5" d="M928.895,329.715h2.541v1.32a4.132,4.132,0,0,1,3.08-1.541v2.481a3.12,3.12,0,0,0-3.08,1.02v6.382h-2.541Z" transform="translate(-103.42 -156.601)"/><path class="cls-5" d="M936.595,336.977v-5.041h-1.6v-2.221h1.6v-2.641h2.561v2.641h1.96v2.221h-1.96v4.36c0,.6.32,1.061.88,1.061a1.394,1.394,0,0,0,.881-.28l.54,1.921a3.141,3.141,0,0,1-2.121.62A2.415,2.415,0,0,1,936.595,336.977Z" transform="translate(-103.42 -156.601)"/><path class="cls-5" d="M1059.761,157.2h9.441v2.44h-6.6v2.9h6.462v2.44H1062.6v3.1h6.6v2.46h-9.441Z" transform="translate(-103.42 -156.601)"/><path class="cls-5" d="M1077.882,164.7a1.568,1.568,0,0,0-1.78-1.8,2.752,2.752,0,0,0-2.2,1.14v6.5h-2.54v-9.662h2.54v1.26a4.425,4.425,0,0,1,3.381-1.5,2.811,2.811,0,0,1,3.141,3.081v6.821h-2.54Z" transform="translate(-103.42 -156.601)"/><path class="cls-5" d="M1089.582,169.3a3.754,3.754,0,0,1-2.981,1.48c-2.44,0-4.28-1.84-4.28-5.061,0-3.161,1.82-5.082,4.28-5.082a3.724,3.724,0,0,1,2.981,1.48V157.2h2.561v13.343h-2.561Zm0-5.3a2.766,2.766,0,0,0-2.2-1.1,2.839,2.839,0,0,0,0,5.621,2.766,2.766,0,0,0,2.2-1.1Z" transform="translate(-103.42 -156.601)"/><path class="cls-5" d="M1106.422,169.3a3.754,3.754,0,0,1-2.981,1.48c-2.44,0-4.28-1.84-4.28-5.061,0-3.161,1.82-5.082,4.28-5.082a3.724,3.724,0,0,1,2.981,1.48V157.2h2.561v13.343h-2.561Zm0-5.3a2.766,2.766,0,0,0-2.2-1.1,2.839,2.839,0,0,0,0,5.621,2.766,2.766,0,0,0,2.2-1.1Z" transform="translate(-103.42 -156.601)"/><path class="cls-5" d="M1117.3,169.543a4,4,0,0,1-3.061,1.24,3.219,3.219,0,0,1-3.361-3.2,3.06,3.06,0,0,1,3.361-3.081,3.905,3.905,0,0,1,3.061,1.181v-1.34c0-.98-.841-1.621-2.121-1.621a4.067,4.067,0,0,0-2.82,1.14l-.96-1.7a6.337,6.337,0,0,1,4.221-1.521c2.2,0,4.221.88,4.221,3.661v6.241h-2.54Zm0-2.521a2.542,2.542,0,0,0-2.041-.84c-1,0-1.82.52-1.82,1.46,0,.9.82,1.42,1.82,1.42a2.542,2.542,0,0,0,2.041-.84Z" transform="translate(-103.42 -156.601)"/><path class="cls-5" d="M1122.86,168.143V163.1h-1.6v-2.221h1.6v-2.641h2.561v2.641h1.96V163.1h-1.96v4.361c0,.6.32,1.06.88,1.06a1.389,1.389,0,0,0,.88-.28l.541,1.92a3.141,3.141,0,0,1-2.121.62A2.415,2.415,0,0,1,1122.86,168.143Z" transform="translate(-103.42 -156.601)"/><path class="cls-5" d="M1133.5,160.641c2.881,0,4.841,2.161,4.841,5.321v.56h-7.182a2.6,2.6,0,0,0,2.78,2.241,3.953,3.953,0,0,0,2.581-.96l1.12,1.641a6.023,6.023,0,0,1-3.98,1.34,5.072,5.072,0,1,1-.16-10.143Zm-2.381,4.161h4.761a2.237,2.237,0,0,0-2.38-2.141A2.323,2.323,0,0,0,1131.12,164.8Z" transform="translate(-103.42 -156.601)"/><polyline class="cls-6" points="44.199 31.189 44.199 136.443 995.677 136.443 995.677 31.189"/><line class="cls-6" x1="425.58" y1="31.189" x2="425.58" y2="136.443"/><line class="cls-6" x1="44.199" y1="136.443" x2="44.199" y2="146.318"/><line class="cls-6" x1="91.818" y1="136.443" x2="91.818" y2="146.318"/><line class="cls-6" x1="139.437" y1="136.443" x2="139.437" y2="146.318"/><line class="cls-6" x1="187.056" y1="136.443" x2="187.056" y2="146.318"/><line class="cls-6" x1="234.675" y1="136.443" x2="234.675" y2="146.318"/><line class="cls-6" x1="282.294" y1="136.443" x2="282.294" y2="146.318"/><line class="cls-6" x1="329.913" y1="136.443" x2="329.913" y2="146.318"/><line class="cls-6" x1="377.532" y1="136.443" x2="377.532" y2="146.318"/><line class="cls-6" x1="425.58" y1="136.443" x2="425.58" y2="146.318"/><line class="cls-6" x1="473.199" y1="136.443" x2="473.199" y2="146.318"/><line class="cls-6" x1="520.818" y1="136.443" x2="520.818" y2="146.318"/><line class="cls-6" x1="568.437" y1="136.443" x2="568.437" y2="146.318"/><line class="cls-6" x1="616.056" y1="136.443" x2="616.056" y2="146.318"/><line class="cls-6" x1="663.675" y1="136.443" x2="663.675" y2="146.318"/><line class="cls-6" x1="711.294" y1="136.443" x2="711.294" y2="146.318"/><line class="cls-6" x1="758.913" y1="136.443" x2="758.913" y2="146.318"/><line class="cls-6" x1="806.532" y1="136.443" x2="806.532" y2="146.318"/><line class="cls-6" x1="854.151" y1="136.443" x2="854.151" y2="146.318"/><line class="cls-6" x1="901.77" y1="136.443" x2="901.77" y2="146.318"/><line class="cls-6" x1="949.389" y1="136.443" x2="949.389" y2="146.318"/><line class="cls-6" x1="996.58" y1="136.443" x2="996.58" y2="146.318"/><path class="cls-5" d="M735.478,235.7h9.441v2.44h-6.6v2.9h6.461v2.44h-6.461v3.1h6.6v2.46h-9.441Z" transform="translate(-103.42 -156.601)"/><path class="cls-5" d="M750.857,245.783l-2.22,3.261h-2.821l3.421-4.961-3.221-4.7h2.841l2,2.98,1.98-2.98h2.841l-3.24,4.7,3.46,4.961h-2.84Z" transform="translate(-103.42 -156.601)"/><path class="cls-5" d="M762.958,248.044a4,4,0,0,1-3.061,1.24,3.218,3.218,0,0,1-3.36-3.2A3.06,3.06,0,0,1,759.9,243a3.9,3.9,0,0,1,3.061,1.181v-1.341c0-.98-.84-1.62-2.12-1.62a4.065,4.065,0,0,0-2.82,1.14l-.961-1.7a6.342,6.342,0,0,1,4.222-1.521c2.2,0,4.221.881,4.221,3.661v6.241h-2.541Zm0-2.521a2.538,2.538,0,0,0-2.04-.84c-1,0-1.82.52-1.82,1.46,0,.9.82,1.42,1.82,1.42a2.538,2.538,0,0,0,2.04-.84Z" transform="translate(-103.42 -156.601)"/><path class="cls-5" d="M780,242.943c0-.9-.4-1.541-1.439-1.541a2.568,2.568,0,0,0-2,1.12v6.521H774v-6.1c0-.9-.4-1.541-1.44-1.541a2.593,2.593,0,0,0-2,1.141v6.5h-2.541v-9.662h2.541v1.261a4.224,4.224,0,0,1,3.16-1.5A2.556,2.556,0,0,1,776.4,240.9a4.1,4.1,0,0,1,3.321-1.761,2.579,2.579,0,0,1,2.84,2.921v6.981H780Z" transform="translate(-103.42 -156.601)"/><path class="cls-5" d="M794.678,239.142a4.5,4.5,0,0,1,3.821,1.741l-1.66,1.56a2.346,2.346,0,0,0-2.041-1.04,2.817,2.817,0,0,0,0,5.621,2.44,2.44,0,0,0,2.041-1.04l1.66,1.54a4.454,4.454,0,0,1-3.821,1.761,5.072,5.072,0,1,1,0-10.143Z" transform="translate(-103.42 -156.601)"/><path class="cls-5" d="M804.537,239.142c2.881,0,4.842,2.161,4.842,5.321v.561H802.2a2.6,2.6,0,0,0,2.78,2.24,3.952,3.952,0,0,0,2.58-.96l1.121,1.641a6.026,6.026,0,0,1-3.981,1.34,5.072,5.072,0,1,1-.16-10.143Zm-2.38,4.161h4.761a2.238,2.238,0,0,0-2.381-2.141A2.322,2.322,0,0,0,802.157,243.3Z" transform="translate(-103.42 -156.601)"/><path class="cls-5" d="M811.217,239.382h2.54v1.32a4.134,4.134,0,0,1,3.081-1.54v2.48a3.121,3.121,0,0,0-3.081,1.021v6.381h-2.54Z" transform="translate(-103.42 -156.601)"/><path class="cls-5" d="M818.916,246.644V241.6h-1.6v-2.221h1.6v-2.641h2.561v2.641h1.961V241.6h-1.961v4.361c0,.6.32,1.06.881,1.06a1.389,1.389,0,0,0,.88-.279l.54,1.92a3.137,3.137,0,0,1-2.12.62A2.415,2.415,0,0,1,818.916,246.644Z" transform="translate(-103.42 -156.601)"/><path class="cls-5" d="M824.916,236.621a1.521,1.521,0,1,1,1.521,1.521A1.532,1.532,0,0,1,824.916,236.621Zm.26,2.761h2.541v9.662h-2.541Z" transform="translate(-103.42 -156.601)"/><path class="cls-5" d="M830.8,241.6h-1.6v-2.221h1.6v-.52a3.115,3.115,0,0,1,3.261-3.361,4.105,4.105,0,0,1,1.841.4l-.521,1.841a1.419,1.419,0,0,0-.82-.24c-.72,0-1.2.479-1.2,1.36v.52h1.961V241.6h-1.961v7.441H830.8Zm5.722-4.981a1.52,1.52,0,1,1,1.521,1.521A1.532,1.532,0,0,1,836.518,236.621Zm.26,2.761h2.541v9.662h-2.541Z" transform="translate(-103.42 -156.601)"/><path class="cls-5" d="M846.337,239.142a4.493,4.493,0,0,1,3.82,1.741l-1.66,1.56a2.343,2.343,0,0,0-2.04-1.04,2.817,2.817,0,0,0,0,5.621,2.437,2.437,0,0,0,2.04-1.04l1.66,1.54a4.451,4.451,0,0,1-3.82,1.761,5.072,5.072,0,1,1,0-10.143Z" transform="translate(-103.42 -156.601)"/><path class="cls-5" d="M857.617,248.044a4,4,0,0,1-3.061,1.24,3.219,3.219,0,0,1-3.361-3.2A3.06,3.06,0,0,1,854.557,243a3.905,3.905,0,0,1,3.061,1.181v-1.341c0-.98-.841-1.62-2.121-1.62a4.066,4.066,0,0,0-2.82,1.14l-.96-1.7a6.337,6.337,0,0,1,4.221-1.521c2.2,0,4.221.881,4.221,3.661v6.241h-2.54Zm0-2.521a2.54,2.54,0,0,0-2.041-.84c-1,0-1.82.52-1.82,1.46,0,.9.82,1.42,1.82,1.42a2.54,2.54,0,0,0,2.041-.84Z" transform="translate(-103.42 -156.601)"/><path class="cls-5" d="M863.176,246.644V241.6h-1.6v-2.221h1.6v-2.641h2.561v2.641h1.96V241.6h-1.96v4.361c0,.6.32,1.06.88,1.06a1.394,1.394,0,0,0,.881-.279l.54,1.92a3.141,3.141,0,0,1-2.121.62A2.414,2.414,0,0,1,863.176,246.644Z" transform="translate(-103.42 -156.601)"/><path class="cls-5" d="M869.175,236.621a1.521,1.521,0,1,1,1.521,1.521A1.532,1.532,0,0,1,869.175,236.621Zm.261,2.761h2.54v9.662h-2.54Z" transform="translate(-103.42 -156.601)"/><path class="cls-5" d="M873.875,244.2a5.111,5.111,0,1,1,5.1,5.081A4.895,4.895,0,0,1,873.875,244.2Zm7.582,0a2.492,2.492,0,1,0-2.48,2.82A2.551,2.551,0,0,0,881.457,244.2Z" transform="translate(-103.42 -156.601)"/><path class="cls-5" d="M892.5,243.2a1.568,1.568,0,0,0-1.78-1.8,2.752,2.752,0,0,0-2.2,1.141v6.5h-2.541v-9.662h2.541v1.261a4.423,4.423,0,0,1,3.381-1.5,2.811,2.811,0,0,1,3.141,3.081v6.821H892.5Z" transform="translate(-103.42 -156.601)"/><path class="cls-5" d="M742.838,263.142a4.5,4.5,0,0,1,3.821,1.741l-1.66,1.56a2.346,2.346,0,0,0-2.041-1.04,2.817,2.817,0,0,0,0,5.621,2.44,2.44,0,0,0,2.041-1.04l1.66,1.54a4.454,4.454,0,0,1-3.821,1.761,5.072,5.072,0,1,1,0-10.143Z" transform="translate(-103.42 -156.601)"/><path class="cls-5" d="M754.858,267.163c0-1.341-.7-1.761-1.8-1.761a2.817,2.817,0,0,0-2.2,1.141v6.5h-2.54V259.7h2.54v4.941a4.471,4.471,0,0,1,3.4-1.5c2.12,0,3.141,1.161,3.141,3.041v6.861h-2.541Z" transform="translate(-103.42 -156.601)"/><path class="cls-5" d="M759.3,268.2a5.111,5.111,0,1,1,5.1,5.081A4.894,4.894,0,0,1,759.3,268.2Zm7.581,0a2.492,2.492,0,1,0-2.48,2.82A2.55,2.55,0,0,0,766.878,268.2Z" transform="translate(-103.42 -156.601)"/><path class="cls-5" d="M770.776,268.2a5.111,5.111,0,1,1,5.1,5.081A4.895,4.895,0,0,1,770.776,268.2Zm7.582,0a2.492,2.492,0,1,0-2.48,2.82A2.551,2.551,0,0,0,778.358,268.2Z" transform="translate(-103.42 -156.601)"/><path class="cls-5" d="M783.137,270a5.528,5.528,0,0,0,3.34,1.32c1.1,0,1.621-.381,1.621-.98,0-.681-.841-.92-1.94-1.141-1.66-.319-3.8-.72-3.8-3.021,0-1.62,1.42-3.041,3.961-3.041a6.174,6.174,0,0,1,3.9,1.32L789.2,266.2a4.075,4.075,0,0,0-2.86-1.121c-.92,0-1.521.341-1.521.9,0,.6.761.82,1.841,1.04,1.66.32,3.881.761,3.881,3.161,0,1.761-1.5,3.1-4.181,3.1a6.5,6.5,0,0,1-4.321-1.5Z" transform="translate(-103.42 -156.601)"/><path class="cls-5" d="M796.8,263.142c2.881,0,4.842,2.161,4.842,5.321v.561h-7.182a2.6,2.6,0,0,0,2.78,2.24,3.952,3.952,0,0,0,2.58-.96l1.121,1.641a6.026,6.026,0,0,1-3.981,1.34,5.072,5.072,0,1,1-.16-10.143Zm-2.38,4.161h4.761a2.238,2.238,0,0,0-2.381-2.141A2.322,2.322,0,0,0,794.417,267.3Z" transform="translate(-103.42 -156.601)"/><path class="cls-5" d="M809.437,274.7a1.281,1.281,0,0,0,1.34-.7l.36-.82-3.921-9.8h2.721l2.521,6.722,2.521-6.722h2.74l-4.541,11.243a3.509,3.509,0,0,1-3.66,2.34,6.938,6.938,0,0,1-1.261-.14l.38-2.28A2.208,2.208,0,0,0,809.437,274.7Z" transform="translate(-103.42 -156.601)"/><path class="cls-5" d="M818.235,268.2a5.111,5.111,0,1,1,5.1,5.081A4.895,4.895,0,0,1,818.235,268.2Zm7.582,0a2.492,2.492,0,1,0-2.48,2.82A2.551,2.551,0,0,0,825.817,268.2Z" transform="translate(-103.42 -156.601)"/><path class="cls-5" d="M836.856,271.824a4.521,4.521,0,0,1-3.4,1.46,2.767,2.767,0,0,1-3.121-3.041v-6.861h2.541v5.861a1.553,1.553,0,0,0,1.78,1.78,2.843,2.843,0,0,0,2.2-1.1v-6.542H839.4v9.662h-2.541Z" transform="translate(-103.42 -156.601)"/><path class="cls-5" d="M841.915,263.382h2.541v1.32a4.131,4.131,0,0,1,3.08-1.54v2.48a3.119,3.119,0,0,0-3.08,1.021v6.381h-2.541Z" transform="translate(-103.42 -156.601)"/><path class="cls-5" d="M860.877,271.8a3.753,3.753,0,0,1-2.981,1.48c-2.44,0-4.28-1.84-4.28-5.061,0-3.161,1.82-5.082,4.28-5.082a3.725,3.725,0,0,1,2.981,1.48V259.7h2.561v13.343h-2.561Zm0-5.3a2.765,2.765,0,0,0-2.2-1.1,2.839,2.839,0,0,0,0,5.621,2.767,2.767,0,0,0,2.2-1.1Z" transform="translate(-103.42 -156.601)"/><path class="cls-5" d="M871.756,272.044a4,4,0,0,1-3.061,1.24,3.218,3.218,0,0,1-3.36-3.2A3.06,3.06,0,0,1,868.7,267a3.9,3.9,0,0,1,3.061,1.181v-1.341c0-.98-.84-1.62-2.12-1.62a4.065,4.065,0,0,0-2.82,1.14l-.961-1.7a6.342,6.342,0,0,1,4.222-1.521c2.2,0,4.221.881,4.221,3.661v6.241h-2.541Zm0-2.521a2.538,2.538,0,0,0-2.04-.84c-1,0-1.82.52-1.82,1.46,0,.9.82,1.42,1.82,1.42a2.538,2.538,0,0,0,2.04-.84Z" transform="translate(-103.42 -156.601)"/><path class="cls-5" d="M877.314,270.644V265.6h-1.6v-2.221h1.6v-2.641h2.561v2.641h1.961V265.6h-1.961v4.361c0,.6.32,1.06.881,1.06a1.389,1.389,0,0,0,.88-.279l.54,1.92a3.137,3.137,0,0,1-2.12.62A2.415,2.415,0,0,1,877.314,270.644Z" transform="translate(-103.42 -156.601)"/><path class="cls-5" d="M887.956,263.142c2.881,0,4.841,2.161,4.841,5.321v.561h-7.182a2.6,2.6,0,0,0,2.781,2.24,3.954,3.954,0,0,0,2.58-.96l1.12,1.641a6.023,6.023,0,0,1-3.98,1.34,5.072,5.072,0,1,1-.16-10.143Zm-2.381,4.161h4.761a2.237,2.237,0,0,0-2.38-2.141A2.323,2.323,0,0,0,885.575,267.3Z" transform="translate(-103.42 -156.601)"/><line class="cls-7" x1="815.428" y1="99.749" x2="933.928" y2="99.749"/><line class="cls-2" x1="815.428" y1="99.749" x2="912.746" y2="99.749"/><polygon class="cls-1" points="933.928 99.749 904.08 111.945 911.163 99.749 904.08 87.556 933.928 99.749"/><line class="cls-7" x1="606.428" y1="99.749" x2="487.928" y2="99.749"/><line class="cls-2" x1="606.428" y1="99.749" x2="509.109" y2="99.749"/><polygon class="cls-1" points="487.928 99.749 517.775 87.553 510.693 99.749 517.775 111.942 487.928 99.749"/><path class="cls-7" d="M281.529,245.141h-6.624v5.887H271.92V237h2.986v5.509h6.624V237h3.007v14.024h-3.007Z" transform="translate(-103.42 -156.601)"/><path class="cls-7" d="M288.09,252.772a1.347,1.347,0,0,0,1.409-.735l.378-.862-4.121-10.3h2.859l2.649,7.064,2.649-7.064h2.88l-4.773,11.816c-.757,1.914-2.1,2.418-3.848,2.46A7.308,7.308,0,0,1,286.85,255l.4-2.4A2.3,2.3,0,0,0,288.09,252.772Z" transform="translate(-103.42 -156.601)"/><path class="cls-7" d="M297.973,254.9V240.872h2.67v1.282a3.923,3.923,0,0,1,3.133-1.535c2.607,0,4.5,1.935,4.5,5.32s-1.893,5.341-4.5,5.341a3.88,3.88,0,0,1-3.133-1.557V254.9Zm4.962-11.9a2.99,2.99,0,0,0-2.292,1.157v3.595a3.058,3.058,0,0,0,2.292,1.157c1.535,0,2.565-1.2,2.565-2.965C305.5,244.194,304.47,243,302.936,243Z" transform="translate(-103.42 -156.601)"/><path class="cls-7" d="M314.858,240.619c3.028,0,5.088,2.271,5.088,5.594v.588H312.4a2.737,2.737,0,0,0,2.923,2.355,4.153,4.153,0,0,0,2.712-1.01l1.178,1.725a6.333,6.333,0,0,1-4.185,1.409,5.331,5.331,0,1,1-.168-10.661Zm-2.5,4.374h5a2.352,2.352,0,0,0-2.5-2.25A2.441,2.441,0,0,0,312.356,244.993Z" transform="translate(-103.42 -156.601)"/><path class="cls-7" d="M321.861,240.872h2.67v1.388a4.344,4.344,0,0,1,3.238-1.619v2.607a3.282,3.282,0,0,0-3.238,1.072v6.707h-2.67Z" transform="translate(-103.42 -156.601)"/><path class="cls-7" d="M329.409,237h2.67v14.024h-2.67Z" transform="translate(-103.42 -156.601)"/><path class="cls-7" d="M339.313,240.619c3.028,0,5.088,2.271,5.088,5.594v.588h-7.549a2.737,2.737,0,0,0,2.923,2.355,4.153,4.153,0,0,0,2.712-1.01l1.178,1.725a6.333,6.333,0,0,1-4.185,1.409,5.331,5.331,0,1,1-.168-10.661Zm-2.5,4.374h5a2.352,2.352,0,0,0-2.5-2.25A2.441,2.441,0,0,0,336.811,244.993Z" transform="translate(-103.42 -156.601)"/><path class="cls-7" d="M353.3,249.724a3.941,3.941,0,0,1-3.133,1.557c-2.565,0-4.5-1.935-4.5-5.32,0-3.322,1.914-5.341,4.5-5.341a3.912,3.912,0,0,1,3.133,1.557V237h2.691v14.024H353.3Zm0-5.571A2.9,2.9,0,0,0,350.983,243c-1.514,0-2.565,1.2-2.565,2.965a2.645,2.645,0,0,0,2.565,2.944,2.9,2.9,0,0,0,2.313-1.157Z" transform="translate(-103.42 -156.601)"/><path class="cls-7" d="M359.6,251.7a4.037,4.037,0,0,0,3.176,1.262,2.482,2.482,0,0,0,2.8-2.565v-1.03a3.953,3.953,0,0,1-3.133,1.6c-2.544,0-4.479-1.787-4.479-5.173,0-3.322,1.913-5.173,4.479-5.173a3.911,3.911,0,0,1,3.133,1.557v-1.3h2.691v9.462c0,3.868-2.985,4.814-5.487,4.814a6.156,6.156,0,0,1-4.374-1.514Zm5.972-7.548A2.9,2.9,0,0,0,363.284,243a2.807,2.807,0,0,0,0,5.594,2.955,2.955,0,0,0,2.292-1.157Z" transform="translate(-103.42 -156.601)"/><path class="cls-7" d="M375.5,240.619c3.027,0,5.088,2.271,5.088,5.594v.588h-7.548a2.736,2.736,0,0,0,2.922,2.355,4.153,4.153,0,0,0,2.713-1.01l1.178,1.725a6.334,6.334,0,0,1-4.185,1.409,5.331,5.331,0,1,1-.168-10.661Zm-2.5,4.374h5a2.353,2.353,0,0,0-2.5-2.25A2.44,2.44,0,0,0,373,244.993Z" transform="translate(-103.42 -156.601)"/><path class="cls-7" d="M382.5,240.872h2.671v1.388a4.344,4.344,0,0,1,3.238-1.619v2.607a3.282,3.282,0,0,0-3.238,1.072v6.707H382.5Z" transform="translate(-103.42 -156.601)"/><path class="cls-7" d="M395.479,237H405.4v2.565h-6.939v3.049h6.792v2.565h-6.792v5.845h-2.985Z" transform="translate(-103.42 -156.601)"/><path class="cls-7" d="M413.5,249.977a4.207,4.207,0,0,1-3.218,1.3,3.383,3.383,0,0,1-3.532-3.364c0-2.376,1.913-3.238,3.532-3.238a4.105,4.105,0,0,1,3.218,1.24V244.51c0-1.03-.884-1.7-2.229-1.7A4.275,4.275,0,0,0,408.3,244l-1.009-1.787a6.661,6.661,0,0,1,4.437-1.6c2.313,0,4.437.926,4.437,3.849v6.56H413.5Zm0-2.649a2.673,2.673,0,0,0-2.146-.884c-1.051,0-1.913.547-1.913,1.535,0,.946.862,1.493,1.913,1.493a2.673,2.673,0,0,0,2.146-.883Z" transform="translate(-103.42 -156.601)"/><path class="cls-7" d="M418.8,237h2.671v5.173a3.912,3.912,0,0,1,3.133-1.557c2.586,0,4.5,2.019,4.5,5.341,0,3.386-1.935,5.32-4.5,5.32a3.941,3.941,0,0,1-3.133-1.557v1.3H418.8Zm4.963,11.9c1.556,0,2.586-1.178,2.586-2.944S425.316,243,423.761,243a2.946,2.946,0,0,0-2.292,1.178v3.6A2.973,2.973,0,0,0,423.761,248.9Z" transform="translate(-103.42 -156.601)"/><path class="cls-7" d="M431.1,240.872h2.671v1.388a4.344,4.344,0,0,1,3.238-1.619v2.607a3.282,3.282,0,0,0-3.238,1.072v6.707H431.1Z" transform="translate(-103.42 -156.601)"/><path class="cls-7" d="M438.375,237.97a1.6,1.6,0,1,1,1.6,1.6A1.61,1.61,0,0,1,438.375,237.97Zm.272,2.9h2.671v10.155h-2.671Z" transform="translate(-103.42 -156.601)"/><path class="cls-7" d="M448.679,240.619a4.723,4.723,0,0,1,4.016,1.83l-1.745,1.64A2.462,2.462,0,0,0,448.8,243a2.962,2.962,0,0,0,0,5.909,2.562,2.562,0,0,0,2.145-1.094l1.745,1.619a4.679,4.679,0,0,1-4.016,1.851,5.331,5.331,0,1,1,0-10.661Z" transform="translate(-103.42 -156.601)"/><path class="cls-7" d="M271.92,258.988h5.53c4.395,0,7.443,2.8,7.443,7.022s-3.049,7-7.443,7h-5.53Zm5.53,11.4a4.2,4.2,0,0,0,4.395-4.374,4.1,4.1,0,0,0-4.395-4.395h-2.544v8.769Z" transform="translate(-103.42 -156.601)"/><path class="cls-7" d="M292.338,262.6c3.028,0,5.088,2.271,5.088,5.594v.588h-7.549a2.737,2.737,0,0,0,2.923,2.355,4.153,4.153,0,0,0,2.712-1.01l1.178,1.725a6.333,6.333,0,0,1-4.185,1.409,5.331,5.331,0,1,1-.168-10.661Zm-2.5,4.374h5a2.352,2.352,0,0,0-2.5-2.25A2.441,2.441,0,0,0,289.835,266.979Z" transform="translate(-103.42 -156.601)"/><path class="cls-7" d="M298.688,262.857h2.859l2.649,7.064,2.649-7.064h2.88l-4.079,10.155h-2.88Z" transform="translate(-103.42 -156.601)"/><path class="cls-7" d="M316.309,262.6c3.028,0,5.088,2.271,5.088,5.594v.588h-7.549a2.737,2.737,0,0,0,2.923,2.355,4.153,4.153,0,0,0,2.712-1.01l1.178,1.725a6.333,6.333,0,0,1-4.185,1.409,5.331,5.331,0,1,1-.168-10.661Zm-2.5,4.374h5a2.352,2.352,0,0,0-2.5-2.25A2.441,2.441,0,0,0,313.807,266.979Z" transform="translate(-103.42 -156.601)"/><path class="cls-7" d="M324.111,258.988h2.67v14.024h-2.67Z" transform="translate(-103.42 -156.601)"/><path class="cls-7" d="M329.557,267.925a5.372,5.372,0,1,1,5.362,5.341A5.144,5.144,0,0,1,329.557,267.925Zm7.969,0a2.62,2.62,0,1,0-2.607,2.965A2.681,2.681,0,0,0,337.526,267.925Z" transform="translate(-103.42 -156.601)"/><path class="cls-7" d="M343.057,276.882V262.857h2.67v1.282a3.923,3.923,0,0,1,3.133-1.535c2.607,0,4.5,1.935,4.5,5.32s-1.893,5.341-4.5,5.341a3.88,3.88,0,0,1-3.133-1.557v5.173Zm4.962-11.9a2.99,2.99,0,0,0-2.292,1.157v3.595a3.058,3.058,0,0,0,2.292,1.157c1.535,0,2.565-1.2,2.565-2.965C350.584,266.18,349.554,264.98,348.019,264.98Z" transform="translate(-103.42 -156.601)"/><path class="cls-7" d="M360.741,262.6c3.027,0,5.088,2.271,5.088,5.594v.588h-7.548a2.736,2.736,0,0,0,2.923,2.355,4.153,4.153,0,0,0,2.712-1.01l1.178,1.725a6.334,6.334,0,0,1-4.185,1.409,5.331,5.331,0,1,1-.168-10.661Zm-2.5,4.374h5a2.353,2.353,0,0,0-2.5-2.25A2.44,2.44,0,0,0,358.239,266.979Z" transform="translate(-103.42 -156.601)"/><path class="cls-7" d="M368.542,262.857h2.671v1.388a4.344,4.344,0,0,1,3.238-1.619v2.607a3.282,3.282,0,0,0-3.238,1.072v6.707h-2.671Z" transform="translate(-103.42 -156.601)"/><path class="cls-7" d="M382.441,266.011a7.1,7.1,0,0,1,7.359-7.254,6.472,6.472,0,0,1,5.972,3.428l-2.565,1.262a3.841,3.841,0,0,0-3.406-2.04,4.617,4.617,0,0,0,0,9.21,3.8,3.8,0,0,0,3.406-2.04l2.565,1.241a6.51,6.51,0,0,1-5.972,3.448A7.1,7.1,0,0,1,382.441,266.011Z" transform="translate(-103.42 -156.601)"/><path class="cls-7" d="M397.623,267.925a5.372,5.372,0,1,1,5.361,5.341A5.144,5.144,0,0,1,397.623,267.925Zm7.969,0a2.62,2.62,0,1,0-2.607,2.965A2.681,2.681,0,0,0,405.592,267.925Z" transform="translate(-103.42 -156.601)"/><path class="cls-7" d="M417.979,271.73a4.754,4.754,0,0,1-3.575,1.535c-2.229,0-3.28-1.22-3.28-3.2v-7.212h2.671v6.16a1.633,1.633,0,0,0,1.871,1.872,2.991,2.991,0,0,0,2.313-1.157v-6.875h2.67v10.155h-2.67Z" transform="translate(-103.42 -156.601)"/><path class="cls-7" d="M424.076,262.857h2.671v1.388a4.344,4.344,0,0,1,3.238-1.619v2.607a3.282,3.282,0,0,0-3.238,1.072v6.707h-2.671Z" transform="translate(-103.42 -156.601)"/><path class="cls-7" d="M432.7,269.817a5.817,5.817,0,0,0,3.512,1.388c1.156,0,1.7-.4,1.7-1.03,0-.716-.883-.968-2.039-1.2-1.745-.336-4-.757-4-3.175,0-1.7,1.492-3.2,4.163-3.2a6.487,6.487,0,0,1,4.1,1.388l-1.072,1.83a4.28,4.28,0,0,0-3.007-1.178c-.967,0-1.6.357-1.6.946,0,.631.8.862,1.935,1.093,1.745.337,4.079.8,4.079,3.322,0,1.851-1.577,3.26-4.395,3.26a6.836,6.836,0,0,1-4.542-1.577Z" transform="translate(-103.42 -156.601)"/><path class="cls-7" d="M447.837,262.6c3.027,0,5.088,2.271,5.088,5.594v.588h-7.548a2.736,2.736,0,0,0,2.923,2.355,4.153,4.153,0,0,0,2.712-1.01l1.178,1.725A6.334,6.334,0,0,1,448,273.266a5.331,5.331,0,1,1-.168-10.661Zm-2.5,4.374h5a2.353,2.353,0,0,0-2.5-2.25A2.44,2.44,0,0,0,445.335,266.979Z" transform="translate(-103.42 -156.601)"/><path class="cls-7" d="M261.321,233.805v41.973H219.348V233.805h41.973m1.206-1.206H218.141v44.385h44.386V232.6Z" transform="translate(-103.42 -156.601)"/><path class="cls-7" d="M227.3,256.658v13.025c0,1.012.46,1.5,1.2,1.5a2.71,2.71,0,0,0,1.4-.414l.184,1.91a6,6,0,0,1-2.462.552c-1.634,0-2.716-.828-2.716-2.991V256.658Z" transform="translate(-103.42 -156.601)"/><path class="cls-7" d="M232.538,261.582a12.261,12.261,0,0,1,4.4-.828c3.429,0,4.856,2,4.856,4.58V273H239.4v-1.312a5.4,5.4,0,0,1-3.843,1.542c-2.577,0-4.1-1.4-4.1-3.613,0-2.876,2.324-4.257,5.661-4.257a11.222,11.222,0,0,1,2.278.23v-.138a2.324,2.324,0,0,0-2.646-2.646,9.254,9.254,0,0,0-3.774.851Zm3.751,9.734A4.678,4.678,0,0,0,239.4,270.1v-2.784a7.859,7.859,0,0,0-1.795-.207c-2.117,0-3.751.69-3.751,2.255C233.85,270.673,234.817,271.317,236.289,271.317Z" transform="translate(-103.42 -156.601)"/><path class="cls-7" d="M250.11,273.227a5.067,5.067,0,0,1-3.866-1.657V273H243.85V256.658h2.394v5.684a5.352,5.352,0,0,1,3.866-1.588c3.452,0,5.776,2.577,5.776,6.214S253.562,273.227,250.11,273.227Zm-.621-10.379a4.647,4.647,0,0,0-3.244,1.427v5.5a4.716,4.716,0,0,0,3.244,1.358,4.147,4.147,0,0,0,0-8.285Z" transform="translate(-103.42 -156.601)"/><path class="cls-7" d="M224.905,236.591h6.9c3.751,0,6.06,1.469,6.06,4.67a3.957,3.957,0,0,1-2.991,3.882c2.728.472,4.407,1.889,4.407,4.565,0,2.886-2.151,4.722-6.27,4.722h-8.106Zm6.4,7.529c2.256,0,3.725-.761,3.725-2.544,0-1.941-1.364-2.623-3.594-2.623h-3.8v5.168Zm1.338,7.949c2.466,0,3.725-.919,3.725-2.676,0-2.046-1.548-2.859-4.171-2.859h-4.565v5.535Z" transform="translate(-103.42 -156.601)"/><path class="cls-7" d="M247.73,236.329c-3.93,0-6.852,2.482-6.852,6.231,0,3.594,2.4,5.74,6.49,5.74a7.488,7.488,0,0,0,5.586-2.353c-.156,3.672-1.914,6.18-5.586,6.18a9.137,9.137,0,0,1-4.887-1.422l-.827,2.2a11.974,11.974,0,0,0,6.025,1.526c5.145,0,7.99-3.672,7.99-9.024C255.668,239.949,252.824,236.329,247.73,236.329Zm-.113,9.548c-2.265,0-4.1-1.559-4.1-3.481s1.836-3.481,4.1-3.481,4.1,1.559,4.1,3.481S249.883,245.877,247.618,245.877Z" transform="translate(-103.42 -156.601)"/></svg>