<?xml version="1.0" encoding="utf-8"?>
<!-- Generator: Adobe Illustrator 22.1.0, SVG Export Plug-In . SVG Version: 6.00 Build 0)  -->
<svg version="1.1" xmlns="http://www.w3.org/2000/svg" xmlns:xlink="http://www.w3.org/1999/xlink" x="0px" y="0px"
	 viewBox="0 0 650.4 597.5" style="enable-background:new 0 0 650.4 597.5;" xml:space="preserve">
<style type="text/css">
	.st0{fill:#DE7150;}
</style>
<g id="Layer_2">
</g>
<g id="Layer_1">
	<title>hl-logo-orange</title>
	<g>
		<path class="st0" d="M363.6,556.9c-2.6,5.5-9.2,7.8-14.7,5.2l-122.3-58.4c-5.5-2.6-7.8-9.2-5.2-14.7l13-27.2
			c2.6-5.5,9.2-7.8,14.7-5.2L371.4,515c5.5,2.6,7.8,9.2,5.2,14.7L363.6,556.9z M121.3,441.3c-2.6,5.5-9.2,7.8-14.7,5.2l-74.8-35.7
			c-5.5-2.6-7.8-9.2-5.2-14.7l13-27.2c2.6-5.5,9.2-7.8,14.7-5.2l74.8,35.7c5.5,2.6,7.8,9.2,5.2,14.7L121.3,441.3z"/>
		<path class="st0" d="M610.7,228.7c-2.6,5.5-9.2,7.8-14.7,5.2l-74.9-35.7c-5.5-2.6-7.8-9.2-5.2-14.7l13-27.2
			c2.6-5.5,9.2-7.8,14.7-5.2l74.9,35.7c5.5,2.6,7.8,9.2,5.2,14.7L610.7,228.7z M415.9,135.7c-2.6,5.5-9.2,7.8-14.7,5.2l-121.6-58
			c-5.5-2.6-7.8-9.2-5.2-14.7l13-27.2c2.6-5.5,9.2-7.8,14.7-5.2l121.6,58c5.5,2.6,7.8,9.2,5.2,14.7L415.9,135.7z"/>
		<path class="st0" d="M236.9,199c-2.6,5.5-9.2,7.8-14.7,5.2l-74.8-35.7c-5.5-2.6-7.8-9.2-5.2-14.7l13-27.2
			c2.6-5.5,9.2-7.8,14.7-5.2l74.8,35.7c5.5,2.6,7.8,9.2,5.2,14.7L236.9,199z"/>
		<path class="st0" d="M479.2,314.6c-2.6,5.5-9.2,7.8-14.7,5.2l-122.3-58.4c-5.5-2.6-7.8-9.2-5.2-14.7l13-27.2
			c2.6-5.5,9.2-7.8,14.7-5.2L487,272.7c5.5,2.6,7.8,9.2,5.2,14.7L479.2,314.6z"/>
		<path class="st0" d="M495.3,471c-2.6,5.5-9.2,7.8-14.7,5.2l-75-35.8c-5.5-2.6-7.8-9.2-5.2-14.7l13-27.2c2.6-5.5,9.2-7.8,14.7-5.2
			l75,35.8c5.5,2.6,7.8,9.2,5.2,14.7L495.3,471z"/>
		<path class="st0" d="M300.3,377.9c-2.6,5.5-9.2,7.8-14.7,5.2l-122-58.2c-5.5-2.6-7.8-9.2-5.2-14.7l13-27.2
			c2.6-5.5,9.2-7.8,14.7-5.2l122,58.2c5.5,2.6,7.8,9.2,5.2,14.7L300.3,377.9z"/>
		<g>
			<path class="st0" d="M108.9,345c-2.6,5.5-9.2,7.8-14.7,5.2l-27.2-13c-5.5-2.6-7.8-9.2-5.2-14.7l58.4-122.3
				c2.6-5.5,9.2-7.8,14.7-5.2l27.2,13c5.5,2.6,7.8,9.2,5.2,14.7L108.9,345z"/>
			<path class="st0" d="M224.5,102.7c-2.6,5.5-9.2,7.8-14.7,5.2l-27.2-13c-5.5-2.6-7.8-9.2-5.2-14.7l35.3-74
				c2.6-5.5,9.2-7.8,14.7-5.2l27.2,13c5.5,2.6,7.8,9.2,5.2,14.7L224.5,102.7z"/>
			<path class="st0" d="M437.6,591.2c-2.6,5.5-9.2,7.8-14.7,5.2l-27.2-13c-5.5-2.6-7.8-9.2-5.2-14.7l35.3-74
				c2.6-5.5,9.2-7.8,14.7-5.2l27.2,13c5.5,2.6,7.8,9.2,5.2,14.7L437.6,591.2z"/>
			<path class="st0" d="M530.1,397.3c-2.6,5.5-9.2,7.8-14.7,5.2l-27.2-13c-5.5-2.6-7.8-9.2-5.2-14.7l58.4-122.3
				c2.6-5.5,9.2-7.8,14.7-5.2l27.2,13c5.5,2.6,7.8,9.2,5.2,14.7L530.1,397.3z"/>
			<path class="st0" d="M466.8,218.3c-2.6,5.5-9.2,7.8-14.7,5.2l-27.2-13c-5.5-2.6-7.8-9.2-5.2-14.7l35.3-74
				c2.6-5.5,9.2-7.8,14.7-5.2l27.2,13c5.5,2.6,7.8,9.2,5.2,14.7L466.8,218.3z"/>
			<path class="st0" d="M351.2,460.6c-2.6,5.5-9.2,7.8-14.7,5.2l-27.2-13c-5.5-2.6-7.8-9.2-5.2-14.7l58.4-122.3
				c2.6-5.5,9.2-7.8,14.7-5.2l27.2,13c5.5,2.6,7.8,9.2,5.2,14.7L351.2,460.6z"/>
			<path class="st0" d="M195.3,475.6c-2.6,5.5-9.2,7.8-14.7,5.2l-27.2-13c-5.5-2.6-7.8-9.2-5.2-14.7l35.3-74
				c2.6-5.5,9.2-7.8,14.7-5.2l27.2,13c5.5,2.6,7.8,9.2,5.2,14.7L195.3,475.6z"/>
			<path class="st0" d="M287.8,281.7c-2.6,5.5-9.2,7.8-14.7,5.2l-27.2-13c-5.5-2.6-7.8-9.2-5.2-14.7l58.4-122.3
				c2.6-5.5,9.2-7.8,14.7-5.2l27.2,13c5.5,2.6,7.8,9.2,5.2,14.7L287.8,281.7z"/>
		</g>
	</g>
</g>
</svg>
