<svg id="Layer_1" data-name="Layer 1" xmlns="http://www.w3.org/2000/svg" viewBox="0 0 191.3 37.1"><defs><style>.cls-1{fill:#fff;}</style></defs><title>hyperledger-logo</title><path class="cls-1" d="M52.6,71.1c-.1,0-.1,0-.2-.1L41.1,55v-.2L49.3,37c0-.1.1-.1.2-.1L69,35c.1,0,.1,0,.2.1l11.3,16v.2L72.3,69.1c0,.1-.1.1-.2.1L52.6,71.1ZM41.5,54.9,52.7,70.7,72,68.9l8.1-17.6L68.9,35.4,49.6,37.2ZM72.1,69.1Z" transform="translate(-41 -35)"/><path class="cls-1" d="M52.5,71.1,49.4,54.8V37l15.3,4.5,15.8,9.8L68.7,61.7Zm-3-33.9V54.8l3.1,16,15.9-9.2L80,51.3,64.4,41.6Z" transform="translate(-41 -35)"/><circle class="cls-1" cx="23.9" cy="6.6" r="0.6"/><path class="cls-1" d="M64.9,42.8a1.2,1.2,0,1,1,1.2-1.2A1.379,1.379,0,0,1,64.9,42.8Zm0-1.2Z" transform="translate(-41 -35)"/><circle class="cls-1" cx="27.7" cy="26.6" r="0.6"/><path class="cls-1" d="M68.7,62.8a1.216,1.216,0,0,1-1.2-1.2,1.155,1.155,0,0,1,1.2-1.2,1.2,1.2,0,0,1,0,2.4Zm0-1.2Z" transform="translate(-41 -35)"/><circle class="cls-1" cx="11.7" cy="35.9" r="0.6"/><path class="cls-1" d="M52.7,72.1a1.2,1.2,0,1,1,0-2.4,1.2,1.2,0,0,1,0,2.4Zm0-1.2Z" transform="translate(-41 -35)"/><circle class="cls-1" cx="8.5" cy="19.9" r="0.6"/><path class="cls-1" d="M49.5,56.1a1.2,1.2,0,1,1,0-2.4,1.155,1.155,0,0,1,1.2,1.2A1.287,1.287,0,0,1,49.5,56.1Zm0-1.2h0c-.1,0-.1.1,0,0Z" transform="translate(-41 -35)"/><circle class="cls-1" cx="39.3" cy="16.3" r="0.6"/><path class="cls-1" d="M80.3,52.5a1.2,1.2,0,1,1,1.2-1.2A1.29,1.29,0,0,1,80.3,52.5Zm0-1.2Z" transform="translate(-41 -35)"/><circle class="cls-1" cx="8.5" cy="2" r="0.6"/><path class="cls-1" d="M49.5,38.2a1.2,1.2,0,0,1,0-2.4A1.155,1.155,0,0,1,50.7,37,1.287,1.287,0,0,1,49.5,38.2Zm0-1.2Z" transform="translate(-41 -35)"/><path class="cls-1" d="M72.1,69.3h0L57.1,64l-16-9a.1.1,0,0,1-.1-.1c0-.1,0-.1.1-.2l12-11,15.7-8.6H69a.1.1,0,0,1,.1.1l3.5,15.5-.4,18.4c0,.1,0,.1-.1.2ZM41.6,54.8l15.7,8.8,14.6,5.2.4-18.1L68.8,35.5,53.4,44Z" transform="translate(-41 -35)"/><path class="cls-1" d="M68.7,61.7h0L49.3,55l.1-.1L64.9,41.5ZM49.5,54.9l19.1,6.6L64.8,41.7Z" transform="translate(-41 -35)"/><path class="cls-1" d="M57.1,64.2,53,43.6l19.8,7.1ZM53.5,44.1l3.8,19.3L72.1,50.7Z" transform="translate(-41 -35)"/><rect class="cls-1" x="51.17" y="36.489" width="0.4" height="7.8" transform="translate(-54.199 -4.661) rotate(-29.328)"/><polygon class="cls-1" points="11.9 36 11.6 35.8 16.1 28.7 16.4 28.9 11.9 36"/><rect class="cls-1" x="76.179" y="47.101" width="0.4" height="7.8" transform="translate(-21.052 88.461) rotate(-85.822)"/><path class="cls-1" d="M89.2,46.4h3.1v5.3h6.1V46.4h3.1V60.6H98.4V54.5H92.3v6.1H89.2Z" transform="translate(-41 -35)"/><path class="cls-1" d="M107.8,54.6l-5.4-8.2h3.9l3,5.3,3.2-5.3h3.7l-5.3,8.2v6.1h-3.1Z" transform="translate(-41 -35)"/><path class="cls-1" d="M117.1,46.4h5.3a14.919,14.919,0,0,1,2.1.2,4.356,4.356,0,0,1,1.7.7,3.745,3.745,0,0,1,1.2,1.3,5.713,5.713,0,0,1,0,4.2,2.85,2.85,0,0,1-1.1,1.3,4.356,4.356,0,0,1-1.7.7,12.482,12.482,0,0,1-2.1.2h-2.3v5.5h-3.1Zm3.1,6h2.1a1.949,1.949,0,0,0,.8-.1c.3-.1.5-.1.7-.3a1.205,1.205,0,0,0,.5-.5,1.884,1.884,0,0,0,.2-.8,1.222,1.222,0,0,0-.3-.9,2.651,2.651,0,0,0-.6-.5,2.92,2.92,0,0,0-.9-.2h-2.5Z" transform="translate(-41 -35)"/><path class="cls-1" d="M129.7,46.4h9.7v2.9h-6.5V52h6.2v2.9h-6.2v2.9h6.9v2.9h-10Z" transform="translate(-41 -35)"/><path class="cls-1" d="M142,46.4h5.5a14.919,14.919,0,0,1,2.1.2,4.356,4.356,0,0,1,1.7.7,3.745,3.745,0,0,1,1.2,1.3,4.378,4.378,0,0,1,.4,2.1,4.457,4.457,0,0,1-.8,2.6,3.168,3.168,0,0,1-2.3,1.3l3.6,6h-3.8l-3-5.7h-1.5v5.7H142Zm3.2,5.9H148a2.92,2.92,0,0,0,.9-.2,1.024,1.024,0,0,0,.6-.5c.2-.2.2-.5.2-.9a2,2,0,0,0-.2-.9,1.024,1.024,0,0,0-.6-.5,1.884,1.884,0,0,0-.8-.2c-.3,0-.6-.1-.9-.1h-2.1Z" transform="translate(-41 -35)"/><path class="cls-1" d="M155,46.4h3.1V57.7h5.8v2.9h-9Z" transform="translate(-41 -35)"/><path class="cls-1" d="M165.6,46.4h9.7v2.9h-6.5V52H175v2.9h-6.2v2.9h6.9v2.9h-10Z" transform="translate(-41 -35)"/><path class="cls-1" d="M177.9,46.4h4.7a11.236,11.236,0,0,1,3.2.4,11.065,11.065,0,0,1,2.7,1.2,5.485,5.485,0,0,1,1.8,2.2,6.711,6.711,0,0,1,.7,3.3,5.559,5.559,0,0,1-.7,3,5.485,5.485,0,0,1-1.8,2.2,9.174,9.174,0,0,1-2.6,1.4,10.474,10.474,0,0,1-3,.5h-5.1Zm3.2,11.4h1.6a12.31,12.31,0,0,0,2-.2,3.9,3.9,0,0,0,1.6-.7,3.482,3.482,0,0,0,1.1-1.3,4.211,4.211,0,0,0,.4-2,3.425,3.425,0,0,0-.4-1.8,4.487,4.487,0,0,0-1.1-1.3,5.978,5.978,0,0,0-1.6-.8,4,4,0,0,0-1.9-.2h-1.9Z" transform="translate(-41 -35)"/><path class="cls-1" d="M205.9,59.5a9.979,9.979,0,0,1-2.9,1,15.526,15.526,0,0,1-3.1.3,10.588,10.588,0,0,1-3.1-.5,5.452,5.452,0,0,1-2.4-1.5,5.96,5.96,0,0,1-1.6-2.4,7.885,7.885,0,0,1,1.6-8.6,6.08,6.08,0,0,1,2.4-1.5,10.907,10.907,0,0,1,6.2-.1,5.613,5.613,0,0,1,2.5,1.4L203.3,50a4.508,4.508,0,0,0-1.4-1,5.618,5.618,0,0,0-2-.3,4.844,4.844,0,0,0-1.8.3,3.316,3.316,0,0,0-1.4,1,3.766,3.766,0,0,0-.9,1.5,5.663,5.663,0,0,0-.3,1.8,4.844,4.844,0,0,0,.3,1.8,3.39,3.39,0,0,0,.9,1.4,7.1,7.1,0,0,0,1.4,1,5.23,5.23,0,0,0,1.8.3,8.969,8.969,0,0,0,1.8-.2,7.255,7.255,0,0,0,1.2-.5V54.8h-2.6V51.9h5.6Z" transform="translate(-41 -35)"/><path class="cls-1" d="M208.6,46.4h9.7v2.9h-6.5V52H218v2.9h-6.2v2.9h6.9v2.9h-10Z" transform="translate(-41 -35)"/><path class="cls-1" d="M220.9,46.4h5.5a14.919,14.919,0,0,1,2.1.2,4.356,4.356,0,0,1,1.7.7,3.745,3.745,0,0,1,1.2,1.3,4.378,4.378,0,0,1,.4,2.1,4.457,4.457,0,0,1-.8,2.6,3.534,3.534,0,0,1-2.3,1.3l3.6,6h-3.8l-3-5.7H224v5.7h-3.1Zm3.2,5.9h2.8a2.92,2.92,0,0,0,.9-.2,1.024,1.024,0,0,0,.6-.5,1.222,1.222,0,0,0,.3-.9,2,2,0,0,0-.2-.9,1.024,1.024,0,0,0-.6-.5,1.884,1.884,0,0,0-.8-.2c-.3,0-.6-.1-.9-.1h-2.1Z" transform="translate(-41 -35)"/></svg>