<svg xmlns="http://www.w3.org/2000/svg" xmlns:xlink="http://www.w3.org/1999/xlink" viewBox="0 0 750 422"><defs><style>.cls-1,.cls-2{fill:none;}.cls-1{clip-rule:evenodd;}.cls-3{fill:#de7150;}.cls-4{fill:#fff;}.cls-5{clip-path:url(#clip-path);}.cls-6{clip-path:url(#clip-path-2);}.cls-7{clip-path:url(#clip-path-3);}</style><clipPath id="clip-path"><polygon class="cls-1" points="237.491 175.757 227.626 192.409 237.491 198.342 247.355 192.409 237.491 175.757"/></clipPath><clipPath id="clip-path-2"><rect class="cls-2" x="154.041" y="150.511" width="277.122" height="415.684"/></clipPath><clipPath id="clip-path-3"><polygon class="cls-1" points="237.343 200.242 227.479 194.312 237.343 208.455 247.214 194.312 237.343 200.242"/></clipPath></defs><title>qa-hero-logo</title><g id="Layer_1" data-name="Layer 1"><rect class="cls-3" width="750" height="422"/></g><g id="Layer_4" data-name="Layer 4"><path class="cls-4" d="M334.667,147.1h18.107v4.68H340.115v5.562h12.39v4.68h-12.39v5.946h12.659v4.719H334.667Z"/><path class="cls-4" d="M357.875,168.083v-9.666h-3.069v-4.259h3.069V149.1h4.91v5.063h3.759v4.259h-3.759v8.362c0,1.151.613,2.033,1.688,2.033a2.666,2.666,0,0,0,1.688-.537l1.035,3.683a6.013,6.013,0,0,1-4.066,1.189C359.716,173.147,357.875,171.382,357.875,168.083Z"/><path class="cls-4" d="M382.425,161.409c0-2.571-1.343-3.376-3.452-3.376a5.4,5.4,0,0,0-4.22,2.186v12.468h-4.872V147.1h4.872v9.475a8.575,8.575,0,0,1,6.521-2.877c4.066,0,6.023,2.225,6.023,5.831v13.158h-4.872Z"/><path class="cls-4" d="M400.53,153.7c5.525,0,9.283,4.143,9.283,10.2v1.074H396.042c.307,2.34,2.187,4.3,5.332,4.3a7.574,7.574,0,0,0,4.948-1.841l2.149,3.146a11.55,11.55,0,0,1-7.634,2.57c-5.64,0-9.9-3.8-9.9-9.744A9.43,9.43,0,0,1,400.53,153.7Zm-4.565,7.979H405.1a4.294,4.294,0,0,0-4.566-4.1A4.453,4.453,0,0,0,395.965,161.677Z"/><path class="cls-4" d="M413.342,154.158h4.871v2.532a7.93,7.93,0,0,1,5.908-2.954v4.757a5.989,5.989,0,0,0-5.908,1.957v12.237h-4.871Z"/><path class="cls-4" d="M435.552,153.7c5.524,0,9.283,4.143,9.283,10.2v1.074H431.063c.307,2.34,2.187,4.3,5.333,4.3a7.578,7.578,0,0,0,4.948-1.841l2.148,3.146a11.55,11.55,0,0,1-7.634,2.57c-5.639,0-9.9-3.8-9.9-9.744A9.43,9.43,0,0,1,435.552,153.7Zm-4.566,7.979h9.131a4.293,4.293,0,0,0-4.565-4.1A4.454,4.454,0,0,0,430.986,161.677Z"/><path class="cls-4" d="M460.869,170.347a8.673,8.673,0,0,1-6.521,2.8c-4.067,0-5.985-2.225-5.985-5.831V154.158h4.871V165.4c0,2.57,1.344,3.414,3.414,3.414a5.458,5.458,0,0,0,4.221-2.11V154.158h4.871v18.529h-4.871Z"/><path class="cls-4" d="M493.551,160.986c0-1.726-.768-2.953-2.762-2.953a4.919,4.919,0,0,0-3.836,2.148v12.506h-4.91v-11.7c0-1.726-.768-2.953-2.762-2.953a4.974,4.974,0,0,0-3.836,2.186v12.468h-4.873V154.158h4.873v2.417a8.1,8.1,0,0,1,6.061-2.877c2.723,0,4.449,1.266,5.14,3.376a7.865,7.865,0,0,1,6.368-3.376c3.414,0,5.447,1.8,5.447,5.6v13.388h-4.91Z"/><path class="cls-4" d="M356.84,215.462l1.88,2.187-3.8,3.107-2.033-2.416a14.353,14.353,0,0,1-6.1,1.3c-7.711,0-13.35-5.524-13.35-13.235s5.639-13.234,13.35-13.234c7.748,0,13.387,5.524,13.387,13.234A13.458,13.458,0,0,1,356.84,215.462Zm-7.365-1.112-2.915-3.414,3.8-3.069,2.915,3.414a9.146,9.146,0,0,0,1.305-4.872c0-4.795-3.069-8.4-7.787-8.4s-7.749,3.606-7.749,8.4c0,4.757,3.03,8.4,7.749,8.4A7.588,7.588,0,0,0,349.475,214.35Z"/><path class="cls-4" d="M379.012,214.771H367.581l-1.612,4.413h-5.984l9.9-25.587h6.828l9.858,25.587h-5.945Zm-9.974-4.718h8.478l-4.22-11.738Z"/><path class="cls-4" d="M398.766,193.6h18.106v4.679H404.213v5.563H416.6v4.68H404.213v5.946h12.659v4.719H398.766Z"/><path class="cls-4" d="M433.52,207.982c0-2.57-1.343-3.453-3.415-3.453a5.278,5.278,0,0,0-4.219,2.187v12.468h-4.872V200.655h4.872v2.417a8.479,8.479,0,0,1,6.483-2.877c4.067,0,6.022,2.3,6.022,5.907v13.082H433.52Z"/><path class="cls-4" d="M445.027,220.411a7.361,7.361,0,0,0,5.792,2.3c2.34,0,5.1-1.036,5.1-4.681v-1.879a7.219,7.219,0,0,1-5.717,2.915c-4.641,0-8.17-3.26-8.17-9.437,0-6.061,3.49-9.436,8.17-9.436a7.139,7.139,0,0,1,5.717,2.838v-2.378h4.91v17.262c0,7.059-5.447,8.785-10.013,8.785a11.222,11.222,0,0,1-7.979-2.762Zm10.9-13.772a5.286,5.286,0,0,0-4.182-2.11c-2.761,0-4.679,1.918-4.679,5.1s1.918,5.1,4.679,5.1a5.4,5.4,0,0,0,4.182-2.109Z"/><path class="cls-4" d="M465.166,195.361a2.915,2.915,0,1,1,2.915,2.915A2.938,2.938,0,0,1,465.166,195.361Zm.5,5.294h4.872v18.529h-4.872Z"/><path class="cls-4" d="M487.875,207.982c0-2.57-1.344-3.453-3.414-3.453a5.283,5.283,0,0,0-4.221,2.187v12.468h-4.871V200.655h4.871v2.417a8.485,8.485,0,0,1,6.484-2.877c4.066,0,6.022,2.3,6.022,5.907v13.082h-4.871Z"/><path class="cls-4" d="M505.98,200.2c5.524,0,9.284,4.142,9.284,10.2v1.075H501.492a4.993,4.993,0,0,0,5.332,4.3,7.575,7.575,0,0,0,4.948-1.842l2.148,3.145a11.541,11.541,0,0,1-7.633,2.571c-5.64,0-9.9-3.8-9.9-9.744A9.429,9.429,0,0,1,505.98,200.2Zm-4.565,7.979h9.13a4.292,4.292,0,0,0-4.565-4.105A4.453,4.453,0,0,0,501.415,208.174Z"/><path class="cls-4" d="M527.192,200.2c5.525,0,9.284,4.142,9.284,10.2v1.075H522.7a4.994,4.994,0,0,0,5.332,4.3,7.575,7.575,0,0,0,4.948-1.842l2.149,3.145a11.545,11.545,0,0,1-7.634,2.571c-5.64,0-9.9-3.8-9.9-9.744A9.429,9.429,0,0,1,527.192,200.2Zm-4.565,7.979h9.131a4.293,4.293,0,0,0-4.566-4.105A4.453,4.453,0,0,0,522.627,208.174Z"/><path class="cls-4" d="M540,200.655h4.871v2.532a7.926,7.926,0,0,1,5.908-2.954v4.757a6.14,6.14,0,0,0-1.343-.154,6.21,6.21,0,0,0-4.565,2.11v12.238H540Z"/><path class="cls-4" d="M333.44,252.905c0-7.864,5.946-13.234,13.426-13.234a11.807,11.807,0,0,1,10.9,6.253l-4.68,2.3a7.008,7.008,0,0,0-6.215-3.721c-4.449,0-7.825,3.567-7.825,8.4s3.376,8.4,7.825,8.4a6.938,6.938,0,0,0,6.215-3.722l4.68,2.264a11.879,11.879,0,0,1-10.9,6.291C339.386,266.14,333.44,260.77,333.44,252.905Z"/><path class="cls-4" d="M359.716,256.4a9.8,9.8,0,1,1,9.782,9.744A9.384,9.384,0,0,1,359.716,256.4Zm14.539,0c0-2.876-1.726-5.371-4.757-5.371s-4.718,2.5-4.718,5.371c0,2.916,1.688,5.409,4.718,5.409S374.255,259.312,374.255,256.4Z"/><path class="cls-4" d="M395.429,263.34a8.675,8.675,0,0,1-6.522,2.8c-4.065,0-5.984-2.225-5.984-5.831V247.151H387.8v11.24c0,2.57,1.343,3.414,3.414,3.414a5.453,5.453,0,0,0,4.22-2.11V247.151H400.3V265.68h-4.872Z"/><path class="cls-4" d="M405.133,247.151h4.872v2.532a7.924,7.924,0,0,1,5.907-2.954v4.757a5.989,5.989,0,0,0-5.907,1.956V265.68h-4.872Z"/><path class="cls-4" d="M419.441,259.849a10.608,10.608,0,0,0,6.407,2.532c2.109,0,3.106-.73,3.106-1.88,0-1.3-1.61-1.765-3.721-2.187-3.184-.614-7.288-1.38-7.288-5.793,0-3.106,2.723-5.83,7.6-5.83a11.834,11.834,0,0,1,7.481,2.532l-1.957,3.338a7.814,7.814,0,0,0-5.486-2.149c-1.764,0-2.915.652-2.915,1.726,0,1.151,1.458,1.573,3.529,2,3.184.614,7.443,1.458,7.443,6.061,0,3.375-2.877,5.946-8.018,5.946a12.477,12.477,0,0,1-8.286-2.877Z"/><path class="cls-4" d="M445.641,246.691c5.523,0,9.283,4.143,9.283,10.2v1.074H441.152c.307,2.34,2.186,4.3,5.332,4.3a7.58,7.58,0,0,0,4.949-1.842l2.147,3.145a11.541,11.541,0,0,1-7.633,2.571c-5.639,0-9.9-3.8-9.9-9.744A9.429,9.429,0,0,1,445.641,246.691Zm-4.566,7.979h9.13a4.292,4.292,0,0,0-4.564-4.1A4.453,4.453,0,0,0,441.075,254.67Z"/><g class="cls-5"><g class="cls-6"><rect class="cls-4" x="224.162" y="172.293" width="26.657" height="29.513"/></g></g><g class="cls-7"><g class="cls-6"><rect class="cls-4" x="224.015" y="190.848" width="26.663" height="21.071"/></g></g><path class="cls-4" d="M225.174,203.555a1.193,1.193,0,0,1-.846-.351l-9.24-9.24a1.2,1.2,0,0,1,0-1.692l8.494-8.494a1.2,1.2,0,1,1,1.691,1.692l-7.648,7.648,8.4,8.4a1.2,1.2,0,0,1-.846,2.042Z"/><path class="cls-4" d="M249.659,183.428a1.188,1.188,0,0,1,.846.35l9.241,9.241a1.2,1.2,0,0,1,0,1.691l-8.494,8.494a1.2,1.2,0,0,1-1.692-1.691l7.648-7.649-8.4-8.394a1.2,1.2,0,0,1,.846-2.042Z"/><path class="cls-4" d="M293.04,272.477h0l-25.925-45.609h0v0c-.137-.241-.99-.047-2.271.461l-2.669-4.695,14.057-8.116V169.7l-38.812-22.408L198.6,169.7v44.817l38.813,22.408,13.705-7.913,2.628,4.622c-1.092.841-1.695,1.474-1.558,1.716h0l25.927,45.61h0c.516.907,4.274-.256,8.393-2.6S293.552,273.386,293.04,272.477Zm-88.623-61.319v-38.1l33-19.053,33,19.053v38.1l-33,19.053Z"/></g></svg>