<svg id="Layer_1" data-name="Layer 1" xmlns="http://www.w3.org/2000/svg" viewBox="0 0 168.851 239.405"><defs><style>.cls-1,.cls-2{fill:#de7150;}.cls-1{fill-rule:evenodd;}</style></defs><title>qa-logo-orange</title><polygon class="cls-1" points="69.486 50.869 51.859 80.625 69.486 91.226 87.112 80.625 69.486 50.869"/><polygon class="cls-1" points="69.222 94.621 51.596 84.026 69.222 109.297 86.86 84.026 69.222 94.621"/><path class="cls-2" d="M65.685,110.136a2.131,2.131,0,0,1-1.512-.626L47.661,93a2.137,2.137,0,0,1,0-3.022L62.839,74.8a2.138,2.138,0,0,1,3.023,3.023L52.2,91.487l15,15a2.138,2.138,0,0,1-1.512,3.649Z" transform="translate(-18.207 -9.595)"/><path class="cls-2" d="M109.437,74.172a2.131,2.131,0,0,1,1.512.626L127.461,91.31a2.137,2.137,0,0,1,0,3.022L112.283,109.51a2.138,2.138,0,1,1-3.023-3.023l13.666-13.666-15-15a2.138,2.138,0,0,1,1.512-3.649Z" transform="translate(-18.207 -9.595)"/><path class="cls-2" d="M186.954,233.3h0v0l-46.327-81.5h0v-.006c-.245-.432-1.769-.084-4.057.823l-4.77-8.39,25.119-14.5V49.636L87.561,9.6,18.207,49.636V129.72l69.354,40.041,24.491-14.14,4.694,8.26c-1.95,1.5-3.028,2.634-2.783,3.065l0,0h0l46.328,81.5h0c.923,1.62,7.638-.459,15-4.644S187.868,234.919,186.954,233.3ZM28.593,123.724V55.632L87.561,21.587,146.53,55.632v68.092L87.561,157.769Z" transform="translate(-18.207 -9.595)"/></svg>