<svg id="Layer_1" data-name="Layer 1" xmlns="http://www.w3.org/2000/svg" xmlns:xlink="http://www.w3.org/1999/xlink" viewBox="0 0 750.81 186.697"><defs><style>.cls-1,.cls-2,.cls-4,.cls-5,.cls-6,.cls-8{fill:none;}.cls-1{clip-rule:evenodd;}.cls-3{fill:#de7150;}.cls-4,.cls-5,.cls-6{stroke:#de7150;stroke-linecap:round;stroke-width:3px;}.cls-4,.cls-5,.cls-6,.cls-8{stroke-miterlimit:10;}.cls-5{stroke-dasharray:11.742 11.742;}.cls-6{stroke-dasharray:11.6 11.6;}.cls-7{fill:#575756;}.cls-8{stroke:#575756;stroke-width:2px;}.cls-9{fill:#fff;}.cls-10{clip-path:url(#clip-path);}.cls-11{clip-path:url(#clip-path-2);}.cls-12{clip-path:url(#clip-path-3);}</style><clipPath id="clip-path" transform="translate(-198.803 -156.601)"><polygon class="cls-1" points="290.84 242.101 287.192 248.261 290.84 250.455 294.489 248.261 290.84 242.101"/></clipPath><clipPath id="clip-path-2" transform="translate(-198.803 -156.601)"><rect class="cls-2" x="259.974" y="232.763" width="102.504" height="153.755"/></clipPath><clipPath id="clip-path-3" transform="translate(-198.803 -156.601)"><polygon class="cls-1" points="290.786 251.158 287.137 248.964 290.786 254.196 294.437 248.964 290.786 251.158"/></clipPath></defs><title>qa-timeline</title><rect class="cls-3" x="44.02" y="62.943" width="286.177" height="73.612"/><polyline class="cls-4" points="708.604 127.899 708.604 133.899 702.604 133.899"/><line class="cls-5" x1="690.862" y1="133.899" x2="344.488" y2="133.899"/><polyline class="cls-4" points="338.617 133.899 332.617 133.899 332.617 127.899"/><line class="cls-6" x1="332.617" y1="116.299" x2="332.617" y2="75.699"/><polyline class="cls-4" points="332.617 69.899 332.617 63.899 338.617 63.899"/><line class="cls-5" x1="350.359" y1="63.899" x2="696.733" y2="63.899"/><polyline class="cls-4" points="702.604 63.899 708.604 63.899 708.604 69.899"/><line class="cls-6" x1="708.604" y1="81.499" x2="708.604" y2="122.099"/><path class="cls-7" d="M200.344,166.5a5.846,5.846,0,0,0,4.24,1.8c1.561,0,2.321-.74,2.321-1.5,0-1-1.16-1.341-2.7-1.7-2.181-.5-4.981-1.1-4.981-4.082,0-2.22,1.92-4.021,5.061-4.021a7.423,7.423,0,0,1,5.2,1.861l-1.581,2.08a5.692,5.692,0,0,0-3.821-1.46c-1.28,0-1.96.56-1.96,1.36,0,.9,1.12,1.18,2.661,1.541,2.2.5,5,1.16,5,4.12,0,2.441-1.741,4.282-5.341,4.282a7.608,7.608,0,0,1-5.642-2.121Z" transform="translate(-198.803 -156.601)"/><path class="cls-7" d="M211.924,168.143V163.1h-1.6v-2.221h1.6v-2.64h2.56v2.64h1.961V163.1h-1.961v4.361c0,.6.321,1.06.881,1.06a1.388,1.388,0,0,0,.88-.28l.54,1.921a3.141,3.141,0,0,1-2.12.62A2.415,2.415,0,0,1,211.924,168.143Z" transform="translate(-198.803 -156.601)"/><path class="cls-7" d="M223.985,169.543a4,4,0,0,1-3.061,1.241,3.22,3.22,0,0,1-3.361-3.2,3.06,3.06,0,0,1,3.361-3.081,3.9,3.9,0,0,1,3.061,1.181v-1.341c0-.98-.84-1.62-2.121-1.62a4.065,4.065,0,0,0-2.82,1.14l-.961-1.7a6.343,6.343,0,0,1,4.222-1.521c2.2,0,4.22.88,4.22,3.661v6.241h-2.54Zm0-2.521a2.541,2.541,0,0,0-2.041-.839c-1,0-1.82.52-1.82,1.46,0,.9.82,1.42,1.82,1.42a2.541,2.541,0,0,0,2.041-.84Z" transform="translate(-198.803 -156.601)"/><path class="cls-7" d="M229.043,160.881h2.541V162.2a4.13,4.13,0,0,1,3.081-1.541v2.481a3.122,3.122,0,0,0-3.081,1.02v6.381h-2.541Z" transform="translate(-198.803 -156.601)"/><path class="cls-7" d="M236.743,168.143V163.1h-1.6v-2.221h1.6v-2.64H239.3v2.64h1.96V163.1H239.3v4.361c0,.6.32,1.06.88,1.06a1.388,1.388,0,0,0,.88-.28l.54,1.921a3.141,3.141,0,0,1-2.12.62A2.416,2.416,0,0,1,236.743,168.143Z" transform="translate(-198.803 -156.601)"/><path class="cls-7" d="M254.765,169.3a3.754,3.754,0,0,1-2.981,1.481c-2.441,0-4.281-1.841-4.281-5.061,0-3.161,1.82-5.082,4.281-5.082a3.725,3.725,0,0,1,2.981,1.481V157.2h2.56v13.342h-2.56Zm0-5.3a2.767,2.767,0,0,0-2.2-1.1,2.839,2.839,0,0,0,0,5.621,2.767,2.767,0,0,0,2.2-1.1Z" transform="translate(-198.803 -156.601)"/><path class="cls-7" d="M265.645,169.543a4,4,0,0,1-3.061,1.241,3.219,3.219,0,0,1-3.361-3.2,3.06,3.06,0,0,1,3.361-3.081,3.905,3.905,0,0,1,3.061,1.181v-1.341c0-.98-.841-1.62-2.121-1.62a4.063,4.063,0,0,0-2.82,1.14l-.961-1.7a6.34,6.34,0,0,1,4.221-1.521c2.2,0,4.221.88,4.221,3.661v6.241h-2.54Zm0-2.521a2.542,2.542,0,0,0-2.041-.839c-1,0-1.82.52-1.82,1.46,0,.9.82,1.42,1.82,1.42a2.543,2.543,0,0,0,2.041-.84Z" transform="translate(-198.803 -156.601)"/><path class="cls-7" d="M271.2,168.143V163.1h-1.6v-2.221h1.6v-2.64h2.561v2.64h1.96V163.1h-1.96v4.361c0,.6.32,1.06.88,1.06a1.388,1.388,0,0,0,.88-.28l.54,1.921a3.141,3.141,0,0,1-2.12.62A2.416,2.416,0,0,1,271.2,168.143Z" transform="translate(-198.803 -156.601)"/><path class="cls-7" d="M281.844,160.641c2.881,0,4.841,2.161,4.841,5.321v.56H279.5a2.6,2.6,0,0,0,2.781,2.241,3.95,3.95,0,0,0,2.58-.96l1.121,1.64A6.026,6.026,0,0,1,282,170.784a5.072,5.072,0,1,1-.16-10.143Zm-2.381,4.161h4.761a2.237,2.237,0,0,0-2.38-2.14A2.322,2.322,0,0,0,279.463,164.8Z" transform="translate(-198.803 -156.601)"/><path class="cls-7" d="M467.69,163.882a6.754,6.754,0,0,1,7-6.9,6.158,6.158,0,0,1,5.682,3.261l-2.441,1.2a3.654,3.654,0,0,0-3.241-1.94,4.392,4.392,0,0,0,0,8.762,3.617,3.617,0,0,0,3.241-1.94l2.441,1.18a6.194,6.194,0,0,1-5.682,3.281A6.754,6.754,0,0,1,467.69,163.882Z" transform="translate(-198.803 -156.601)"/><path class="cls-7" d="M481.39,165.7a5.111,5.111,0,1,1,5.1,5.081A4.894,4.894,0,0,1,481.39,165.7Zm7.581,0a2.492,2.492,0,1,0-2.48,2.82A2.55,2.55,0,0,0,488.971,165.7Z" transform="translate(-198.803 -156.601)"/><path class="cls-7" d="M500.011,169.323a4.522,4.522,0,0,1-3.4,1.461,2.767,2.767,0,0,1-3.12-3.041v-6.862h2.54v5.862a1.553,1.553,0,0,0,1.781,1.78,2.843,2.843,0,0,0,2.2-1.1v-6.542h2.541v9.662h-2.541Z" transform="translate(-198.803 -156.601)"/><path class="cls-7" d="M505.07,160.881h2.54V162.2a4.134,4.134,0,0,1,3.081-1.541v2.481a3.122,3.122,0,0,0-3.081,1.02v6.381h-2.54Z" transform="translate(-198.803 -156.601)"/><path class="cls-7" d="M512.53,167.5a5.529,5.529,0,0,0,3.34,1.32c1.1,0,1.621-.38,1.621-.98,0-.68-.841-.92-1.941-1.14-1.66-.32-3.8-.721-3.8-3.021,0-1.62,1.42-3.041,3.96-3.041a6.177,6.177,0,0,1,3.9,1.32l-1.02,1.741a4.076,4.076,0,0,0-2.861-1.12c-.92,0-1.52.34-1.52.9,0,.6.76.82,1.84,1.04,1.661.32,3.881.76,3.881,3.161,0,1.76-1.5,3.1-4.181,3.1a6.5,6.5,0,0,1-4.321-1.5Z" transform="translate(-198.803 -156.601)"/><path class="cls-7" d="M526.19,160.641c2.881,0,4.841,2.161,4.841,5.321v.56H523.85a2.6,2.6,0,0,0,2.78,2.241,3.95,3.95,0,0,0,2.58-.96l1.121,1.64a6.023,6.023,0,0,1-3.981,1.341,5.072,5.072,0,1,1-.16-10.143Zm-2.38,4.161h4.76a2.236,2.236,0,0,0-2.38-2.14A2.321,2.321,0,0,0,523.81,164.8Z" transform="translate(-198.803 -156.601)"/><path class="cls-7" d="M538.549,163.1h-1.6v-2.221h1.6v-.52A3.115,3.115,0,0,1,541.81,157a4.107,4.107,0,0,1,1.84.4l-.52,1.84a1.424,1.424,0,0,0-.82-.24c-.721,0-1.2.48-1.2,1.36v.52h1.961V163.1h-1.961v7.441h-2.56Zm5.721-4.981a1.521,1.521,0,1,1,1.521,1.52A1.532,1.532,0,0,1,544.27,158.121Zm.26,2.76h2.541v9.662H544.53Z" transform="translate(-198.803 -156.601)"/><path class="cls-7" d="M556.11,164.7a1.567,1.567,0,0,0-1.78-1.8,2.753,2.753,0,0,0-2.2,1.14v6.5h-2.54v-9.662h2.54v1.261a4.424,4.424,0,0,1,3.381-1.5,2.811,2.811,0,0,1,3.141,3.081v6.821H556.11Z" transform="translate(-198.803 -156.601)"/><path class="cls-7" d="M560.908,158.121a1.521,1.521,0,1,1,1.521,1.52A1.532,1.532,0,0,1,560.908,158.121Zm.26,2.76h2.541v9.662h-2.541Z" transform="translate(-198.803 -156.601)"/><path class="cls-7" d="M566.489,167.5a5.529,5.529,0,0,0,3.34,1.32c1.1,0,1.621-.38,1.621-.98,0-.68-.841-.92-1.941-1.14-1.66-.32-3.8-.721-3.8-3.021,0-1.62,1.421-3.041,3.961-3.041a6.177,6.177,0,0,1,3.9,1.32l-1.02,1.741a4.076,4.076,0,0,0-2.861-1.12c-.92,0-1.52.34-1.52.9,0,.6.76.82,1.84,1.04,1.661.32,3.881.76,3.881,3.161,0,1.76-1.5,3.1-4.181,3.1a6.5,6.5,0,0,1-4.321-1.5Z" transform="translate(-198.803 -156.601)"/><path class="cls-7" d="M582.31,164.662c0-1.34-.7-1.76-1.8-1.76a2.814,2.814,0,0,0-2.2,1.14v6.5h-2.541V157.2h2.541v4.941a4.467,4.467,0,0,1,3.4-1.5c2.121,0,3.141,1.161,3.141,3.041v6.861h-2.54Z" transform="translate(-198.803 -156.601)"/><path class="cls-7" d="M257.165,325.834a6.018,6.018,0,0,1,3.94,1.38l-1.28,2.14a3.555,3.555,0,0,0-2.66-1.06c-2.021,0-3.341,1.741-3.341,3.861a1.243,1.243,0,0,0,.02.281,4.324,4.324,0,0,1,3.421-1.7c2.4,0,4.541,1.461,4.541,4.3,0,2.6-2.061,4.581-5.1,4.581-4.061,0-5.762-3.121-5.762-6.882C250.943,328.694,253.224,325.834,257.165,325.834Zm-.721,7.262a3.421,3.421,0,0,0-2.6,1.28,2.723,2.723,0,0,0,2.72,2.76,2.146,2.146,0,0,0,2.361-1.98C258.925,333.716,257.745,333.1,256.444,333.1Z" transform="translate(-198.803 -156.601)"/><path class="cls-7" d="M275.245,332.8l-2.041,6.582h-2.721l-2.94-9.662h2.641l1.8,6.5,2.12-6.5h2.261l2.12,6.5,1.8-6.5h2.64l-2.94,9.662h-2.7Z" transform="translate(-198.803 -156.601)"/><path class="cls-7" d="M288.564,329.475c2.881,0,4.841,2.16,4.841,5.321v.559h-7.181A2.6,2.6,0,0,0,289,337.6a3.951,3.951,0,0,0,2.58-.961l1.121,1.64a6.023,6.023,0,0,1-3.981,1.341,5.072,5.072,0,1,1-.16-10.142Zm-2.38,4.161h4.76a2.236,2.236,0,0,0-2.38-2.141A2.322,2.322,0,0,0,286.184,333.636Z" transform="translate(-198.803 -156.601)"/><path class="cls-7" d="M299.624,329.475c2.88,0,4.841,2.16,4.841,5.321v.559h-7.182a2.6,2.6,0,0,0,2.78,2.242,3.952,3.952,0,0,0,2.581-.961l1.121,1.64a6.026,6.026,0,0,1-3.981,1.341,5.072,5.072,0,1,1-.16-10.142Zm-2.381,4.161H302a2.238,2.238,0,0,0-2.38-2.141A2.322,2.322,0,0,0,297.243,333.636Z" transform="translate(-198.803 -156.601)"/><path class="cls-7" d="M310,335.656l-1.16,1.24v2.481H306.3V326.034h2.54v7.982l3.661-4.3h3.121L311.8,334.1l3.941,5.281h-3.181Z" transform="translate(-198.803 -156.601)"/><path class="cls-7" d="M317.123,336.336a5.529,5.529,0,0,0,3.34,1.32c1.1,0,1.621-.38,1.621-.98,0-.68-.84-.92-1.94-1.14-1.661-.32-3.8-.721-3.8-3.02,0-1.621,1.42-3.041,3.961-3.041a6.176,6.176,0,0,1,3.9,1.32l-1.021,1.74a4.075,4.075,0,0,0-2.86-1.12c-.921,0-1.521.34-1.521.9,0,.6.76.821,1.841,1.04,1.66.321,3.88.76,3.88,3.161,0,1.76-1.5,3.1-4.18,3.1a6.5,6.5,0,0,1-4.322-1.5Z" transform="translate(-198.803 -156.601)"/><path class="cls-7" d="M331.783,336.336a5.529,5.529,0,0,0,3.34,1.32c1.1,0,1.621-.38,1.621-.98,0-.68-.841-.92-1.941-1.14-1.66-.32-3.8-.721-3.8-3.02,0-1.621,1.421-3.041,3.961-3.041a6.171,6.171,0,0,1,3.9,1.32l-1.02,1.74a4.076,4.076,0,0,0-2.861-1.12c-.92,0-1.52.34-1.52.9,0,.6.76.821,1.84,1.04,1.661.321,3.881.76,3.881,3.161,0,1.76-1.5,3.1-4.181,3.1a6.5,6.5,0,0,1-4.321-1.5Z" transform="translate(-198.803 -156.601)"/><path class="cls-7" d="M347.584,338.156a4.522,4.522,0,0,1-3.4,1.461,2.767,2.767,0,0,1-3.121-3.041v-6.861H343.6v5.861a1.553,1.553,0,0,0,1.78,1.78,2.844,2.844,0,0,0,2.2-1.1v-6.541h2.541v9.662h-2.541Z" transform="translate(-198.803 -156.601)"/><path class="cls-7" d="M352.642,343.058V329.715h2.541v1.22a3.732,3.732,0,0,1,2.98-1.46c2.481,0,4.281,1.84,4.281,5.061s-1.8,5.081-4.281,5.081a3.691,3.691,0,0,1-2.98-1.48v4.921Zm4.721-11.323a2.845,2.845,0,0,0-2.18,1.1v3.421a2.909,2.909,0,0,0,2.18,1.1c1.46,0,2.441-1.14,2.441-2.82A2.505,2.505,0,0,0,357.363,331.735Z" transform="translate(-198.803 -156.601)"/><path class="cls-7" d="M364.342,343.058V329.715h2.541v1.22a3.732,3.732,0,0,1,2.98-1.46c2.481,0,4.282,1.84,4.282,5.061s-1.8,5.081-4.282,5.081a3.691,3.691,0,0,1-2.98-1.48v4.921Zm4.721-11.323a2.845,2.845,0,0,0-2.18,1.1v3.421a2.909,2.909,0,0,0,2.18,1.1c1.46,0,2.441-1.14,2.441-2.82A2.505,2.505,0,0,0,369.063,331.735Z" transform="translate(-198.803 -156.601)"/><path class="cls-7" d="M375.422,334.536a5.111,5.111,0,1,1,5.1,5.081A4.893,4.893,0,0,1,375.422,334.536Zm7.581,0a2.492,2.492,0,1,0-2.48,2.82A2.549,2.549,0,0,0,383,334.536Z" transform="translate(-198.803 -156.601)"/><path class="cls-7" d="M387.521,329.715h2.541v1.32a4.134,4.134,0,0,1,3.081-1.541v2.482A3.124,3.124,0,0,0,390.062,333v6.382h-2.541Z" transform="translate(-198.803 -156.601)"/><path class="cls-7" d="M395.221,336.977v-5.041h-1.6v-2.221h1.6v-2.641h2.561v2.641h1.96v2.221h-1.96v4.36c0,.6.32,1.06.88,1.06a1.388,1.388,0,0,0,.88-.28l.541,1.921a3.141,3.141,0,0,1-2.121.62A2.415,2.415,0,0,1,395.221,336.977Z" transform="translate(-198.803 -156.601)"/><path class="cls-7" d="M405.862,329.475c2.881,0,4.842,2.16,4.842,5.321v.559h-7.182A2.6,2.6,0,0,0,406.3,337.6a3.951,3.951,0,0,0,2.58-.961l1.12,1.64a6.023,6.023,0,0,1-3.981,1.341,5.072,5.072,0,1,1-.16-10.142Zm-2.38,4.161h4.761a2.238,2.238,0,0,0-2.381-2.141A2.322,2.322,0,0,0,403.482,333.636Z" transform="translate(-198.803 -156.601)"/><path class="cls-7" d="M419.183,338.137a3.753,3.753,0,0,1-2.981,1.48c-2.441,0-4.281-1.841-4.281-5.061,0-3.161,1.82-5.081,4.281-5.081a3.724,3.724,0,0,1,2.981,1.48v-4.921h2.56v13.343h-2.56Zm0-5.3a2.767,2.767,0,0,0-2.2-1.1,2.839,2.839,0,0,0,0,5.621,2.767,2.767,0,0,0,2.2-1.1Z" transform="translate(-198.803 -156.601)"/><path class="cls-7" d="M440.884,339.377h-3.241c-.28-.261-.62-.62-1-1a5.881,5.881,0,0,1-3.641,1.24c-2.44,0-4.4-1.28-4.4-3.861,0-2.04,1.34-3.081,2.881-3.86a6.18,6.18,0,0,1-.9-2.862c0-1.8,1.6-3.2,3.82-3.2,1.881,0,3.5,1.04,3.5,2.82,0,2.041-1.62,2.9-3.26,3.661.379.54.8,1.04,1.14,1.441.38.479.74.92,1.12,1.36a9.349,9.349,0,0,0,1.22-2.581l2.041.941a15.826,15.826,0,0,1-1.861,3.2C439.1,337.557,439.944,338.437,440.884,339.377Zm-5.6-2.461c-.6-.66-1.16-1.28-1.481-1.681-.44-.54-.9-1.139-1.34-1.759a2.4,2.4,0,0,0-1.16,2.04,2.017,2.017,0,0,0,2.06,2.1A3.329,3.329,0,0,0,435.283,336.916Zm-1.581-6.041c1.141-.521,2-1.1,2-2.08a1.1,1.1,0,0,0-1.181-1.121,1.384,1.384,0,0,0-1.4,1.421A3.95,3.95,0,0,0,433.7,330.875Z" transform="translate(-198.803 -156.601)"/><path class="cls-7" d="M453.942,338.156a4.522,4.522,0,0,1-3.4,1.461,2.767,2.767,0,0,1-3.121-3.041v-6.861h2.54v5.861a1.554,1.554,0,0,0,1.781,1.78,2.843,2.843,0,0,0,2.2-1.1v-6.541h2.541v9.662h-2.541Z" transform="translate(-198.803 -156.601)"/><path class="cls-7" d="M459,343.058V329.715h2.541v1.22a3.732,3.732,0,0,1,2.98-1.46c2.481,0,4.281,1.84,4.281,5.061s-1.8,5.081-4.281,5.081a3.691,3.691,0,0,1-2.98-1.48v4.921Zm4.721-11.323a2.843,2.843,0,0,0-2.18,1.1v3.421a2.907,2.907,0,0,0,2.18,1.1c1.46,0,2.441-1.14,2.441-2.82A2.505,2.505,0,0,0,463.722,331.735Z" transform="translate(-198.803 -156.601)"/><path class="cls-7" d="M477.342,338.137a3.752,3.752,0,0,1-2.981,1.48c-2.44,0-4.28-1.841-4.28-5.061,0-3.161,1.82-5.081,4.28-5.081a3.721,3.721,0,0,1,2.981,1.48v-4.921H479.9v13.343h-2.561Zm0-5.3a2.763,2.763,0,0,0-2.2-1.1,2.838,2.838,0,0,0,0,5.621,2.763,2.763,0,0,0,2.2-1.1Z" transform="translate(-198.803 -156.601)"/><path class="cls-7" d="M488.222,338.377a4,4,0,0,1-3.061,1.24,3.22,3.22,0,0,1-3.361-3.2,3.06,3.06,0,0,1,3.361-3.081,3.9,3.9,0,0,1,3.061,1.181v-1.34c0-.981-.841-1.621-2.121-1.621a4.069,4.069,0,0,0-2.82,1.14l-.961-1.7a6.34,6.34,0,0,1,4.222-1.52c2.2,0,4.22.879,4.22,3.661v6.241h-2.54Zm0-2.522a2.545,2.545,0,0,0-2.041-.839c-1,0-1.82.52-1.82,1.461,0,.9.82,1.419,1.82,1.419a2.545,2.545,0,0,0,2.041-.839Z" transform="translate(-198.803 -156.601)"/><path class="cls-7" d="M493.781,336.977v-5.041h-1.6v-2.221h1.6v-2.641h2.56v2.641H498.3v2.221h-1.961v4.36c0,.6.321,1.06.881,1.06a1.388,1.388,0,0,0,.88-.28l.54,1.921a3.137,3.137,0,0,1-2.121.62A2.415,2.415,0,0,1,493.781,336.977Z" transform="translate(-198.803 -156.601)"/><path class="cls-7" d="M504.421,329.475c2.881,0,4.842,2.16,4.842,5.321v.559h-7.182a2.6,2.6,0,0,0,2.78,2.242,3.952,3.952,0,0,0,2.581-.961l1.12,1.64a6.022,6.022,0,0,1-3.98,1.341,5.072,5.072,0,1,1-.161-10.142Zm-2.38,4.161H506.8a2.238,2.238,0,0,0-2.381-2.141A2.322,2.322,0,0,0,502.041,333.636Z" transform="translate(-198.803 -156.601)"/><path class="cls-7" d="M517.742,338.137a3.75,3.75,0,0,1-2.981,1.48c-2.44,0-4.281-1.841-4.281-5.061,0-3.161,1.821-5.081,4.281-5.081a3.721,3.721,0,0,1,2.981,1.48v-4.921H520.3v13.343h-2.561Zm0-5.3a2.763,2.763,0,0,0-2.2-1.1,2.838,2.838,0,0,0,0,5.621,2.763,2.763,0,0,0,2.2-1.1Z" transform="translate(-198.803 -156.601)"/><path class="cls-7" d="M595.066,332.5c-1.48-.519-2.64-1.48-2.64-3.141,0-2.5,2.66-3.52,5.141-3.52,2.461,0,5.141,1.02,5.141,3.52,0,1.661-1.181,2.622-2.66,3.141a3.852,3.852,0,0,1,2.88,3.421c0,2.48-2.56,3.7-5.361,3.7s-5.361-1.2-5.361-3.7A3.83,3.83,0,0,1,595.066,332.5Zm2.5,1.261c-.84.1-2.481.66-2.481,1.82,0,.98,1.081,1.6,2.481,1.6,1.36,0,2.481-.62,2.481-1.6C600.048,334.416,598.387,333.855,597.567,333.756Zm0-5.482c-1.32,0-2.26.58-2.26,1.521,0,1.04,1.44,1.5,2.26,1.62.82-.12,2.241-.58,2.241-1.62C599.808,328.854,598.868,328.274,597.567,328.274Z" transform="translate(-198.803 -156.601)"/><path class="cls-7" d="M616.447,332.8l-2.041,6.582h-2.72l-2.941-9.662h2.641l1.8,6.5,2.12-6.5h2.26l2.121,6.5,1.8-6.5h2.641l-2.941,9.662h-2.7Z" transform="translate(-198.803 -156.601)"/><path class="cls-7" d="M629.767,329.475c2.88,0,4.84,2.16,4.84,5.321v.559h-7.181a2.6,2.6,0,0,0,2.78,2.242,3.954,3.954,0,0,0,2.581-.961l1.12,1.64a6.022,6.022,0,0,1-3.98,1.341,5.072,5.072,0,1,1-.16-10.142Zm-2.381,4.161h4.76a2.236,2.236,0,0,0-2.379-2.141A2.323,2.323,0,0,0,627.386,333.636Z" transform="translate(-198.803 -156.601)"/><path class="cls-7" d="M640.826,329.475c2.881,0,4.842,2.16,4.842,5.321v.559h-7.182a2.6,2.6,0,0,0,2.781,2.242,3.951,3.951,0,0,0,2.58-.961l1.121,1.64a6.027,6.027,0,0,1-3.982,1.341,5.072,5.072,0,1,1-.16-10.142Zm-2.38,4.161h4.761a2.238,2.238,0,0,0-2.381-2.141A2.322,2.322,0,0,0,638.446,333.636Z" transform="translate(-198.803 -156.601)"/><path class="cls-7" d="M651.206,335.656l-1.16,1.24v2.481h-2.541V326.034h2.541v7.982l3.66-4.3h3.121l-3.821,4.381,3.941,5.281h-3.18Z" transform="translate(-198.803 -156.601)"/><path class="cls-7" d="M658.325,336.336a5.532,5.532,0,0,0,3.341,1.32c1.1,0,1.62-.38,1.62-.98,0-.68-.84-.92-1.94-1.14-1.66-.32-3.8-.721-3.8-3.02,0-1.621,1.421-3.041,3.961-3.041a6.176,6.176,0,0,1,3.9,1.32l-1.02,1.74a4.078,4.078,0,0,0-2.861-1.12c-.921,0-1.52.34-1.52.9,0,.6.76.821,1.84,1.04,1.661.321,3.881.76,3.881,3.161,0,1.76-1.5,3.1-4.181,3.1a6.5,6.5,0,0,1-4.321-1.5Z" transform="translate(-198.803 -156.601)"/><path class="cls-7" d="M677.226,329.475a4.5,4.5,0,0,1,3.821,1.74l-1.66,1.56a2.345,2.345,0,0,0-2.041-1.04,2.817,2.817,0,0,0,0,5.621,2.441,2.441,0,0,0,2.041-1.04l1.66,1.54a4.454,4.454,0,0,1-3.821,1.761,5.071,5.071,0,1,1,0-10.142Z" transform="translate(-198.803 -156.601)"/><path class="cls-7" d="M682.085,334.536a5.111,5.111,0,1,1,5.1,5.081A4.893,4.893,0,0,1,682.085,334.536Zm7.581,0a2.492,2.492,0,1,0-2.48,2.82A2.549,2.549,0,0,0,689.666,334.536Z" transform="translate(-198.803 -156.601)"/><path class="cls-7" d="M706.167,333.275c0-.9-.4-1.54-1.439-1.54a2.565,2.565,0,0,0-2,1.12v6.522h-2.561v-6.1c0-.9-.4-1.54-1.44-1.54a2.591,2.591,0,0,0-2,1.14v6.5h-2.541v-9.662h2.541v1.26a4.222,4.222,0,0,1,3.16-1.5,2.555,2.555,0,0,1,2.68,1.76,4.1,4.1,0,0,1,3.322-1.76,2.579,2.579,0,0,1,2.84,2.921v6.981h-2.561Z" transform="translate(-198.803 -156.601)"/><path class="cls-7" d="M723.207,333.275c0-.9-.4-1.54-1.44-1.54a2.561,2.561,0,0,0-2,1.12v6.522h-2.561v-6.1c0-.9-.4-1.54-1.44-1.54a2.593,2.593,0,0,0-2,1.14v6.5h-2.54v-9.662h2.54v1.26a4.226,4.226,0,0,1,3.161-1.5,2.556,2.556,0,0,1,2.68,1.76,4.1,4.1,0,0,1,3.321-1.76,2.58,2.58,0,0,1,2.841,2.921v6.981h-2.561Z" transform="translate(-198.803 -156.601)"/><path class="cls-7" d="M734.786,338.156a4.522,4.522,0,0,1-3.4,1.461,2.767,2.767,0,0,1-3.12-3.041v-6.861h2.54v5.861a1.553,1.553,0,0,0,1.78,1.78,2.845,2.845,0,0,0,2.2-1.1v-6.541h2.54v9.662h-2.54Z" transform="translate(-198.803 -156.601)"/><path class="cls-7" d="M746.365,333.535a1.567,1.567,0,0,0-1.78-1.8,2.751,2.751,0,0,0-2.2,1.14v6.5h-2.541v-9.662h2.541v1.26a4.421,4.421,0,0,1,3.381-1.5,2.81,2.81,0,0,1,3.14,3.081v6.821h-2.541Z" transform="translate(-198.803 -156.601)"/><path class="cls-7" d="M751.164,326.954a1.521,1.521,0,1,1,1.521,1.521A1.532,1.532,0,0,1,751.164,326.954Zm.26,2.761h2.541v9.662h-2.541Z" transform="translate(-198.803 -156.601)"/><path class="cls-7" d="M756.983,336.977v-5.041h-1.6v-2.221h1.6v-2.641h2.561v2.641h1.961v2.221h-1.961v4.36c0,.6.32,1.06.881,1.06a1.388,1.388,0,0,0,.88-.28l.54,1.921a3.138,3.138,0,0,1-2.12.62A2.416,2.416,0,0,1,756.983,336.977Z" transform="translate(-198.803 -156.601)"/><path class="cls-7" d="M764.084,341.037a1.283,1.283,0,0,0,1.341-.7l.359-.82-3.921-9.8h2.721l2.52,6.722,2.521-6.722h2.741l-4.541,11.242a3.513,3.513,0,0,1-3.661,2.341,6.946,6.946,0,0,1-1.26-.141l.38-2.28A2.195,2.195,0,0,0,764.084,341.037Z" transform="translate(-198.803 -156.601)"/><path class="cls-7" d="M778.884,336.336a5.527,5.527,0,0,0,3.34,1.32c1.1,0,1.621-.38,1.621-.98,0-.68-.841-.92-1.941-1.14-1.661-.32-3.8-.721-3.8-3.02,0-1.621,1.419-3.041,3.96-3.041a6.174,6.174,0,0,1,3.9,1.32l-1.021,1.74a4.073,4.073,0,0,0-2.86-1.12c-.92,0-1.521.34-1.521.9,0,.6.761.821,1.841,1.04,1.66.321,3.881.76,3.881,3.161,0,1.76-1.5,3.1-4.181,3.1a6.5,6.5,0,0,1-4.321-1.5Z" transform="translate(-198.803 -156.601)"/><path class="cls-7" d="M794.685,338.156a4.526,4.526,0,0,1-3.4,1.461,2.767,2.767,0,0,1-3.121-3.041v-6.861H790.7v5.861a1.553,1.553,0,0,0,1.78,1.78,2.844,2.844,0,0,0,2.2-1.1v-6.541h2.541v9.662h-2.541Z" transform="translate(-198.803 -156.601)"/><path class="cls-7" d="M799.743,343.058V329.715h2.54v1.22a3.734,3.734,0,0,1,2.981-1.46c2.481,0,4.281,1.84,4.281,5.061s-1.8,5.081-4.281,5.081a3.693,3.693,0,0,1-2.981-1.48v4.921Zm4.721-11.323a2.847,2.847,0,0,0-2.181,1.1v3.421a2.911,2.911,0,0,0,2.181,1.1c1.46,0,2.44-1.14,2.44-2.82A2.5,2.5,0,0,0,804.464,331.735Z" transform="translate(-198.803 -156.601)"/><path class="cls-7" d="M811.443,343.058V329.715h2.54v1.22a3.735,3.735,0,0,1,2.981-1.46c2.481,0,4.281,1.84,4.281,5.061s-1.8,5.081-4.281,5.081a3.694,3.694,0,0,1-2.981-1.48v4.921Zm4.721-11.323a2.847,2.847,0,0,0-2.181,1.1v3.421a2.911,2.911,0,0,0,2.181,1.1c1.46,0,2.44-1.14,2.44-2.82A2.5,2.5,0,0,0,816.164,331.735Z" transform="translate(-198.803 -156.601)"/><path class="cls-7" d="M822.522,334.536a5.112,5.112,0,1,1,5.1,5.081A4.894,4.894,0,0,1,822.522,334.536Zm7.582,0a2.492,2.492,0,1,0-2.48,2.82A2.55,2.55,0,0,0,830.1,334.536Z" transform="translate(-198.803 -156.601)"/><path class="cls-7" d="M834.623,329.715h2.54v1.32a4.137,4.137,0,0,1,3.081-1.541v2.482A3.124,3.124,0,0,0,837.163,333v6.382h-2.54Z" transform="translate(-198.803 -156.601)"/><path class="cls-7" d="M842.322,336.977v-5.041h-1.6v-2.221h1.6v-2.641h2.561v2.641h1.96v2.221h-1.96v4.36c0,.6.32,1.06.88,1.06a1.388,1.388,0,0,0,.88-.28l.541,1.921a3.142,3.142,0,0,1-2.122.62A2.415,2.415,0,0,1,842.322,336.977Z" transform="translate(-198.803 -156.601)"/><path class="cls-7" d="M871.032,157.2h9.442v2.44h-6.6v2.9h6.462v2.44h-6.462v3.1h6.6v2.46h-9.442Z" transform="translate(-198.803 -156.601)"/><path class="cls-7" d="M889.153,164.7a1.567,1.567,0,0,0-1.78-1.8,2.752,2.752,0,0,0-2.2,1.14v6.5h-2.54v-9.662h2.54v1.261a4.423,4.423,0,0,1,3.381-1.5,2.81,2.81,0,0,1,3.14,3.081v6.821h-2.54Z" transform="translate(-198.803 -156.601)"/><path class="cls-7" d="M900.854,169.3a3.756,3.756,0,0,1-2.982,1.481c-2.44,0-4.28-1.841-4.28-5.061,0-3.161,1.82-5.082,4.28-5.082a3.725,3.725,0,0,1,2.982,1.481V157.2h2.56v13.342h-2.56Zm0-5.3a2.767,2.767,0,0,0-2.2-1.1,2.839,2.839,0,0,0,0,5.621,2.767,2.767,0,0,0,2.2-1.1Z" transform="translate(-198.803 -156.601)"/><path class="cls-7" d="M917.693,169.3a3.753,3.753,0,0,1-2.981,1.481c-2.441,0-4.28-1.841-4.28-5.061,0-3.161,1.82-5.082,4.28-5.082a3.722,3.722,0,0,1,2.981,1.481V157.2h2.561v13.342h-2.561Zm0-5.3a2.765,2.765,0,0,0-2.2-1.1,2.839,2.839,0,0,0,0,5.621,2.765,2.765,0,0,0,2.2-1.1Z" transform="translate(-198.803 -156.601)"/><path class="cls-7" d="M928.573,169.543a4,4,0,0,1-3.06,1.241,3.22,3.22,0,0,1-3.362-3.2,3.06,3.06,0,0,1,3.362-3.081,3.9,3.9,0,0,1,3.06,1.181v-1.341c0-.98-.841-1.62-2.121-1.62a4.065,4.065,0,0,0-2.82,1.14l-.96-1.7a6.338,6.338,0,0,1,4.221-1.521c2.2,0,4.22.88,4.22,3.661v6.241h-2.54Zm0-2.521a2.541,2.541,0,0,0-2.041-.839c-1,0-1.82.52-1.82,1.46,0,.9.82,1.42,1.82,1.42a2.541,2.541,0,0,0,2.041-.84Z" transform="translate(-198.803 -156.601)"/><path class="cls-7" d="M934.132,168.143V163.1h-1.6v-2.221h1.6v-2.64h2.56v2.64h1.96V163.1h-1.96v4.361c0,.6.321,1.06.88,1.06a1.388,1.388,0,0,0,.88-.28l.541,1.921a3.144,3.144,0,0,1-2.121.62A2.415,2.415,0,0,1,934.132,168.143Z" transform="translate(-198.803 -156.601)"/><path class="cls-7" d="M944.772,160.641c2.881,0,4.841,2.161,4.841,5.321v.56h-7.181a2.6,2.6,0,0,0,2.78,2.241,3.953,3.953,0,0,0,2.581-.96l1.12,1.64a6.022,6.022,0,0,1-3.98,1.341,5.072,5.072,0,1,1-.161-10.143Zm-2.38,4.161h4.76a2.236,2.236,0,0,0-2.38-2.14A2.321,2.321,0,0,0,942.392,164.8Z" transform="translate(-198.803 -156.601)"/><polyline class="cls-8" points="43.799 31.189 43.799 136.443 711.197 136.443 711.197 31.189"/><line class="cls-8" x1="330.197" y1="31.189" x2="330.197" y2="136.443"/><line class="cls-8" x1="44.02" y1="136.443" x2="44.02" y2="146.318"/><line class="cls-8" x1="91.673" y1="136.443" x2="91.673" y2="146.318"/><line class="cls-8" x1="139.292" y1="136.443" x2="139.292" y2="146.318"/><line class="cls-8" x1="186.911" y1="136.443" x2="186.911" y2="146.318"/><line class="cls-8" x1="234.53" y1="136.443" x2="234.53" y2="146.318"/><line class="cls-8" x1="282.149" y1="136.443" x2="282.149" y2="146.318"/><line class="cls-8" x1="330.197" y1="136.443" x2="330.197" y2="146.318"/><line class="cls-8" x1="377.816" y1="136.443" x2="377.816" y2="146.318"/><line class="cls-8" x1="425.435" y1="136.443" x2="425.435" y2="146.318"/><line class="cls-8" x1="473.054" y1="136.443" x2="473.054" y2="146.318"/><line class="cls-8" x1="520.673" y1="136.443" x2="520.673" y2="146.318"/><line class="cls-8" x1="568.292" y1="136.443" x2="568.292" y2="146.318"/><line class="cls-8" x1="615.911" y1="136.443" x2="615.911" y2="146.318"/><line class="cls-8" x1="663.53" y1="136.443" x2="663.53" y2="146.318"/><line class="cls-8" x1="711.149" y1="136.443" x2="711.149" y2="146.318"/><path class="cls-7" d="M640.543,235.7h9.442v2.441h-6.6v2.9h6.461v2.44h-6.461v3.1h6.6v2.46h-9.442Z" transform="translate(-198.803 -156.601)"/><path class="cls-7" d="M655.924,245.783l-2.221,3.261h-2.82l3.421-4.961-3.221-4.7h2.84l2,2.98,1.98-2.98h2.841l-3.241,4.7,3.461,4.961h-2.841Z" transform="translate(-198.803 -156.601)"/><path class="cls-7" d="M668.024,248.044a4,4,0,0,1-3.06,1.24,3.218,3.218,0,0,1-3.361-3.2A3.06,3.06,0,0,1,664.964,243a3.9,3.9,0,0,1,3.06,1.181v-1.341c0-.981-.84-1.62-2.121-1.62a4.068,4.068,0,0,0-2.82,1.139l-.96-1.7a6.337,6.337,0,0,1,4.221-1.52c2.2,0,4.22.88,4.22,3.661v6.241h-2.54Zm0-2.521a2.541,2.541,0,0,0-2.041-.839c-1,0-1.82.519-1.82,1.46,0,.9.82,1.419,1.82,1.419a2.541,2.541,0,0,0,2.041-.839Z" transform="translate(-198.803 -156.601)"/><path class="cls-7" d="M685.065,242.943c0-.9-.4-1.541-1.44-1.541a2.566,2.566,0,0,0-2,1.12v6.522h-2.561v-6.1c0-.9-.4-1.541-1.44-1.541a2.594,2.594,0,0,0-2,1.141v6.5h-2.54v-9.662h2.54v1.261a4.225,4.225,0,0,1,3.161-1.5,2.558,2.558,0,0,1,2.681,1.76,4.1,4.1,0,0,1,3.32-1.76,2.579,2.579,0,0,1,2.841,2.92v6.982h-2.561Z" transform="translate(-198.803 -156.601)"/><path class="cls-7" d="M699.744,239.142a4.49,4.49,0,0,1,3.82,1.741l-1.66,1.559a2.345,2.345,0,0,0-2.04-1.04,2.817,2.817,0,0,0,0,5.621,2.435,2.435,0,0,0,2.04-1.04l1.66,1.54a4.447,4.447,0,0,1-3.82,1.761,5.071,5.071,0,1,1,0-10.142Z" transform="translate(-198.803 -156.601)"/><path class="cls-7" d="M709.6,239.142c2.88,0,4.84,2.161,4.84,5.321v.56h-7.181a2.6,2.6,0,0,0,2.78,2.241,3.958,3.958,0,0,0,2.581-.96l1.12,1.64a6.021,6.021,0,0,1-3.98,1.34,5.072,5.072,0,1,1-.16-10.142Zm-2.381,4.161h4.76a2.237,2.237,0,0,0-2.379-2.141A2.323,2.323,0,0,0,707.223,243.3Z" transform="translate(-198.803 -156.601)"/><path class="cls-7" d="M716.282,239.382h2.541v1.32a4.132,4.132,0,0,1,3.08-1.54v2.481a3.2,3.2,0,0,0-.7-.081,3.237,3.237,0,0,0-2.38,1.1v6.381h-2.541Z" transform="translate(-198.803 -156.601)"/><path class="cls-7" d="M723.982,246.644V241.6h-1.6v-2.221h1.6v-2.641h2.561v2.641h1.96V241.6h-1.96v4.361c0,.6.32,1.059.88,1.059a1.388,1.388,0,0,0,.88-.279l.541,1.92a3.141,3.141,0,0,1-2.121.62A2.415,2.415,0,0,1,723.982,246.644Z" transform="translate(-198.803 -156.601)"/><path class="cls-7" d="M729.981,236.621a1.521,1.521,0,1,1,1.521,1.521A1.532,1.532,0,0,1,729.981,236.621Zm.261,2.761h2.54v9.662h-2.54Z" transform="translate(-198.803 -156.601)"/><path class="cls-7" d="M735.862,241.6h-1.6v-2.221h1.6v-.52a3.115,3.115,0,0,1,3.261-3.361,4.107,4.107,0,0,1,1.84.4l-.52,1.841a1.424,1.424,0,0,0-.82-.24c-.721,0-1.2.479-1.2,1.36v.52h1.96V241.6h-1.96v7.441h-2.561Zm5.721-4.982a1.521,1.521,0,1,1,1.521,1.521A1.532,1.532,0,0,1,741.583,236.621Zm.261,2.761h2.54v9.662h-2.54Z" transform="translate(-198.803 -156.601)"/><path class="cls-7" d="M751.4,239.142a4.5,4.5,0,0,1,3.822,1.741l-1.661,1.559a2.347,2.347,0,0,0-2.041-1.04,2.817,2.817,0,0,0,0,5.621,2.437,2.437,0,0,0,2.041-1.04l1.661,1.54a4.454,4.454,0,0,1-3.822,1.761,5.071,5.071,0,1,1,0-10.142Z" transform="translate(-198.803 -156.601)"/><path class="cls-7" d="M762.683,248.044a4,4,0,0,1-3.061,1.24,3.218,3.218,0,0,1-3.36-3.2,3.059,3.059,0,0,1,3.36-3.081,3.9,3.9,0,0,1,3.061,1.181v-1.341c0-.981-.84-1.62-2.121-1.62a4.068,4.068,0,0,0-2.82,1.139l-.961-1.7a6.342,6.342,0,0,1,4.222-1.52c2.2,0,4.221.88,4.221,3.661v6.241h-2.541Zm0-2.521a2.54,2.54,0,0,0-2.04-.839c-1,0-1.821.519-1.821,1.46,0,.9.821,1.419,1.821,1.419a2.54,2.54,0,0,0,2.04-.839Z" transform="translate(-198.803 -156.601)"/><path class="cls-7" d="M768.241,246.644V241.6h-1.6v-2.221h1.6v-2.641H770.8v2.641h1.961V241.6H770.8v4.361c0,.6.32,1.059.881,1.059a1.385,1.385,0,0,0,.879-.279l.541,1.92a3.139,3.139,0,0,1-2.121.62A2.415,2.415,0,0,1,768.241,246.644Z" transform="translate(-198.803 -156.601)"/><path class="cls-7" d="M774.241,236.621a1.521,1.521,0,1,1,1.521,1.521A1.532,1.532,0,0,1,774.241,236.621Zm.26,2.761h2.541v9.662H774.5Z" transform="translate(-198.803 -156.601)"/><path class="cls-7" d="M778.941,244.2a5.111,5.111,0,1,1,5.1,5.081A4.894,4.894,0,0,1,778.941,244.2Zm7.581,0a2.492,2.492,0,1,0-2.48,2.82A2.55,2.55,0,0,0,786.522,244.2Z" transform="translate(-198.803 -156.601)"/><path class="cls-7" d="M797.562,243.2a1.568,1.568,0,0,0-1.78-1.8,2.752,2.752,0,0,0-2.2,1.141v6.5h-2.54v-9.662h2.54v1.261a4.423,4.423,0,0,1,3.381-1.5,2.811,2.811,0,0,1,3.141,3.081v6.821h-2.541Z" transform="translate(-198.803 -156.601)"/><path class="cls-7" d="M647.9,263.142a4.494,4.494,0,0,1,3.821,1.741l-1.661,1.559a2.345,2.345,0,0,0-2.04-1.04,2.817,2.817,0,0,0,0,5.621,2.435,2.435,0,0,0,2.04-1.04l1.661,1.54a4.451,4.451,0,0,1-3.821,1.761,5.071,5.071,0,1,1,0-10.142Z" transform="translate(-198.803 -156.601)"/><path class="cls-7" d="M659.925,267.163c0-1.341-.7-1.761-1.8-1.761a2.813,2.813,0,0,0-2.2,1.141v6.5h-2.541V259.7h2.541v4.942a4.467,4.467,0,0,1,3.4-1.5c2.12,0,3.141,1.161,3.141,3.041v6.861h-2.54Z" transform="translate(-198.803 -156.601)"/><path class="cls-7" d="M664.362,268.2a5.112,5.112,0,1,1,5.1,5.081A4.894,4.894,0,0,1,664.362,268.2Zm7.582,0a2.492,2.492,0,1,0-2.48,2.82A2.551,2.551,0,0,0,671.944,268.2Z" transform="translate(-198.803 -156.601)"/><path class="cls-7" d="M675.843,268.2a5.111,5.111,0,1,1,5.1,5.081A4.893,4.893,0,0,1,675.843,268.2Zm7.581,0a2.492,2.492,0,1,0-2.481,2.82A2.551,2.551,0,0,0,683.424,268.2Z" transform="translate(-198.803 -156.601)"/><path class="cls-7" d="M688.2,270a5.532,5.532,0,0,0,3.341,1.32c1.1,0,1.62-.381,1.62-.98,0-.681-.84-.92-1.94-1.141-1.661-.319-3.8-.72-3.8-3.02,0-1.621,1.421-3.041,3.961-3.041a6.176,6.176,0,0,1,3.9,1.32l-1.02,1.741a4.078,4.078,0,0,0-2.861-1.121c-.921,0-1.52.341-1.52.9,0,.6.76.821,1.84,1.04,1.661.321,3.881.761,3.881,3.162,0,1.76-1.5,3.1-4.181,3.1a6.5,6.5,0,0,1-4.321-1.5Z" transform="translate(-198.803 -156.601)"/><path class="cls-7" d="M701.863,263.142c2.881,0,4.841,2.161,4.841,5.321v.56h-7.182a2.605,2.605,0,0,0,2.781,2.241,3.958,3.958,0,0,0,2.581-.96l1.12,1.64a6.024,6.024,0,0,1-3.981,1.34,5.072,5.072,0,1,1-.16-10.142Zm-2.381,4.161h4.761a2.237,2.237,0,0,0-2.38-2.141A2.324,2.324,0,0,0,699.482,267.3Z" transform="translate(-198.803 -156.601)"/><path class="cls-7" d="M714.5,274.7a1.284,1.284,0,0,0,1.341-.7l.359-.82-3.921-9.8H715l2.52,6.722,2.521-6.722h2.741l-4.541,11.243a3.512,3.512,0,0,1-3.661,2.34,6.943,6.943,0,0,1-1.26-.14l.38-2.28A2.194,2.194,0,0,0,714.5,274.7Z" transform="translate(-198.803 -156.601)"/><path class="cls-7" d="M723.3,268.2a5.111,5.111,0,1,1,5.1,5.081A4.893,4.893,0,0,1,723.3,268.2Zm7.581,0a2.492,2.492,0,1,0-2.481,2.82A2.551,2.551,0,0,0,730.883,268.2Z" transform="translate(-198.803 -156.601)"/><path class="cls-7" d="M741.923,271.824a4.522,4.522,0,0,1-3.4,1.46,2.767,2.767,0,0,1-3.12-3.041v-6.861h2.54v5.861a1.553,1.553,0,0,0,1.781,1.78,2.849,2.849,0,0,0,2.2-1.1v-6.542h2.54v9.662h-2.54Z" transform="translate(-198.803 -156.601)"/><path class="cls-7" d="M746.981,263.382h2.54v1.32a4.137,4.137,0,0,1,3.082-1.54v2.481a3.115,3.115,0,0,0-3.082,1.02v6.381h-2.54Z" transform="translate(-198.803 -156.601)"/><path class="cls-7" d="M765.942,271.8a3.749,3.749,0,0,1-2.98,1.48c-2.441,0-4.281-1.84-4.281-5.06,0-3.162,1.82-5.082,4.281-5.082a3.72,3.72,0,0,1,2.98,1.48V259.7H768.5v13.343h-2.561Zm0-5.3a2.76,2.76,0,0,0-2.2-1.1,2.839,2.839,0,0,0,0,5.621,2.764,2.764,0,0,0,2.2-1.1Z" transform="translate(-198.803 -156.601)"/><path class="cls-7" d="M776.822,272.044a4,4,0,0,1-3.06,1.24,3.219,3.219,0,0,1-3.362-3.2A3.06,3.06,0,0,1,773.762,267a3.9,3.9,0,0,1,3.06,1.181v-1.341c0-.981-.841-1.62-2.121-1.62a4.068,4.068,0,0,0-2.82,1.139l-.96-1.7a6.337,6.337,0,0,1,4.221-1.52c2.2,0,4.22.88,4.22,3.661v6.241h-2.54Zm0-2.521a2.541,2.541,0,0,0-2.041-.839c-1,0-1.82.519-1.82,1.46,0,.9.82,1.419,1.82,1.419a2.541,2.541,0,0,0,2.041-.839Z" transform="translate(-198.803 -156.601)"/><path class="cls-7" d="M782.381,270.644V265.6h-1.6v-2.221h1.6v-2.641h2.56v2.641h1.96V265.6h-1.96v4.361c0,.6.321,1.059.88,1.059a1.386,1.386,0,0,0,.88-.279l.541,1.92a3.139,3.139,0,0,1-2.121.62A2.414,2.414,0,0,1,782.381,270.644Z" transform="translate(-198.803 -156.601)"/><path class="cls-7" d="M793.021,263.142c2.881,0,4.842,2.161,4.842,5.321v.56h-7.181a2.6,2.6,0,0,0,2.78,2.241,3.956,3.956,0,0,0,2.58-.96l1.121,1.64a6.024,6.024,0,0,1-3.981,1.34,5.072,5.072,0,1,1-.161-10.142Zm-2.379,4.161h4.76a2.238,2.238,0,0,0-2.381-2.141A2.321,2.321,0,0,0,790.642,267.3Z" transform="translate(-198.803 -156.601)"/><line class="cls-9" x1="625.111" y1="98.899" x2="684.361" y2="98.899"/><line class="cls-4" x1="625.111" y1="98.899" x2="663.179" y2="98.899"/><polygon class="cls-3" points="684.361 98.899 654.513 111.096 661.595 98.899 654.513 86.706 684.361 98.899"/><line class="cls-9" x1="416.111" y1="99.749" x2="356.861" y2="99.749"/><line class="cls-4" x1="416.111" y1="99.749" x2="378.042" y2="99.749"/><polygon class="cls-3" points="356.861 99.749 386.708 87.553 379.626 99.749 386.708 111.942 356.861 99.749"/><path class="cls-9" d="M326.724,236.907h9.924v2.566h-6.939v3.048H336.5v2.566h-6.792v3.259h6.939v2.586h-9.924Z" transform="translate(-198.803 -156.601)"/><path class="cls-9" d="M339.425,248.409v-5.3h-1.683v-2.334h1.683V238h2.691v2.775h2.061v2.334h-2.061v4.583c0,.631.336,1.116.925,1.116a1.46,1.46,0,0,0,.925-.295l.568,2.018a3.294,3.294,0,0,1-2.229.653C340.434,251.185,339.425,250.217,339.425,248.409Z" transform="translate(-198.803 -156.601)"/><path class="cls-9" d="M352.861,244.75c0-1.409-.736-1.851-1.892-1.851a2.954,2.954,0,0,0-2.313,1.2v6.833h-2.671V236.907h2.671V242.1a4.7,4.7,0,0,1,3.574-1.578c2.229,0,3.3,1.22,3.3,3.2v7.212h-2.67Z" transform="translate(-198.803 -156.601)"/><path class="cls-9" d="M362.765,240.523c3.028,0,5.089,2.272,5.089,5.594v.588h-7.549a2.737,2.737,0,0,0,2.923,2.356,4.152,4.152,0,0,0,2.712-1.01l1.178,1.724a6.335,6.335,0,0,1-4.185,1.41,5.332,5.332,0,1,1-.168-10.662Zm-2.5,4.374h5a2.353,2.353,0,0,0-2.5-2.25A2.441,2.441,0,0,0,360.263,244.9Z" transform="translate(-198.803 -156.601)"/><path class="cls-9" d="M369.768,240.776h2.67v1.388a4.346,4.346,0,0,1,3.238-1.619v2.607a3.28,3.28,0,0,0-3.238,1.073v6.707h-2.67Z" transform="translate(-198.803 -156.601)"/><path class="cls-9" d="M381.921,240.523c3.028,0,5.088,2.272,5.088,5.594v.588H379.46a2.738,2.738,0,0,0,2.923,2.356,4.153,4.153,0,0,0,2.713-1.01l1.177,1.724a6.331,6.331,0,0,1-4.184,1.41,5.332,5.332,0,1,1-.168-10.662Zm-2.5,4.374h5a2.353,2.353,0,0,0-2.5-2.25A2.442,2.442,0,0,0,379.418,244.9Z" transform="translate(-198.803 -156.601)"/><path class="cls-9" d="M395.778,249.649a4.749,4.749,0,0,1-3.574,1.536c-2.229,0-3.281-1.22-3.281-3.2v-7.212h2.671v6.161a1.633,1.633,0,0,0,1.871,1.872,2.991,2.991,0,0,0,2.313-1.158v-6.875h2.67v10.156h-2.67Z" transform="translate(-198.803 -156.601)"/><path class="cls-9" d="M413.673,244.519c0-.947-.421-1.62-1.515-1.62a2.7,2.7,0,0,0-2.1,1.178v6.855h-2.692v-6.413c0-.947-.42-1.62-1.513-1.62a2.722,2.722,0,0,0-2.1,1.2v6.833h-2.67V240.776h2.67V242.1a4.442,4.442,0,0,1,3.322-1.578,2.688,2.688,0,0,1,2.818,1.851,4.31,4.31,0,0,1,3.49-1.851c1.872,0,2.986.989,2.986,3.071v7.338h-2.691Z" transform="translate(-198.803 -156.601)"/><path class="cls-9" d="M436.551,248.893l1.03,1.2-2.081,1.7-1.115-1.324a7.877,7.877,0,0,1-3.343.715,7.255,7.255,0,1,1,7.338-7.255A7.381,7.381,0,0,1,436.551,248.893Zm-4.037-.611-1.6-1.871L433,244.729l1.6,1.872a5.023,5.023,0,0,0,.715-2.671c0-2.628-1.683-4.605-4.269-4.605S426.8,241.3,426.8,243.93c0,2.607,1.661,4.6,4.247,4.6A4.148,4.148,0,0,0,432.514,248.282Z" transform="translate(-198.803 -156.601)"/><path class="cls-9" d="M449.4,248.514h-6.265l-.884,2.418h-3.28l5.425-14.025h3.743l5.4,14.025h-3.259Zm-5.466-2.586h4.646l-2.312-6.435Z" transform="translate(-198.803 -156.601)"/><path class="cls-9" d="M326.724,258.893h9.924v2.565h-6.939v3.049H336.5v2.565h-6.792v3.259h6.939v2.586h-9.924Z" transform="translate(-198.803 -156.601)"/><path class="cls-9" d="M346.552,266.777a1.648,1.648,0,0,0-1.871-1.892,2.893,2.893,0,0,0-2.313,1.2v6.833H339.7V262.762h2.67v1.324a4.651,4.651,0,0,1,3.553-1.577,2.955,2.955,0,0,1,3.3,3.238v7.17h-2.671Z" transform="translate(-198.803 -156.601)"/><path class="cls-9" d="M353.639,273.59a4.036,4.036,0,0,0,3.175,1.262,2.483,2.483,0,0,0,2.8-2.566v-1.03a3.954,3.954,0,0,1-3.133,1.6c-2.544,0-4.479-1.787-4.479-5.172,0-3.323,1.914-5.173,4.479-5.173a3.913,3.913,0,0,1,3.133,1.556v-1.3H362.3v9.462c0,3.868-2.986,4.814-5.488,4.814a6.153,6.153,0,0,1-4.374-1.514Zm5.972-7.548a2.9,2.9,0,0,0-2.292-1.157,2.807,2.807,0,0,0,0,5.594,2.956,2.956,0,0,0,2.292-1.158Z" transform="translate(-198.803 -156.601)"/><path class="cls-9" d="M365.457,259.859a1.6,1.6,0,1,1,1.6,1.6A1.611,1.611,0,0,1,365.457,259.859Zm.273,2.9H368.4v10.155H365.73Z" transform="translate(-198.803 -156.601)"/><path class="cls-9" d="M378.683,266.777a1.648,1.648,0,0,0-1.871-1.892,2.89,2.89,0,0,0-2.313,1.2v6.833h-2.671V262.762H374.5v1.324a4.648,4.648,0,0,1,3.553-1.577,2.954,2.954,0,0,1,3.3,3.238v7.17h-2.67Z" transform="translate(-198.803 -156.601)"/><path class="cls-9" d="M389.386,262.509c3.028,0,5.089,2.271,5.089,5.594v.587h-7.549a2.737,2.737,0,0,0,2.923,2.356,4.152,4.152,0,0,0,2.712-1.01l1.178,1.725a6.335,6.335,0,0,1-4.185,1.409,5.331,5.331,0,1,1-.168-10.661Zm-2.5,4.374h5a2.352,2.352,0,0,0-2.5-2.25A2.44,2.44,0,0,0,386.884,266.883Z" transform="translate(-198.803 -156.601)"/><path class="cls-9" d="M401.792,262.509c3.028,0,5.089,2.271,5.089,5.594v.587h-7.549a2.737,2.737,0,0,0,2.923,2.356,4.152,4.152,0,0,0,2.712-1.01l1.178,1.725a6.331,6.331,0,0,1-4.185,1.409,5.331,5.331,0,1,1-.168-10.661Zm-2.5,4.374h5a2.351,2.351,0,0,0-2.5-2.25A2.441,2.441,0,0,0,399.29,266.883Z" transform="translate(-198.803 -156.601)"/><path class="cls-9" d="M409.594,262.762h2.671v1.387a4.343,4.343,0,0,1,3.238-1.619v2.608a3.282,3.282,0,0,0-3.238,1.072v6.707h-2.671Z" transform="translate(-198.803 -156.601)"/><path class="cls-9" d="M423.493,265.915a7.1,7.1,0,0,1,7.36-7.254,6.471,6.471,0,0,1,5.971,3.428l-2.565,1.262a3.841,3.841,0,0,0-3.406-2.04,4.617,4.617,0,0,0,0,9.21,3.8,3.8,0,0,0,3.406-2.041l2.565,1.242a6.51,6.51,0,0,1-5.971,3.448A7.1,7.1,0,0,1,423.493,265.915Z" transform="translate(-198.803 -156.601)"/><path class="cls-9" d="M438.676,267.829a5.372,5.372,0,1,1,5.361,5.341A5.143,5.143,0,0,1,438.676,267.829Zm7.969,0a2.62,2.62,0,1,0-2.608,2.965A2.681,2.681,0,0,0,446.645,267.829Z" transform="translate(-198.803 -156.601)"/><path class="cls-9" d="M459.03,271.635a4.755,4.755,0,0,1-3.575,1.535c-2.228,0-3.28-1.22-3.28-3.2v-7.212h2.671v6.16a1.633,1.633,0,0,0,1.871,1.872,2.99,2.99,0,0,0,2.313-1.157v-6.875h2.67v10.155h-2.67Z" transform="translate(-198.803 -156.601)"/><path class="cls-9" d="M465.128,262.762H467.8v1.387a4.344,4.344,0,0,1,3.238-1.619v2.608a3.282,3.282,0,0,0-3.238,1.072v6.707h-2.671Z" transform="translate(-198.803 -156.601)"/><path class="cls-9" d="M473.749,269.722a5.818,5.818,0,0,0,3.512,1.387c1.156,0,1.7-.4,1.7-1.03,0-.716-.883-.968-2.039-1.2-1.745-.336-4-.757-4-3.175,0-1.7,1.492-3.2,4.163-3.2a6.489,6.489,0,0,1,4.1,1.387l-1.072,1.831a4.278,4.278,0,0,0-3.007-1.178c-.967,0-1.6.357-1.6.946,0,.631.8.862,1.934,1.093,1.745.337,4.079.8,4.079,3.322,0,1.851-1.577,3.26-4.394,3.26a6.836,6.836,0,0,1-4.542-1.577Z" transform="translate(-198.803 -156.601)"/><path class="cls-9" d="M488.89,262.509c3.027,0,5.088,2.271,5.088,5.594v.587H486.43a2.736,2.736,0,0,0,2.922,2.356,4.15,4.15,0,0,0,2.712-1.01l1.178,1.725a6.332,6.332,0,0,1-4.184,1.409,5.331,5.331,0,1,1-.168-10.661Zm-2.5,4.374h5a2.353,2.353,0,0,0-2.5-2.25A2.44,2.44,0,0,0,486.388,266.883Z" transform="translate(-198.803 -156.601)"/><g class="cls-10"><g class="cls-11"><rect class="cls-9" x="87.107" y="84.219" width="9.86" height="10.917"/></g></g><g class="cls-12"><g class="cls-11"><rect class="cls-9" x="87.053" y="91.083" width="9.862" height="7.794"/></g></g><path class="cls-9" d="M286.285,252.383a.439.439,0,0,1-.313-.13l-3.418-3.417a.442.442,0,0,1,0-.626l3.142-3.142a.442.442,0,1,1,.625.626l-2.828,2.829,3.105,3.1a.443.443,0,0,1-.313.755Z" transform="translate(-198.803 -156.601)"/><path class="cls-9" d="M295.341,244.938a.441.441,0,0,1,.313.13l3.418,3.418a.442.442,0,0,1,0,.626l-3.141,3.141a.442.442,0,0,1-.626-.625l2.829-2.829-3.105-3.105a.443.443,0,0,1,.312-.756Z" transform="translate(-198.803 -156.601)"/><path class="cls-9" d="M311.387,277.877h0l-9.589-16.87h0c-.051-.089-.366-.017-.84.171l-.987-1.737,5.2-3V239.86l-14.356-8.289-14.356,8.289v16.577l14.356,8.288,5.07-2.927.971,1.71c-.4.311-.626.545-.576.635h0l9.589,16.871h0c.191.335,1.58-.1,3.1-.961S311.577,278.213,311.387,277.877ZM278.607,255.2V241.1l12.206-7.047,12.206,7.047v14.1l-12.206,7.047Z" transform="translate(-198.803 -156.601)"/></svg>