<svg xmlns="http://www.w3.org/2000/svg" viewBox="0 0 750 422"><defs><style>.cls-1{fill:#de7150;}.cls-2{fill:#fff;}</style></defs><title>qse-hero-logo</title><g id="Layer_1" data-name="Layer 1"><rect class="cls-1" width="750" height="422"/></g><g id="Layer_3" data-name="Layer 3"><path class="cls-2" d="M298.926,259.424H249.873a4.716,4.716,0,0,1-4.717-4.716v-82.7h-42.45v33.645h27.671a4.717,4.717,0,1,1,0,9.433H197.989a4.715,4.715,0,0,1-4.716-4.716V167.292a4.715,4.715,0,0,1,4.716-4.716h51.884a4.715,4.715,0,0,1,4.716,4.716v82.7H294.21V217.6H265.6a4.717,4.717,0,0,1,0-9.433h33.331a4.716,4.716,0,0,1,4.717,4.717v41.82A4.716,4.716,0,0,1,298.926,259.424Z"/><path class="cls-2" d="M346.928,173.791l1.738,2.022-3.512,2.873-1.881-2.234a13.281,13.281,0,0,1-5.64,1.206c-7.131,0-12.346-5.109-12.346-12.24s5.215-12.239,12.346-12.239c7.166,0,12.381,5.109,12.381,12.239A12.455,12.455,0,0,1,346.928,173.791Zm-6.812-1.029-2.7-3.158,3.512-2.838,2.7,3.157a8.447,8.447,0,0,0,1.206-4.5c0-4.434-2.838-7.769-7.2-7.769s-7.167,3.335-7.167,7.769c0,4.4,2.8,7.77,7.167,7.77A7.035,7.035,0,0,0,340.116,172.762Z"/><path class="cls-2" d="M365.016,175.068a8.022,8.022,0,0,1-6.031,2.59c-3.761,0-5.535-2.058-5.535-5.393V160.1h4.506v10.395c0,2.377,1.242,3.157,3.157,3.157a5.046,5.046,0,0,0,3.9-1.951V160.1h4.5v17.135h-4.5Z"/><path class="cls-2" d="M372.887,168.647a9.065,9.065,0,1,1,9.048,9.011A8.68,8.68,0,0,1,372.887,168.647Zm13.447,0c0-2.661-1.6-4.967-4.4-4.967s-4.364,2.306-4.364,4.967c0,2.7,1.561,5,4.364,5S386.334,171.343,386.334,168.647Z"/><path class="cls-2" d="M394.348,160.1h4.5v2.341a7.333,7.333,0,0,1,5.463-2.731v4.4a5.525,5.525,0,0,0-5.463,1.809v11.317h-4.5Z"/><path class="cls-2" d="M418.683,175.068a8.024,8.024,0,0,1-6.032,2.59c-3.76,0-5.534-2.058-5.534-5.393V160.1h4.5v10.395c0,2.377,1.242,3.157,3.158,3.157a5.047,5.047,0,0,0,3.9-1.951V160.1h4.5v17.135h-4.5Z"/><path class="cls-2" d="M448.9,166.412c0-1.6-.709-2.732-2.553-2.732a4.549,4.549,0,0,0-3.548,1.987v11.565h-4.541v-10.82c0-1.6-.71-2.732-2.555-2.732a4.6,4.6,0,0,0-3.548,2.022v11.53h-4.5V160.1h4.5v2.235a7.5,7.5,0,0,1,5.606-2.661c2.518,0,4.115,1.17,4.754,3.121a7.272,7.272,0,0,1,5.889-3.121c3.157,0,5.037,1.667,5.037,5.179v12.382H448.9Z"/><path class="cls-2" d="M458.975,161.374h-.994v-6.882h-2.2v-.923h5.392v.923h-2.2Zm10.075-6.457-2.66,6.457h-.285l-2.661-6.457v6.457h-.993v-7.805h1.526l2.27,5.677,2.271-5.677h1.525v7.805h-.993Z"/><path class="cls-2" d="M327.557,212.631a10.376,10.376,0,0,0,7.521,3.192c2.768,0,4.116-1.312,4.116-2.66,0-1.775-2.058-2.377-4.79-3.016-3.867-.887-8.833-1.951-8.833-7.237,0-3.939,3.406-7.131,8.975-7.131a13.161,13.161,0,0,1,9.224,3.3l-2.8,3.69a10.091,10.091,0,0,0-6.776-2.59c-2.27,0-3.476.993-3.476,2.412,0,1.6,1.986,2.093,4.718,2.732,3.9.886,8.869,2.057,8.869,7.309,0,4.328-3.086,7.592-9.472,7.592-4.541,0-7.805-1.526-10-3.761Z"/><path class="cls-2" d="M347.6,226.324V202.662H352.1v2.164a6.619,6.619,0,0,1,5.286-2.59c4.4,0,7.592,3.264,7.592,8.975s-3.193,9.012-7.592,9.012A6.549,6.549,0,0,1,352.1,217.6v8.726Zm8.373-20.079A5.045,5.045,0,0,0,352.1,208.2v6.067a5.16,5.16,0,0,0,3.867,1.951c2.59,0,4.328-2.023,4.328-5C360.3,208.266,358.56,206.245,355.97,206.245Z"/><path class="cls-2" d="M376.117,202.236c5.109,0,8.585,3.831,8.585,9.436v.994H371.966a4.618,4.618,0,0,0,4.931,3.974,7.014,7.014,0,0,0,4.578-1.7l1.986,2.909a10.686,10.686,0,0,1-7.06,2.377c-5.216,0-9.153-3.513-9.153-9.012A8.721,8.721,0,0,1,376.117,202.236Zm-4.222,7.379h8.444a3.969,3.969,0,0,0-4.222-3.8A4.118,4.118,0,0,0,371.9,209.615Z"/><path class="cls-2" d="M395.944,202.236a7.974,7.974,0,0,1,6.777,3.086l-2.945,2.767a4.155,4.155,0,0,0-3.619-1.844c-2.731,0-4.647,1.986-4.647,4.966s1.916,5,4.647,5a4.325,4.325,0,0,0,3.619-1.845l2.945,2.732a7.9,7.9,0,0,1-6.777,3.122,8.994,8.994,0,1,1,0-17.987Z"/><path class="cls-2" d="M405.2,197.765a2.7,2.7,0,1,1,2.7,2.7A2.718,2.718,0,0,1,405.2,197.765Zm.462,4.9h4.5V219.8h-4.5Z"/><path class="cls-2" d="M424.925,218.023a7.1,7.1,0,0,1-5.428,2.2,5.709,5.709,0,0,1-5.961-5.677c0-4.009,3.229-5.463,5.961-5.463a6.927,6.927,0,0,1,5.428,2.092V208.8c0-1.738-1.49-2.873-3.761-2.873a7.208,7.208,0,0,0-5,2.022l-1.7-3.015a11.233,11.233,0,0,1,7.485-2.7c3.9,0,7.487,1.56,7.487,6.492V219.8h-4.506Zm0-4.47a4.508,4.508,0,0,0-3.619-1.491c-1.774,0-3.229.923-3.229,2.59,0,1.6,1.455,2.52,3.229,2.52a4.508,4.508,0,0,0,3.619-1.49Z"/><path class="cls-2" d="M433.9,196.133h4.5V219.8h-4.5Z"/><path class="cls-2" d="M442.408,197.765a2.7,2.7,0,1,1,2.7,2.7A2.718,2.718,0,0,1,442.408,197.765Zm.462,4.9h4.5V219.8h-4.5Z"/><path class="cls-2" d="M452.305,214.4a9.8,9.8,0,0,0,5.924,2.342c1.952,0,2.874-.674,2.874-1.738,0-1.206-1.49-1.632-3.442-2.023-2.944-.567-6.74-1.277-6.74-5.358,0-2.873,2.518-5.391,7.024-5.391a10.947,10.947,0,0,1,6.918,2.341l-1.809,3.087a7.229,7.229,0,0,0-5.074-1.988c-1.631,0-2.7.6-2.7,1.6,0,1.064,1.349,1.455,3.265,1.845,2.944.567,6.882,1.348,6.882,5.606,0,3.122-2.66,5.5-7.414,5.5a11.535,11.535,0,0,1-7.663-2.661Z"/><path class="cls-2" d="M479.051,218.023a7.1,7.1,0,0,1-5.428,2.2,5.708,5.708,0,0,1-5.96-5.677c0-4.009,3.228-5.463,5.96-5.463a6.927,6.927,0,0,1,5.428,2.092V208.8c0-1.738-1.49-2.873-3.761-2.873a7.208,7.208,0,0,0-5,2.022l-1.7-3.015a11.233,11.233,0,0,1,7.485-2.7c3.9,0,7.486,1.56,7.486,6.492V219.8h-4.5Zm0-4.47a4.508,4.508,0,0,0-3.619-1.491c-1.774,0-3.228.923-3.228,2.59,0,1.6,1.454,2.52,3.228,2.52a4.508,4.508,0,0,0,3.619-1.49Z"/><path class="cls-2" d="M488.91,215.54V206.6h-2.838v-3.937h2.838v-4.684h4.541v4.684h3.477V206.6h-3.477v7.734c0,1.064.568,1.881,1.561,1.881a2.457,2.457,0,0,0,1.561-.5l.958,3.406a5.565,5.565,0,0,1-3.76,1.1C490.613,220.223,488.91,218.591,488.91,215.54Z"/><path class="cls-2" d="M499.551,197.765a2.7,2.7,0,1,1,2.7,2.7A2.718,2.718,0,0,1,499.551,197.765Zm.462,4.9h4.5V219.8h-4.5Z"/><path class="cls-2" d="M507.886,211.211a9.065,9.065,0,1,1,9.047,9.012A8.679,8.679,0,0,1,507.886,211.211Zm13.446,0c0-2.661-1.6-4.966-4.4-4.966s-4.364,2.305-4.364,4.966c0,2.7,1.561,5,4.364,5S521.332,213.908,521.332,211.211Z"/><path class="cls-2" d="M540.911,209.437c0-2.377-1.242-3.192-3.158-3.192a4.88,4.88,0,0,0-3.9,2.021V219.8h-4.5V202.662h4.5V204.9a7.845,7.845,0,0,1,6-2.66c3.76,0,5.569,2.128,5.569,5.463v12.1h-4.505Z"/><path class="cls-2" d="M325.287,250.548c0-7.274,5.5-12.239,12.417-12.239a10.917,10.917,0,0,1,10.075,5.782l-4.328,2.129a6.48,6.48,0,0,0-5.747-3.442c-4.116,0-7.238,3.3-7.238,7.77s3.122,7.769,7.238,7.769a6.414,6.414,0,0,0,5.747-3.441l4.328,2.093a10.984,10.984,0,0,1-10.075,5.818C330.786,262.787,325.287,257.82,325.287,250.548Z"/><path class="cls-2" d="M349.584,253.776a9.064,9.064,0,1,1,9.046,9.011A8.678,8.678,0,0,1,349.584,253.776Zm13.446,0c0-2.661-1.6-4.966-4.4-4.966s-4.363,2.305-4.363,4.966c0,2.7,1.561,5,4.363,5S363.03,256.473,363.03,253.776Z"/><path class="cls-2" d="M382.609,260.2a8.018,8.018,0,0,1-6.031,2.59c-3.761,0-5.535-2.058-5.535-5.392V245.227h4.5v10.394c0,2.377,1.243,3.157,3.159,3.157a5.045,5.045,0,0,0,3.9-1.951v-11.6h4.5v17.134h-4.5Z"/><path class="cls-2" d="M391.581,245.227h4.5v2.34a7.331,7.331,0,0,1,5.464-2.731v4.4a5.536,5.536,0,0,0-5.464,1.809v11.317h-4.5Z"/><path class="cls-2" d="M404.811,256.969a9.8,9.8,0,0,0,5.924,2.342c1.952,0,2.873-.674,2.873-1.739,0-1.206-1.489-1.632-3.441-2.022-2.944-.568-6.74-1.278-6.74-5.358,0-2.873,2.518-5.391,7.024-5.391a10.947,10.947,0,0,1,6.918,2.341l-1.809,3.087a7.229,7.229,0,0,0-5.074-1.988c-1.632,0-2.7.6-2.7,1.6,0,1.064,1.349,1.455,3.265,1.845,2.944.567,6.882,1.348,6.882,5.605,0,3.122-2.661,5.5-7.415,5.5a11.533,11.533,0,0,1-7.663-2.661Z"/><path class="cls-2" d="M429.039,244.8c5.108,0,8.585,3.831,8.585,9.436v.993H424.888a4.617,4.617,0,0,0,4.931,3.974,7.01,7.01,0,0,0,4.577-1.7l1.986,2.909a10.679,10.679,0,0,1-7.06,2.377c-5.215,0-9.153-3.513-9.153-9.011A8.721,8.721,0,0,1,429.039,244.8Zm-4.223,7.379h8.445a3.97,3.97,0,0,0-4.222-3.8A4.119,4.119,0,0,0,424.816,252.18Z"/></g></svg>